<?xml version="1.0" encoding="utf-8"?>
<!-- Generator: Adobe Illustrator 23.0.2, SVG Export Plug-In . SVG Version: 6.00 Build 0)  -->
<svg version="1.1" id="Layer_1" xmlns="http://www.w3.org/2000/svg" xmlns:xlink="http://www.w3.org/1999/xlink" x="0px" y="0px"
	 viewBox="0 0 3505.1 2290.2" style="enable-background:new 0 0 3505.1 2290.2;" xml:space="preserve">
<style type="text/css">
	.st0{fill:url(#SVGID_3_);}
	.st1{fill:url(#SVGID_4_);}
	.st2{fill:url(#SVGID_5_);}
	.st3{fill:url(#SVGID_6_);}
	.st4{fill:url(#SVGID_7_);}
	.st5{fill:url(#SVGID_8_);}
	.st6{fill:url(#SVGID_9_);}
	.st7{fill:#3C0082;}
</style>
<g>
	<defs>
		<rect id="SVGID_1_" x="1.1" y="1.2" width="3503.5" height="2275.6"/>
	</defs>
	<clipPath id="SVGID_2_">
		<use xlink:href="#SVGID_1_"  style="overflow:visible;"/>
	</clipPath>
	<g style="clip-path:url(#SVGID_2_);">
		
			<image style="overflow:visible;" width="4992" height="3648" xlink:href="../../../../Downloads/galaxy-milky-way-orbit-110854 (1).jpg"  transform="matrix(0.8619 0 0 0.8619 -419.5326 -739.3727)">
		</image>
	</g>
</g>
<linearGradient id="SVGID_3_" gradientUnits="userSpaceOnUse" x1="1752.8304" y1="1.1696" x2="1752.8304" y2="2290.188">
	<stop  offset="0" style="stop-color:#000000;stop-opacity:0"/>
	<stop  offset="9.706259e-03" style="stop-color:#040002;stop-opacity:3.882504e-03"/>
	<stop  offset="0.1195" style="stop-color:#2E0012;stop-opacity:4.779358e-02"/>
	<stop  offset="0.2356" style="stop-color:#510020;stop-opacity:9.423649e-02"/>
	<stop  offset="0.3572" style="stop-color:#6E002C;stop-opacity:0.1429"/>
	<stop  offset="0.4861" style="stop-color:#850035;stop-opacity:0.1944"/>
	<stop  offset="0.6257" style="stop-color:#95003B;stop-opacity:0.2503"/>
	<stop  offset="0.7838" style="stop-color:#9E003F;stop-opacity:0.3135"/>
	<stop  offset="1" style="stop-color:#A10040;stop-opacity:0.4"/>
</linearGradient>
<rect x="1.1" y="1.2" class="st0" width="3503.5" height="2289"/>
<linearGradient id="SVGID_4_" gradientUnits="userSpaceOnUse" x1="1752.8304" y1="723.6647" x2="1752.8304" y2="2290.188">
	<stop  offset="0" style="stop-color:#9B02E2"/>
	<stop  offset="1" style="stop-color:#000000"/>
</linearGradient>
<path class="st1" d="M3504.6,938.6v-88.9l-19.8,72l-27.6-57l-25.9,53.2l-36.7-75.8l-31.4,64.5l-31.2-64.5l-8.4,17.3l-28.4-58.7
	l-25,51.2l-24.8-51.2l-18.9,38.8l-10.4-7.2l-46.2-95.4l-26.4,54.1c-2-0.4-4-0.8-5.9-1.1l-19.3-39.8l-9.3,19.1l-22-45.5l-18.9,38.9
	l-12.4-25.6l-39.6,81.2l-8.4-17.3l-44.7,91.7l-18-37.1l-45.1,92.5l-0.7,0.6l-16.9-34.9l-42.2,86.7l-11.9,10.5l-28.8-59.5l-29,59.6
	l-15.2-31.4l-0.6,1.3l-28.9-59.6l-29,59.6l-13.4-27.6l-17.6,36.1l-19.3-39.8l-25.7,52.8l-1.9-4l-20.2,41.4l-11,12l-16.8-34.6
	l-44.2,90.7l-9.3-19.2l-14.8,30.3l-9.2-19l-42.3,86.9l-12.1-23l-13.9,28.5l-17.4-36l-27.3,56.1l-35.4-73l-29.1,59.6l-20.7-42.7
	l-23.4,48l-11.2-2.8l-41-84.7l-32.2,66.1l-13.7-3.5l-16.7-34.5l-13.1,27l-24-6.1l-34.7-71.5l-10.7,22l-26.2-53.9l-23.5,48.4
	l-26.3-54l-17.1,35.2l-23.5-48.4l-22.8,46.8l-43.6-89.9l-37,75.9l-40.5-83.5l-14.9,30.6l-40.4-83.3l-28.3,58.2L1679.3,893l-13,26.7
	l-23.9-49.2l-9.9,20.2l-38.1-78.5l-27.7,56.9l-27.6-56.9l-16.3,33.5l-37.2-76.7l-18.6,38.2l-32.2-64.5l-33.9,69.5
	c-7.1,1.1-14.1,2.7-21,5.1l-20.7-42.6l-33.1,68.1l-2.4,1.2l-27.2-56.1l-29.5,60.5l-16.6-34.2l-28.1,57.7l-10.6-22l-26.7,54.8
	l-13.8-28.6l-15.7,32.3l-15.6-32.3l-29,59.5l-9.7-20l-24.8,51l-24.7,12.2l-27.9-57.6l-21.2,43.5L985,928.5l-32.7,67.2l-18.9-39
	l-33.7,69.2l-29-59.8l-36,72.9l-5.3-2.8l-36.7-75.7l-17.6,36.1l-23-47.4l-17.4,35.7l-4.2-2.2l-19-39.2l-11.3,23.1
	c-2.3-1.1-4.6-2.2-6.9-3.4l-11.4-23.2l-7.3,15c-81.2-35-170.4-47.4-258.3-35.5l-102.4,13.8l-23.2-47.8l-26.5,54.5l-2.9,0.4
	L244.7,906l-14.3,29.4l-13.3-27.5L202,939l-23.5-9.5l-24.1-49.8l-5.2,10.8l-30-61.6l-25.4,52.1l-20.7-42.7l-12.5,25.7l-20.7-42.6
	l-9.8,20l-29-40.7v47.5v80.3v1.4v20v-0.2v1340.3h3503.5V977.1V938.6z"/>
<linearGradient id="SVGID_5_" gradientUnits="userSpaceOnUse" x1="1752.8304" y1="937.0609" x2="1752.8304" y2="2290.188">
	<stop  offset="0" style="stop-color:#53027C"/>
	<stop  offset="0.1714" style="stop-color:#500278"/>
	<stop  offset="0.353" style="stop-color:#48026B"/>
	<stop  offset="0.5394" style="stop-color:#390156"/>
	<stop  offset="0.7291" style="stop-color:#260138"/>
	<stop  offset="0.9196" style="stop-color:#0C0012"/>
	<stop  offset="1" style="stop-color:#000000"/>
</linearGradient>
<path class="st2" d="M2494.8,1237.6c-60.4,1.3-94,56-203.5,54.8c-96.2,28.3-122.1-5.7-210.9-22.7c-87.5-16.7-408.7-97.8-531.2-83.8
	c1.6-6.9,3.1-13.8,4.7-20.7c1.2-5.3,2.4-10.6,3.6-16c0.3-1.4,0.9-2.2,2.4-2.2c0.9,0,1.7-0.3,2.6-0.4c1.1-0.2,1.7-0.7,1.7-1.9
	c0-1.2,0-2.5,0-3.7c0-0.8,0.4-1,1.2-1c2.2,0.1,4.4,0,6.6,0.1c1.1,0,1.2-0.5,1.2-1.4c-0.1-2.9-0.2-5.8-0.3-8.7c0-0.8-0.1-1.6-0.2-2.3
	c-0.7-2.9-1.3-5.8-2-8.7c-1.7-6.9-3.3-13.8-5.1-20.7c-0.9-3.7-1.8-7.4-2.9-11.1c-0.7-2.4-1.1-2.6-3.6-2.6c-3.6,0-7.3,0-10.9,0
	c-0.5,0-1.2-0.2-1.3-0.6c-0.9-1.8-1.7-3.6-2.5-5.5c-0.5-1.3-0.1-1.8,1.3-1.8c0.9,0,1.4-0.3,1.6-1.2c0.1-0.4,0.6-0.7,1-0.8
	c0.9-0.3,1.8-0.3,2.7-0.6c6-2.4,8.7-8.2,6.5-14.2c-1.9-5.4-6.2-8.5-11.3-10.6c-5.4-2.2-11.1-2.7-16.8-2.5c-1.6,0.1-3.2,0.2-5,0.3
	c0-0.4,0-0.6,0.1-0.8c0.8-4,1.6-8,2.4-12c1.1-5.9,2.2-11.8,3.3-17.7c1.4-7.1,2.8-14.2,4.2-21.3c1.2-6,2.3-12,3.5-18
	c0.9-4.7,1.8-9.4,2.8-14.1c1.4-6.9,2.8-13.8,4.2-20.7c0.2-0.9,0.3-1.8,0.2-2.7c-0.1-1.8-1.1-2.8-2.8-2.8c-1.4,0-2.8,0.2-4.2,0.6
	c-2.5,0.8-4.9,2-7.4,2.6c-7.6,1.9-15.3,3.6-23,5.4c-12.6,3-25.1,5.9-37.7,8.9c-7,1.7-14.1,3.4-21.1,5c-10.4,2.5-20.8,4.9-31.2,7.4
	c-6.6,1.6-13.2,3.1-19.8,4.7c-0.5,0.1-1,0.1-1.4-0.1c-3.2-1.6-6.5-1.7-9.9-0.9c-4.5,1.1-8.3,3.5-10.8,7.4c-3.1,4.7-4.3,9.7-1.9,15.1
	c0.2,0.4,0.2,1,0.1,1.4c-0.8,3.1-1.6,6.1-2.4,9.2c-2.3,8.6-4.5,17.2-6.8,25.8c-1.4,5.2-2.8,10.5-4.2,15.7c-1.2,4.5-2.3,9.1-3.5,13.6
	c-2.4,9-4.8,17.9-7.2,26.9c-1.2,4.6-2.4,9.3-3.6,13.9c-1.7,6.5-3.4,13-5.2,19.5c-0.9,3.3-1.6,6.6-3.1,9.7c-1,2-1.6,4.4-1.9,6.7
	c-0.3,2.3,1,3.6,3.4,3.4c1.9-0.1,3.7-0.7,5.6-1c8.1-1.4,16.2-2.8,24.3-4.1c7.4-1.3,14.9-2.5,22.3-3.8c5.7-0.9,11.3-1.8,17-2.8
	c6.7-1.2,13.4-2.4,20-3.6c3-0.5,6-0.9,9-1.4c4.9-0.8,9.8-1.6,14.7-2.4c7.7-1.3,15.4-2.6,23-3.9c0.4-0.1,1,0.1,1.2,0.4
	c0.7,1.1,1.4,2.3,1.4,3.7c-0.1,3.6,0,7.2,0,10.8c0,9.7,0,19.3,0,29c0,1.2,0.4,1.5,1.5,1.4c2-0.1,4.1,0,6.1,0c1.4,0,2.7,0,4.1,0
	c0,0.1,0.1,0.2,0.1,0.3c-0.4,0.3-0.8,0.5-1.1,0.8c-1.5,1.2-3.3,2.3-4.6,3.7c-1.8,2-3.4,4.2-5,6.3c-5.1,6.5-10.2,13-15.3,19.5
	c-3.7,4.6-7.4,9.2-11,13.9c-0.8,1-1.6,2-2.4,3c-13.3,3.9-27,8.2-40.9,12.8c-2.6,0-4.5,0-4.9,0c0.4,0,1.9,0,4.9,0
	c-98.3,31.9-206.9,75.3-248,92c-11,4.5-21.4,10.1-31.2,16.8c-47.2,32.2-199.9,134.3-274.4,156.5c-88.8,26.5-854.7,30.3-854.7,30.3
	v772.8h3503.5v-1236C3504.6,1054.2,2572,1235.9,2494.8,1237.6z M1508.7,1189.9c-0.5,0-0.9,0-1.4,0c-0.7,0-1.1-0.1-1.1-1
	c0-0.8,0.4-0.9,1.1-0.9c3.6,0,7.2,0,10.8,0c0.5,0,1,0,1.6,0c0.1-1,0.1-1.9,0.2-3.1c1.7,0,3.4,0,5.1,0c0.2,0,0.6,0.7,0.6,1.1
	c0,1.2,0,2.4,0,3.7c-1.9,0.4-3.8,0.8-5.8,1.2c0-0.3,0-0.7,0-1c-2.3,0-4.5-0.1-6.6,0.1c-0.4,0-0.9,0.8-1,1.3
	c-0.2,0.5-0.3,0.9-0.5,1.4c-0.9,0.2-1.8,0.4-2.7,0.6c0.2-0.7,0.4-1.4,0.7-2C1510.1,1190,1510.1,1189.9,1508.7,1189.9z
	 M1521.8,1052.7c-2.5-1.2-5-2.4-7.6-3.7c1.2-2,2.4-4,3.8-6.3c1.5,3.5,2.8,6.6,4.1,9.8C1522,1052.5,1521.9,1052.6,1521.8,1052.7z
	 M1522,1053.5c-3.1,1.6-6,3.1-9,4.5c-0.2,0.1-0.6-0.2-1-0.4c-0.1,0,0-0.2-0.1-0.2c-1.6-2.2-0.7-4.2,0.7-6.1c1.4-1.9,1.3-1.9,3.4-0.8
	c1.4,0.7,2.9,1.4,4.3,2.1C1520.9,1052.7,1521.3,1053.1,1522,1053.5z M1517.4,1042.9c-1,1.7-2.1,3.4-3.1,5.2
	c-0.4,0.7-0.8,0.7-1.4,0.4c-2.2-1.1-2.2-1.1-1.5-3.3c0.9-2.8,1.8-5.7,2.8-8.6c0.1-0.4,0.3-0.8,0.6-1.5c1,2.5,1.9,4.6,2.8,6.8
	C1517.7,1042.1,1517.5,1042.6,1517.4,1042.9z M1512.2,1051.4c-0.4,0.7-0.9,1.5-1.4,2.3c-1.7-2-1.2-3.9-0.1-5.8c0.1,0,0.1,0,0.1,0
	C1513.7,1048.9,1513.7,1048.9,1512.2,1051.4z M1509.7,1055.5c-0.5,0.8-0.9,1.7-1.3,2.6c0.4-0.6,0.9-1.2,1.3-1.8
	c0.3-0.4,0.5-0.7,0.9-1.3c0.5,1.2,0.9,2.2,1.2,3.1c0.1,0.2-0.1,0.5-0.2,0.6c-1.4,0.7-2.8,1.4-4.4,2c0.4-0.9,0.8-1.7,1.2-2.6
	c-0.4,0.5-0.9,1-1.3,1.5c-0.1,0-0.1,0-0.2-0.1c0.8-2.4,1.5-4.8,2.3-7.3C1510.4,1053.5,1510.5,1054.2,1509.7,1055.5z M1512.2,1058.9
	c0.9,2.4,1.8,4.7,2.8,6.9c0.2,0.5,0.5,0.9,0.7,1.4c-0.2-0.8-0.4-1.7-0.7-2.5c-0.7-1.8-1.4-3.5-2.1-5.3c-0.1-0.3,0-0.9,0.2-1
	c2.8-1.5,5.7-2.9,8.6-4.4c0.1,0.1,0.2,0.1,0.3,0.2c-1.2,6.1-2.3,12.1-3.5,18.2c-0.1,0-0.2,0.1-0.4,0.1c-0.5-1.2-1-2.3-1.5-3.5
	c-0.3-0.7-0.7-1.3-1-1.9c0.6,1.8,1.3,3.6,2,5.5c-3.8-3.6-7.5-7.1-11.3-10.8C1508.3,1060.8,1510.1,1059.9,1512.2,1058.9z
	 M1522.1,1093.9c0.5-0.1,1.1,0,1.8,0c-4.3,11.5-8.5,22.8-12.7,34.2c-0.1,0-0.2,0-0.3,0c-0.5-1.1-1-2.2-1.5-3.3c-2.5-6-4.9-12-7.4-18
	c-0.6-1.4-1.1-2.9-1.7-4.3c-0.3-0.8-0.2-1.2,0.5-1.7c1.1-0.9,2.1-1.9,2.8-3c0.7-1.2,1.7-1.6,2.9-1.8
	C1511.7,1095.2,1516.9,1094.5,1522.1,1093.9z M1540.8,1186.2c-1.1,0-1.8,0-2.8,0c0.2-0.6,0.4-1.1,0.7-1.8
	C1539.4,1185,1540,1185.5,1540.8,1186.2z M1540.3,1180.3c3,0,5.6,0,8.3,0c-0.2,2.1-0.2,2.1-2.1,2.1c-0.7,0-1.4-0.1-2.1,0
	C1542.6,1182.7,1541.6,1181.7,1540.3,1180.3z M1538.3,1175.7c-0.1,0.4-0.4,0.7-0.7,1c-0.2-0.4-0.5-0.7-0.5-1.1c-0.1-1-0.1-2,0-3
	c0-0.8-0.2-1.3-1.1-1.1c-1,0.2-1.4-0.3-1.3-1.3c0.1-0.9-0.1-1.8,0-2.7c0.3-2-0.5-3.4-2-4.5c-0.8-0.7-1.7-1.3-2.5-2
	c0.1-0.2,0.2-0.4,0.3-0.6c3.8-0.9,7.7-1.7,11.8-2.7c-0.9,4-1.8,7.7-2.6,11.4C1539.2,1171.4,1538.8,1173.6,1538.3,1175.7z
	 M1537.1,1084c-0.6,2.2-1,4.5-1.5,6.7c-0.1,0.5-0.2,0.9-0.4,1.4c-0.1,0-0.2,0-0.4,0c0-3.7,0-7.5,0-11.2c0-1.1,0-2.2,0-3.3
	c0-0.8-0.2-1.3-1.1-1.2c-1.3,0.2-1.8-0.5-2-1.7c-0.6-3.4-1.4-6.7-2.1-10.1c0-0.2-0.1-0.5-0.1-1c0.4,0.4,0.7,0.6,0.9,0.8
	c1.3,1.5,2.6,2.9,3.7,4.5c0.7,0.9,1.2,2,1.5,3.1c0.6,1.8,0.9,3.7,1.5,5.6C1537.8,1079.7,1537.7,1081.8,1537.1,1084z M1547,1186.1
	c-0.8-0.7-1.5-1.2-2.2-1.8c0.1-0.1,0.1-0.2,0.2-0.3c0.9,0,1.8,0,2.9,0c-0.2,0.7-0.3,1.3-0.5,2
	C1547.3,1186.1,1547.1,1186.1,1547,1186.1z M1547.7,1178.7c-2.2,0-4.4,0-6.8,0c0.2-0.7,0.3-1.2,0.5-1.7c-0.5-0.1-0.9-0.2-1.3-0.3
	c0,0,0-0.1,0-0.1c3,0,6.1,0,9.1,0C1549.7,1178.1,1549.3,1178.7,1547.7,1178.7z M1549.4,1174.8c-3,0.1-6,0.1-9.1,0.1
	c0-2.1,0.2-2.3,1.9-2.3c2.4,0,4.8,0,7.1,0c0.3,0,1,0.5,0.9,0.6C1550.1,1173.8,1549.7,1174.7,1549.4,1174.8z M1549.2,1171.1
	c-2.3,0-4.5,0-6.8,0c-0.4,0-0.9-0.1-1.3-0.1c0.1-2,0.1-2.1,1.9-2.1c2.7,0,5.4,0,8.1,0C1551.3,1170.9,1551.1,1171.1,1549.2,1171.1z
	 M1551.1,1167.2c-3,0.1-6,0.1-9.1,0.1c0-2.2,0.1-2.2,1.9-2.2c2.3,0,4.7,0,7,0c0.4,0,0.7,0.4,1.1,0.6
	C1551.7,1166.2,1551.4,1167.2,1551.1,1167.2z M1550.6,1163.5c-2.6,0-5.1,0-7.7,0c-0.1-2,0.1-2.3,2-2.3c2.2,0,4.4,0,6.6,0
	c0.4,0,0.9,0.1,1.4,0.1C1552.7,1163.5,1552.7,1163.5,1550.6,1163.5z M1546.9,1131c0-0.9-0.3-1.3-1.2-1.2c-0.6,0-1.2,0.1-1.7,0
	c-0.3,0-0.7-0.2-1-0.3c0-0.2,0.1-0.3,0.1-0.5c2,0,4,0,6.1,0c0.2,0,0.5,0.5,0.6,0.7c0.1,2.5,0.1,4.9,0.1,7.4c0,1.1-0.6,1.2-1.4,1.2
	c-0.8,0-1.5,0-1.4-1.2C1547,1135.1,1546.9,1133,1546.9,1131z M1551.7,1159.7c-2.2,0-4.5,0-6.7,0c-0.4,0-0.8,0-1.2-0.1
	c0-2.1,0.1-2.1,2-2.2c2.2,0,4.4,0,6.6-0.1c0.5,0,1,0,1.5,0.1C1553.7,1159.6,1553.6,1159.7,1551.7,1159.7z M1553.7,1155.7
	c-3,0.1-6.1,0.1-9.2,0.1c0.2-2.1,0.2-2.2,2.1-2.3c2.4-0.1,4.7,0,7.1,0c0.3,0,0.9,0.5,0.9,0.5
	C1554.4,1154.7,1554.1,1155.7,1553.7,1155.7z M1555.3,1151.3c-0.1,0.2-0.5,0.5-0.8,0.5c-2.6,0.1-5.1,0.2-7.7,0.2
	c-0.6,0-1.4,0.1-1.4-0.8c0-0.8,0.1-1.7,1.2-1.9c3.1-0.5,6.1-1,9.5-1.6C1555.8,1149.1,1555.6,1150.3,1555.3,1151.3z M1556.2,1137.7
	c0,0.2-0.5,0.6-0.8,0.7c-1.4,0.1-2.7,0-4.1,0c-0.8,0-1.1-0.4-1.1-1.2c0-2.7,0-5.3,0-8.2c1.9,0,3.4,0,5,0c0.9,0,1.2,0.4,1.2,1.2
	C1556.3,1132.7,1556.3,1135.2,1556.2,1137.7z M1556.9,1138c0-2.7,0-5.4,0-8c0-0.3,0.3-0.6,0.4-0.9c0.2,0.3,0.5,0.5,0.6,0.8
	c0.7,2.6,1.3,5.3,2,8.1C1558.9,1138,1558,1138,1556.9,1138z M1558.3,1124.4c2.7,0,5.1,0,7.6,0c2.6,0,3.1,0.5,3,3.4
	c0,0.1-1.2,0.1-1.9,0.1c-2.3,0-4.5,0-6.8,0c-0.9,0-1.4-0.3-1.5-1.2C1558.6,1126,1558.5,1125.3,1558.3,1124.4z M1560.6,1134.8
	c0-0.6-0.1-1.3-0.2-2.2c3.3,0,6.4,0,9.5,0c0.2,0,0.5,0.3,0.6,0.5c0.3,0.9,0.5,1.8,0.7,2.9c-0.7,0-1.3,0.1-1.8,0.1
	c-2.4,0-4.7,0-7.1,0.1C1561.3,1136.2,1560.7,1135.8,1560.6,1134.8z M1571.8,1138c-0.4,0.1-0.8,0.1-1.1,0.1c-2.7,0-5.4,0-8.1,0
	c-0.9,0-1.2-0.4-1.1-1.4c0.3,0,0.7-0.1,1.1-0.1c2.7,0,5.3,0.1,8,0C1571.5,1136.7,1571.9,1137.1,1571.8,1138z M1572.3,1133.6
	c-0.1,0-0.2,0.1-0.3,0.1c-0.4-1.4-0.8-2.9-1.2-4.3c1.4-0.5,1.6-0.4,1.6,0.9C1572.3,1131.4,1572.3,1132.5,1572.3,1133.6z
	 M1570.1,1121.9c0.1,0,0.2,0,0.3,0c0.5,2,1,4.1,1.6,6.2c-1.6,0.3-1.9,0.1-1.9-1.2C1570.1,1125.2,1570.1,1123.6,1570.1,1121.9z
	 M1570.2,1131.8c-0.5,0-1,0.1-1.4,0.1c-2.2,0-4.5,0-6.7,0c-2.1,0-2.4-0.3-2.4-2.8c3.2,0,6.2,0,9.3,0c0.3,0,0.7,0.4,0.8,0.7
	C1569.9,1130.4,1570,1131,1570.2,1131.8z M1567.3,1109.3c1.1,4.6,2.9,9,2,14.1C1567.5,1118.8,1566.6,1114.2,1567.3,1109.3z
	 M1567.6,1121.9c0,0.5,0.2,1,0.3,1.7c-1.7,0-3.1,0-4.6,0c-1.3,0-2.6-0.1-3.9,0c-1,0.1-1.6-0.3-1.7-1.3c-0.1-0.6-0.3-1.2-0.5-1.9
	c0.5-0.1,1-0.2,1.4-0.2c2.3,0,4.6,0.1,6.9,0C1566.9,1120.2,1567.5,1120.7,1567.6,1121.9z M1566.9,1119.5c-0.8,0-1.5,0.1-2.1,0.1
	c-2.2,0-4.3,0-6.5,0c-1,0-1.4-0.4-1.6-1.3c-0.1-0.6-0.3-1.2-0.5-1.9c0.5-0.1,0.9-0.1,1.3-0.1c2.4,0,4.8,0,7.3,0c1,0,1.5,0.3,1.7,1.3
	C1566.5,1118.1,1566.7,1118.7,1566.9,1119.5z M1556,1104c1.8,0,3.7,0,5.5,0c1,0,1.6,0.3,1.6,1.3c0,0.6,0.2,1.2,0.4,2
	c-2,0-3.9,0-5.7,0c-1,0-1.9,0-2.9,0c-0.7,0-1.1-0.2-1-1c0-0.1,0-0.2,0-0.2C1553.9,1103.7,1553.7,1104,1556,1104z M1554.3,1102.8
	c2.5,0,5.1,0,7.6,0c0,0.1,0,0.1,0,0.2c-2.5,0-5,0-7.6,0C1554.3,1103,1554.3,1102.9,1554.3,1102.8z M1559.5,1108c0.5,0,1.1,0,1.6,0
	c3.2,0,3.2,0,3.5,3.4c-3,0-6.1,0-9.1,0c-0.3,0-0.6-0.4-0.7-0.7c-0.3-0.8-0.4-1.7-0.6-2.7C1556,1108,1557.7,1108,1559.5,1108z
	 M1561.2,1112.1c0.5,0,0.9,0,1.4,0c2.5,0,3.2,0.7,3.1,3.5c-1.2,0-2.4,0-3.6,0c-1.7,0-3.4,0-5.1,0c-0.7,0-1.1-0.2-1.2-0.9
	c-0.1-0.8-0.3-1.5-0.5-2.5C1557.4,1112.1,1559.3,1112.1,1561.2,1112.1z M1548.9,1085.3c3.5,0,6.9,0,10.4,0c1.3,0,2.2,0.4,2.5,1.8
	c1,4.3,2,8.5,3.3,12.7c1.2,3.8,1.3,7.6,1.2,11.4c0,0.2-0.1,0.3-0.1,0.5c-0.1,0-0.2,0-0.3,0c-1.1-4.5-2.3-9-3.4-13.6
	c-0.2-0.7-0.3-1-1.1-1c-1.2,0-2.3,0-3.5,0c-0.8,0-1.1-0.3-1.1-1.1c-0.1-3-0.1-3.1-3.1-3c-1.9,0.1-3-0.4-3.7-2.2
	c-0.7-1.8-1.7-3.5-2.6-5.5C1548.1,1085.3,1548.5,1085.3,1548.9,1085.3z M1545.1,1120.4c2.7-3.1,5.1-6.4,7.7-9.7c0.1,0,0.3,0,0.4,0.1
	c1.4,5.7,2.9,11.5,4.3,17.4c-1.2,0.1-2.2,0.2-3.2,0.2c-3.2,0-6.5,0-9.7,0c-1.1,0-1.5-0.4-1.6-1.6
	C1542.7,1124.4,1543.4,1122.4,1545.1,1120.4z M1524.8,1049.4c7-0.6,14-0.8,20.7,2c4.5,1.9,8.3,4.6,10,9.4c1.9,5.5-1.3,10.8-7.1,11.7
	c-0.4,0.1-0.8-0.1-1.2-0.2c-0.4-0.1-0.8-0.2-1.2-0.2c-1.6,0-3.2,0-4.8,0c-0.9,0-1.5-0.3-2-1c-3.4-4-6.9-8-10.6-12.2
	c-0.8,2.2-1.9,4.1-1.8,6.4c0.1,2.5,0,5.1,0,7.6c0,1-0.3,1.3-1.3,1.3c-2-0.1-4,0-6.2,0c0.1-0.6,0.1-1.2,0.2-1.7
	c0.6-3.6,1.2-7.1,1.9-10.6c0.7-3.9,1.6-7.7,2.5-11.5C1523.9,1049.9,1524.4,1049.4,1524.8,1049.4z M1522.5,1051.5
	c-0.1,0-0.3,0-0.4,0.1c-0.8-2-1.7-4-2.5-6c-0.1-0.2-0.1-0.3-0.2-0.5c-1.4-2-0.9-3.6,0.4-5.5c2.3-3.4,4.3-6.9,6.4-10.4
	c0.2-0.3,0.4-0.5,0.6-0.7c0.1,0,0.2,0.1,0.3,0.1C1525.5,1036.1,1524,1043.8,1522.5,1051.5z M1518,1041.8c-1.1-2.5-2-4.7-2.8-6.9
	c-0.4-1.1,0.1-2.5,1-3c3.4-1.8,6.9-3.5,10.3-5.2c0.1-0.1,0.3-0.1,0.8-0.2C1524.2,1031.6,1521.2,1036.5,1518,1041.8z M1516.2,1031.4
	c-0.1-0.1-0.2-0.2-0.3-0.3c1.2-3.6,2.3-7.3,3.6-11.2c2.8,1.9,5.4,3.7,8.2,5.7C1523.6,1027.6,1519.9,1029.5,1516.2,1031.4z
	 M1519.8,1019c0.6-2.1,1.3-4.2,2-6.4c0-0.1,0.2-0.2,0.5-0.6c1.7,4.2,3.4,8.3,5,12.3c-0.1,0.1-0.2,0.2-0.3,0.2
	c-1.2-0.8-2.4-1.6-3.6-2.4c-1.1-0.7-2.1-1.5-3.1-2.2C1520,1019.8,1519.7,1019.3,1519.8,1019z M1527.9,1023.7c-0.1,0-0.3,0-0.4,0
	c-0.3-0.7-0.6-1.3-0.9-2c-1.3-3.1-2.5-6.2-3.8-9.2c-0.3-0.8-0.1-1.2,0.4-1.7c0.8-0.8,1.6-1.6,2.4-2.5c0,0,0,0,0,0
	c1.5-1.4,3-2.7,4.4-4.1c0.5-0.5,1-0.9,1.5-1.4c0.1,0.1,0.2,0.1,0.3,0.2C1530.6,1009.9,1529.3,1016.8,1527.9,1023.7z M1531.8,1001.9
	c-1.8,1.8-3.7,3.6-5.5,5.4c-0.3,0.3-0.4,0.6-0.6,0.9c-1,0.7-1.9,1.5-3,2.3c0.4-5.6,4.8-8.9,7.6-13.3c0.7,1.3,1.4,2.4,1.9,3.6
	C1532.3,1001.1,1532,1001.7,1531.8,1001.9z M1532.6,999.8c-1.7-1.3-1.9-2.8-0.8-4.3c0.6-0.8,1.1-1.5,1.7-2.3
	c0.1,0.1,0.2,0.1,0.3,0.2C1533.4,995.5,1533,997.6,1532.6,999.8z M1536.8,978.1c-0.1,0-0.3,0-0.4,0c-0.3-1.5-0.6-2.9-0.8-4.4
	c0-0.4,0.3-0.8,0.6-1.2c0.6-0.9,1.2-1.7,1.8-2.5c0.1,0,0.2,0.1,0.4,0.1C1537.8,972.7,1537.3,975.4,1536.8,978.1z M1535.3,970.3
	c2.1-6.6,4.2-13.3,6.4-19.9c0.1-0.2,0.2-0.4,0.5-0.6c-0.3,1.7-0.6,3.3-0.9,5c-0.8,4-1.5,8.1-2.4,12.1c-0.3,1.3-1.2,2.5-1.8,3.7
	c-0.4,0.7-0.9,1.2-1.4,1.8c-0.1,0-0.2,0-0.4-0.1C1535.3,971.6,1535.1,970.9,1535.3,970.3z M1532.2,980.2c0.7-2.1,1.1-4.4,2.9-6
	c2.1,5,0.6,9.9-0.6,15.2c-0.3-0.6-0.6-1-0.7-1.4c-0.6-1.6-1-3.2-1.6-4.8C1531.7,982.2,1531.8,981.2,1532.2,980.2z M1528.9,990.3
	c0.9-2.1,1.5-4.4,2.2-6.6c0.1-0.3,0.3-0.5,0.5-0.9c0.9,2.6,1.8,5,2.6,7.5c0.1,0.4,0.2,1,0,1.3c-1.1,1.6-2.3,3.2-3.6,5
	C1529.4,994.3,1527.8,992.8,1528.9,990.3z M1528,993.4c0.1,0,0.2,0,0.4,0c0.5,0.9,1,1.8,1.4,2.7c0.2,0.4,0.2,1,0,1.3
	c-1.5,2-3,4-4.6,6c-0.1-0.1-0.3-0.1-0.4-0.2C1525.9,999.9,1526.9,996.7,1528,993.4z M1382,990.1c3.1-4.2,6.9-7.9,11.3-10.8
	c0.5-0.3,1.1-0.5,1.7-0.5c11.8,0.6,23.5,1.2,35.3,1.8c11,0.6,22.1,1.1,33.1,1.7c3.1,0.2,6.2,0.4,9.8,0.6c-1.6,1.5-3,2.7-4.4,3.9
	c-4.8,4.3-9.7,8.5-14.5,12.8c-5.2,4.7-10.3,9.4-15.4,14.1c-2.5,2.4-5,4.8-7.5,7.2c-1.3,1.2-1.3,1.3-2.6,0.2
	c-2.6-2.2-5.2-4.3-7.8-6.5c-0.3-0.2-0.3-0.8-0.2-1.2c0.3-1.4,0.7-2.8,0.9-4.2c0.1-0.5-0.1-1.1-0.4-1.5c-1.1-1.9-2.7-2-3.7,0
	c-1.7,3.3-4.2,5.7-7.5,7.3c-0.7,0.3-1.6,0.8-1.4,1.8c0.2,1.1,0.9,1.7,2,2c1.8,0.5,3.5,0.2,5.1-0.5c0.7-0.3,1.1-0.2,1.6,0.4
	c2.2,2.8,4.5,5.5,6.8,8.2c0.5,0.5,0.4,0.9-0.1,1.3c-5,5-10.1,9.9-15.1,14.9c-4.7,4.7-9.3,9.6-13.9,14.4c-3.3,3.5-6.6,7-9.9,10.5
	c-0.3,0.3-0.6,0.5-1.1,1c-0.1-0.7-0.2-1.3-0.2-1.8c-0.3-10.3-0.7-20.7-1-31c-0.5-14.6-1-29.2-1.4-43.7
	C1381.3,991.6,1381.5,990.7,1382,990.1z M1450,1109.9c-0.2-0.6-0.4-1.1-0.5-1.7c-0.1-0.3,0-0.9,0.2-0.9c1.8-0.6,3.5-1.2,5.5,0.2
	C1453.3,1108.3,1452,1109.8,1450,1109.9z M1450,1109.9C1450,1109.9,1450,1109.9,1450,1109.9c-0.3,0.4-0.6,0.8-1,1
	c-1.6,0.9-3.1,1.9-4.8,2.7c-0.5,0.2-1.2,0.4-1.6,0.3c-2.1-0.8-4-1.7-6.4-2.7c1.1-0.4,1.9-0.7,2.8-0.9c2.9-0.8,5.8-1.6,8.6-2.5
	c0.8-0.2,1.2,0,1.5,0.7C1449.3,1109,1449.7,1109.4,1450,1109.9z M1454,1106.5c0-0.2,0-0.3,0-0.5c2.1-0.6,4.1-1.2,6.2-1.8
	c0.1,0.1,0.1,0.2,0.2,0.3c-1.5,0.8-2.9,1.7-4.4,2.3C1455.4,1107.1,1454.6,1106.7,1454,1106.5z M1462.1,1104c0.1,0.1,0.2,0.2,0.3,0.2
	c-0.8,1.4-1.5,2.8-2.3,4.1c-0.1,0.2-0.5,0.3-0.6,0.3c-1-0.4-2-0.8-3.3-1.3C1458.4,1106.1,1460.3,1105.1,1462.1,1104z M1403.4,1120.9
	c-0.9,0.7-1.8,1.4-2.7,2c-1,0.7-2,1.5-3,2.1c-0.3,0.2-0.8,0.4-1.1,0.3c-1-0.5-2-1-3-1.6c0-0.1,0.1-0.2,0.1-0.3
	c3.2-0.9,6.4-1.9,9.6-2.8C1403.3,1120.7,1403.3,1120.8,1403.4,1120.9z M1344.2,1117.9c-0.2,0.2-0.3,0.4-0.8,0.5
	c0.4-1.5,0.7-2.9,1.1-4.4c1.9-7.4,3.9-14.8,5.9-22.1c1.8-6.6,3.6-13.2,5.3-19.8c1.2-4.6,2.3-9.1,3.5-13.7c1.9-7.1,3.8-14.3,5.7-21.4
	c2.4-9.2,4.9-18.4,7.3-27.6c1.1-4.3,2.2-8.7,3.4-13c0.1-0.5,0.6-0.9,1-1.2c0.7-0.5,1.6-0.9,2.6-1.5c0.1,0.5,0.1,0.8,0.1,1.2
	c0.2,6.1,0.3,12.2,0.6,18.4c0.4,11.1,0.8,22.2,1.2,33.2c0.3,8,0.5,15.9,0.7,23.9c0,0.6-0.2,1.3-0.6,1.8
	c-5.8,6.7-11.7,13.3-17.4,20.1c-4.3,5.2-8.5,10.6-12.6,15.9C1348.7,1111.3,1346.5,1114.6,1344.2,1117.9z M1349,1136.5
	c0-0.1-0.1-0.2-0.1-0.3c3.8-1.1,7.6-2.4,11.4-3.3c3.8-0.9,7.5-2.7,11.5-2.7c-2,1.5-3.8,3.2-6.5,3.5
	C1359.8,1134.5,1354.4,1135.6,1349,1136.5z M1369.2,1133.1c2.5-2.7,5.5-3.2,8.5-1.4C1375,1132.1,1372.3,1132.6,1369.2,1133.1z
	 M1373.9,1129.9c2.1-2.1,5-2.7,7.5-2.8c2.6-0.1,5.2,1.4,7.7,2.5C1384.1,1130.5,1379.1,1132.1,1373.9,1129.9z M1391.3,1129.4
	c-0.2,0.1-0.6,0.1-0.8,0c-2.3-0.8-4.7-1.6-7-2.5c-0.1,0-0.2-0.2-0.5-0.4c2.2-0.6,4.3-1.2,6.3-1.8c0.3-0.1,0.7-0.1,1-0.3
	c2.5-1.4,4.2,0.3,6.4,1.5C1394.7,1127.1,1393,1128.3,1391.3,1129.4z M1399.8,1127.9c-2.1,0.4-4.3,0.8-6.4,1.1
	c-0.1-0.1-0.1-0.3-0.2-0.4c1.3-0.8,2.4-2,3.8-2.4c0.8-0.2,1.9,0.8,2.9,1.3C1399.9,1127.7,1399.9,1127.8,1399.8,1127.9z
	 M1400.4,1127.4c-0.9-0.5-1.8-1-3-1.7c4.4-2.8,7.9-6.7,13.6-7.1c-0.9,0.9-1.6,1.7-2.3,2.4c-2.1,2-4.2,4-6.2,6
	C1401.7,1127.7,1401.2,1127.9,1400.4,1127.4z M1403.1,1127.4c-0.1-0.1-0.2-0.3-0.3-0.4c1.1-1,2.1-2,3.2-3c1.6-1.5,3.2-3.1,4.8-4.7
	c0.8-0.8,1.5-1,2.6-0.5c3.6,1.6,7.3,3.1,11,4.7c0,0.1,0,0.2,0,0.4C1417.3,1125,1410.2,1126.2,1403.1,1127.4z M1425,1123.3
	c-4.1-1.7-8.1-3.4-12.5-5.2c0.6-0.2,0.9-0.4,1.2-0.5c1.9-0.5,3.8-1.1,5.8-1.6c0.3-0.1,0.8-0.1,1,0.1c1.6,2.3,3.2,4.6,4.8,6.9
	C1425.2,1123.1,1425.1,1123.2,1425,1123.3z M1420.7,1115.6c3.9-1.1,7.6-2.2,11.3-3.2c0.1,0.1,0.2,0.2,0.2,0.2c-1.9,3.6-3.9,7.1-6,11
	C1424.3,1120.8,1422.6,1118.3,1420.7,1115.6z M1427.3,1123.1c-0.1-0.1-0.2-0.2-0.2-0.2c0.6-1.1,1.1-2.2,1.7-3.2
	c1.2-2.2,2.5-4.4,3.7-6.7c0.6-1.1,2.1-1.9,3.2-1.5c2.3,0.8,4.5,1.9,7.1,2.9C1437.4,1117.4,1432.4,1120.3,1427.3,1123.1z
	 M1429.2,1123c0-0.1-0.1-0.2-0.1-0.3c0.8-0.5,1.6-1,2.4-1.4c3.7-2.1,7.5-4.2,11.2-6.2c0.3-0.2,0.9-0.3,1.3-0.1
	c2.8,1.2,5.7,2.4,8.5,3.6c0.1,0.1,0.2,0.2,0.6,0.5C1444.9,1120.4,1437,1121.7,1429.2,1123z M1453.6,1118.6c-3.1-1.3-6.3-2.7-9.4-4
	c0-0.1-0.1-0.2-0.1-0.4c2-1.1,3.9-2.2,6.1-3.5c1.3,2.6,2.5,5.1,3.6,7.5C1453.7,1118.4,1453.7,1118.5,1453.6,1118.6z M1452.7,1115.1
	c-0.6-1.2-1.1-2.5-1.8-3.7c-0.3-0.6-0.3-1,0.4-1.4c1.3-0.7,2.6-1.5,3.9-2.2c0.3-0.2,0.8-0.1,1.2,0c0.2,0,0.4,0.2,0.7,0.3
	c0.8,0.3,1.8,0.4,2.2,1c0.3,0.5-0.3,1.4-0.5,2.2c0,0,0,0,0,0c-0.7,1.1-1.4,2.2-2,3.3c-0.7,1.2-1.4,2.5-2.2,4
	C1453.9,1117.4,1453.3,1116.3,1452.7,1115.1z M1455.1,1118.7c1.3-2.6,2.5-5,3.7-7.3c0.2-0.2,0.5-0.5,0.6-0.8
	c0.3-1.1,0.9-1.1,1.9-0.7c3.9,1.6,7.9,3.2,11.9,4.8c0.3,0.1,0.6,0.4,0.9,0.8C1467.9,1116.5,1461.7,1117.5,1455.1,1118.7z
	 M1474.1,1114.6c-4.5-1.8-9.1-3.7-13.8-5.6c1.1-1.9,2-3.7,2.9-5.3c3.8,3.6,7.5,7,11.2,10.5
	C1474.3,1114.3,1474.2,1114.4,1474.1,1114.6z M1478.9,978.1c-0.7,0.6-1.5,1.1-2.1,1.8c-0.9,1.1-2,1.1-3.3,1.1
	c-6.8-0.4-13.6-0.8-20.4-1.2c-4.9-0.2-9.8-0.4-14.6-0.6c-8.4-0.4-16.8-0.9-25.2-1.4c-5-0.3-9.9-0.5-14.9-0.7c-0.6,0-1.1-0.1-1.7-0.2
	c0.5-1.1,1-2.1,1.5-3c0.2-0.3,0.7-0.4,1.1-0.5c4.6-1.1,9.2-2.1,13.7-3.2c8.3-2,16.5-3.9,24.8-5.9c7.2-1.7,14.5-3.5,21.7-5.2
	c9.1-2.1,18.1-4.2,27.2-6.4c7.3-1.7,14.7-3.5,22-5.2c4.7-1.1,9.5-2.2,14.2-3.3c0.4-0.1,0.7-0.1,1.1-0.2c0,0.1,0.1,0.2,0.1,0.2
	c-1.3,0.8-2.6,1.6-3.8,2.5c-6.9,4.9-14,9.6-20.8,14.7C1492.6,966.9,1485.8,972.6,1478.9,978.1z M1483.1,1103.9
	c0.4-1.5,1-2.8,2.7-3.3c5.2-1.5,9.6-4.5,13.4-8.2c2.4-2.3,4.5-4.9,5.9-8c0.7-1.5,2-2.1,3.8-2
	C1508.2,1089.5,1490.3,1104.4,1483.1,1103.9z M1484.5,1120.2c-0.3-0.7,0-0.9,0.7-0.9c1.2,0,2.3-0.1,3.5,0.1c0.4,0.1,0.9,0.6,1.1,1.1
	c2.2,5.6,4.3,11.2,6.4,16.8c1.9,5.1,3.8,10.2,5.7,15.3c0.6,1.6,1.3,3.2,1.9,4.8c0.1,0.4,0.3,0.7,0.5,1.3c-1.8,0-3.3,0-4.9,0
	c-0.2,0-0.5-0.4-0.6-0.6c-1.4-3.5-2.7-7-4-10.5c-1.3-3.6-2.7-7.2-4-10.7C1488.6,1131.3,1486.6,1125.8,1484.5,1120.2z M1484.2,1172.8
	c0.1,0.1,0.3,0.1,0.4,0.2c-0.1,1.4-0.1,2.8-0.2,4.1c-0.1,1.7-0.1,1.7,1.6,1.7c1.5,0,3,0,4.5,0c1.5,0,1.8,0.4,1.1,1.8
	c-0.8,1.6-1.5,3.2-2.5,4.7c-3.6,5.2-7.2,10.4-10.8,15.6c-6.9,1.9-14,3.9-21.3,6C1466.2,1195.6,1475.2,1184.2,1484.2,1172.8z"/>
<linearGradient id="SVGID_6_" gradientUnits="userSpaceOnUse" x1="1752.8304" y1="764.4146" x2="1752.8304" y2="2290.188">
	<stop  offset="0" style="stop-color:#470274"/>
	<stop  offset="0.1806" style="stop-color:#440270"/>
	<stop  offset="0.3678" style="stop-color:#3D0263"/>
	<stop  offset="0.558" style="stop-color:#30014F"/>
	<stop  offset="0.7503" style="stop-color:#1E0132"/>
	<stop  offset="0.9425" style="stop-color:#08000D"/>
	<stop  offset="1" style="stop-color:#000000"/>
</linearGradient>
<path class="st3" d="M3354.9,1166c-18.5,1.8-251.5,112.9-251.5,112.9s-229.3-5.6-251.5,0c-22.2,5.6-207.2,73.4-259,111
	c-51.8,37.7-129.5,63.9-321.8,82.8l-115.9-17c-42.2-6.2-85.2-5.7-127.2,1.3l-108.4,18.3l0,0h-28.8c-7.6-6.7-15.2-13.4-22.9-20
	c-1-0.8-1.2-1.5-1-2.7c2.2-9.8,4.4-19.6,6.6-29.4c1.6-7.3,3.3-14.6,4.8-22c0.4-1.9,1.2-3,3.3-3.1c1.2,0,2.3-0.4,3.5-0.6
	c1.5-0.2,2.3-1,2.3-2.6c0-1.7,0-3.4,0-5.1c0-1.1,0.6-1.4,1.7-1.4c3,0.1,6,0,9,0.2c1.5,0.1,1.7-0.6,1.6-1.9c-0.2-4-0.3-8-0.4-12
	c0-1.1-0.1-2.2-0.3-3.2c-0.9-4-1.8-8-2.8-12c-2.3-9.5-4.6-19-6.9-28.5c-1.2-5.1-2.5-10.2-3.9-15.2c-0.9-3.3-1.5-3.5-4.8-3.5
	c-4.9,0-9.9,0-14.8,0c-0.6,0-1.6-0.3-1.8-0.8c-1.2-2.5-2.4-5-3.3-7.6c-0.7-1.7-0.1-2.4,1.8-2.5c1.2,0,1.9-0.4,2.2-1.6
	c0.1-0.5,0.8-1,1.4-1.2c1.2-0.4,2.5-0.4,3.6-0.8c8.2-3.3,11.9-11.2,8.9-19.5c-2.6-7.4-8.4-11.7-15.4-14.6c-7.3-3-15-3.7-22.9-3.4
	c-2.2,0.1-4.4,0.3-6.8,0.4c0-0.5,0-0.8,0.1-1c1.1-5.5,2.2-11,3.2-16.4c1.5-8.1,3-16.2,4.5-24.3c1.9-9.8,3.8-19.5,5.7-29.2
	c1.6-8.3,3.1-16.5,4.7-24.8c1.2-6.5,2.5-13,3.8-19.4c1.9-9.5,3.8-19,5.7-28.5c0.2-1.2,0.4-2.5,0.3-3.7c-0.2-2.4-1.4-3.8-3.9-3.9
	c-1.9,0-3.9,0.3-5.7,0.8c-3.4,1.1-6.6,2.7-10,3.6c-10.4,2.6-20.8,5-31.2,7.5c-17.1,4.1-34.1,8.1-51.2,12.2
	c-9.6,2.3-19.2,4.6-28.7,6.9c-14.2,3.4-28.3,6.8-42.5,10.2c-9,2.2-17.9,4.3-26.9,6.5c-0.6,0.1-1.4,0.2-2-0.1
	c-4.3-2.2-8.9-2.3-13.4-1.3c-6.2,1.4-11.2,4.8-14.7,10.2c-4.2,6.5-5.9,13.4-2.6,20.8c0.2,0.6,0.3,1.3,0.1,1.9
	c-1,4.2-2.1,8.4-3.2,12.6c-3.1,11.8-6.1,23.7-9.2,35.5c-1.9,7.2-3.9,14.4-5.7,21.6c-1.6,6.2-3.1,12.5-4.7,18.7
	c-3.2,12.3-6.5,24.6-9.8,37c-1.7,6.4-3.2,12.8-4.9,19.2c-2.3,8.9-4.7,17.9-7.1,26.8c-1.2,4.5-2.2,9.1-4.3,13.3
	c-1.4,2.8-2.1,6-2.5,9.2c-0.4,3.2,1.4,4.9,4.6,4.7c2.6-0.2,5.1-0.9,7.6-1.4c11-1.9,22-3.8,33-5.7c10.1-1.7,20.2-3.5,30.3-5.2
	c7.7-1.3,15.4-2.5,23.1-3.9c9.1-1.6,18.2-3.3,27.2-4.9c4.1-0.7,8.2-1.2,12.3-1.9c6.7-1.1,13.3-2.2,20-3.3
	c10.4-1.8,20.9-3.6,31.3-5.4c0.5-0.1,1.3,0.2,1.6,0.5c1,1.6,1.9,3.1,1.9,5.2c-0.1,5,0,9.9,0,14.9c0,13.3,0,26.6,0,39.8
	c0,1.6,0.5,2,2,2c2.8-0.1,5.6,0,8.3,0c1.8,0,3.7,0,5.5,0c0,0.1,0.1,0.3,0.1,0.4c-0.5,0.4-1,0.7-1.5,1.1c-2.1,1.7-4.4,3.2-6.2,5.1
	c-2.5,2.7-4.6,5.8-6.8,8.7c-6.9,8.9-13.9,17.8-20.8,26.8c-3.9,5-7.9,10-11.8,15h-35.2v25.7c-0.7,0-1.4,0-2.2,0c-0.2,0-2.7,0-8.7,0
	c-0.7,0-1.3,0.1-2.1,0.1c0,1.2,0,2.4,0,3.6l-215.3-24.5h-199.8l-61.2-69.7c-38.9-44.5-58.8-103-54.9-162.5l3.4-51.9
	c0.9-13.1-9.6-24.1-22.5-23.8l-47.1,1.4c0.1-3.5-0.8-7.1,0.2-10.3c2.3-7,3.4-13.7-1.1-20.4c-0.2-0.3-0.3-0.7-0.2-1
	c2.5-7.4,2.6-14.8,0.1-22.2c-0.4-1.3,1.6-3.2,2.5-4.8c1.8,1,3.9,1.7,5.4,3.1c2.2,1.9,4.2,4.2,6,6.4c1.9,2.3,3.5,4.9,5.2,7.4
	c1.1,1.6,2.2,3.4,3.2,5.1c2.3,4,4.6,7.8,6.9,11.8c0.5,0.9,0.9,1.9,1.6,2.7c2.2,2.7,5.6,4.1,8.6,2.3c1.6-0.9,2.5-4.6,1.8-6.5
	c-1.8-5-4.4-9.9-7-14.6c-2.5-4.5-4.9-8.8-2.6-13.9c0.4-0.9,0.1-2.4-0.6-3.3c-6.3-8.2-11.2-17.3-19.9-24c-3.7-2.9-2.9-7.2,0.9-10
	c2.8-2,4.7-0.7,5.6,1.5c1,2.4,3.5,4.1,6.1,3.7c5.1-0.8,8.5,0.7,10.8,5c3.5,6.5,4.9,6.4,12.6,4.4c2.2-0.6,5.3,1.4,8.3,2.3
	c2.3-3.8-0.3-6.9-3.1-9.5c-7.6-6.8-16.6-12.4-23.9-19.3c-3.9-3.7-8.2-6.8-12.8-9.4c-1.5-0.8-2.5-2.1-3.6-3.4c-2.8-3.5-1.9-5.3,3-5.8
	c1.7-0.2,3.4-0.1,5-0.5c4.8-1.3,8.8-0.4,12.4,2.7c2.3,2,4.9,3.2,8.5,1.9c3.5-1.2,6.1,0.6,8.7,2.9c5.2,4.7,7.6,5,12.5,2.3
	c0.2-1.4,0.2-1.9,0.4-3.3c-5.5-4.8-11.1-9.6-16.6-14.5c-8.2-7.2-17.7-11.8-29.5-12.6c-2.8-0.2-6-0.5-8-1.9c-1.8-1.3-2.6-4.1-2.9-6.3
	c-0.4-2.4,1.4-3.8,4.3-3.8c0.9,0,2.2-0.5,2.6-1.1c2.8-4.4,5.9-2.4,9.1-0.5c3.2,1.9,6.2,4.2,9.7,5.3c2.2,0.7,5.2-0.3,7.8-0.5
	c-0.6-2-0.6-4.7-2.1-6.1c-5-4.9-11.7-6.9-19-7.8c-2.6-0.3-5.7-1.1-7.5-2.6c-2.6-2.2-1.9-5.3,0.5-7.6c2.5-2.5,5.7-2,7.9,0.1
	c2.7,2.6,5.5,3.7,9.6,3.3c2-0.2,4.4,1.6,6.5,2.7c3.8,2,7,5.7,12.4,4.6c1.5-3.2,1-6.1-1.9-8.1c-9-6.4-14.2-16.3-24.7-21.3
	c-1.5-0.7-3.2-3.8-2.6-4.9c1.4-2.7,4.1-1.3,6.3-0.1c1.2,0.7,2.5,1.3,3.7,2.1c2.8,1.8,5.5,4.2,7.6-0.7c0.2-0.4,2.6-0.6,3.6-0.2
	c1.8,0.7,3.1,2.4,4.9,2.9c1.8,0.4,4.9,0.2,5.6-0.8c1-1.3,1.1-4.2,0.1-5.5c-1.8-2.2-4.6-3.8-7.1-5.4c-8.1-5.6-16.4-11.1-24.4-16.9
	c-1.5-1.1-2.7-3.2-3.1-4.9c-0.2-1.1,1-2.7,2.1-3.6c0.6-0.4,2.4,0.1,3.5,0.6s2,1.5,3,2.2c2.4,1.7,4.8,3.9,6.5-0.8
	c0.8-2.2,2.9-2.6,5.7-1.6c2.4,0.9,5.3,1,7.9,1.4c0.4-0.8,0.4-0.7,0.8-1.5c-3.3-3.5-6.6-6.9-10.4-10.9c1.9-0.4,3.2-0.6,4.3-0.9
	c1.4-0.5,3.9-1.1,3.9-1.6c-0.1-1.4-0.8-3.3-2-4.2c-6.2-4.8-12.6-9.2-18.8-13.9c-1.7-1.2-3.5-3.1-3.8-4.9c-0.8-4.7,4-7.8,9-6
	c3.9,1.4,7.5,3.5,11.6,5.4c1.3-5.4,0.1-9.6-4.6-13c-3.8-2.9-7.3-6-11-9c0.3-0.6,0.3-0.5,0.6-1.1c4.2,1.3,8.4,2.6,12.6,4
	c-0.7-7.5-4.6-12.2-9.9-16.5c-4.9-4.1-9.4-8.7-13.5-13.3c-1.3-1.5-0.5-4.4-0.6-6.6c2.4,0,4.8-0.3,7.1,0c2.3,0.3,4.5,1.3,7.1,2.1
	c1.5-6.6-7.5-7.8-7.1-14c2.4,0.5,4.5,1,6.6,1.2c2.3,0.2,4.6,0.2,6.9,0.3c-0.8-2.1-1.1-4.7-2.6-6.2c-3.7-3.6-7.8-6.9-12-10
	c-5-3.5-8.9-7.4-10.4-13c-0.2-0.9-1.2-1.7-2-2.7c-4.7,2.2-6.1,6.1-7.5,10.1c-1.6,4.8-2.9,9.8-5.5,14.2c-3,5.2-6.8,5.3-12.4,2.2
	c-11.8-6.5-17.3-16.4-19.8-28c-1.1-4.9-0.7-5.1,4.7-4.6c0.8,0.1,1.6,0,1.6,0c-4.5-11.5-9.1-23-13.9-35.2c-2.6,5.3-4.7,10-7.3,14.5
	c-2.5,4.3-4.8,8.9-8.4,12.3c-5.9,5.8-2.5,8.4,3.2,9.8c5.7,1.2,7.4,4,6.9,8.4c-0.6,4.8-1,9.8-2.6,14.4c-2,5.9-8.5,7.5-14.2,9.5
	c-5.7,1.9-11.7,3.2-17.4,5.1c-1.9,0.6-4.3,2.4-4.4,4c-0.1,1.3,2.2,3.4,3.9,4.3c3.1,1.5,4.7,3.1,2.6,5.9c-0.3,0.4-0.7,1.1-0.8,1.5
	c-0.6,2.5-1.2,5.2-1.9,7.7c3.1,0.1,6.3,0.7,9.2,0.2c5-0.8,9.8-2.2,15.4-3.7c0.1,13.2-11,18.8-20,26.8c2.6,0.9,4.3,1.8,6.2,2.1
	c2.1,0.3,4.3,0.1,6.7,0.2c-4,6.7-15.1,11.5-22.7,10.4c-1.9-0.3-3.9,0.5-5.9,0.8c0.9,2,1.4,4.4,2.8,6.1c0.9,1.1,3.2,1.2,4.9,1.9
	c2.7,1.1,6.8,0.3,7.6,4.4c0.1,0.6,2.6,0.9,4,1.2c4.2,0.8,5.8,3.3,3.2,6.2c-4.6,5.3-10.9,8.7-18.2,10c-3.8,0.7-7-2.4-7.8-7.1
	c2.6-0.7,5.3-1.5,9.4-2.6c-3.8-2.9-6.5-5.7-9.9-7.4c-7-3.6-9.7-8.4-8.9-15.4c0.5-5.2,0.5-10.4,0.2-15.6c-0.1-1.6-1.8-3.2-2.8-4.7
	c-1.5,1-3.5,1.8-4.3,3.3c-2.1,4.2-4.2,8.3-5.5,12.7c-1.9,6.9-6.1,12.2-12.2,16.6c-1.5,1.1-2.4,3.1-3.5,4.6c1.8,0.9,3.6,1.7,5.4,2.6
	c1.4,0.7,2.8,1.3,4.2,1.9c0,0.7,0,0.7-0.1,1.4c-3,1.1-5.9,2.3-8.9,3.4c-2.6,0.9-5.5,1.3-8.1,2.3c-1.2,0.4-2,1.7-2.9,2.6
	c1.1,0.8,2,2,3.2,2.3c3.1,0.6,6.3,0.5,9.4,1.2c2.3,0.5,5.4,1.4,6.1,2.9c0.7,1.3-1.4,3.8-2.3,5.7c-0.8,1.8-1.7,3.6-2.6,5.3
	c2,0.5,4,1.1,6,1.4c2.8,0.4,5.7,0.4,8.5,0.6c0.3,0.8,0.3,0.8,0.5,1.6c-2.5,2-4.9,4.3-7.7,6c-5.6,3.4-11.5,6.4-17.2,9.7
	c-1.6,0.9-3.2,2-4.5,3.4c-3.6,3.8-2.4,6.6,2.9,7.4c3.9,0.6,4.6,1.9,1.9,4.5c-2.5,2.4-4.7,5.2-2.6,8.2c2.5,3.6,7.1,2.4,11,2
	c1.7-0.2,3.3-0.8,5-1.2c0.2,0.3,0.4,0.6,0.6,1c-4.4,2.7-8.8,5.6-13.4,8c-1.1,0.6-3.3,0.3-4.6-0.3c-8.5-3.7-17-7.2-25.1-11.5
	c-2.6-1.3-5.3-4.8-5.3-7.2c0.1-2.4,3.1-5.3,5.7-6.9c2.8-1.8,6.7-2.3,9.8-3.9c4.6-2.1,4.8-6,0.7-8.8c-1.3-0.9-2.7-1.8-4.2-2.3
	c-9.4-3.8-14.8-10.5-18.2-18.8c-0.8-2-2-4.1-3.4-5.9c-0.7-1-2.3-2.2-3.3-2.1c-1.1,0.1-2.4,1.5-2.8,2.6c-1.7,4.2-3.2,8.4-4.5,12.7
	c-1.9,6.4-7.4,9-14,10.4c-3.4,0.7-6.7,1.5-10.3,2.3c0.1,1.6,0.2,3.3,0.3,6.1c-11,0.2-21.9,0.5-32.8,0.5c-1.2,0-3.4-1.3-3.4-2
	c0-1.2,1.1-2.9,2.2-3.5c3.1-1.6,6.7-2.5,9.8-4.1c1.8-0.9,3.2-2.5,4.8-3.8c-1.8-0.9-3.6-2-5.4-2.9c-2.6-1.1-5.7-1.7-7.8-3.4
	c-8.2-6.4-12.9-14.6-13-24.4c0-0.9-0.3-1.7-0.6-3.7c-2.4,2.2-4.7,3.7-6.1,5.7c-2.3,3.1-5.3,4.4-9.4,5c-2.8,0.4-6.3,1.7-7.8,3.7
	c-2.1,2.6-0.2,5.7,2.7,7.7c2.8,1.9,1.4,3.4-0.5,5c-4.8,4.1-4.8,6.3-1.7,11.7c0.7,1.1,0.2,3.5-0.7,4.6c-6.6,8-16.6,11.3-26.7,13.9
	c-2.6,0.7-6.2-0.6-8.9-1.7c-1.4-0.6-3-3.1-2.6-4.2c0.4-1.2,2.9-2.2,4.6-2.6c3.7-0.7,7.6-1,11.4-1.4c0.3-0.7,0.3-0.8,0.6-1.5
	c-1.9-2.1-3.6-4.4-5.6-6.5c-1.3-1.3-3-2.4-4.3-3.8c-4.7-5-2.7-10.4,4.3-11.7c1.1-0.2,2.2-0.5,4.3-0.9c-1.4-2.3-2.2-4.5-3.7-6.3
	c-4.2-5.2-8.6-10.2-13-15.2c-1.2-1.4-2.5-2.7-3.5-4.2c-3-4.6-3.1-7.8,4.1-8.6c1-0.1,1.9-0.4,3.9-0.8c-2.4-4.3-4.9-8.1-6.8-12.3
	c-2.7-6.1-4.9-12.4-7.5-18.6c-0.5-1.3-2.1-3.2-3.2-3.2c-1.8,0-4.4,0.8-5.4,2c-1.5,1.8-2,4.3-2.7,6.5c-2.5,8.2-4.6,16.5-7.3,24.6
	c-0.8,2.3-0.9,3.4,1.7,4.6c3,1.4,3.9,3.6,1.5,6.1c-4,4.3-8,8.7-12,12.9c-1.3,1.3-2.7,2.5-3.9,4c-3.3,3.8-2.6,5.4,2.5,6.9
	c1.2,0.4,2.4,0.9,3.4,1.3c-1.1,3.2-2,5.9-3,8.8c0.4,0.2,0.9,0.4,1.3,0.6c-2.7,1.3-5.3,2.6-8,4c-6.2,3.2-6.5,5-0.8,9.3
	c-2.5,1.8-5.3,3.5-7.3,5.6c-1.4,1.5-2.9,4.4-2.2,5.6c0.9,1.5,4.1,2.1,6.4,3c1.1,0.4,3.2,0.2,3.5,0.8c2.3,4.6,7.4,4.5,11.5,6
	c1.2,0.4,2.9,1.3,3,2.1c0.1,1-1,2.7-2,3.1c-3.5,1.2-7.1,2.5-10.9,3c-9,1.2-18.2,1.8-27.2,3.1c-1.7,0.2-4.2,1.6-4.4,2.7
	c-0.3,1.9,0,5,1.5,6c3.9,2.7,3.7,5.3,1.6,8.7c-0.8,1.2-0.6,3.8,0.4,4.8c0.7,0.8,3.4,0.1,5.1,0.3c1.5,0.1,3.1,0.3,4.4,0.9
	c3.3,1.6,6.4,3.5,9.9,4.4c1.8,2.2,3.7,4.6,5.9,7.2c-4,1.4-8.2,2.4-11.8,4.3c-3.7,1.8-7.1,4.2-10.1,6.8c-1.8,1.5-2,4.7,1.4,4.5
	c4.6-0.4,8.2,1.6,12.3,2.1c4.9,0.6,10,0.1,15,0.3c1.6,0.1,3.1,1,4.6,1.5c-1,1.2-1.7,3.1-3.1,3.6c-5.5,1.8-11.2,3.3-16.8,5
	c-9.4,2.9-18.8,5.8-28.2,8.7c-2.5,0.8-4.9,1.7-7.4,2.3c-4.7,1.1-8.1-1.2-9.2-5.9c-1.3-5.9,0.2-8.2,5.9-9c0.3,0,0.7,0,1-0.1
	c2.6-1.6,5.1-3.3,7.7-5c-2-1.6-4.1-3.3-6.2-4.9c-0.4-0.3-0.9-0.3-1.4-0.5c-3.1-1.4-7.4-2.7-6.4-6.3c0.6-2.1,4.2-4.3,6.9-5.3
	c3.8-1.3,3-2.9,0.9-4.4c-2.2-1.5-5-2.4-7.2-4c-1.7-1.2-4.1-3-4.1-4.4c0-1.5,2.4-3.5,4.3-4.3c5.5-2.3,6.1-3.6,1.4-7.2
	c-5.1-3.9-7.9-9-10.6-14.3c-2.9-5.8-6.9-6.3-11-1.1c-3.5,4.4-6.2,9.4-8.6,14.3c-1.8,3.8,0,6.1,4.5,7.3c7.6,2.1,8.6,5.9,3,10.8
	c-1.3,1.1-2.7,2.1-4,3.4c-4.2,3.7-4.1,4.6,0.9,7.4c2.9,1.6,3,3.7,0.9,5.4c-3.2,2.6-6.8,5-10.4,7.2c-3.3,2-5.1,4.3-1.1,8
	c-3.3,0.7-5.9,1.2-8.6,1.9c-2.1,0.5-4.4,0.7-6.1,1.8c-1.4,0.9-3,2.6-3,4.1c0,1.3,1.6,3.6,2.9,4c5.8,1.5,11.8,2.4,17.7,3.8
	c2.6,0.6,5,1.7,7.5,2.5c-1,2-1.6,4.3-3,6.2c-2.8,4.1-7.7,5.3-12.6,6.3c-3.2,0.7-5.3,1.4-2.5,4.6c2,2.2,0.5,3.9-1.6,4.6
	c-5.2,1.6-10.6,3.6-16,3.9c-4.4,0.2-5.6,1.6-5.6,4.9c0.1,3.9,1.4,7.3,5.3,9.5c1,0.5,1.9,1.2,2.7,1.9c1.9,1.6,3.8,4.8,5.6,4.8
	c3.7-0.1,7.9-1.2,11.1-3c5.3-3,5.6-3.3,9.4,1.1c1.9,2.1,4.4,4,6.3,6.1c1.1,1.3,2.1,3.1,2,4.6c-0.6,10.3-1.5,20.6-2.3,30.9
	c-0.8,0.3-0.8,0.3-1.6,0.5c-2.5-2.9-5-5.7-7.9-9.1c-1.2,1.6-1.7,2.4-2.4,3.3c-2.2,2.2-3.9,1.7-5.2-0.7c-1.1-2.2-2.2-4.5-3.3-6.7
	c-0.8,0-0.9,0.1-1.7,0.1c-0.4,1.3-0.4,3.1-1.4,3.9c-1.3,1.1-4.2,2.6-4.9,2.2c-4.6-3.2-6.1,0.4-7.4,2.7c-1.3,2.1-2.1,3.2-5.2,2.7
	c-1.4-0.2-3.5,1.7-4.8,3.1c-1.8,1.9-2.9,5.4-6.3,1.3c-0.3-0.4-1.5-0.3-2.3-0.2c-9.7,1.4-18.8,5.2-28.9,5c-3.7-0.1-6.6-0.6-8.8-3.7
	c-0.8-1.1-4.9-1.7-6.3-0.9c-6.1,3.7-12.8,1.9-19.3,2c-0.9,0-2.5-2.9-2.7-4.4c-0.3-4,0-7.9,0-12.2c-11.9,0.2-9.9,9.8-15.4,15.8
	c-0.7-2.1-1.2-3.7-1.8-5.2c-0.6-1.3-1.3-2.6-2-4c-1.4,1-3.3,1.8-4,3.2c-1.5,2.7-2.2,5.9-3.6,8.7c-0.7,1.3-2.3,2.1-3.5,3.2
	c-0.8-1.1-2.3-2.1-2.4-3.4c-0.6-6-1.3-12-1.2-18.1c0-3.4,3-4.6,6.7-4.5c3.1,0.1,6.2,0.1,10.1,0.2c-2-3.6-4-6.5-5.5-9.8
	c-0.6-1.1-0.2-2.6-0.3-4c1.5,0.1,3.3-0.3,4.5,0.2c4.3,1.9,8.4,4.3,12.8,6.6c0.5-1.9,0.9-3.8,1.2-5.4c4.9,0.8,9.3,1.6,14.9,2.5
	c-0.9-1.9-1.2-2.4-1.3-3c-0.5-1.7-1-3.5-1.5-5.2c1.9-0.1,3.8-0.3,5.6-0.3c1.9,0,3.8,0.3,6-0.2c-15.5-11.2-33.9-17.6-51.2-26
	c0.1-0.7,0.1-0.6,0.2-1.3c2.9-0.4,5.8-1,8.7-1.2c2.1-0.1,4.3,0.3,6.5,0.3c2.5,0,4.3-0.8,3.7-3.5c-0.8-3.8,1.2-4.6,5-4.5
	c1.8,0.1,3.6-0.8,5.4-1.2c-1.1-1.5-1.9-3.4-3.5-4.5c-6.8-4.8-14.3-8.6-24.3-9.5c1.7-1.7,2.9-2.9,4.6-4.6c-2.7-1.7-5.2-3.5-7.9-5
	c-1.5-0.9-3.5-1.2-4.7-2.3c-1.5-1.3-2.5-3.2-3.8-4.8c2.1-0.2,4.3-0.7,6.4-0.6c3.4,0.2,6.8,0.7,11.9,1.3c-1.7-2.6-2.2-4.3-3.5-5.4
	c-7.6-6.6-14.5-13.7-19.9-22c-1.8-2.7-3.7-3.4-5.3,0.4c-1.4,3.4-2.9,6.6-4.4,9.9c-1.3,3-3.1,4.9-7.3,4.8c-4.4-0.1-7.5-1.6-8.8-5.3
	c-2-5.5-3.5-11.2-5.5-16.7c-0.7-1.9-2.4-3.6-3.6-5.4c-1.7,1.4-3.7,2.7-4.9,4.5c-2.4,3.4-4.6,6.8-6.3,10.5c-0.8,1.8-1,4.5-0.1,6.2
	c1.4,2.6,0.7,4.2-1.6,5.6c-2.2,1.4-4.5,3-6.6,4.5c-2.3,1.6-3.4,3.6-0.4,5.3c3.8,2.1,2.4,4.4,0.2,6.1c-3.6,2.7-7.6,5-11.4,7.4
	c-1.6,1-3.4,1.9-4.7,3.3c-2.2,2.2-1.8,4,1.7,4.8c5.1,1.2,6,2.9,4.1,7.3c-2.9,6.9-10,7.9-16.8,9.5c-4.6,1-9.5,1.7-13.7,3.6
	c-2.1,0.9-3.5,4-4,6.2c-0.2,0.7,3.5,2.4,5.7,3.2c2,0.6,4.3,0.5,6.5,0.5c4.4-0.1,7.9,0.2,7.6,5.6c-0.1,2.6,2.3,4.1,5.6,3.2
	c2.5-0.6,5.4-0.6,7.7-1.6c5.2-2.1,7.9,0.7,10.6,3.8c0.9,1,1.7,2.1,2.6,3.3c4.4,5.6,2.4,9.6-5.5,10.1c-4.8,0.3-9.7-0.1-14.5-0.1
	c-4.7,0-8.2,2.6-9.1,6.7c-0.9,3.9,1.1,6.2,5.7,6.5c2.4,0.2,4.9,0.1,7.9,0.1c-0.3,1.8-0.4,3-0.8,4c-1.4,4.3-0.6,5.5,4.5,5.1
	c5.3-0.3,10.5-1.5,15.7-2c5.5-0.6,6.5,0.4,6.5,5.3c-0.1,3.9-0.1,7.7-0.6,11.5c-0.2,1.2-1.7,2.3-2.5,3.6c-1.3-0.8-2.8-1.4-3.8-2.4
	c-1-0.9-1.5-2.3-2.4-3.4c-3.6-4-5.7-3.9-9.1,0.1c-1,1.1-2.9,1.7-4.4,2.5c-1-1.4-2.1-2.7-2.8-4.3c-0.5-0.9,0-2.2-0.6-3
	c-0.9-1.1-2.2-2.3-3.6-2.5c-1-0.2-2.7,1-3.5,1.9c-1.3,1.6-2,3.7-3,5.5c-5.7-1.4-4.2-9.8-12-8.8c-0.3-1.3-0.3-2.5-0.8-3.5
	c-1.3-2.5-2.4-5.2-6.5-5.2c-3.9,0-6.9,0.4-8.4,4.4L1.1,1051.2v1239h3503.5V1285.6C3504.6,1285.6,3373.3,1164.1,3354.9,1166z
	 M423.1,1109.4c-4-2.1-7-3.6-9.7-5.3c-0.7-0.4-1.1-2.3-0.8-2.5c3.1-1.9,5.5-5.5,10.7-4.3C423.2,1100.9,423.1,1104.3,423.1,1109.4z
	 M456.5,1123c0.5,0.3,1.1,0.5,1.6,0.8c-0.7,2.3-1.4,4.7-2,7c-2.8-0.8-5.6-1.7-8.4-2.5c0.1-0.5,0.2-1,0.3-1.6
	C450.8,1125.4,453.7,1124.2,456.5,1123z M442.5,1095c3.4,2,5.9,3.2,7.9,4.8c0.8,0.6,1.4,3,1,3.3c-1.9,1.2-4.1,2.2-6.4,2.9
	c-0.5,0.1-2.4-1.6-2.5-2.5C442.2,1100.9,442.5,1098.4,442.5,1095z M464.3,1150.4c-0.5,8.6-1.3,17-2,25.6c-0.5,0.1-0.9,0.3-1.4,0.4
	c-1.8-2.4-3.6-4.9-5.3-7.3c-2-2.9-3.8-3.2-5.7,0.1c-0.6,1-1.8,2.4-2.9,2.5c-5.7,0.7-9.7-2.6-9.7-7.8c0-0.7,0-1.5,0-2.2
	c-0.2-6.3-0.2-6.3,6.7-5.3c8.9,1.2,9,1.1,10.2-6.6c0.1-0.6,0.1-1.2,0.4-1.7c0.8-1.3,2-3.7,2.7-3.7c1.9,0.2,4,1.2,5.5,2.4
	C463.8,1147.6,464.4,1149.2,464.3,1150.4z M475.7,1124.6c0.3-2.6,0.5-5.3,0.7-7.9c2.6,0.6,5.2,1.2,7.8,1.7c-1.8,2.3-3.7,4.8-5.5,7.1
	C477.7,1125.2,476.7,1124.9,475.7,1124.6z M713.8,1116.3c3,0.3,6,0.2,9,0.7c1.2,0.2,2.7,1.2,3.2,2.2c0.3,0.6-0.9,2-1.7,2.9
	c-2.8,2.5-5.9,4.8-8.6,7.3c-1.8,1.6-1.8,3.5,1.1,4.5c1.5,0.5,3.1,1.1,4.7,1.2c4.5,0.3,6.3,2.4,5.9,6.1c-0.4,3.9-1.4,7.6-1.6,11.4
	c-0.4,7.7-4,12.3-13.1,14c-8.6,1.6-11.3,0.4-11.5-7.6c0-2.3-0.5-4.7-0.9-7.8c-1.9,1.1-2.8,1.5-3.4,2.1c-2.8,2.7-5.3,5.6-8.2,8.1
	c-1.3,1.1-3.4,1.4-5.2,2c-0.6-1.4-1.6-2.7-1.8-4.2c-0.7-3.9-1.1-7.7-1.6-12c-4.8,1-4.5,4.3-5.8,6.5c-0.9,1.6-2.3,3.1-3.4,4.6
	c-0.9-1.5-1.9-3.1-2.7-4.6c-0.7-1.3-1.2-2.6-1.7-4.1c-0.5,0-1,0-1.4,0c-2.9,4.9-5.8,9.7-8.7,14.6c-0.6-0.2-1.1-0.3-1.7-0.5
	c-1.4-13.6-2.2-27.4,1.4-41.6c2.1,0.6,3.7,1.2,5.4,1.5c1.4,0.2,3,0.4,4.2,0c2.6-0.9,5-2.2,7.5-3.4s5.2-1.9,7.4-3.4
	c2.9-1.8,3-3.7-0.3-5.8c-4.2-2.9-8.3-6-11.5-9.7c-4.1-4.6-2.1-7.2,4.4-8.3c4.4-0.7,8.7-2.4,12.8-4.1c4.6-1.8,9-4.3,13.6-6.2
	c1.1-0.5,2.8,0,4.2,0.1c-0.1,1.2,0.1,2.6-0.4,3.8c-1.2,2.4-3,4.6-4.2,7c-0.7,1.5-0.8,3.3-1.5,6.2c3.1-1,5.1-1.2,6.4-2.2
	c4.7-3.7,9-7.7,13.9-11.2c1.8-1.3,5-2.3,6.8-1.7c1.6,0.5,3.1,3.4,3.3,5.3c0.6,6.6-3.8,10.9-9.7,14.4c-2.7,1.6-5.5,3.3-7.6,5.5
	C707.7,1113.3,709,1115.8,713.8,1116.3z M812.8,1060.4c1.4,2.6,2.3,5.9,1.8,8.7c-0.1,0.9-5.1,1.2-7.9,1.7c-0.5,0.1-1,0-1.5,0
	c-3.5-0.4-5.9,0.5-7.5,3.7c-1.7,3.3-6.9,4.6-10.4,2.6c-8.3-4.6-14.6-11.1-20.5-18.4c6.8-0.2,12.8-0.4,20.3-0.6c5.8,5.1,6,3,14,1.2
	c1.9-0.4,3.9-1.2,5.8-1C809,1058.4,812.1,1059,812.8,1060.4z M776.9,1035.6c1.3-1.1,2.7-2,3.8-3.3c1.5-1.5,2.9-3.2,4-4.9
	c0.9-1.3,1.4-2.9,1.9-4.1c5.5,1.6,10.6,3,15.5,4.6c0.8,0.3,1.6,2.2,1.3,3c-2.2,4.7-15.3,10.7-20.7,9.2
	C780.5,1039.4,778.9,1037.1,776.9,1035.6z M765.8,993.6c3.5-1.5,6.9-3.5,9.7-5.8c2.8-2.3,5.1-3,8.8-1.4c5.1,2.1,10.4,4,16.2,1.5
	c1.4-0.6,3.2-0.5,4.9-0.7c0.4,0.4,0.8,0.9,1.3,1.3c-4.8,3.9-9.1,8.3-14.4,11.5c-8,4.8-20.2,3.2-27.2-2.5
	C762.6,995.6,763,994.8,765.8,993.6z M822.1,1152.1c-5.2,8.9-11.6,7.9-18,1.1c-0.7-0.8-1.2-1.7-1.9-2.6c-1.3-1.7-2.7-3.5-4.1-5.3
	c-0.4,0.2-0.9,0.4-1.3,0.5c0.6,2,1.6,4.1,1.8,6.1c0.1,2.2-0.5,4.6-0.9,6.8c-2.3-0.9-4.9-1.4-6.7-2.9c-3-2.2-5.5-5.1-8.2-7.6
	c-0.4,0.1-0.9,0.2-1.3,0.4c0.4,4.6,0.9,9.3,1.4,14.9c-7.6-3.6-8.7-9.3-10.8-14.8c-1.3,1.3-2.1,2.4-2.2,3.7c-0.3,2.7-1.3,5.4-4.8,5
	c-3.2-0.3-5.5-2.2-5.5-5.8c0.1-3.6-0.2-7.1-0.7-10.6c-0.5-3.8,0.2-6.4,5-7.1c3.2-0.6,4.9-2.5,4.5-5.5c-0.3-2-0.7-4.1-1.5-6
	c-2.3-4.8-5.2-9.3-7.1-14.2c-0.9-2.3-1.4-6.1,0.1-7.7c1.5-1.6,5.6-1.4,8.5-1.8c0.7-0.1,1.6,0.3,2.4,0.5c11.3,3.7,11.3,3.7,19-4.2
	c0.2-0.2,0.5-0.3,1.2-0.7c0.3,0.9,0.9,1.7,0.7,2.3c-1.3,3.1-3,5.9-4.1,9c-0.6,1.6-0.2,3.6-0.3,5.4c2,0,4,0,5.9,0.1s4.8-0.3,5.6,0.7
	c2.5,2.9,5.5,3.1,9,2.7c2.5-0.2,5-0.6,7.4-0.8c5.5-0.5,7.9,3.3,9.6,6.5c0.8,1.5-0.9,4.6-2.3,6.4c-1.8,2.5-4.6,4.6-6.6,7.1
	c-2.5,3.3-1.8,4.2,2.4,4.8c3.3,0.5,6.6,1.3,10.1,2C826.1,1144.7,824.2,1148.5,822.1,1152.1z M885.5,1052.2c0.7,1.8,1.7,3.2,1.6,4.4
	c-0.6,5.5-3.3,10.4-11,10c-8.4-0.5-18.3-6-20-12.2c3.5,0.2,6.7,0.2,9.9,0.7C872.5,1056.2,879.4,1058.4,885.5,1052.2z M873.4,1035.8
	c-3.3,3.4-7.4,4.4-12.1,3.1c-4.8-1.4-10.1-7.3-9.7-10.9c0.1-0.9,1.4-2.1,2.5-2.5c3.9-1.4,8-2.5,13-4.2c0.5,0.8,1.1,2.1,2.1,3.3
	c1,1.1,2.2,2.1,3.5,3.1C876.3,1030.4,876.6,1032.6,873.4,1035.8z M839.5,992.7c-2.8-0.9-2.7-2.3-0.8-4c1.1-0.9,2.4-1.5,3.7-2.2
	c3.3-1.8,6.5-3.7,9.8-5.4c1.5-0.7,3.3-1.8,4.7-1.6c4.9,1,9.7,2.5,14.5,3.9c0,0.5,0,0.9,0,1.4c-7.9,1.4-11.6,5.4-9.7,12.9
	c-7.7-1.7-14.4-3.3-21.2-4.8C840.2,992.8,839.9,992.7,839.5,992.7z M888.2,1120.1c3.5,3.4,2.9,5.4-1.5,7.7c-2.6,1.3-5.5,2.2-8,3.7
	c-1.1,0.6-2.3,2.2-2,3.2c0.3,1.1,1.9,2.2,3.2,2.9c1.8,0.7,3.8,0.9,5.8,1.3c3.4,0.8,4.5,3.2,4,5.8c-1,5.2-2.3,10.5-3.9,15.6
	c-0.5,1.6-2.4,3-3.6,4.4c-1.6-1.1-3.2-2.2-4.6-3.5c-0.9-0.8-1.2-2.2-2-3.1c-0.8-0.7-2.1-1.1-3.1-1.6c-0.5,0.8-1.3,1.6-1.4,2.5
	c-0.2,2.2,0.2,4.5-0.3,6.6c-0.3,1.3-1.9,2.5-2.9,3.8c-1.3-0.9-3.1-1.5-3.9-2.7c-1.2-1.9-1.6-4.2-2.6-6.2c-0.5-1.1-1.6-2-2.4-3
	c-1.1,0.7-2.3,1.4-3.4,2.2c-1.7,1.2-3.4,2.4-5.1,3.7c-1.4-1.7-2.8-3.5-4-5.3c-0.5-0.7-0.4-1.7-0.4-2.6c0-6,0.1-11.9,0-17.9
	c-0.1-3.2,0.7-5.2,4.7-6.2c4.4-1.1,4.8-3.4,1.6-6.6c-2.8-2.9-5.9-5.5-8.4-8.6c-2.2-2.6-4.7-5.5-1.8-9.5c4.2,1.8,8.1,3.8,12.3,5.2
	c2.4,0.8,5.2,0.8,7.9,1.2c0.2-2.6,1.2-5.5,0.3-7.8c-1.9-5.2-4.8-10.1-7.2-15.1c-0.9-1.9-2-3.8-2.4-5.8c-0.3-1.2,0.2-3.1,1.1-4
	c0.5-0.5,2.9,0.1,4.1,0.7c2.1,1.1,4.2,2.4,5.9,4c7.3,7,16,9.5,27.4,5.2c-0.4,3.3-0.4,5.9-1.2,8.2c-1,3.3-2.3,6.5-4,9.5
	C883.8,1112.5,884.2,1116.2,888.2,1120.1z M977.9,1143.6c-0.1,3.4-2.5,3.5-5.2,2.1c-1.8-0.9-3.3-2.1-6.3-4.1
	c-0.1,4.4,0.1,7.4-0.3,10.4c-0.2,1.3-1.6,2.5-2.4,3.9c-1.2-0.8-2.7-1.5-3.5-2.5c-1.2-1.6-1.8-3.7-2.9-6c-5.1,2.9-2.7,8.2-5.4,12
	c-1.4-1.7-2.5-3.2-4.6-5.7c-1.6,7.4-2.7,13.6-4.2,19.7c-0.4,1.5-1.6,3.4-3.1,3.9c-0.9,0.4-3.1-1.1-4.2-2.2c-1.2-1.2-1.7-2.9-2.5-4.3
	c-1.9-3.5-4.7-3.6-8.3-1.8c-3.1,1.5-6.5,2.7-9.7,4.2c-0.7-3.3-1.9-6.5-1.9-9.8c0-4.3-1.8-6.4-6.6-6.4c-4.5-0.2-5.5-2.7-5-6.1
	c0.5-3.5,1.3-6.9,1.5-10.5c0.2-4.6,1.8-8.2,6.4-10.8c3.2-1.7,3.2-4.4,1.6-6.9c-1.1-1.6-2.5-3.2-3.8-4.6c-4.4-5-4.3-5.7,0.9-9.7
	c6.5-5,6.8-7.1,2.5-13.5c-1.2-1.7-1.5-4-2.2-5.9c2.3-0.5,4.5-1.1,6.8-1.6c3-0.7,7.1-0.6,8.9-2.3c7.1-6.5,7.2-6.7,13.3,0.5
	c0.4,0.5,0.8,0.9,1.2,1.4c3.1,3.7,6.4,4,9.3,0c0.4-0.6,0.9-1.2,1.4-1.8c3.9-4.8,7.7-4.6,11.1,0.4c0.7,1,1.2,2,1.7,3.2
	c1.4,3.2,3.3,4,6.8,2c3.1-1.7,4.8-0.9,4.9,2.6c0.2,7.5-2.3,14.3-7.1,20.4c-3.7,4.6-3,6.1,3,6.6c4.6,0.4,7.2,2.9,7.6,6.4
	C978.2,1132.3,978,1137.9,977.9,1143.6z M978.5,1021.3c-2.2,5.7-6.5,9.8-12.6,12.5c-5.6,2.5-10.9,5.6-16,8.8
	c-1.4,0.9-1.7,3.2-2.5,4.8c1.9,0.6,3.8,1.9,5.7,1.8c2.6-0.1,5.2-0.9,7.6-1.8c3.3-1.2,5.1-1.2,5,2.5c-0.1,3,1.7,4.3,5,4.1
	c1.1-0.1,2.3,0,3.8,0c-0.1,4.6-0.3,8.9-0.1,13.1c0.2,3.9-2.2,4.8-5.6,3.9c-4-1-7.8-2.4-11.7-3.7c-14.9-4.5-26-13.4-35.7-23.9
	c-1.2-1.3-2-3.7-1.5-5.1c0.3-1,3.1-1.5,4.9-1.9c1.6-0.3,3.3-0.1,5-0.1c5.3-0.2,6.5-1.9,3.7-5.8c-3.3-4.6-7.1-8.9-10.4-13.4
	c-1.9-2.5-3.3-5.5-5.5-9.2c11.4-0.2,14,8.3,21.7,12.3c0.7-2,1.3-3.8,1.9-5.4c0.7-1.9,1.5-3.9,2.2-5.8c1.4,1.5,2.6,3.3,4.2,4.4
	c1.7,1.2,4,2.9,5.9,2.6s3.8-2.1,5.3-3.7c2.6-2.6,4.8-3.6,7.3,0c2.4,3.3,5.2,5,9.5,2c0.5-0.3,3.4,0.9,3.6,1.7
	C979.6,1017.7,979.2,1019.6,978.5,1021.3z M1014.9,963.5c3.5,2.4,5.7,6.4,8.5,9.8c-1.4,2-2.2,3-2.9,4.1c-0.8,1.3-1.6,2.7-2.4,4.1
	c-2.2,3.6-3.8,7.5-6.7,10.5c-3.1,3.3-6.9,2.3-9.2-1.5c-0.9-1.5-1-3.4-1.1-5.1c-0.2-3.4,1.5-7.7-0.4-10c-4.3-5.3,0.2-6.9,3.3-9.4
	C1007.3,963.5,1011.2,961,1014.9,963.5z M987.2,947.5c0.3-3.5,3.9-4.4,7.6-3.9c0.8,0.1,1.7,0,2.5,0c0-0.2,0.1-0.3,0.1-0.5
	c2.6,0.6,5.2,1.2,7.9,1.8c-1.2,2.4-2.4,4.9-3.8,7.3c-0.3,0.5-0.9,0.8-1.4,1.2c-2.9,2.6-6.5,2.2-9.1,0.4
	C989,952.4,987,949.6,987.2,947.5z M1018.6,1148.1c-1,3.6-2.6,6-6,8c-1.5,0.9-2.1,3.1-2.6,4.8c-0.8,2.5-1.2,5.3-2,9.1
	c-8.8-6.9-4.4-15.9-7.5-23c-0.8,0.4-1.2,0.6-1.7,0.8c-1.9,0.9-3.8,1.7-5.7,2.6c-0.6-1.9-1.9-3.9-1.8-5.8c0.1-6.3,0.7-12.5,1.2-18.7
	c0.3-3.4,1.2-5.1,5.5-2.7c2.8,1.5,6,1.7,9.2-0.7c1.6-1.2,4.6-1.1,6.9-1.6c0.5,2.2,1.8,4.7,1.3,6.8c-0.5,2.3-2.7,4.3-4.1,6.5
	c-1.6,2.6-2.4,4.6,2.3,5.8C1017.6,1141,1019.8,1143.5,1018.6,1148.1z M1020,1095.6c-0.5,1.5-4.5,2.4-7.1,3c-2.7,0.6-5.7,0.3-8.4,0.7
	c-8.7,1.4-10.7,0.4-12.1-7.3c-0.3-1.4-0.4-3-0.5-3.8c1-7.4,1.7-14.2,3-20.9c0.3-1.6,2.1-4.1,3.5-4.2c1.7-0.1,4.1,1.3,5.5,2.7
	c3.2,3.4,6.4,6.2,12,5.9c4.4-0.2,4.3,3,2.7,4.8c-3.2,3.7-1.5,5.9,0.8,9.4C1021.1,1088.5,1020.9,1092.5,1020,1095.6z M1021.6,1028.1
	c-5.8,1.4-12.8-3.5-12.9-7.4c-0.1-3.6,6.3-9.9,9.9-10c3.8,0,7.5,2.5,6.8,5.5C1024.4,1020.2,1028.5,1026.4,1021.6,1028.1z
	 M1045.7,935.6c2.5,1.2,3.8,1.9,5.1,2.5c1.6,0.8,3,1.8,4.7,2.3c4.4,1.4,8.9,2.3,13.2,4c3.1,1.1,5.8,3.1,8.6,4.7
	c-2.3,2-4.4,4.1-6.8,6c-3.9,3.1-7.9,3.8-12.7,1c-2.1-1.2-5.1-1.1-7.4-2.1c-1.9-0.8-4.6-2.2-4.7-3.6
	C1045.2,946,1045.6,941.6,1045.7,935.6z M1040.4,1019.2c0.6-8.4,3-16.9,1.1-25.5c-0.1-0.3-0.2-0.7,0-0.9c0.8-1.1,1.5-2.7,2.7-3.2
	c0.9-0.4,3.1,0.3,3.8,1.1c4.7,5.8,10.6,8.3,19.2,5.7c0.4,7,3.3,11.3,10.8,12.1c0.3,0,0.7,0.2,0.9,0.4c0.8,1,1.6,2,2.4,3.2
	c-1.2,0.6-2.3,1.3-3.6,1.7c-3.5,1.1-7,2.4-10.5,3.3c-3.1,0.7-6.8,1.9-9.5,1.1c-4.9-1.5-5.2,0.2-5.9,3.6c-0.3,1.5-2.3,3.6-4,4.1
	C1044.1,1027,1040.1,1023.3,1040.4,1019.2z M1063.5,1042.6c-2.2-5.6-2.2-5.6,4.6-9c1.6-0.8,3.1-1.7,4.8-2.3c2.9-1.1,5.6-1.1,5.9,2.3
	c0.6,7.2,1.2,14.5,0.9,21.6c-0.2,3.4-3.3,5.3-8,4.5c-4.5-0.8-9.1-2.9-13.9-0.6c-2.3,1.1-4.7,2.1-7,3.2c-5.5,2.3-9.3,1.1-12.4-4.3
	C1046.7,1052.8,1055.1,1047.7,1063.5,1042.6z M1075,1143.9c-0.1,10.1-0.3,20.2-0.7,30.3l-7.3,0.1c-0.2-0.1-0.3,0-0.4,0l-7.2,0.2
	c-0.7-3.2-1.4-5.9-2.2-9.6c-2,3.1-3.2,4.9-4.9,7.3c-1.2-2.9-2.2-5.3-3.5-8.1c-1.2,0.5-2.1,1-3,1.2c-1.5,0.4-3,0.6-4.5,0.9
	c-0.2-1.2-0.6-2.5-0.6-3.8c0-0.8,0.3-1.7,0.6-2.5c2.5-6.5,2.7-12.9,0.1-19.4c-2.4-6.1-0.7-9.8,4.4-11.8c3.9-1.5,7.6-3.5,11.2-5.4
	c3.6-1.8,6.9-4.2,10.6-5.7c4.9-2.1,7.8-0.3,7.7,4.5c0,1.4-0.6,2.9-0.7,4.4c-0.3,2.5-0.8,5.2-0.7,7.7
	C1074,1137.5,1075.1,1140.7,1075,1143.9z M1078.3,1080.2c-6.2,1.6-12.2,3.9-18.5,5.1c-4.8,0.9-6.8,2.6-5.2,7.1
	c-5.1,0-12.9-3.8-12.5-6.4c0.6-4.2,2.7-8.1,4.6-12.1c0.2-0.3,3.4-0.3,4.1,0.4c3.2,3.5,5.9,2.1,8.7-0.3c1.4-1.2,2.9-2.3,4.4-3.5
	c2.9-2.1,5.5-2.1,8.3,0.4c1.1,1,3.1,1.1,4.7,1.7s4.4,1,4.9,2.1C1082.8,1077.2,1081.5,1079.3,1078.3,1080.2z M1082.8,974.8
	c-0.9,1.9-4.4,3.5-7,3.8c-6.9,0.9-16.9-6-18.8-12.5c8.1,2.1,16,3.1,23.2-1.7C1083.7,967.7,1084.7,971.5,1082.8,974.8z M1066.2,933.2
	c-6.5-1.6-13.1-10.5-13.4-18c10.5,3.1,21,5.9,31.6,8.9C1079.1,931.7,1072.6,934.8,1066.2,933.2z M1056.8,884.1
	c6.8,6.8,14.3,12.3,25.5,11.1c-1.2,4.5-6.2,7.6-11.7,8.1c-7.9,0.7-12.7-1.2-15.2-5.9C1052.6,892.2,1053,887.5,1056.8,884.1z
	 M1085.5,861.2c-2.2,1.7-4.7,3.3-6.7,5.2c-1.5,1.4-2.4,3.3-3.6,5c1.7,0.6,3.5,1.1,5.1,1.8c0.9,0.4,1.7,1.1,2.4,1.8
	c0.1,0.1-0.8,1.1-1.4,1.4c-10.8,5.2-25.6-1.1-28.4-12.5c2.3,0,4.6-0.1,6.8-0.2c3-0.2,5.2-0.9,2.7-4.1c-1.8-2.2-3.6-4.6-5-7
	c-1.5-2.7-2.5-5.6-4.2-9.6c5,1.2,8.2,2.6,11.3,2.6c6.9,0,13.9-0.5,20.8-1.2c3.5-0.4,4.9,0.3,5.3,3.4
	C1091.2,853.1,1090.1,857.7,1085.5,861.2z M1812.2,1457.1c-0.6,0-1.2,0-1.9,0c-0.9,0-1.5-0.2-1.5-1.3c0-1.1,0.5-1.3,1.5-1.3
	c4.9,0,9.8,0,14.6,0c0.7,0,1.3,0,2.2,0c0.1-1.4,0.1-2.7,0.2-4.2c2.3,0,4.7-0.1,6.9,0.1c0.3,0,0.8,0.9,0.8,1.5c0.1,4.6,0,9.2,0,13.7
	c0,3.2,0,6.5,0,9.7h-7.9c0-6,0-12.1,0-18.1c-3.1,0-6.1-0.1-9,0.1c-0.5,0-1.2,1.1-1.4,1.8c-1.7,5.2-3.4,10.4-5,15.6
	c-0.1,0.2-0.1,0.4-0.2,0.6h-3.2c0.2-1,0.5-2,0.8-2.9c1.4-4.5,2.8-8.9,4.2-13.4C1814.1,1457.2,1814,1457.1,1812.2,1457.1z
	 M1829.9,1268.5c-3.4-1.7-6.7-3.3-10.4-5.1c1.7-2.8,3.3-5.5,5.2-8.7c2,4.8,3.8,9.1,5.6,13.4
	C1830.1,1268.3,1830,1268.4,1829.9,1268.5z M1830.2,1269.5c-4.3,2.2-8.2,4.2-12.2,6.2c-0.3,0.1-0.9-0.3-1.3-0.5
	c-0.1,0,0-0.2-0.1-0.3c-2.2-3.1-1-5.7,0.9-8.4c1.9-2.6,1.8-2.6,4.6-1.1c1.9,1,3.9,1.9,5.8,2.8
	C1828.7,1268.5,1829.3,1269,1830.2,1269.5z M1823.9,1254.9c-1.4,2.4-2.9,4.7-4.3,7.1c-0.5,0.9-1,1-1.9,0.5c-2.9-1.5-3-1.5-2-4.5
	c1.3-3.9,2.5-7.8,3.8-11.8c0.2-0.6,0.5-1.1,0.9-2.1c1.4,3.4,2.6,6.4,3.8,9.3C1824.3,1253.9,1824.1,1254.5,1823.9,1254.9z
	 M1816.8,1266.7c-0.6,1-1.2,2-1.8,3.2c-2.3-2.8-1.6-5.4-0.1-7.9c0.1,0,0.1,0,0.2,0C1818.9,1263.3,1818.9,1263.3,1816.8,1266.7z
	 M1813.5,1272.3c-0.7,1.1-1.2,2.4-1.8,3.6c0.6-0.8,1.2-1.7,1.8-2.5c0.3-0.5,0.7-1,1.2-1.8c0.6,1.6,1.2,3,1.7,4.3
	c0.1,0.2-0.1,0.7-0.3,0.8c-1.9,1-3.8,2-5.9,2.7c0.5-1.2,1.1-2.4,1.6-3.5c-0.6,0.7-1.2,1.4-1.8,2c-0.1,0-0.2-0.1-0.3-0.1
	c1.1-3.3,2.1-6.6,3.2-10C1814.5,1269.6,1814.6,1270.5,1813.5,1272.3z M1816.8,1277c1.3,3.3,2.5,6.4,3.8,9.5c0.3,0.7,0.6,1.3,0.9,2
	c-0.3-1.1-0.5-2.3-0.9-3.4c-0.9-2.4-1.9-4.8-2.8-7.3c-0.1-0.4,0-1.2,0.2-1.4c3.9-2.1,7.8-4,11.7-6.1c0.2,0.1,0.3,0.2,0.5,0.3
	c-1.6,8.3-3.2,16.7-4.8,25c-0.2,0-0.3,0.1-0.5,0.1c-0.7-1.6-1.3-3.2-2-4.8c-0.4-0.9-0.9-1.8-1.4-2.6c0.9,2.5,1.7,4.9,2.7,7.5
	c-5.1-5-10.1-9.8-15.4-14.9C1811.6,1279.7,1814.1,1278.4,1816.8,1277z M1830.4,1325.2c0.7-0.1,1.4,0,2.5,0
	c-5.8,15.8-11.6,31.4-17.3,47c-0.2,0-0.3,0-0.5,0c-0.7-1.5-1.4-3.1-2-4.6c-3.4-8.3-6.7-16.5-10-24.8c-0.8-2-1.5-4-2.4-6
	c-0.4-1-0.2-1.6,0.7-2.4c1.4-1.2,2.8-2.6,3.8-4.2c1-1.6,2.3-2.2,4-2.4C1816.2,1326.9,1823.3,1326,1830.4,1325.2z M1859,1467.9
	c-3.5-0.1-7-0.2-10.5-0.4c-0.2,0-0.4-0.1-0.6-0.2c0.4-2.7,0.4-2.7,3-2.7c3,0,6,0,9,0c0.6,0,1.2,0.1,1.8,0.1
	C1861.8,1467.7,1861.6,1468,1859,1467.9z M1860.5,1471.1c-0.1,0.8,0.1,2.1-1.4,2.1c-1.5,0-2.9,0-4.4,0c0,0,0,0,0,0
	c-1.3,0-2.6,0-3.9,0c-1.1,0-1.5-0.3-1.5-1.4c0-1,0.2-1.7,1.4-1.7c2.8,0.1,5.6,0,8.5,0.1C1859.7,1470.2,1860.5,1470.8,1860.5,1471.1z
	 M1861.6,1462.6c-3.8,0.1-7.7,0-11.5,0c-0.3,0-0.9-0.7-0.8-0.9c0.3-0.8-0.1-2.1,1.3-2.2c2,0,4,0,5.9,0c0,0,0,0,0,0
	c1.7,0,3.4-0.1,5.1,0c0.5,0,1.4,0.6,1.4,0.7C1862.7,1461.1,1863,1462.6,1861.6,1462.6z M1853.2,1454.5c1.2,0,2.4,0.1,3.6,0
	c2.3-0.2,3.4,1.2,4.8,2.9c-3.8,0-7.3,0-10.8,0C1850.6,1454.9,1850.9,1454.5,1853.2,1454.5z M1861.3,1449.5c0.1-0.1,0.1-0.3,0.2-0.4
	c1.2,0,2.5,0,4,0c-0.3,1.1-0.5,2-0.8,3.3C1863.3,1451.2,1862.3,1450.4,1861.3,1449.5z M1863.6,1446.8c-1,0-1.9-0.1-2.9,0
	c-2.4,0.4-3.8-1-5.6-2.9c4.1,0,7.7,0,11.3,0C1866.2,1446.8,1866.2,1446.8,1863.6,1446.8z M1855.8,1452c-1.5,0-2.5,0-3.9,0
	c0.3-0.8,0.6-1.6,0.9-2.5C1853.9,1450.4,1854.6,1451.1,1855.8,1452z M1852.3,1437.6c-0.1,0.5-0.6,0.9-0.9,1.4
	c-0.2-0.5-0.6-1-0.7-1.5c-0.1-1.3-0.1-2.7,0-4.1c0-1.1-0.3-1.8-1.5-1.6c-1.4,0.2-1.9-0.4-1.8-1.8c0.1-1.2-0.1-2.5,0.1-3.7
	c0.5-2.7-0.7-4.6-2.7-6.3c-1.1-0.9-2.3-1.8-3.4-2.7c0.2-0.3,0.3-0.5,0.5-0.8c5.2-1.2,10.5-2.4,16.1-3.6c-1.3,5.5-2.4,10.6-3.5,15.7
	C1853.6,1431.7,1853,1434.7,1852.3,1437.6z M1850.8,1311.4c-0.8,3.1-1.4,6.2-2.1,9.2c-0.1,0.6-0.3,1.3-0.5,1.9c-0.2,0-0.3,0-0.5-0.1
	c0-5.1,0-10.3,0-15.4c0-1.5-0.1-3,0-4.6c0.1-1.1-0.3-1.8-1.5-1.6c-1.8,0.2-2.4-0.7-2.7-2.3c-0.9-4.7-1.9-9.3-2.8-13.9
	c-0.1-0.3-0.1-0.6-0.2-1.3c0.6,0.5,0.9,0.8,1.2,1.1c1.7,2,3.5,4,5,6.2c0.9,1.3,1.6,2.8,2.1,4.3c0.8,2.5,1.3,5.1,2,7.7
	C1851.7,1305.6,1851.5,1308.5,1850.8,1311.4z M1788.2,1475.3h-3.8c0.7-0.7,1.8-0.8,3.9-0.2
	C1788.2,1475.1,1788.2,1475.2,1788.2,1475.3z M1882.9,1475.3h-21.1c1.1-5,2.2-10,3.4-15.2C1871.1,1465.2,1877,1470.2,1882.9,1475.3z
	 M1865.2,1441.7c-3,0-6,0-9.2,0c0.3-1,0.4-1.6,0.6-2.4c-0.6-0.1-1.2-0.3-1.8-0.4c0-0.1,0-0.1,0-0.2c4.1,0,8.3,0,12.4,0
	C1867.8,1441,1867.3,1441.7,1865.2,1441.7z M1867.4,1436.3c-4.1,0.2-8.1,0.1-12.3,0.1c0.1-2.9,0.2-3.1,2.6-3.1c3.2,0,6.5,0,9.7,0
	c0.5,0,1.3,0.7,1.3,0.8C1868.4,1434.9,1867.9,1436.3,1867.4,1436.3z M1867.2,1431.3c-3.1,0-6.1,0-9.2,0c-0.6,0-1.2-0.1-1.8-0.2
	c0.1-2.8,0.1-2.8,2.5-2.8c3.7,0,7.3,0,11,0C1870,1431,1869.7,1431.3,1867.2,1431.3z M1869.7,1426c-4.1,0.2-8.2,0.1-12.3,0.1
	c0-3,0.1-3.1,2.6-3.1c3.2,0,6.3,0,9.5,0c0.5,0,1,0.5,1.5,0.8C1870.6,1424.6,1870.2,1426,1869.7,1426z M1869.1,1420.8
	c-3.5,0-7,0-10.5,0c-0.2-2.8,0.1-3.2,2.7-3.2c3,0,6,0,9,0c0.6,0,1.2,0.1,1.9,0.1C1871.9,1420.8,1871.9,1420.8,1869.1,1420.8z
	 M1864.1,1376.1c0-1.3-0.5-1.7-1.7-1.6c-0.8,0.1-1.6,0.1-2.4,0.1c-0.5,0-0.9-0.2-1.4-0.4c0-0.2,0.1-0.5,0.1-0.7c2.8,0,5.5,0,8.3,0
	c0.3,0,0.7,0.7,0.8,1c0.1,3.4,0.1,6.8,0.2,10.1c0,1.5-0.8,1.7-2,1.6c-1.1,0-2,0-2-1.6C1864.2,1381.8,1864,1379,1864.1,1376.1z
	 M1870.6,1415.6c-3.1,0-6.1,0-9.2,0c-0.5,0-1.1-0.1-1.6-0.1c0-2.9,0.1-2.9,2.7-3c3,0,6-0.1,9-0.1c0.7,0,1.3,0.1,2,0.1
	C1873.2,1415.5,1873.1,1415.6,1870.6,1415.6z M1873.4,1410.1c-4.1,0.2-8.2,0.1-12.5,0.1c0.2-2.9,0.3-3.1,2.8-3.1
	c3.2-0.1,6.4,0,9.7,0.1c0.4,0,1.2,0.6,1.2,0.7C1874.2,1408.7,1873.8,1410.1,1873.4,1410.1z M1875.5,1404.1c-0.1,0.3-0.7,0.7-1.1,0.8
	c-3.5,0.1-7,0.2-10.5,0.3c-0.8,0-1.9,0.1-1.9-1.1c0-1.1,0.1-2.3,1.6-2.6c4.2-0.7,8.3-1.4,12.9-2.1
	C1876.1,1401.1,1875.9,1402.6,1875.5,1404.1z M1876.7,1385.3c0,0.3-0.7,0.9-1.1,0.9c-1.9,0.1-3.7,0.1-5.6,0c-1.1,0-1.5-0.6-1.5-1.6
	c0-3.7,0-7.3,0-11.2c2.6,0,4.7,0,6.8,0c1.2,0,1.7,0.6,1.7,1.6C1876.9,1378.5,1876.8,1381.9,1876.7,1385.3z M1877.6,1385.8
	c0-3.8,0-7.4,0-11c0-0.4,0.4-0.8,0.6-1.2c0.3,0.4,0.7,0.7,0.8,1.1c0.9,3.6,1.8,7.3,2.7,11.2
	C1880.4,1385.8,1879.1,1385.8,1877.6,1385.8z M1879.5,1367.1c3.6,0,7,0,10.3,0c3.6,0,4.2,0.7,4.1,4.6c0,0.1-1.6,0.1-2.5,0.1
	c-3.1,0-6.1-0.1-9.2,0c-1.3,0-1.9-0.4-2-1.6C1880,1369.3,1879.8,1368.4,1879.5,1367.1z M1882.7,1381.3c-0.1-0.9-0.2-1.8-0.3-3
	c4.5,0,8.7,0,13,0c0.3,0,0.7,0.4,0.8,0.6c0.4,1.2,0.6,2.5,1,3.9c-1,0.1-1.7,0.1-2.5,0.1c-3.2,0.1-6.4,0.1-9.7,0.2
	C1883.6,1383.3,1882.8,1382.8,1882.7,1381.3z M1897.9,1385.8c-0.5,0.1-1,0.2-1.5,0.2c-3.7,0-7.3,0-11,0c-1.2,0-1.6-0.6-1.5-1.9
	c0.5-0.1,1-0.2,1.5-0.2c3.6,0,7.2,0.1,10.9,0.1C1897.5,1384,1898,1384.5,1897.9,1385.8z M1898.5,1379.7c-0.2,0-0.3,0.1-0.5,0.1
	c-0.6-2-1.1-3.9-1.7-5.9c1.9-0.6,2.1-0.5,2.1,1.2C1898.5,1376.6,1898.5,1378.2,1898.5,1379.7z M1895.6,1363.6c0.1,0,0.3,0,0.4,0
	c0.7,2.8,1.4,5.6,2.2,8.6c-2.2,0.4-2.6,0.1-2.6-1.7C1895.6,1368.2,1895.6,1365.9,1895.6,1363.6z M1895.7,1377.2
	c-0.7,0.1-1.3,0.1-1.9,0.1c-3.1,0-6.1,0-9.2,0c-2.9,0-3.3-0.5-3.3-3.8c4.3,0,8.5,0,12.6,0c0.4,0,0.9,0.6,1.1,1
	C1895.3,1375.3,1895.4,1376.2,1895.7,1377.2z M1891.8,1346.3c1.5,6.3,3.9,12.4,2.7,19.5C1892.1,1359.3,1890.8,1353,1891.8,1346.3z
	 M1892.2,1363.7c0.1,0.7,0.2,1.4,0.4,2.4c-2.2,0-4.3,0-6.3,0c-1.8,0-3.5-0.1-5.3,0c-1.4,0.1-2.1-0.4-2.3-1.8
	c-0.1-0.8-0.4-1.6-0.6-2.7c0.7-0.1,1.3-0.2,1.9-0.2c3.1,0,6.2,0.1,9.3-0.1C1891.2,1361.2,1892,1361.9,1892.2,1363.7z M1891.2,1360.3
	c-1.1,0-2,0.1-2.9,0.1c-2.9,0-5.9-0.1-8.8,0c-1.4,0-2-0.5-2.2-1.7c-0.1-0.8-0.4-1.6-0.6-2.7c0.7-0.1,1.2-0.2,1.7-0.2
	c3.3,0,6.6,0.1,9.9,0c1.4,0,2.1,0.4,2.3,1.8C1890.6,1358.4,1890.9,1359.2,1891.2,1360.3z M1873.6,1341.8c0-3.2-0.3-2.8,2.8-2.8
	c2.5,0,5,0.1,7.5,0c1.4-0.1,2.1,0.4,2.2,1.8c0,0.8,0.3,1.6,0.6,2.7c-2.7,0-5.2,0-7.8,0c-1.3,0-2.6,0-3.9,0c-1,0-1.5-0.3-1.4-1.4
	C1873.6,1342,1873.6,1341.9,1873.6,1341.8z M1874.1,1337.4c3.4,0,6.9,0,10.3,0c0,0.1,0,0.2,0,0.3c-3.4,0-6.8,0-10.3,0
	C1874.2,1337.6,1874.1,1337.5,1874.1,1337.4z M1881.1,1344.6c0.7,0,1.5,0,2.2,0c4.3,0,4.3,0,4.8,4.6c-4.1,0-8.3,0-12.4,0
	c-0.3,0-0.9-0.5-1-0.9c-0.4-1.1-0.5-2.3-0.9-3.7C1876.4,1344.6,1878.8,1344.6,1881.1,1344.6z M1883.5,1350.2c0.6,0,1.2,0,1.9,0
	c3.4,0,4.3,1,4.2,4.7c-1.6,0-3.2,0-4.8,0c-2.3,0-4.6,0-7,0c-1,0-1.5-0.3-1.6-1.3c-0.2-1-0.4-2.1-0.7-3.5
	C1878.3,1350.2,1880.9,1350.2,1883.5,1350.2z M1866.8,1313.3c4.7,0,9.4,0,14.1,0c1.8,0,3,0.6,3.4,2.5c1.4,5.9,2.7,11.7,4.5,17.5
	c1.6,5.2,1.7,10.4,1.6,15.7c0,0.2-0.1,0.4-0.1,0.6c-0.1,0-0.3,0-0.4,0c-1.5-6.2-3.1-12.4-4.6-18.7c-0.2-1-0.5-1.4-1.5-1.4
	c-1.6,0-3.2,0-4.8,0c-1.1,0-1.5-0.4-1.5-1.5c-0.1-4.1-0.1-4.3-4.3-4.1c-2.6,0.1-4.1-0.5-5-3c-0.9-2.5-2.3-4.8-3.5-7.5
	C1865.7,1313.4,1866.3,1313.3,1866.8,1313.3z M1861.6,1361.6c3.7-4.2,7-8.8,10.4-13.3c0.2,0,0.4,0.1,0.6,0.1
	c1.9,7.9,3.9,15.8,5.9,23.9c-1.6,0.1-3,0.3-4.4,0.3c-4.4,0-8.8,0-13.2,0c-1.5,0-2.1-0.5-2.2-2.1
	C1858.4,1367,1859.2,1364.3,1861.6,1361.6z M1834,1263.9c9.5-0.9,19.1-1.1,28.1,2.7c6.1,2.5,11.3,6.3,13.6,12.9
	c2.6,7.6-1.7,14.9-9.7,16.2c-0.5,0.1-1.1-0.2-1.7-0.3c-0.5-0.1-1.1-0.3-1.6-0.3c-2.2,0-4.3-0.1-6.5,0c-1.2,0-2-0.4-2.7-1.3
	c-4.7-5.5-9.4-10.9-14.4-16.7c-1.1,3.1-2.6,5.6-2.5,8.8c0.2,3.5,0,7,0.1,10.5c0,1.3-0.4,1.8-1.8,1.7c-2.7-0.1-5.4,0-8.4,0
	c0.1-0.9,0.1-1.6,0.2-2.4c0.8-4.9,1.6-9.8,2.5-14.6c1-5.3,2.1-10.6,3.3-15.9C1832.7,1264.6,1833.5,1263.9,1834,1263.9z
	 M1830.9,1266.8c-0.2,0-0.4,0-0.6,0.1c-1.1-2.7-2.3-5.5-3.4-8.2c-0.1-0.2-0.1-0.5-0.2-0.6c-1.9-2.7-1.3-5,0.5-7.6
	c3.1-4.6,5.8-9.5,8.6-14.3c0.2-0.4,0.5-0.7,0.8-1c0.1,0,0.3,0.1,0.4,0.1C1835,1245.7,1833,1256.2,1830.9,1266.8z M1824.8,1253.4
	c-1.4-3.5-2.7-6.4-3.9-9.4c-0.6-1.5,0.2-3.5,1.4-4.1c4.7-2.4,9.4-4.8,14.1-7.2c0.2-0.1,0.4-0.1,1-0.3
	C1833.2,1239.4,1829.1,1246.2,1824.8,1253.4z M1822.3,1239.2c-0.1-0.1-0.3-0.2-0.4-0.4c1.6-5,3.1-10,4.8-15.4
	c3.8,2.6,7.3,5.1,11.1,7.8C1832.4,1234,1827.4,1236.6,1822.3,1239.2z M1827.2,1222.2c0.8-2.9,1.7-5.8,2.7-8.7
	c0.1-0.2,0.3-0.3,0.7-0.8c2.3,5.8,4.6,11.3,6.8,16.9c-0.1,0.1-0.3,0.2-0.4,0.3c-1.6-1.1-3.3-2.1-4.9-3.2c-1.4-1-2.9-2-4.2-3.1
	C1827.5,1223.2,1827.1,1222.5,1827.2,1222.2z M1838.3,1228.5c-0.2,0-0.4,0-0.5,0.1c-0.4-0.9-0.9-1.9-1.2-2.8
	c-1.7-4.2-3.4-8.5-5.1-12.7c-0.4-1-0.1-1.7,0.6-2.4c1.1-1.1,2.2-2.3,3.2-3.4c0,0,0,0,0,0c2-1.9,4-3.8,6-5.7c0.7-0.6,1.4-1.3,2.1-1.9
	c0.1,0.1,0.3,0.2,0.4,0.2C1841.9,1209.6,1840.1,1219,1838.3,1228.5z M1843.5,1198.7c-2.4,2.5-5,4.9-7.4,7.4
	c-0.4,0.4-0.6,0.9-0.8,1.3c-1.3,1-2.6,2-4.1,3.2c0.6-7.7,6.5-12.2,10.4-18.3c1,1.8,1.9,3.3,2.6,4.9
	C1844.2,1197.5,1843.9,1198.3,1843.5,1198.7z M1844.5,1195.7c-2.3-1.8-2.6-3.8-1.1-5.9c0.8-1.1,1.6-2.1,2.3-3.2
	c0.1,0.1,0.3,0.1,0.4,0.2C1845.7,1189.8,1845.1,1192.7,1844.5,1195.7z M1850.3,1165.9c-0.2,0-0.4,0-0.6,0c-0.4-2-0.8-4-1.1-6.1
	c-0.1-0.5,0.4-1.1,0.8-1.6c0.8-1.2,1.6-2.3,2.4-3.5c0.2,0,0.3,0.1,0.5,0.1C1851.6,1158.5,1851,1162.2,1850.3,1165.9z M1848.3,1155.1
	c2.8-9.1,5.8-18.3,8.7-27.4c0.1-0.3,0.3-0.6,0.7-0.8c-0.4,2.3-0.8,4.6-1.2,6.8c-1.1,5.5-2,11.1-3.3,16.6c-0.4,1.8-1.6,3.4-2.5,5.1
	c-0.5,0.9-1.3,1.7-1.9,2.5c-0.2,0-0.3-0.1-0.5-0.1C1848.3,1156.9,1848.1,1155.9,1848.3,1155.1z M1844,1168.8c1-2.9,1.5-6,3.9-8.2
	c2.8,6.9,0.8,13.7-0.8,20.9c-0.4-0.9-0.8-1.4-1-1.9c-0.8-2.2-1.4-4.4-2.2-6.5C1843.4,1171.5,1843.5,1170.2,1844,1168.8z
	 M1839.5,1182.6c1.3-2.9,2-6.1,3-9.1c0.1-0.4,0.3-0.7,0.7-1.2c1.2,3.6,2.4,6.9,3.5,10.3c0.2,0.5,0.2,1.4-0.1,1.8
	c-1.5,2.2-3.1,4.4-5,6.9C1840.3,1188.2,1838,1186.1,1839.5,1182.6z M1838.3,1186.9c0.2,0,0.3,0,0.5,0.1c0.7,1.2,1.4,2.4,2,3.7
	c0.2,0.5,0.3,1.3,0,1.7c-2,2.8-4.1,5.5-6.2,8.2c-0.2-0.1-0.4-0.1-0.5-0.2C1835.5,1195.9,1836.9,1191.4,1838.3,1186.9z
	 M1639.9,1182.4c4.3-5.8,9.3-10.9,15.4-14.9c0.7-0.4,1.5-0.7,2.3-0.7c16,0.8,32,1.7,47.9,2.5c15,0.8,30,1.6,45,2.4
	c4.2,0.2,8.5,0.5,13.3,0.8c-2.2,2-4.1,3.7-5.9,5.3c-6.6,5.9-13.2,11.7-19.7,17.6c-7,6.4-14,12.9-20.9,19.4
	c-3.5,3.2-6.9,6.6-10.3,9.9c-1.7,1.7-1.8,1.7-3.5,0.3c-3.6-3-7.1-5.9-10.6-9c-0.3-0.3-0.4-1.1-0.3-1.7c0.3-1.9,0.9-3.8,1.2-5.7
	c0.1-0.7-0.2-1.5-0.5-2.1c-1.5-2.7-3.7-2.8-5.1-0.1c-2.3,4.5-5.7,7.8-10.2,10c-1,0.5-2.2,1.1-1.9,2.5c0.3,1.5,1.2,2.4,2.7,2.8
	c2.4,0.7,4.7,0.3,7-0.7c1-0.4,1.5-0.3,2.2,0.5c3,3.8,6.1,7.6,9.2,11.3c0.6,0.7,0.6,1.2-0.1,1.8c-6.9,6.8-13.7,13.6-20.5,20.5
	c-6.4,6.5-12.6,13.1-18.8,19.7c-4.5,4.8-8.9,9.6-13.4,14.4c-0.4,0.4-0.8,0.8-1.5,1.4c-0.1-1-0.3-1.8-0.3-2.5
	c-0.5-14.2-0.9-28.5-1.4-42.7c-0.7-20-1.4-40.1-2-60.1C1638.9,1184.4,1639.3,1183.2,1639.9,1182.4z M1731.6,1344.8
	c-0.1-0.4,0-1.2,0.2-1.2c2.4-0.8,4.8-1.7,7.5,0.3c-2.5,1.1-4.2,3.2-7,3.3C1732.1,1346.3,1731.8,1345.6,1731.6,1344.8z
	 M1732.3,1347.1C1732.3,1347.1,1732.3,1347.1,1732.3,1347.1c-0.4,0.5-0.8,1.1-1.3,1.4c-2.1,1.3-4.3,2.6-6.5,3.7
	c-0.6,0.3-1.6,0.6-2.2,0.3c-2.8-1.1-5.5-2.3-8.7-3.7c1.5-0.5,2.6-0.9,3.7-1.3c3.9-1.1,7.8-2.2,11.7-3.4c1-0.3,1.6-0.1,2,0.9
	C1731.4,1345.8,1731.9,1346.5,1732.3,1347.1z M1737.7,1342.5c0-0.2,0-0.5,0-0.7c2.8-0.8,5.6-1.6,8.4-2.5c0.1,0.2,0.1,0.3,0.2,0.5
	c-2,1.1-3.9,2.3-6,3.2C1739.7,1343.3,1738.6,1342.7,1737.7,1342.5z M1748.8,1339.1c0.1,0.1,0.3,0.2,0.4,0.3c-1,1.9-2,3.8-3.1,5.7
	c-0.1,0.2-0.6,0.4-0.8,0.4c-1.4-0.5-2.7-1.1-4.5-1.8C1743.8,1341.9,1746.3,1340.5,1748.8,1339.1z M1669,1362.2
	c-1.2,0.9-2.4,1.9-3.6,2.8c-1.4,1-2.7,2-4.1,2.9c-0.4,0.3-1.1,0.6-1.5,0.4c-1.4-0.6-2.8-1.4-4.1-2.2c0-0.2,0.1-0.3,0.1-0.5
	c4.4-1.3,8.7-2.5,13.1-3.8C1668.9,1362,1668.9,1362.1,1669,1362.2z M1588.5,1358.1c-0.2,0.3-0.5,0.6-1.1,0.7c0.5-2,0.9-4,1.4-6
	c2.6-10.1,5.3-20.3,8-30.4c2.4-9.1,4.9-18.2,7.3-27.3c1.6-6.3,3.2-12.6,4.8-18.8c2.5-9.8,5.1-19.6,7.7-29.5
	c3.3-12.7,6.6-25.3,9.9-38c1.5-5.9,3.1-11.9,4.7-17.8c0.2-0.6,0.8-1.2,1.4-1.7c1-0.7,2.1-1.2,3.5-2c0.1,0.6,0.2,1.1,0.2,1.6
	c0.3,8.4,0.5,16.8,0.8,25.2c0.5,15.2,1.1,30.5,1.6,45.7c0.4,10.9,0.7,21.9,1,32.9c0,0.8-0.3,1.8-0.8,2.4c-7.9,9.2-16,18.3-23.7,27.6
	c-5.9,7.1-11.5,14.5-17.1,21.9C1594.7,1349.1,1591.7,1353.7,1588.5,1358.1z M1595,1383.8c0-0.1-0.1-0.3-0.1-0.4
	c5.2-1.5,10.3-3.3,15.5-4.6c5.2-1.3,10.2-3.7,15.7-3.7c-2.8,2-5.2,4.3-8.9,4.9C1609.8,1381,1602.4,1382.5,1595,1383.8z M1622.5,1379
	c3.5-3.7,7.4-4.4,11.6-1.9C1630.4,1377.7,1626.7,1378.3,1622.5,1379z M1629,1374.6c2.8-2.9,6.8-3.8,10.2-3.9c3.5-0.1,7,2,10.5,3.4
	C1642.8,1375.4,1636,1377.7,1629,1374.6z M1652.5,1373.9c-0.3,0.2-0.8,0.1-1.2,0c-3.2-1.1-6.4-2.2-9.6-3.4c-0.2-0.1-0.3-0.3-0.7-0.6
	c3-0.9,5.8-1.7,8.6-2.5c0.4-0.1,0.9-0.1,1.3-0.4c3.4-1.9,5.7,0.4,8.7,2.1C1657.1,1370.8,1654.8,1372.4,1652.5,1373.9z
	 M1664.1,1371.9c-2.9,0.5-5.8,1-8.7,1.5c-0.1-0.2-0.2-0.4-0.3-0.6c1.7-1.1,3.3-2.7,5.2-3.3c1.1-0.3,2.6,1.1,4,1.8
	C1664.2,1371.6,1664.2,1371.7,1664.1,1371.9z M1664.9,1371.2c-1.2-0.7-2.5-1.4-4.1-2.3c6-3.9,10.7-9.1,18.5-9.8
	c-1.2,1.2-2.2,2.3-3.2,3.3c-2.8,2.8-5.7,5.5-8.4,8.3C1666.7,1371.6,1666,1371.8,1664.9,1371.2z M1668.6,1371.2
	c-0.1-0.2-0.2-0.4-0.3-0.6c1.4-1.4,2.9-2.8,4.3-4.2c2.2-2.1,4.4-4.2,6.5-6.4c1.1-1.1,2-1.4,3.6-0.7c4.9,2.2,9.9,4.3,14.9,6.4
	c0,0.2,0,0.3,0,0.5C1687.9,1367.9,1678.2,1369.6,1668.6,1371.2z M1698.4,1365.5c-5.5-2.3-11-4.7-17-7.2c0.8-0.3,1.2-0.6,1.6-0.7
	c2.6-0.7,5.2-1.5,7.8-2.2c0.4-0.1,1.2-0.1,1.3,0.1c2.2,3.1,4.4,6.3,6.6,9.5C1698.7,1365.3,1698.5,1365.4,1698.4,1365.5z
	 M1692.5,1354.9c5.3-1.5,10.3-3,15.3-4.4c0.1,0.1,0.2,0.2,0.3,0.3c-2.6,4.9-5.3,9.8-8.2,15.1
	C1697.4,1362.2,1695.1,1358.7,1692.5,1354.9z M1701.5,1365.3c-0.1-0.1-0.2-0.2-0.3-0.3c0.8-1.5,1.5-3,2.3-4.4
	c1.7-3.1,3.4-6.1,5.1-9.2c0.8-1.5,2.8-2.7,4.4-2.1c3.1,1.1,6.1,2.5,9.7,4.1C1715.2,1357.5,1708.4,1361.4,1701.5,1365.3z
	 M1704,1365.2c-0.1-0.2-0.1-0.3-0.2-0.5c1.1-0.7,2.1-1.4,3.2-2c5.1-2.9,10.1-5.7,15.2-8.6c0.5-0.3,1.2-0.4,1.7-0.2
	c3.9,1.6,7.7,3.3,11.5,5c0.2,0.1,0.3,0.3,0.8,0.7C1725.3,1361.5,1714.7,1363.3,1704,1365.2z M1737.2,1359.1
	c-4.3-1.8-8.6-3.7-12.8-5.5c0-0.2-0.1-0.3-0.1-0.5c2.7-1.5,5.4-3.1,8.4-4.8c1.7,3.6,3.3,7,5,10.4
	C1737.4,1358.8,1737.3,1358.9,1737.2,1359.1z M1736,1354.3c-0.8-1.7-1.5-3.4-2.4-5c-0.4-0.9-0.5-1.4,0.5-1.9c1.8-1,3.5-2,5.3-3
	c0.4-0.2,1.1-0.1,1.6-0.1c0.3,0,0.6,0.3,0.9,0.4c1,0.4,2.5,0.6,3,1.4c0.4,0.6-0.4,2-0.7,3c0,0,0,0,0,0c-0.9,1.5-1.9,3-2.8,4.5
	c-1,1.7-1.9,3.5-3,5.5C1737.6,1357.4,1736.8,1355.9,1736,1354.3z M1739.3,1359.2c1.8-3.6,3.4-6.9,5-10.1c0.3-0.3,0.7-0.6,0.9-1
	c0.4-1.5,1.3-1.5,2.6-1c5.4,2.2,10.8,4.4,16.1,6.6c0.4,0.2,0.8,0.5,1.2,1.2C1756.7,1356.2,1748.2,1357.6,1739.3,1359.2z
	 M1765.1,1353.6c-6.2-2.5-12.4-5-18.8-7.6c1.4-2.7,2.7-5.1,3.9-7.3c5.2,4.9,10.2,9.7,15.2,14.4
	C1765.3,1353.2,1765.2,1353.4,1765.1,1353.6z M1771.6,1165.9c-1,0.8-2.1,1.5-2.8,2.4c-1.2,1.5-2.7,1.6-4.4,1.5
	c-9.2-0.6-18.5-1.1-27.7-1.6c-6.6-0.3-13.3-0.5-19.9-0.9c-11.4-0.6-22.9-1.3-34.3-1.9c-6.7-0.4-13.5-0.7-20.2-1
	c-0.8,0-1.5-0.2-2.3-0.2c0.7-1.5,1.3-2.9,2.1-4.1c0.2-0.4,1-0.5,1.5-0.6c6.2-1.5,12.4-2.9,18.7-4.4c11.2-2.7,22.4-5.4,33.7-8.1
	c9.9-2.4,19.7-4.7,29.6-7.1c12.3-2.9,24.7-5.8,37-8.8c10-2.4,19.9-4.8,29.9-7.2c6.4-1.5,12.9-3.1,19.3-4.6c0.5-0.1,1-0.2,1.5-0.3
	c0.1,0.1,0.1,0.2,0.2,0.3c-1.7,1.1-3.5,2.2-5.2,3.4c-9.4,6.7-19,13.2-28.2,20.3C1790.3,1150.4,1781,1158.3,1771.6,1165.9z
	 M1777.3,1338.8c0.5-2.1,1.3-3.8,3.7-4.5c7.1-2.1,13.1-6.1,18.3-11.3c3.3-3.2,6.1-6.8,8.1-11c1-2.1,2.7-2.9,5.1-2.7
	C1811.4,1319.1,1787.2,1339.5,1777.3,1338.8z M1779.2,1361.3c-0.4-0.9,0.1-1.3,0.9-1.3c1.6,0,3.2-0.1,4.8,0.1
	c0.6,0.1,1.2,0.9,1.5,1.5c2.9,7.7,5.8,15.4,8.7,23.1c2.6,7,5.2,14.1,7.8,21.1c0.8,2.2,1.7,4.4,2.6,6.6c0.2,0.5,0.4,1,0.6,1.8
	c-2.4,0-4.5,0-6.6,0c-0.3,0-0.7-0.5-0.8-0.9c-1.8-4.8-3.7-9.6-5.4-14.4c-1.8-4.9-3.6-9.8-5.4-14.8
	C1784.8,1376.6,1782,1368.9,1779.2,1361.3z M1778.8,1433.6c0.2,0.1,0.4,0.2,0.6,0.3c-0.1,1.9-0.2,3.8-0.3,5.7
	c-0.1,2.4-0.1,2.4,2.2,2.4c2,0,4.1,0,6.1,0c2.1,0,2.5,0.6,1.6,2.5c-1,2.2-2,4.4-3.4,6.4c-5.5,8.1-11.1,16.2-16.6,24.3h-22.7
	C1757.1,1461.4,1767.9,1447.5,1778.8,1433.6z"/>
<g>
	<linearGradient id="SVGID_7_" gradientUnits="userSpaceOnUse" x1="2211.0732" y1="615.4113" x2="2211.0732" y2="2290.188">
		<stop  offset="0" style="stop-color:#420166"/>
		<stop  offset="0.193" style="stop-color:#3F0162"/>
		<stop  offset="0.3929" style="stop-color:#370155"/>
		<stop  offset="0.5961" style="stop-color:#2A0141"/>
		<stop  offset="0.8002" style="stop-color:#170024"/>
		<stop  offset="1" style="stop-color:#000000"/>
	</linearGradient>
	<path class="st4" d="M3438.1,1222c-7.7-1.1-15.7-2.3-24.7-3.7c16.4-10.8,28.5-18.7,45.1-29.7c-20.5-6.9-35-11.8-49.7-16.8
		c11.9-6.6,22.2-12.4,37.9-21.1c-12.2-3.8-17.8-5.5-22.7-7c4.3-6.5,8.5-12.8,14.2-21.4c-15.3-1.6-26.3-2.7-44.2-4.7
		c16.5-12.6,28.1-21.3,43.7-33.1c-27.4-4.2-32.7-14.9-16.5-32.5c-11.3-2.8-20.4-5.1-31.8-7.9c12.3-8.3,22.1-15,32-21.6
		c-0.5-2.3-1-4.7-1.5-7c-16.1,0.9-32.3,1.9-42.6,2.5c5.6-10.8,12-23,20.3-38.7c-11.1,0-16.5,0-17,0c-10-21-18.5-38.9-29.1-61
		c-12.2,18.8-21,32.3-34.2,52.5c-0.9,2-9.4,11.7-7.5,18c3.4,11,3.3,20.2-0.7,28.6c-10.4-1-21-2.1-31.6-3.3
		c-10.8-1.1-22.4-0.2-32.1-4.3c-7.1-2.9-11.6-12.5-17.8-19.7c26.1,6.4,49.1,3.3,64-21c-15.3-20.8-48.8-6.3-61.1-37
		c24.2,13.1,33.8-4.4,51-19.2c-14.8-1.7-24.4-2.8-32.6-3.9c9.2-8.6,17.8-16.6,26.4-24.6c-1.4-2.2-2.7-4.5-4.1-6.7
		c-16.9-1.9-34-4-50.9-5.9c-0.4-1.8-0.8-3.7-1.2-5.5c16.6-12.3,33.2-24.6,50.2-37.2c-14.9-8.8-26.6-15.7-37.6-22.3
		c7.9-8.8,14.1-15.9,22.6-25.4c-16.5-3.6-28.3-7-40.2-8.4c-10.5-1.3-21.3-0.4-32.1-0.4c0-2.6-0.1-5.3-0.1-7.9
		c31.9,13.7,49.7-11.2,73.4-24.4c-22.5-21.2-44.8,0.4-69.1-2.6c11.3-6.9,20.2-12.3,24.2-14.7c2.2-17.1,3.8-29.4,5.7-43.4
		c-10,3.3-17.2,5.6-27.2,8.8c1.4-17.8,2.7-32.8,3.4-42.3c-9.3-11.4-17.3-21.2-25.2-30.8c-3.3,5.5-6.7,11.1-10,16.6
		c-4.1-3.8-8.2-7.4-12.3-11.2c3,6.4,6,12.7,9.4,20.1c-9.4-1.9-16.9-3.6-24.2-5.1c-1,12-1.9,23.1-3,35.5c-6.2-0.8-10.9-1.4-16.8-2.2
		c-1.5,17.2-14.8,36.1,13.7,49.5c-13.8,14.5-26.2,27.5-41,43.1c12.2,2.4,22.9,4.7,33.8,6.5c4.3,0.7,8.9,0.1,13.1,1.1
		c0.8,0.2,1.2,7.4,0.7,7.5c-4.3,1.3-8.9,1.8-13.5,2.4c-19.2,2.6-38.5,5.2-57.7,7.7c-0.4,3.1-0.7,6.3-1.1,9.4
		c20,8.2,40.1,16.5,60.1,24.7c-9.9,2.8-21,2.3-32,3c-11.5,0.8-23,2.8-38.9,4.9c24.6,22.8,45.7,39.2,77.6,32.2
		c-0.4,2.1-0.7,4.3-1.1,6.4c-28.5,6.1-57,12.1-84.3,17.9c11.8,38.4,41.3,34.8,68,39.3c-25.4,13.1-58.6-1.8-81.5,25.9
		c17.3,12.4,33.8,24.1,51.6,36.9c-14.4,0.9-28.9,1.8-45.3,2.9c5.1,10.5,8.6,17.6,13.1,26.6c-12.9-1.5-24.1-2.7-39.9-4.6
		c4.9,10.5,6.7,20.8,12.8,25.7c6.9,5.5,17.6,6,26.7,8.6c0.1,1,0.3,1.9,0.4,2.9c-19.5,2.1-39.1,4.4-65.6,7.3
		c18,13.8,31.9,24.5,46.3,35.6c-18.2,3.6-37.8,7.4-58.9,11.6c22.4,46.5,62.4,43.5,104.5,34.9c0,2.3,0,4.8-0.1,7.1
		c-34.5,8.7-68.9,17.4-103.3,26.1c0.3,2.4,0.5,4.8,0.8,7.2c14.7,6.8,29,15.2,44.3,19.9c15,4.7,31.2,5.6,45.5,7.9
		c-23.8,29.6-58.7,10.9-90.6,19.1c13.3,20.3,25.3,38.6,37.5,57.1c-7.5,2.4-18.7,5.9-29.9,9.4c0,0.2-0.1,0.5-0.1,0.7
		c-18.1-2.2-33.3-4.1-51.6-6.3c15.1-10.9,26.2-18.7,37.1-26.6c-0.7-1.6-1.3-3.4-2-5c-18.2-1.1-36.6-2.1-57.8-3.5
		c19.6-17.5,47.8-8.8,59.7-35.9c-19-2.8-34.8-5.2-56-8.3c16.4-10.8,28.5-18.7,45.1-29.7c-20.5-6.9-35-11.8-49.7-16.8
		c11.9-6.6,22.2-12.4,37.9-21.1c-12.2-3.8-17.8-5.5-22.7-7c4.3-6.5,8.5-12.8,14.2-21.4c-15.3-1.6-26.3-2.7-44.2-4.7
		c16.5-12.6,28.1-21.3,43.7-33.1c-27.4-4.2-32.7-14.9-16.5-32.5c-11.3-2.8-20.4-5.1-31.8-7.9c12.3-8.3,22.1-15,32-21.6
		c-0.5-2.3-1-4.7-1.5-7c-16.1,0.9-32.3,1.9-42.6,2.5c5.6-10.8,12-23,20.3-38.7c-11.1,0-16.5,0-17,0c-10-21-18.5-38.9-29.1-61
		c-12.2,18.8-21,32.3-34.2,52.5c-0.9,2-9.4,11.7-7.5,18c6.6,21.3,0.3,36.1-22.8,49.5c17,2.9,27.5,4.7,38,6.5c0,0.9,0,1.8,0,2.7
		c-16.7,3.2-33.5,6.3-50.3,9.4c-0.4,2.3-0.9,4.8-1.3,7.1c13.7,6,27.6,12.1,44.4,19.4c-18.1,1.1-33.3,1.9-48.5,2.8
		c-0.6,2.9-1.2,5.8-1.8,8.7c16.6,7.4,33.2,14.8,48,21.4c-16.7,3.9-37.1,8.6-62.4,14.5c11.2,10.4,16.8,18.3,24.3,21.9
		c7.9,3.9,17.6,3.7,31.4,6c-23.4,5-41.5,8.8-65.3,13.9c17.7,14.4,28.2,22.9,39.2,31.8c-9.2,0.4-17.3,0.8-27.2,1.2
		c1.2,7.1,2.2,13,3.3,19.7c-8-0.6-15.1-1.1-30.4-2.1c10.7,12.8,17.1,20.4,22.9,27.3c-10,1.7-21.4,3.7-37.6,6.3
		c13,10.5,21.8,17.5,31.3,25.1c-13,3-25.7,6-41.3,9.7c18.2,33,47,29.5,75.2,31.2c-24.1,5.7-48.4,11.3-72.5,17
		c-0.3,2.4-0.6,4.9-1,7.3c20.9,7.2,41.9,14.4,68.3,23.7c-15.3,4.1-25.4,7.2-35.5,9.2c-8.9,1.8-18,2.4-27.1,3.6
		c4.8,9.9,9.1,20,14.7,29.4c1.5,2.4,7.2,2.3,11,3.4c-1.9,2.1-3.8,4.2-5.7,6.3c-6.5,2.4-12.9,4.9-25.7,9.7
		c47.1,18.3,88.9,17.9,132.5,11.1c0.3,2.2,0.5,4.5,0.8,6.8l-280,152.2l-219.4-42.9c-15.1-2.9-30.8-1.3-45.2,4.8l-181.7,76.9
		l-204.6-7.5c-18.8-0.7-37.6,4.1-54.5,13.8l-927.9,652.5H1601h1903.6V1126.7L3438.1,1222z M3260.7,1116.2c5-7.8,12.3-12,19.9-15.3
		c12.2,5.5,24.2,10.8,35.3,15.7c-5.4,1.2-11.3,2.6-17.5,4.1C3285.9,1119.1,3273.4,1117.6,3260.7,1116.2z M3318,1083.4
		c-3.4,0.2-6.7,0.4-9.9,0.6c0.8-1.2,1.5-2.5,2.1-4.1C3312.8,1081.1,3315.4,1082.2,3318,1083.4z M3279.1,1046.7
		c5.9-2.5,13.4-3.7,19.5-6.5c10.7,1.8,18.6,3.1,26.6,4.6c0,0.9,0,1.8,0,2.7c-16.7,3.2-33.5,6.3-50.3,9.4c-0.4,2.3-0.9,4.8-1.3,7.1
		c5,2.2,10,4.4,15.1,6.6c-18-0.9-36.1-1.9-54-2.8c-0.1-2.2-0.2-4.6-0.3-6.8C3249.4,1056.3,3264.9,1052.9,3279.1,1046.7z
		 M2870.9,1421.8c-3.2,1-6.4,2.2-9.5,3.5c-0.4-3-0.7-6-1.1-9C2863.9,1418.2,2867.5,1420.1,2870.9,1421.8z M3095.3,1349.9l-71.1,78.6
		l-63-9c9.3-7.1,18.9-15.9,30.7-24.8c-9.9-5.5-18.6-10.4-28.6-15.9c8.5-5.5,16.5-10.7,28.1-18.2c-12.2-4.5-21.7-8-27.1-10
		c0.9-8.5,1.8-17.1,3.1-29.3c2.7-2.9,8.6-9.3,17.5-19.1c12.9,3.9,25.9,8.2,39.1,9.9c16,1.9,34.6-5.7,48.3,0
		c26.1,10.9,48,9.2,71.5-10.8c0,7.6,0,13.8,0,19.8C3125.8,1325.1,3108.9,1334.7,3095.3,1349.9z M3181.9,1322.1
		c-1.7-12.6-3.3-24.2-5-36.6c10.1,4.3,20,7.8,29.9,10.6c18.3,28.3,45.7,25.2,72.5,26.8c-18.8,4.4-37.7,8.8-56.5,13.2l-34.7-12.1
		C3186,1323.3,3184,1322.7,3181.9,1322.1z"/>
	<linearGradient id="SVGID_8_" gradientUnits="userSpaceOnUse" x1="3164.8633" y1="606.1645" x2="3164.8633" y2="615.3096">
		<stop  offset="0" style="stop-color:#420166"/>
		<stop  offset="0.193" style="stop-color:#3F0162"/>
		<stop  offset="0.3929" style="stop-color:#370155"/>
		<stop  offset="0.5961" style="stop-color:#2A0141"/>
		<stop  offset="0.8002" style="stop-color:#170024"/>
		<stop  offset="1" style="stop-color:#000000"/>
	</linearGradient>
	<path class="st5" d="M3160.3,606.2c2.5,3,4.9,6.1,7.4,9.1c0.6-1,1.2-2,1.8-3C3166.4,610.2,3163.4,608.2,3160.3,606.2z"/>
</g>
<linearGradient id="SVGID_9_" gradientUnits="userSpaceOnUse" x1="1339.5291" y1="1295.967" x2="1339.5291" y2="2290.188">
	<stop  offset="0" style="stop-color:#1D012E"/>
	<stop  offset="0.2907" style="stop-color:#1A012A"/>
	<stop  offset="0.5918" style="stop-color:#13011D"/>
	<stop  offset="0.8967" style="stop-color:#060009"/>
	<stop  offset="1" style="stop-color:#000000"/>
</linearGradient>
<path class="st6" d="M1.1,1400.2C4.8,1400.2-2.7,1400.2,1.1,1400.2v260.6v629.4h1722.7h955.3l-177.4-295.6
	c-30.5-103.5-121.9-177.4-229.5-185.4l0,0c-114.2,0-226.9-26.5-329.2-77.5l-43.5-21.7l-140.8-74.6c-1-5.6-2.1-11.1-2.7-16.6
	c-1.2-8.6-1.2-17.4,1.8-25.9c-5.7,4.5-9.8,10.1-13.2,16.6c-0.8-3.8-1.2-6.8-2-10c-0.7-3.1-1.5-6-2.4-9.1c-0.3,0.1-0.7,0.1-1,0.2
	c-0.7,8.6,2.7,17.5-1.9,26.3c-0.4-2.1-0.8-3.7-1.2-5.8c-2.2,3.9-4.1,7.2-6.1,10.8c-1-3.2-1.6-5.6-2.4-7.9c-0.2,0-0.5,0.1-0.8,0.1
	c-0.9,2.9-0.7,6.4-3.7,8.7l0,0c-1.1-10,1.2-19.2,5.3-28c-7.8,7.6-12.5,16.8-15.7,26.8c-1.9-9.1-3.6-17.9-7.7-26.2
	c2.6,9.3,3.5,18.3-0.1,27.5c-1.5,0.2-3,0.4-4.5,0.6c-0.9-3.4-1.8-6.6-2.5-9.8c-0.2,0-0.4,0-0.7,0.1c-1.1,3.7-2.2,7.4-3.2,11.1
	c-0.7,0.2-1.4,0.4-2.1,0.6c-3.7-12-4.3-23.8,0.7-35.8c-5.8,7.4-8.8,15.8-11,25.3c-2.7-10.8-5.7-20.8-10.1-30.5c2,17.4,2,34.5-2,51.4
	c-0.3,0.2-0.5,0.3-0.9,0.5l-69.4,48l-99.4,13.6c0,0-16.5,8.1-38.3,18.9c-0.9-7.8-0.7-15.6,2.1-23.3c-5.7,4.5-9.8,10.1-13.2,16.6
	c-0.8-3.8-1.2-6.8-2-10c-0.7-3.1-1.5-6-2.4-9.1c-0.3,0.1-0.7,0.1-1,0.2c-0.7,8.6,2.7,17.5-1.9,26.3c-0.4-2.1-0.8-3.7-1.2-5.8
	c-2.2,3.9-4.1,7.2-6.1,10.8c-1-3.2-1.6-5.6-2.4-7.9c-0.2,0-0.5,0.1-0.8,0.1c-0.9,2.9-0.7,6.4-3.7,8.8c-1.1-10,1.2-19.2,5.3-28.1
	c-7.8,7.6-12.5,16.8-15.7,26.8c-1.9-9.1-3.6-17.9-7.7-26.2c3.2,11.3,3.8,22.3-3.2,33.6c-1.4-5.6-2.7-10.3-4-15.2
	c-0.2,0-0.4,0-0.7,0.1c-1.3,4.5-2.6,9.1-4,13.6l-0.9-0.4c-4.2-12.5-5-24.8,0.1-37.3c-5.8,7.4-8.8,15.8-11,25.3
	c-2.7-10.8-5.7-20.8-10.1-30.5c1.3,11.9,1.8,23.7,0.7,35.4l0,0c-89.1-23.4-170.8-68.9-237.6-132.3l-147.6-140.1
	c-3.4-3.3-7-6.1-10.9-8.6c-1.2-6.5-2.4-13.1-3.3-19.6c-1.2-8.6-1.2-17.4,1.8-25.9c-5.7,4.5-9.8,10.1-13.2,16.6
	c-0.8-3.8-1.2-6.8-2-10c-0.7-3.1-1.5-6-2.4-9.1c-0.3,0.1-0.7,0.1-1,0.2c-0.7,8.6,2.7,17.5-1.9,26.3c-0.4-2.1-0.8-3.7-1.2-5.8
	c-2.2,3.9-4.1,7.2-6.1,10.8c-1-3.2-1.6-5.6-2.4-7.9c-0.2,0-0.5,0.1-0.8,0.1c-0.9,2.9-0.7,6.4-3.7,8.8c-1.1-10,1.2-19.2,5.3-28.1
	c-7.8,7.6-12.5,16.8-15.7,26.8c-1.9-9.1-3.6-17.9-7.7-26.2c2.7,9.7,3.6,19.2-0.7,28.7c-1.2,0.1-2.4,0.2-3.7,0.4
	c-1-3.8-1.9-7.3-2.9-10.7c-0.2,0-0.4,0-0.7,0.1c-1.2,4-2.3,7.9-3.5,11.9c-0.5,0.1-1.1,0.2-1.6,0.4c-4-12.2-4.5-24.2,0.4-36.3
	c-5.8,7.4-8.8,15.8-11,25.3c-2.7-10.8-5.7-20.8-10.1-30.5c2,16.8,2,33.5-1.6,49.9l-59.3,26.7c0.4-17.7,4.2-34.8,9.9-51.9
	c-0.5-0.1-1-0.3-1.5-0.4c-5.6,11.8-11.1,23.6-16.9,35.8c-1.1-11.4-3.2-22.2-9.1-32c1.8,8.2,2.4,16.3,1.1,24.6
	c-1.3,8.1-5,19.4-8.3,23.8c-1-6.7-1.9-13.1-2.9-19.4c-0.2,0-0.4-0.1-0.7-0.1c-2.4,5.8-4.8,11.6-7.2,17.4c-7.1-14-4.5-27.6,1.4-41
	c-6.4,9.9-10.3,20.7-14,31.7c-2.3-12.9-6.1-25.2-14.9-35.6c4,11.7,4.6,23.3,1.9,35c-0.4,0.1-0.9,0.1-1.3,0.2
	c-0.8-3.8-1.5-7.5-2.2-11.3c-0.2-0.1-0.4-0.1-0.7-0.2c-1.3,2.9-2.6,5.9-4.3,9.6c-2-4.9-3.7-9.4-5.8-14.5c-1,2.7-1.6,4.5-2.5,7.2
	c-4-11.8,1.7-22.2,2.3-33.1c-0.8-0.2-0.6-0.1-1.3-0.3c-2.9,7.4-5.7,14.8-8.7,22.6c-2.9-8.5-7-15.9-13.3-22.3
	c2.3,11.1,1.2,21.9-1.5,32.5c0,0.1,0,0.1,0,0.2l-4.6-1.7c0.7-16.9,4.3-33.6,9.9-50c-0.5-0.1-1-0.3-1.5-0.4
	c-5.6,11.8-11.1,23.6-16.9,35.8c-1.1-11.4-3.2-22.2-9.1-32c1.8,8.2,2.4,16.3,1.1,24.6c-0.7,4.4-2.1,9.8-3.8,14.4l-6.1-2.3
	c-0.3-2.6-0.8-5.2-1.1-7.8c-0.2,0-0.4-0.1-0.7-0.1c-0.9,2.1-1.8,4.2-2.6,6.2l-8.8-3.3c-0.8-8.9,1.6-17.8,5.5-26.6
	c-4.9,7.7-8.5,16-11.5,24.3l-4.5-1.7c-2.4-9.6-6.3-18.6-13-26.6c2.6,7.7,3.7,15.4,3.5,23.2c-6.6-2.4-13.2-4.8-19.9-7.2
	c0.3-7.9,3.2-15.4,3.7-22.9c-0.8-0.2-0.6-0.1-1.3-0.3c-2.5,6.7-5.1,13.4-7.9,20.5c3.8-15.9,10.4-31,18.7-45.8
	c-0.4-0.2-0.9-0.5-1.4-0.7c-7.7,10.6-15.4,21.3-23.4,32.3c1.1-11.4,1.1-22.3-3-33c0.1,8.3-0.8,16.5-3.6,24.3c-0.3,0.9-0.8,2-1.2,3.1
	c-0.1-0.1-0.2-0.2-0.3-0.3c0,0.2,0.1,0.5,0.1,0.7c-2,4.5-4.6,9.5-7.1,13.3c-1.3-0.4-2.5-0.8-3.8-1.3c0.2-4.5,0.4-8.8,0.7-13.3
	c-0.2-0.1-0.4-0.2-0.7-0.2c-2.4,3.7-4.8,7.5-7.2,11.2c-1.4-0.4-2.9-0.9-4.4-1.4c-1.6-12.5,3.2-23.5,10.3-34
	c-8.1,8.6-14,18.5-19.8,28.7c0.2-13.2-1.3-25.8-7.9-37.6c1.6,12.1,0.2,23.7-4.7,34.7c-0.4,0-0.9,0-1.4-0.1c0-3.8-0.1-7.6-0.1-11.6
	c-0.3-0.1-0.3-0.1-0.7-0.2c-1.9,2.6-3.6,5.3-6,8.7c-1-5.3-1.9-9.8-3-15.3c-1.5,2.5-2.5,4.2-3.8,6.5c-1.6-12.2,5.8-21.6,8.6-32.2
	c-0.8-0.3-0.6-0.2-1.3-0.6c-4.2,6.7-8.3,13.6-12.8,20.8c-1.2-8.8-4-16.8-8.9-24.2c0.1,11.3-3,21.8-7.6,31.8
	c-1.1,2.4-2.3,4.7-3.4,7.2c-4.5-1.1-9-2.1-13.5-3.2c-2-18.3-1.9-36.4,3-54.3c-8.8,8.3-13.4,19-18.7,30.1c-2-6.4-3.7-12-5.5-17.6
	c-0.5,0-1.1,0.1-1.6,0.1c0,7.4-1.1,14.4-6.3,20.7c-2.7-14-2.2-26.8,5.4-39c-9.8,7.9-13.7,18.6-17.2,30.4c-2.7-9.6-4.6-18.6-9.5-26.6
	c1.1,10.3,0.3,20.1-4.8,30.2c-4.2-17.1-2.3-32.6,4-48.1c-9.8,5.8-15.9,14-20.7,24.3c-2.1-8.7-3.4-16.5-7.9-23.4
	c0.1,6.2,0.9,12.2,0.9,18.3c0,6.3-1.2,12.4-7.6,17.8v-24.8c-6.3,7.2-9,15.1-12.5,23.5c-1.4-6.7-2.7-12.7-4-18.6
	c-0.7-0.1-0.7-0.1-1.4-0.1c-3.1,8.3-5.1,17.3-13,23.8c-1.2-10.8,0.4-20.7,4.1-30.6c-12,8.8-21,19.9-30,32.2c-1-11.1-1.5-21-5.5-30.7
	c-3.6,12.8-8.9,24.6-18.8,34.2c-0.3-0.4-0.7-0.6-0.7-0.8c-0.1-0.3-0.3-0.7-0.3-1.1c-2.1-14-0.5-27.4,6.8-39.9
	c0.5-1.1,0.8-2.2,1.1-3.4c-0.4-0.2-0.9-0.4-1.4-0.6c-3.8,5.5-7.9,10.8-11.3,16.5c-3.6,5.9-6.4,12.2-9.7,18.2
	c-0.5-0.1-0.4-0.1-0.9-0.2c0.7-13.5,1.3-26.9,2.1-40.4c-0.4-0.1-0.8-0.2-1.2-0.3c-4.4,14-8.8,27.9-13.3,42.1
	c-5.5-19.8-11.1-32.3-15.4-34.2c1.5,6,3.6,11.9,4.4,18c0.8,6,0.5,12.3-0.1,18.4c-0.3,2.8-0.8,5.6-1.4,8.3c-2.1-0.1-4.2-0.1-6.3-0.2
	c-1.1-3.7-2.1-7.3-3.2-10.9c-0.3,0-0.7,0.1-0.9,0.1c-0.9,3.5-1.9,7.1-2.7,10.5c-2.5-0.1-5-0.1-7.7-0.2c-4.4-11.8-3.2-23.9,0.2-36.3
	c-5.4,11.6-8.2,23.7-10.5,36.1c-0.2,0-0.2,0-0.4,0c-4.6-13.8-10.9-26.6-22-37c5.7,11.8,8.6,23.9,7.7,36.7c-1.3,0.2-1.1,0.1-2.4,0.3
	c-1.1-3.3-2.2-6.6-3.3-9.9c-0.2-0.1-0.5-0.2-0.8-0.2c-0.9,3.1-1.8,6.2-2.9,10.1c-0.5,0.1-0.5,0.1-1,0.1c-2.7-4.8-5.2-9.1-8-14.2
	c-0.7,3.2-1.1,5.3-1.8,8.1c-6.4-12.5-1.5-25-2.5-37.2c-0.5-0.1-1.1-0.1-1.6-0.2c-2,8.6-4,17.2-6.1,26.3
	c-4.8-8.9-10.3-16.9-18.6-22.9c2.6,7.6,4.4,15.2,1.5,22.7c-2.5,6.4-5.5,12.6-8.5,18.8c-0.9,0-1.8,0.1-2.5,0.1
	c-1.6-4.9-3.2-10-4.8-14.9c-0.4,0.1-0.8,0.2-1.2,0.3c-0.4,3.5-0.5,7.1-1.5,10.4c-0.4,1.7-1.1,3.3-1.9,4.8c-1.3,0.1-2.7,0.2-4.1,0.2
	c-0.3-3.1-0.7-6.1-0.5-9.2c0.1-4.3,0.7-8.7,1.9-12.8c1.2-4,3.4-7.8,5-11.7c-0.4-0.2-0.9-0.3-1.3-0.5c-8.5,8.3-14.5,9.9-17.9,21.9
	c-2.7-9.8-3-9.8-7.8-17.7c0.9,10.3,0.4,20.1-4.9,30.2c-4-16.9-2.4-32.5,4.1-47.9c-10,5.6-15.9,14.1-21,24.1c-2-8.5-3.3-16.4-8-23.3
	c0.9,12.2,4.3,24.6-5.2,35c-0.4,0-1-0.1-1.4-0.1c0-7.6,0-15.2,0-22.7c-0.3-0.1-0.7-0.2-1.1-0.3c-2.1,3.5-4.3,6.9-6.1,10.6
	c-1.9,3.6-3.3,7.4-5.3,11.8c-1.4-6.6-2.7-12.4-4.1-18.3c-0.4,0-0.9,0-1.3,0.1c-3.2,8.2-5,17.2-13,23.8c-1.1-10.9,0.3-20.8,4.1-30.6
	c-12.2,8.8-21.2,20-30.3,32.4c-0.7-11.2-1.4-21.2-5.3-30.9c-3.7,12.8-8.9,24.7-19.4,34.1c-0.8-5.2-1.5-10.4-1.2-15.6
	s1.3-10.4,2.9-15.5c1.4-4.8,3.8-9.4,5.8-14c-0.4-0.2-0.9-0.3-1.2-0.5c-9.9,12.1-17.9,25.3-22.7,40.9c-1.3-5.3-2.5-9.5-3.6-13.8
	c-6.7,12.3-7.5,25.6-9.1,38.5c-1.4,2.4-32.3,4.7-33.6,7.1c-0.5,0.1,0.5,0.2,0,0.4"/>
<path d="M3504.6,1591.2l-77.4,81.3c-2.7-16.9-5.5-33.6-8.6-50.4c-2.3-0.1-4.5-0.1-6.8-0.2c-2.6,22.8-5.3,45.7-8,69.5l-10.8,8.7
	c-19.8-31-32.3-64.5-36.3-102.8c-2.2,0.4-4.4,0.7-6.6,0.9c-0.5,31.3-1,62.6-1.6,94.4l-12.9-2.8c-33.7-53.4-42.9-113.7-32.9-180.5
	c-2.1-0.6-4.3-1.2-6.4-1.8c-14.6,23.8-29.2,47.6-43.6,71.1c-11.9-31.2-23.9-62.8-35.9-94.4c-2.2,0.9-4.5,1.8-6.7,2.7
	c11.7,50.5,19.4,101.3,14.7,158.7c-4.7-18.7-8.2-32.3-11.7-46c-5.4,19-5.1,37.5-8.5,55.1c-3.2,16.6-10.1,32.3-16.7,52.5l-0.3,0.2
	c-9.3-30.5-16.5-54.1-23.7-77.8c-1.5,0.6-3.1,1.1-4.6,1.6c-3.9,22.5-7.7,44.9-11.6,67.4c-1.5-0.4-3-0.7-4.4-1.2
	c-5.9-46.2,1.2-90.5,17.2-133.5c-2.2-1.1-4.4-2.2-6.6-3.3c-16.5,32.6-33.1,65.2-51.9,102.3c-0.8-45.5-4.6-85.3-14.7-123.8
	c-1.5,0.2-3,0.4-4.6,0.6c-0.8,39.2-0.4,78.7-2.7,117.8c-2.3,39.6-11.3,77.3-30.5,110.5c-2.1-0.4-4.1-0.6-6.2-0.9
	c0.5-39.2,0.9-78.5,1.5-121.1c-24.9,31-33.6,69.6-47.9,107.2c-9.4-37.8-9.7-75.6-25.9-114.2c-8.7,88.6-12.4,105.3-26.4,125.5
	c-8.4-27.1-16.9-54.6-25.4-82.1c-2.3,0.7-4.5,1.4-6.8,2.1c0.6,29.6,2.3,59.4,3.8,89c-3.5-10.5-8.1-21.1-14.3-31.3
	c-3.4,12.5-6.9,25-10.9,39.5c-14.5-44.5-39.8-81.5-73.4-114.9c21.9,35.7,29.8,72.9,24.6,113.2c-5.5,0.1-11,0.8-16.4,2.2
	c-23.2-25.2-36.7-53.4-45.9-84.1c-12.6,27.3-13.6,55.8-17.1,86c-27.8-34.6-55.7-65.6-92.6-90.2c11,27.8,16.2,55.4,12.2,85.9
	c-24.2-18.5-30.3-43.5-40.1-66.8c-1.4,0.1-2.8,0.1-4.2,0.2c-3.9,16.9-7.9,33.6-12.4,52.8c-10.3-24.1-19.8-46.2-38.5-67.1v67.7
	c-1.6,0.1-3.2,0.4-4.7,0.5c-27.8-29.9-18.8-64.8-15.4-99.2c-14.7,19.3-18.3,41.8-25.2,65.6c-15-29.2-34.1-52.1-64.3-68.1
	c19.9,43.5,25.2,87.2,12.2,135.1c-16.2-28.8-17.7-56.6-12.9-85.2c-2-0.1-4-0.2-6-0.4c-8.5,24-17,47.9-26.1,73.8
	c-10-32.6-23.2-61.7-50.5-84.3c5.3,17.7,13.7,34.6,17.6,52.1c4.1,18.5,2.3,37.5-3.4,57.5c-16-18-18.4-37.8-19.1-58.1
	c-1.6-0.1-3.1-0.2-4.7-0.4c-5.6,16.2-11.2,32.3-17.3,49.7c-16.2-30.6-29.8-61-56.4-85c3.7,28.8,9,56.1,10.3,83.5
	c0.2,4.5,0.3,8.9,0.3,13.5l-57.9-21.1c-9.7-3.5-19.7-5.2-29.8-4.9l-156.6,4l-133.1-23.8l-212.8,64.5c-8-17.1-16.2-34.2-24.6-51.1
	c-2.6-5.2-8.2-8.7-12.3-13c-1.1,0.5-2.1,0.9-3.2,1.4c6,23.2,6.7,46.4-3,71.2c-2.5-56.8-4.2-66.3-13.8-73.1
	c-0.7,12.4-0.9,24-2.2,35.6c-1.3,12.1-6.3,22.7-15.1,33.5c-1.9-24.1-0.6-47.3-12.2-69.7c-4.9,28.7-9.4,54.9-13.9,81.2
	c-1-0.1-2-0.1-3-0.2c0.1-30.9-1.5-61.4-12.4-90.7c-1.8,40.1-16.8,75.7-39.3,109.8c-7.7-28.8-3.1-57,7.3-85.7
	c-20.4,23.7-30.9,52-43,81.3c-4.6-14.4-8.6-27.1-12.7-39.7c-2,0.4-1.6,0.3-3.6,0.7c0,18-2.5,35.5-14.2,52.7
	c-6.5-34.1-4.1-65.7,12.7-96.6c-3.6,1.5-5.9,3.4-7.3,5.9c-7.9,13.6-16.5,26.9-23.2,41.1c-8.8,18.6-14.7,38.2-12.6,58.7
	c0.2,2.3-57.9,6.9-57.7,9.1l-242.6,67.5c-209.9,58.4-424.7,90.9-640.7,97c-199.1,5.6-414.6,15.6-537.7,71.9v155.8h2911.8
	c0,0.1,0-0.1-0.1,0c1.2-0.1,2.3,0.1,3.5,0h588.3V1591.2z"/>
<g>
	<path class="st7" d="M1679,1591c0.1,0,0.3,0,0.4,0C1670.2,1591,1664.7,1591,1679,1591z"/>
	<path class="st7" d="M1701.5,1591c0.1,0,0.1,0,0.2,0C1701.7,1591,1701.7,1591,1701.5,1591z"/>
	<path class="st7" d="M1679.4,1591c8.7,0,20.5,0,22.1,0C1694.1,1591,1686.8,1591,1679.4,1591z"/>
</g>
<g>
	<defs>
		<rect id="SVGID_10_" x="77.9" y="-4399.9" width="3504.2" height="1740.4"/>
	</defs>
	<clipPath id="SVGID_11_">
		<use xlink:href="#SVGID_10_"  style="overflow:visible;"/>
	</clipPath>
</g>
</svg>
