<?xml version="1.0" encoding="utf-8"?>
<!-- Generator: Adobe Illustrator 23.0.2, SVG Export Plug-In . SVG Version: 6.00 Build 0)  -->
<svg version="1.1" id="Layer_1" xmlns="http://www.w3.org/2000/svg" xmlns:xlink="http://www.w3.org/1999/xlink" x="0px" y="0px"
	 viewBox="0 0 3610.3 594.7" style="enable-background:new 0 0 3610.3 594.7;" xml:space="preserve">
<style type="text/css">
	.st0{fill:#470274;}
</style>
<g>
	
		<image style="overflow:visible;opacity:0.46;enable-background:new    ;" width="3765" height="635" xlink:href="E1C848BE49B243.png"  transform="matrix(0.9984 0 0 0.9984 -75.5271 -19.8177)">
	</image>
	<g>
		<g>
			<path class="st0" d="M1526.5,299.6c-10.2,0.5-17,5.1-20.4,13.6l2.5,47.3c4.4,8.2,11.7,12.1,22,11.5c10.3-0.5,16.9-6,19.6-16.4
				c1.3-5,1.7-12.4,1.2-22.4c-0.6-12.1-3-20.9-7.2-26.3C1540,301.7,1534.2,299.2,1526.5,299.6z"/>
			<path class="st0" d="M2240.5,262c-6.4,0.3-11.4,2.8-15.1,7.3c-3.7,4.5-5.9,10.8-6.6,18.9l44.6-2.3l-0.1-2.6
				c-0.5-7.1-2.7-12.5-6.6-16.2C2252.7,263.3,2247.3,261.6,2240.5,262z"/>
			<path class="st0" d="M1652.9,292.8c-7.8,0.4-13.7,3.8-17.7,10.1c-4,6.3-5.6,15.9-4.9,28.7c0.6,11.4,3.2,20,7.8,25.8
				c4.6,5.8,10.9,8.5,18.9,8.1c7.8-0.4,13.7-3.7,17.7-9.9c4-6.2,5.7-15.8,5-28.9c-0.6-11.2-3.2-19.7-7.9-25.6
				C1667.1,295.1,1660.8,292.4,1652.9,292.8z"/>
			<path class="st0" d="M-28.2,223.1l17.8,339.4l3642.6-190.9l-17.8-339.4L-28.2,223.1z M1430.1,401.1l-12.9-32.7l-58.3,3.1
				l-9.3,33.8l-35.4,1.9l51.6-164.6l30.8-1.6l68.9,158.3L1430.1,401.1z M1583.5,334c1,19.2-2.3,34.4-10,45.6
				c-7.6,11.2-18.8,17.2-33.5,17.9c-13,0.7-23.7-3.8-31.9-13.3l-0.8,12.8l-28.8,1.5l-8.9-170.3l32-1.7l3.2,61.1
				c6.9-9,16.4-13.9,28.5-14.5c14.6-0.8,26.4,4,35.3,14.3s13.8,25.2,14.9,44.8L1583.5,334z M1698.8,372.5
				c-9.7,11.7-23.2,17.9-40.5,18.9s-31.4-3.9-42.3-14.5c-10.9-10.5-16.8-25.4-17.8-44.4l-0.1-1.4c-0.6-11.9,1.1-22.6,5.2-32.2
				s10.3-17.1,18.7-22.7c8.3-5.6,18.2-8.6,29.6-9.2c16.2-0.8,29.7,3.4,40.4,12.8c10.8,9.4,17.2,22.5,19.2,39.5l0.7,8.2
				C1712.9,345.8,1708.5,360.8,1698.8,372.5z M1837.6,379.7l-30.2,1.6l-1.5-12.2c-7.4,10-18.1,15.4-32.1,16.1
				c-12.9,0.7-22.9-2.5-30-9.5c-7.2-7-11.2-17.7-12.1-31.9l-4.1-78.6l32-1.7l4.1,77.6c0.7,12.5,6.7,18.5,18.1,17.9
				c10.9-0.6,18.1-4.7,21.8-12.5l-4.5-85l32.2-1.7L1837.6,379.7z M1921.9,374.7c-6.2,2.3-12.6,3.6-19.3,3.9
				c-22.5,1.2-34.5-9.6-36.2-32.2l-3.4-64.6l-17.5,0.9l-1.2-23.5l17.5-0.9l-1.5-29.5l32-1.7l1.5,29.5l20.5-1.1l1.2,23.5l-20.5,1.1
				l3.1,59.9c0.2,4.4,1.2,7.6,3.1,9.4c1.8,1.8,5.1,2.6,9.9,2.4c3.5-0.2,6.7-0.6,9.4-1.3L1921.9,374.7z M2167.1,362.5l-33.4,1.7
				l-2.3-44.1l-0.7-76.4l-37.3,122.6l-22.8,1.2l-49.8-117.9l7.3,75.9l2.3,44.1l-33.3,1.7l-8.5-161.5l43.5-2.3l47.6,114.9l35.1-119.3
				l43.7-2.3L2167.1,362.5z M2296,306l-76.4,4c1.4,7.8,4.9,13.9,10.4,18.4s12.2,6.5,20.2,6.1c12.3-0.6,21.8-5.6,28.2-14.9l16.7,16.8
				c-4.4,7.1-10.7,12.7-18.7,16.9c-8,4.2-17,6.6-27,7.1c-17.6,0.9-32.2-3.7-43.8-13.9c-11.6-10.2-17.9-24.3-18.8-42.3l-0.2-3.1
				c-0.6-12,1.1-22.9,5.3-32.7c4.2-9.7,10.4-17.4,18.6-23c8.3-5.6,17.9-8.7,28.8-9.2c16.4-0.9,29.6,3.6,39.6,13.5
				c10,9.9,15.4,24.3,16.4,43.3L2296,306z"/>
			<polygon class="st0" points="1366.4,344.1 1406.8,341.9 1383.3,282.6 			"/>
		</g>
	</g>
</g>
</svg>
