<?xml version="1.0" encoding="utf-8"?>
<!-- Generator: Adobe Illustrator 23.0.2, SVG Export Plug-In . SVG Version: 6.00 Build 0)  -->
<svg version="1.1" id="Layer_1" xmlns="http://www.w3.org/2000/svg" xmlns:xlink="http://www.w3.org/1999/xlink" x="0px" y="0px"
	 viewBox="0 0 356 356" style="enable-background:new 0 0 356 356;" xml:space="preserve">
<style type="text/css">
	.st0{fill:#FFFFFF;}
</style>
<g>
	<g>
		<rect width="356" height="356"/>
	</g>
	<g>
		<path class="st0" d="M205.2,149.9h18.3v68.8h-18.3V149.9z M147,195.6h24.7l6.7,23h18.7L170,128.3h-22.7v8.9l-23.8,81.4h16.9
			L147,195.6z M159.3,144.4l9.1,35.4h-18.3L159.3,144.4z M74.7,76.9v202.2h206.5V76.9H74.7z M265.8,263.2H90.5V92.8h175.3V263.2z
			 M223.9,132.3c0-7.2-7.9-11.7-14.2-8.1s-6.3,12.6,0,16.2C216,144,223.9,139.5,223.9,132.3z"/>
	</g>
</g>
</svg>
