<?xml version="1.0" encoding="utf-8"?>
<!-- Generator: Adobe Illustrator 23.0.2, SVG Export Plug-In . SVG Version: 6.00 Build 0)  -->
<svg version="1.1" id="Layer_1" xmlns="http://www.w3.org/2000/svg" xmlns:xlink="http://www.w3.org/1999/xlink" x="0px" y="0px"
	 viewBox="0 0 356 356" style="enable-background:new 0 0 356 356;" xml:space="preserve">
<style type="text/css">
	.st0{fill:#FFFFFF;}
</style>
<g>
	<rect width="356" height="356"/>
</g>
<g id="_x30_CyVI6.tif">
	<g>
		<path class="st0" d="M227.7,241.7c-3.4-4.1-6.1-7.5-8.9-10.8c-16-19.1-32.2-38.2-48-57.5c-1.5-1.9-2.8-5.5-2-7.6
			c9.5-27,19.3-53.9,29.1-80.7c0.2-0.5,0.6-0.9,1.5-2.5c34.7,60.1,69,119.5,103.8,179.9c-63.9,0-126.5,0-189,0
			c-0.1-0.2-0.1-0.5-0.2-0.7C151.5,255.2,189,248.6,227.7,241.7z"/>
		<path class="st0" d="M52.8,241.4c1.6-3,2.6-4.9,3.7-6.8c18.8-32.7,37.6-65.4,56.6-97.9c2.1-3.7,5.1-7.1,8.3-9.9
			c20.9-17.8,42-35.5,63.1-53.2c1.2-1,2.5-1.9,4.7-2.4c-0.5,1.4-0.9,2.9-1.5,4.2c-25,53.8-50.1,107.7-75.3,161.4
			c-0.9,1.8-3.1,4.2-4.7,4.3C89.8,241.5,72,241.4,52.8,241.4z"/>
	</g>
</g>
</svg>
