<?xml version="1.0" encoding="utf-8"?>
<!-- Generator: Adobe Illustrator 23.0.2, SVG Export Plug-In . SVG Version: 6.00 Build 0)  -->
<svg version="1.1" id="Layer_1" xmlns="http://www.w3.org/2000/svg" xmlns:xlink="http://www.w3.org/1999/xlink" x="0px" y="0px"
	 viewBox="0 0 2741.8 1243.4" style="enable-background:new 0 0 2741.8 1243.4;" xml:space="preserve">
<style type="text/css">
	.st0{fill:url(#SVGID_1_);}
	.st1{fill:url(#SVGID_2_);}
	.st2{fill:url(#SVGID_3_);}
	.st3{fill:url(#SVGID_4_);}
	.st4{fill:url(#SVGID_5_);}
	.st5{fill:none;}
	.st6{fill:url(#SVGID_6_);}
	.st7{fill:url(#SVGID_7_);}
	.st8{fill:url(#SVGID_8_);}
</style>
<linearGradient id="SVGID_1_" gradientUnits="userSpaceOnUse" x1="141.1766" y1="54.4843" x2="141.1766" y2="1589.3524">
	<stop  offset="0" style="stop-color:#FFFFFF"/>
	<stop  offset="4.304647e-03" style="stop-color:#FEFEFE"/>
	<stop  offset="0.1755" style="stop-color:#D0D0D0"/>
	<stop  offset="0.3472" style="stop-color:#AAAAAA"/>
	<stop  offset="0.5167" style="stop-color:#8C8C8C"/>
	<stop  offset="0.6834" style="stop-color:#777777"/>
	<stop  offset="0.846" style="stop-color:#6A6A6A"/>
	<stop  offset="1" style="stop-color:#666666"/>
</linearGradient>
<path class="st0" d="M40.9,282c43.3-8.8,91.7,45.8,132.3,37.2c37.8-8,73.9-48,109.2-84.6l-61.3,10.6c-9.6,1.7-19.4,0.7-28.5-2.7
	l-72.3-27.1c-14-5.2-29.5-4.5-43,2L0,254.9v55C12.6,299.9,26,290.6,40.9,282z"/>
<linearGradient id="SVGID_2_" gradientUnits="userSpaceOnUse" x1="0" y1="54.4843" x2="9.398356e-14" y2="1589.3524">
	<stop  offset="0" style="stop-color:#FFFFFF"/>
	<stop  offset="4.304647e-03" style="stop-color:#FEFEFE"/>
	<stop  offset="0.1755" style="stop-color:#D0D0D0"/>
	<stop  offset="0.3472" style="stop-color:#AAAAAA"/>
	<stop  offset="0.5167" style="stop-color:#8C8C8C"/>
	<stop  offset="0.6834" style="stop-color:#777777"/>
	<stop  offset="0.846" style="stop-color:#6A6A6A"/>
	<stop  offset="1" style="stop-color:#666666"/>
</linearGradient>
<polygon class="st1" points="0,1065.7 0,1067.7 0,474.7 "/>
<linearGradient id="SVGID_3_" gradientUnits="userSpaceOnUse" x1="0" y1="1498.9128" x2="8.628120e-14" y2="89.8338">
	<stop  offset="0" style="stop-color:#000000"/>
	<stop  offset="1" style="stop-color:#9FA1A3"/>
</linearGradient>
<polygon class="st2" points="0,1065.7 0,1067.7 0,474.7 "/>
<linearGradient id="SVGID_4_" gradientUnits="userSpaceOnUse" x1="841.0626" y1="54.4843" x2="841.0626" y2="1589.3524">
	<stop  offset="0" style="stop-color:#FFFFFF"/>
	<stop  offset="4.304647e-03" style="stop-color:#FEFEFE"/>
	<stop  offset="0.1755" style="stop-color:#D0D0D0"/>
	<stop  offset="0.3472" style="stop-color:#AAAAAA"/>
	<stop  offset="0.5167" style="stop-color:#8C8C8C"/>
	<stop  offset="0.6834" style="stop-color:#777777"/>
	<stop  offset="0.846" style="stop-color:#6A6A6A"/>
	<stop  offset="1" style="stop-color:#666666"/>
</linearGradient>
<path class="st3" d="M70,439.6c10.1-26.9,37.7-31.5,54.2-49.6c6.2-6.8,40,9.6,46.1,20.4c6.5,11.6,14.4,22.5,20,34.5
	c4.2,8.9,6.7,18.8,8.4,28.5c3.7,21.8,17.2,29.3,35,15.9c18.2-13.7,33.8-30.9,51.4-47.3c-23.6-34.4,9.4-38.5,25.5-51.8
	c-6.1-7.9-11.4-14.8-17.9-23.4c10-3.9,17.6-6.9,25.2-9.8c-1.2-1-2.5-2.1-3.7-3.1c4.2-6.8,8.3-13.6,12.7-20.3
	c4.1-6.2,8.8-12,12.9-18.3c1.2-1.8,0.2-5.1,1.5-6.7c21.1-26,40.7-53.6,64.3-77.2c14-14,43.1,0.1,49,20c1.9,6.3,5.9,12,9.3,17.7
	c3.5,5.9,11.7,12.7,10.5,17c-6.4,22.5,11.3,31.6,21.7,45.3c7.7,10.1,12.4,22.5,18.7,34.3c-5.4,5.7-10,10.6-11,11.5
	c16.2,27.2,30.5,52.5,46,77c18.7,29.5,74.3,29,96.1,1.8c20.6-25.8,37.1-55.5,73.7-66.3c13.8-4.1,23.7-24.1,33.6-38.1
	c11.9-17.1,20.7-36.4,33.2-53c8.2-10.8,36.7-6.6,46,3.8c14.3,15.8,29.9,30.5,43.4,47c4.3,5.3,3.8,14.6,6.8,28.4
	c6.1,9.3,14.1,25.8,25.9,38.9c23.8,26.4,56.5,40.3,90.4,40.5c55.1,0.4,110.3-4.9,165.3-9.8c25.5-2.3,28.3-27.6,36.4-45.6
	c13.4-29.7,32.4-33.9,51.5-8.8c7.9,10.4,12.4,23.5,20.2,34.1c4.4,6,11.8,12.3,18.6,13.1c5.4,0.7,13.1-5.6,17.5-10.7
	c8.2-9.4,15.3-19.9,21.9-30.6c5.2-8.3,8.3-17.8,13.5-26.1c8.5-13.7,16-29.1,27.8-39.3c5.1-4.4,25.7-1.3,29,4.4
	c14.1,24.1,36.9,37.2,57.1,54.1c15.2,12.7,27.1,29.3,42.4,41.8c7.8,6.4,19.9,10,30,9.8c4.4-0.1,11.4-12.6,12.2-20.1
	c3.5-30.6,12-57.7,32.4-82.7c11.2-13.7,9.3-37.6,19.4-52.8c16.8-25.5,38.5-47.8,57.2-70.3c3.1-13,6.4-27.2,9.9-41.3
	c0.4-1.5,2.2-3.4,1.8-4.1c-16.5-24.8,13.9-42.6,10.1-66c-0.6-3.7,4.3-11.1,8.8-14.5c-31.5,2.8-61.1,8.1-73.9,13.6
	c-50.5,21.8-105.6,71.2-158.3,97c-55.5,27.2-96.9,48.9-155.9,59.7c-59,10.7-114.6,11.9-172.3,27.7c-43.1,11.8-127.1,60-169.2,49.6
	c-57.3-14.2-93.8-121.6-151.4-133.6c-52.3-10.9-129,41.6-182.5,43.7c-56.8,2.2-90.4-22.1-140.9-51.4l-35.2,8.6
	c-1.2,0.3-2.4,0.5-3.6,0.8l-156.6,27.1c-35.3,36.6-71.4,76.6-109.2,84.6c-40.6,8.6-89-46-132.3-37.2C26,290.6,12.6,299.9,0,309.9
	v164.8C13.3,468,64.8,453.4,70,439.6z"/>
<linearGradient id="SVGID_5_" gradientUnits="userSpaceOnUse" x1="841.0626" y1="1498.9128" x2="841.0626" y2="89.8338">
	<stop  offset="0" style="stop-color:#000000"/>
	<stop  offset="1" style="stop-color:#9FA1A3"/>
</linearGradient>
<path class="st4" d="M1682.1,91.8c-31.5,2.8-61.1,8.1-73.9,13.6c-50.5,21.8-105.6,71.2-158.3,97c-55.5,27.2-96.9,48.9-155.9,59.7
	c-59,10.7-114.6,11.9-172.3,27.7c-43.1,11.8-127.1,60-169.2,49.6c-57.3-14.2-93.8-121.6-151.4-133.6c-52.3-10.9-129,41.6-182.5,43.7
	c-56.8,2.2-90.4-22.1-140.9-51.4c-4.7-2.7-9.5-5.5-14.5-8.3c-72.3-40.2-54.6-43.7-114.5-12.1c-21.9,11.6-44,33.5-66.4,56.8
	c-35.3,36.6-71.4,76.6-109.2,84.6c-40.6,8.6-89-46-132.3-37.2C26,290.6,12.6,299.9,0,309.9v164.8c13.3-6.7,64.8-21.3,70-35.1
	c10.1-26.9,37.7-31.5,54.2-49.6c6.2-6.8,40,9.6,46.1,20.4c6.5,11.6,14.4,22.5,20,34.5c4.2,8.9,6.7,18.8,8.4,28.5
	c3.7,21.8,17.2,29.3,35,15.9c18.2-13.7,33.8-30.9,51.4-47.3c-23.6-34.4,9.4-38.5,25.5-51.8c-6.1-7.9-11.4-14.8-17.9-23.4
	c10-3.9,17.6-6.9,25.2-9.8c-1.2-1-2.5-2.1-3.7-3.1c4.2-6.8,8.3-13.6,12.7-20.3c4.1-6.2,8.8-12,12.9-18.3c1.2-1.8,0.2-5.1,1.5-6.7
	c21.1-26,40.7-53.6,64.3-77.2c14-14,43.1,0.1,49,20c1.9,6.3,5.9,12,9.3,17.7c3.5,5.9,11.7,12.7,10.5,17
	c-6.4,22.5,11.3,31.6,21.7,45.3c7.7,10.1,12.4,22.5,18.7,34.3c-5.4,5.7-10,10.6-11,11.5c16.2,27.2,30.5,52.5,46,77
	c18.7,29.5,74.3,29,96.1,1.8c20.6-25.8,37.1-55.5,73.7-66.3c13.8-4.1,23.7-24.1,33.6-38.1c11.9-17.1,20.7-36.4,33.2-53
	c8.2-10.8,36.7-6.6,46,3.8c14.3,15.8,29.9,30.5,43.4,47c4.3,5.3,3.8,14.6,6.8,28.4c6.1,9.3,14.1,25.8,25.9,38.9
	c23.8,26.4,56.5,40.3,90.4,40.5c55.1,0.4,110.3-4.9,165.3-9.8c25.5-2.3,28.3-27.6,36.4-45.6c13.4-29.7,32.4-33.9,51.5-8.8
	c7.9,10.4,12.4,23.5,20.2,34.1c4.4,6,11.8,12.3,18.6,13.1c5.4,0.7,13.1-5.6,17.5-10.7c8.2-9.4,15.3-19.9,21.9-30.6
	c5.2-8.3,8.3-17.8,13.5-26.1c8.5-13.7,16-29.1,27.8-39.3c5.1-4.4,25.7-1.3,29,4.4c14.1,24.1,36.9,37.2,57.1,54.1
	c15.2,12.7,27.1,29.3,42.4,41.8c7.8,6.4,19.9,10,30,9.8c4.4-0.1,11.4-12.6,12.2-20.1c3.5-30.6,12-57.7,32.4-82.7
	c11.2-13.7,9.3-37.6,19.4-52.8c16.8-25.5,38.5-47.8,57.2-70.3c3.1-13,6.4-27.2,9.9-41.3c0.4-1.5,2.2-3.4,1.8-4.1
	c-16.5-24.8,13.9-42.6,10.1-66C1672.7,102.6,1677.6,95.3,1682.1,91.8z"/>
<path d="M1686.2,90c-1.2,0-2.5,0.7-4,1.8c5.3-0.5,10.7-0.9,16.1-1.2C1694.1,90,1689.8,89.8,1686.2,90z"/>
<path class="st5" d="M1686.2,90c-1.2,0-2.5,0.7-4,1.8c5.3-0.5,10.7-0.9,16.1-1.2C1694.1,90,1689.8,89.8,1686.2,90z"/>
<linearGradient id="SVGID_6_" gradientUnits="userSpaceOnUse" x1="1609.699" y1="54.4843" x2="1609.699" y2="1589.3524">
	<stop  offset="0" style="stop-color:#FFFFFF"/>
	<stop  offset="4.304647e-03" style="stop-color:#FEFEFE"/>
	<stop  offset="0.1755" style="stop-color:#D0D0D0"/>
	<stop  offset="0.3472" style="stop-color:#AAAAAA"/>
	<stop  offset="0.5167" style="stop-color:#8C8C8C"/>
	<stop  offset="0.6834" style="stop-color:#777777"/>
	<stop  offset="0.846" style="stop-color:#6A6A6A"/>
	<stop  offset="1" style="stop-color:#666666"/>
</linearGradient>
<path class="st6" d="M1698.3,90.7c34.3-2,67.9-0.6,82.3,7.1c49.2,26.3,53.4,138.9,103,164.1c33.4,17,83.2-27.3,129.9-26.3
	c67.8,1.5,118.3,43.7,182.6,24.4c78.5-23.6,67.5-70.6,132.7-36.8c56,29,66,85.1,128.1,90.2c65.4,5.4,152.2-54.8,214.9-37.8
	c18.2,4.9,45.5,35.9,69.2,58.1v-178c-1-0.1,1-0.2,0-0.3l-99.7-4.8c-22.8-1.1-44,12.1-52.9,33.2l-10.7,25.1
	c-6.6,15.5-19.9,27-36.1,31.4l-56.5,15.1c-23.4,6.3-48.1-3.6-60.8-24.3l-16.7-27.3c-7.7-12.5-17-24-27.6-34.1l-70.5-66.9
	c-25.1-23.8-65.7-18.6-84,10.7l-17.4,27.9c-17.4,27.9-55.3,34.2-80.8,13.5v0c-14.9-12.1-30.3-23.6-46.3-34.3
	c-27.6-18.6-66.4-58.6-81.4-61.8c-126.1-27-103.6,90.1-112.6,63.1c-6-18.1-86.6-40.2-139.4-52.9c-28.9-6.9-59.1-6.1-87.5,2.6
	l-255.5,77.3l-385,100.4c-23.4,6.1-48-3.9-60.6-24.6c-9.2-15.1-18.6-32.2-22.7-44.3c-2.3-6.8-9.6-14.6-19.3-22.7
	c-40.8-33.7-95.6-45.4-146.9-32.3l-144.6,36.9l-147.7,36c50.5,29.3,84.2,53.6,140.9,51.4c53.4-2.1,130.2-54.6,182.5-43.7
	c57.6,12,94.1,119.4,151.4,133.6c42.1,10.4,126.1-37.8,169.2-49.6c57.7-15.8,113.3-17,172.3-27.7c58.9-10.7,100.3-32.5,155.8-59.7
	c52.6-25.8,107.7-75.2,158.2-97c12.8-5.5,42.4-10.8,73.9-13.6c1.4-1.1,2.8-1.8,4-1.8C1689.8,89.8,1694.1,90,1698.3,90.7z"/>
<linearGradient id="SVGID_7_" gradientUnits="userSpaceOnUse" x1="2220.4607" y1="54.4843" x2="2220.4607" y2="1589.3524">
	<stop  offset="0" style="stop-color:#FFFFFF"/>
	<stop  offset="4.304647e-03" style="stop-color:#FEFEFE"/>
	<stop  offset="0.1755" style="stop-color:#D0D0D0"/>
	<stop  offset="0.3472" style="stop-color:#AAAAAA"/>
	<stop  offset="0.5167" style="stop-color:#8C8C8C"/>
	<stop  offset="0.6834" style="stop-color:#777777"/>
	<stop  offset="0.846" style="stop-color:#6A6A6A"/>
	<stop  offset="1" style="stop-color:#666666"/>
</linearGradient>
<path class="st7" d="M2671.8,275.6c-62.7-17-149.5,43.1-214.9,37.8c-62.1-5.1-72.1-61.2-128.1-90.2c-65.3-33.8-54.3,13.2-132.7,36.8
	c-64.3,19.3-114.7-22.8-182.6-24.4c-46.7-1.1-96.5,43.2-129.9,26.3c-49.5-25.1-53.7-137.8-103-164.1c-14.4-7.7-48-9.1-82.3-7.1
	c7,1.1,13.6,3.3,16,7.3c14.9,24.8,31.1,50.6,37.5,78.2c5,21.3,10.9,41.3,19.4,61.3c2.6,6.1-2.3,15.3,0.1,20
	c9.9,17.8,20,35.5,29.7,53.3c16.1,29.5,27.9,62.5,49,87.7c23.3,27.8,56.2,45.9,94,52.4c31.8,5.5,57.2-8.4,76.9-28.7
	c12.2-12.5,17.4-33.3,21.9-51.3c4.4-17.5,13.5-27.5,30.5-29.1c13.8-1.3,39.4,19.3,36.7,32.4c-4.8,23.1,13,28,24.9,35.4
	c14.9,9.2,26.6,18.3,33.7,35.4c3.1,7.4,18.3,14.4,27.2,13.5c9.4-0.9,26.2-12.8,25.4-17.6c-4.9-30.1,26.1-37,34.2-58
	c5.3-13.5,12.7-26.5,20.8-38.6c9.2-13.8,18.2-29.1,31-38.8c9.9-7.5,26.4-7.7,32.7,8.8c7.3,19.3,13,39.1,18.7,59
	c6.4,22.3,17.1,37.7,43.9,31.2c28.2-6.8,33.1,23.1,50.6,33.5c12.8,7.6,20.3,24.1,30,36.8c13.4,17.6,40.5,18,56.3,3.2
	c13.9-13,29.7-24.1,45.8-34.3c11.7-7.5,29.1-7.7,30.7-26.7c10.1,0.9,26.4-1.8,29.3,3.3c21.6,37.7,64.9,66.2,95.9,95
	c2.9,2.6,1,363.6,0,576.7v-6.9V333.6C2717.4,311.5,2690.1,280.5,2671.8,275.6z"/>
<linearGradient id="SVGID_8_" gradientUnits="userSpaceOnUse" x1="2220.4607" y1="1498.9128" x2="2220.4607" y2="89.8338">
	<stop  offset="0" style="stop-color:#000000"/>
	<stop  offset="1" style="stop-color:#9FA1A3"/>
</linearGradient>
<path class="st8" d="M2671.8,275.6c-62.7-17-149.5,43.1-214.9,37.8c-62.1-5.1-72.1-61.2-128.1-90.2c-65.3-33.8-54.3,13.2-132.7,36.8
	c-64.3,19.3-114.7-22.8-182.6-24.4c-46.7-1.1-96.5,43.2-129.9,26.3c-49.5-25.1-53.7-137.8-103-164.1c-14.4-7.7-48-9.1-82.3-7.1
	c7,1.1,13.6,3.3,16,7.3c14.9,24.8,31.1,50.6,37.5,78.2c5,21.3,10.9,41.3,19.4,61.3c2.6,6.1-2.3,15.3,0.1,20
	c9.9,17.8,20,35.5,29.7,53.3c16.1,29.5,27.9,62.5,49,87.7c23.3,27.8,56.2,45.9,94,52.4c31.8,5.5,57.2-8.4,76.9-28.7
	c12.2-12.5,17.4-33.3,21.9-51.3c4.4-17.5,13.5-27.5,30.5-29.1c13.8-1.3,39.4,19.3,36.7,32.4c-4.8,23.1,13,28,24.9,35.4
	c14.9,9.2,26.6,18.3,33.7,35.4c3.1,7.4,18.3,14.4,27.2,13.5c9.4-0.9,26.2-12.8,25.4-17.6c-4.9-30.1,26.1-37,34.2-58
	c5.3-13.5,12.7-26.5,20.8-38.6c9.2-13.8,18.2-29.1,31-38.8c9.9-7.5,26.4-7.7,32.7,8.8c7.3,19.3,13,39.1,18.7,59
	c6.4,22.3,17.1,37.7,43.9,31.2c28.2-6.8,33.1,23.1,50.6,33.5c12.8,7.6,20.3,24.1,30,36.8c13.4,17.6,40.5,18,56.3,3.2
	c13.9-13,29.7-24.1,45.8-34.3c11.7-7.5,29.1-7.7,30.7-26.7c10.1,0.9,26.4-1.8,29.3,3.3c21.6,37.7,64.9,66.2,95.9,95
	c2.9,2.6,1,363.6,0,576.7v-6.9V333.6C2717.4,311.5,2690.1,280.5,2671.8,275.6z"/>
<path d="M2741.1,514.7c-31-28.8-74.3-57.2-95.9-94.9c-2.9-5.1-19.2-2.4-29.3-3.3c-1.6,19-19,19.2-30.7,26.7
	c-16.1,10.2-31.9,21.3-45.8,34.3c-15.8,14.8-42.9,14.4-56.3-3.2c-9.7-12.7-17.2-29.2-30-36.8c-17.5-10.4-22.4-40.2-50.6-33.5
	c-26.8,6.5-37.5-8.9-43.9-31.2c-5.7-19.9-11.4-39.6-18.7-58.9c-6.3-16.5-22.8-16.3-32.7-8.8c-12.8,9.7-21.8,25-31,38.8
	c-8.1,12.1-15.5,25.1-20.8,38.6c-8.1,21-39.1,27.9-34.2,57.9c0.8,4.8-16,16.7-25.4,17.6c-8.9,0.9-24.1-6.1-27.2-13.5
	c-7.1-17.1-18.8-26.2-33.7-35.4c-11.9-7.4-29.7-12.3-24.9-35.4c2.7-13.1-22.9-33.7-36.7-32.4c-17,1.6-26.1,11.6-30.5,29.1
	c-4.5,18-9.7,38.8-21.9,51.2c-19.7,20.3-45.1,34.2-76.9,28.7c-37.8-6.5-70.7-24.6-94-52.3c-21.1-25.2-32.9-58.1-49-87.6
	c-9.7-17.8-19.8-35.5-29.7-53.2c-2.4-4.7,2.5-13.9-0.1-20c-8.5-20-14.4-39.9-19.4-61.2c-6.4-27.6-22.6-53.3-37.5-78.1
	c-2.4-3.9-9-6.2-16-7.3c-5.4,0.3-10.8,0.7-16.1,1.2c-4.5,3.4-9.4,10.8-8.8,14.5c3.8,23.4-26.6,41.1-10.1,65.9
	c0.4,0.7-1.4,2.6-1.8,4.1c-3.5,14.1-6.8,28.3-9.9,41.2c-18.7,22.5-40.4,44.7-57.2,70.2c-10.1,15.2-8.2,39.1-19.4,52.7
	c-20.4,25-28.9,52-32.4,82.6c-0.8,7.5-7.8,20-12.2,20.1c-10.1,0.2-22.2-3.4-30-9.8c-15.3-12.5-27.2-29.1-42.4-41.7
	c-20.2-16.9-43-30-57.1-54c-3.3-5.7-23.9-8.8-29-4.4c-11.8,10.2-19.3,25.6-27.8,39.3c-5.2,8.3-8.3,17.8-13.5,26.1
	c-6.6,10.7-13.7,21.2-21.9,30.6c-4.4,5.1-12.1,11.4-17.5,10.7c-6.8-0.8-14.2-7.1-18.6-13.1c-7.8-10.6-12.3-23.7-20.2-34.1
	c-19.1-25.1-38.1-20.9-51.5,8.8c-8.1,18-10.9,43.2-36.4,45.5c-55,4.9-110.2,10.2-165.3,9.8c-33.9-0.2-66.6-14.1-90.4-40.4
	c-11.8-13.1-19.8-29.6-25.9-38.9c-3-13.8-2.5-23.1-6.8-28.4c-13.5-16.5-29.1-31.2-43.4-46.9c-9.3-10.4-37.8-14.6-46-3.8
	c-12.5,16.6-21.3,35.9-33.2,52.9c-9.9,14-19.8,34-33.6,38.1c-36.6,10.8-53.1,40.4-73.7,66.2c-21.8,27.2-77.4,27.7-96.1-1.8
	c-15.5-24.5-29.8-49.7-46-76.9c1-0.9,5.6-5.8,11-11.5c-6.3-11.8-11-24.2-18.7-34.3c-10.4-13.7-28.1-22.8-21.7-45.2
	c1.2-4.3-7-11.1-10.5-17c-3.4-5.7-7.4-11.4-9.3-17.7c-5.9-19.9-35-34-49-20c-23.6,23.6-43.2,51.1-64.3,77.1
	c-1.3,1.6-0.3,4.9-1.5,6.7c-4.1,6.3-8.8,12.1-12.9,18.3c-4.4,6.7-8.5,13.5-12.7,20.3c1.2,1,2.5,2.1,3.7,3.1
	c-7.6,2.9-15.2,5.9-25.2,9.8c6.5,8.6,11.8,15.5,17.9,23.4c-16.1,13.3-49.1,17.4-25.5,51.7c-17.6,16.4-33.2,33.6-51.4,47.2
	c-17.8,13.4-31.3,5.9-35-15.9c-1.7-9.7-4.2-19.6-8.4-28.5c-5.6-12-13.5-22.9-20-34.5c-6.1-10.8-39.9-27.2-46.1-20.4
	c-16.5,18.1-44.1,22.7-54.2,49.5c-5.2,13.8-56.7,28.3-70,35v592.3v176.9h87.3h2653.8l0,0c0,0-0.4-63.3,0-152.7
	C2742,877.8,2744,517.3,2741.1,514.7z"/>
</svg>
