<?xml version="1.0" encoding="utf-8"?>
<!-- Generator: Adobe Illustrator 23.0.2, SVG Export Plug-In . SVG Version: 6.00 Build 0)  -->
<svg version="1.1" id="Layer_1" xmlns="http://www.w3.org/2000/svg" xmlns:xlink="http://www.w3.org/1999/xlink" x="0px" y="0px"
	 viewBox="0 0 2741.8 1243.4" style="enable-background:new 0 0 2741.8 1243.4;" xml:space="preserve">
<style type="text/css">
	.st0{fill:url(#SVGID_1_);}
	.st1{fill:url(#SVGID_2_);}
	.st2{fill:url(#SVGID_3_);}
	.st3{fill:none;}
	.st4{fill:url(#SVGID_4_);}
	.st5{fill:url(#SVGID_5_);}
	.st6{fill:url(#SVGID_6_);}
	.st7{fill:url(#SVGID_7_);}
	.st8{fill:url(#SVGID_8_);}
	.st9{fill:url(#SVGID_9_);}
	.st10{fill:url(#SVGID_10_);}
	.st11{fill:url(#SVGID_11_);}
	.st12{fill:url(#SVGID_12_);}
	.st13{fill:url(#SVGID_13_);}
	.st14{fill:url(#SVGID_14_);}
	.st15{fill:url(#SVGID_15_);}
	.st16{fill:url(#SVGID_16_);}
	.st17{fill:url(#SVGID_17_);}
	.st18{fill:url(#SVGID_18_);}
	.st19{fill:url(#SVGID_19_);}
	.st20{fill:url(#SVGID_20_);}
	.st21{fill:url(#SVGID_21_);}
	.st22{fill:url(#SVGID_22_);}
	.st23{fill:url(#SVGID_23_);}
	.st24{fill:url(#SVGID_24_);}
	.st25{fill:url(#SVGID_25_);}
	.st26{fill:url(#SVGID_26_);}
	.st27{fill:url(#SVGID_27_);}
	.st28{fill:url(#SVGID_28_);}
	.st29{fill:url(#SVGID_29_);}
	.st30{fill:url(#SVGID_30_);}
	.st31{fill:url(#SVGID_31_);}
	.st32{fill:url(#SVGID_32_);}
	.st33{fill:url(#SVGID_33_);}
	.st34{fill:url(#SVGID_34_);}
	.st35{fill:url(#SVGID_35_);}
	.st36{fill:url(#SVGID_36_);}
	.st37{fill:url(#SVGID_37_);}
	.st38{fill:url(#SVGID_38_);}
	.st39{fill:url(#SVGID_39_);}
	.st40{fill:url(#SVGID_40_);}
	.st41{fill:url(#SVGID_41_);}
	.st42{fill:url(#SVGID_42_);}
	.st43{fill:url(#SVGID_43_);}
	.st44{fill:url(#SVGID_44_);}
	.st45{fill:url(#SVGID_45_);}
	.st46{fill:url(#SVGID_46_);}
	.st47{fill:url(#SVGID_47_);}
	.st48{fill:url(#SVGID_48_);}
</style>
<linearGradient id="SVGID_1_" gradientUnits="userSpaceOnUse" x1="141.2" y1="1189.5157" x2="141.2" y2="-345.3524" gradientTransform="matrix(1 0 0 -1 0 1244)">
	<stop  offset="0" style="stop-color:#FFFFFF"/>
	<stop  offset="4.304647e-03" style="stop-color:#FEFEFE"/>
	<stop  offset="0.1755" style="stop-color:#D0D0D0"/>
	<stop  offset="0.3472" style="stop-color:#AAAAAA"/>
	<stop  offset="0.5167" style="stop-color:#8C8C8C"/>
	<stop  offset="0.6834" style="stop-color:#777777"/>
	<stop  offset="0.846" style="stop-color:#6A6A6A"/>
	<stop  offset="1" style="stop-color:#666666"/>
</linearGradient>
<path class="st0" d="M40.9,282c43.3-8.8,91.7,45.8,132.3,37.2c37.8-8,73.9-48,109.2-84.6l-61.3,10.6c-9.6,1.7-19.4,0.7-28.5-2.7
	l-72.3-27.1c-14-5.2-29.5-4.5-43,2L0,254.9v55C12.6,299.9,26,290.6,40.9,282z"/>
<linearGradient id="SVGID_2_" gradientUnits="userSpaceOnUse" x1="-9.094947e-13" y1="1189.5157" x2="-8.155111e-13" y2="-345.3525" gradientTransform="matrix(1 0 0 -1 0 1244)">
	<stop  offset="0" style="stop-color:#FFFFFF"/>
	<stop  offset="4.304647e-03" style="stop-color:#FEFEFE"/>
	<stop  offset="0.1755" style="stop-color:#D0D0D0"/>
	<stop  offset="0.3472" style="stop-color:#AAAAAA"/>
	<stop  offset="0.5167" style="stop-color:#8C8C8C"/>
	<stop  offset="0.6834" style="stop-color:#777777"/>
	<stop  offset="0.846" style="stop-color:#6A6A6A"/>
	<stop  offset="1" style="stop-color:#666666"/>
</linearGradient>
<polygon class="st1" points="0,1065.7 0,1067.7 0,474.7 "/>
<linearGradient id="SVGID_3_" gradientUnits="userSpaceOnUse" x1="0" y1="-254.9128" x2="8.628121e-14" y2="1154.1663" gradientTransform="matrix(1 0 0 -1 0 1244)">
	<stop  offset="0" style="stop-color:#000000"/>
	<stop  offset="1" style="stop-color:#9FA1A3"/>
</linearGradient>
<polygon class="st2" points="0,1065.7 0,1067.7 0,474.7 "/>
<path class="st3" d="M2221.2,441c0-0.2,0-0.4,0-0.6c-0.3-1.8-0.5-3.6-0.5-5.3c0,1.8,0.2,3.8,0.5,5.8
	C2221.2,440.9,2221.2,441,2221.2,441z"/>
<path class="st3" d="M1184.9,436.5c7.9-9.5,10.9-23.7,16-35c3.3-7.4,7-13.2,11-17.4c-4.1,4.2-7.9,10.1-11.3,17.7
	C1195.6,413,1192.6,427,1184.9,436.5z"/>
<path class="st3" d="M504.1,376.9C504.1,376.9,504.1,376.9,504.1,376.9c0.1-0.1,0.3-0.2,0.4-0.4
	C504.4,376.7,504.2,376.8,504.1,376.9z"/>
<path class="st3" d="M786.4,298.6c-12.5,16.6-21.3,35.9-33.2,53c-6.8,9.6-13.6,22-21.6,30.2c8.2-8.2,15-20.8,21.9-30.5
	c11.9-17,20.7-36.3,33.2-52.9c0.7-1,1.7-1.8,2.7-2.6C788.2,296.6,787.2,297.5,786.4,298.6z"/>
<path class="st3" d="M2110.2,371.6c0,0.7,0,1.4-0.2,2.1c-0.6,2.9-0.8,5.5-0.8,7.9c0-2.2,0.2-4.7,0.8-7.4
	C2110.2,373.4,2110.2,372.5,2110.2,371.6z"/>
<path class="st3" d="M1770.6,254.2c0-3.5,1.3-7.9,1.3-11.9C1771.8,246.3,1770.5,250.7,1770.6,254.2z"/>
<path class="st3" d="M2291.6,211.4c9.4,0,20.9,3.4,37.2,11.8C2312.5,214.7,2300.9,211.3,2291.6,211.4z"/>
<path class="st3" d="M1872.3,254c3.5,3.1,7.3,5.8,11.3,7.9C1879.5,259.8,1875.8,257.2,1872.3,254z"/>
<path class="st3" d="M1682.3,91.8C1682.3,91.8,1682.3,91.8,1682.3,91.8c5.1-0.5,10.3-0.9,15.5-1.2c0,0,0,0,0,0
	C1692.6,90.9,1687.4,91.3,1682.3,91.8z"/>
<path class="st3" d="M1673.1,106.3c3.8,23.4-26.6,41.2-10.1,66c0.4,0.7-1.4,2.6-1.8,4.1c-3.5,14.1-6.8,28.3-9.9,41.3
	c-18.7,22.5-40.4,44.8-57.2,70.3c-9.8,14.7-8.3,37.6-18.4,51.5c10.4-13.7,8.8-36.9,18.7-51.8c16.8-25.5,38.5-47.7,57.2-70.2
	c3.1-12.9,6.4-27.1,9.9-41.2c0.4-1.5,2.2-3.4,1.8-4.1c-16.5-24.8,13.9-42.5,10.1-65.9c-0.6-3.6,4.1-10.8,8.5-14.3c0,0-0.1,0-0.1,0
	C1677.4,95.6,1672.7,102.7,1673.1,106.3z"/>
<path class="st3" d="M1537.6,436.3c2.5-4.2,4.6-9.4,5-13.3c3.3-28.6,10.9-54.1,28.6-77.7c-17.9,23.7-25.6,49.4-28.9,78.2
	C1541.9,427.2,1540,432.2,1537.6,436.3z"/>
<path class="st3" d="M2196.1,260c-64.3,19.3-114.8-22.9-182.6-24.4C2081.4,237.2,2131.8,279.3,2196.1,260z"/>
<path class="st3" d="M1330.3,398.9c-6.6,10.7-13.7,21.2-21.9,30.6c-0.5,0.6-1.1,1.3-1.8,1.9c0.7-0.8,1.5-1.5,2.1-2.2
	c8.2-9.4,15.3-19.9,21.9-30.6c5.2-8.3,8.3-17.8,13.5-26.1c7.9-12.7,14.9-26.9,25.4-37.1c-10.6,10.1-17.7,24.5-25.7,37.4
	C1338.6,381.1,1335.5,390.6,1330.3,398.9z"/>
<path class="st3" d="M69.8,440.1c0.2-0.4,0.4-0.7,0.5-1.1c0.6-1.6,1.3-3.1,2-4.6c-0.8,1.6-1.6,3.4-2.3,5.2
	C69.9,439.8,69.9,439.9,69.8,440.1z"/>
<path class="st3" d="M285.1,441.9c0.1-0.1,0.2-0.2,0.3-0.3c-11.3-16.4-9.6-25.9-3-32.8C275.5,415.7,273.6,425.3,285.1,441.9z"/>
<path class="st3" d="M341.3,308.6c-1.3,1.6-0.3,4.9-1.5,6.7c-4.1,6.3-8.8,12.1-12.9,18.3c-4.4,6.7-8.5,13.5-12.7,20.3
	c1.2,1,2.4,2,3.5,3c0.2-0.1,0.3-0.1,0.5-0.2c-1.2-1-2.5-2.1-3.7-3.1c4.2-6.8,8.3-13.6,12.7-20.3c4.1-6.2,8.8-12,12.9-18.3
	c1.2-1.8,0.2-5.1,1.5-6.7c21.1-26,40.7-53.5,64.3-77.1c0.8-0.8,1.7-1.6,2.7-2.2c-1,0.7-2,1.5-3,2.4C382,255,362.4,282.6,341.3,308.6
	z"/>
<path class="st3" d="M666.9,428.6c-4.8,6-9.3,12.1-14,18.3C657.6,440.8,662.1,434.6,666.9,428.6z"/>
<path class="st3" d="M310.6,390.2c0.1-0.1,0.2-0.2,0.3-0.3c-6.1-7.9-11.3-14.7-17.8-23.3c-0.1,0.1-0.3,0.1-0.4,0.2
	C299.2,375.4,304.5,382.3,310.6,390.2z"/>
<linearGradient id="SVGID_4_" gradientUnits="userSpaceOnUse" x1="22.6978" y1="1189.5157" x2="22.6978" y2="-345.3525" gradientTransform="matrix(1 0 0 -1 0 1244)">
	<stop  offset="0" style="stop-color:#FFFFFF"/>
	<stop  offset="4.304647e-03" style="stop-color:#FEFEFE"/>
	<stop  offset="0.1755" style="stop-color:#D0D0D0"/>
	<stop  offset="0.3472" style="stop-color:#AAAAAA"/>
	<stop  offset="0.5167" style="stop-color:#8C8C8C"/>
	<stop  offset="0.6834" style="stop-color:#777777"/>
	<stop  offset="0.846" style="stop-color:#6A6A6A"/>
	<stop  offset="1" style="stop-color:#666666"/>
</linearGradient>
<path class="st4" d="M40.6,282c-12.8,7.5-24.6,15.6-35.9,24.2C15.9,297.6,27.8,289.6,40.6,282C40.6,282,40.6,282,40.6,282z"/>
<linearGradient id="SVGID_5_" gradientUnits="userSpaceOnUse" x1="238.1487" y1="1189.5157" x2="238.1487" y2="-345.3525" gradientTransform="matrix(1 0 0 -1 0 1244)">
	<stop  offset="0" style="stop-color:#FFFFFF"/>
	<stop  offset="4.304647e-03" style="stop-color:#FEFEFE"/>
	<stop  offset="0.1755" style="stop-color:#D0D0D0"/>
	<stop  offset="0.3472" style="stop-color:#AAAAAA"/>
	<stop  offset="0.5167" style="stop-color:#8C8C8C"/>
	<stop  offset="0.6834" style="stop-color:#777777"/>
	<stop  offset="0.846" style="stop-color:#6A6A6A"/>
	<stop  offset="1" style="stop-color:#666666"/>
</linearGradient>
<path class="st5" d="M282.2,234.6l-0.1,0c-28.7,29.7-57.8,61.7-88,76.9C224.3,296.3,253.5,264.3,282.2,234.6z"/>
<linearGradient id="SVGID_6_" gradientUnits="userSpaceOnUse" x1="877.9922" y1="-254.9128" x2="877.9922" y2="1154.1663" gradientTransform="matrix(1 0 0 -1 0 1244)">
	<stop  offset="0" style="stop-color:#000000"/>
	<stop  offset="1" style="stop-color:#9FA1A3"/>
</linearGradient>
<path class="st6" d="M824.2,216.1c38.5,25.9,68.8,88.7,107.6,114C893.1,304.6,862.8,241.8,824.2,216.1z"/>
<linearGradient id="SVGID_7_" gradientUnits="userSpaceOnUse" x1="1677.4449" y1="-254.9128" x2="1677.4449" y2="1154.1663" gradientTransform="matrix(1 0 0 -1 0 1244)">
	<stop  offset="0" style="stop-color:#000000"/>
	<stop  offset="1" style="stop-color:#9FA1A3"/>
</linearGradient>
<path class="st7" d="M1681.8,92c-0.1,0-0.2,0-0.2,0c-4.4,3.5-9.1,10.6-8.5,14.3C1672.7,102.7,1677.4,95.6,1681.8,92z"/>
<linearGradient id="SVGID_8_" gradientUnits="userSpaceOnUse" x1="117.3602" y1="-254.9128" x2="117.3602" y2="1154.1663" gradientTransform="matrix(1 0 0 -1 0 1244)">
	<stop  offset="0" style="stop-color:#000000"/>
	<stop  offset="1" style="stop-color:#9FA1A3"/>
</linearGradient>
<path class="st8" d="M172.9,319.2c7.1-1.5,14.2-4.1,21.2-7.7c-6.9,3.5-13.9,6.1-21,7.6c-40.6,8.6-89-46-132.3-37.2
	c-0.1,0-0.1,0.1-0.2,0.1C83.9,273.2,132.3,327.8,172.9,319.2z"/>
<linearGradient id="SVGID_9_" gradientUnits="userSpaceOnUse" x1="840.8036" y1="1189.5157" x2="840.8036" y2="-345.3525" gradientTransform="matrix(1 0 0 -1 0 1244)">
	<stop  offset="0" style="stop-color:#FFFFFF"/>
	<stop  offset="4.304647e-03" style="stop-color:#FEFEFE"/>
	<stop  offset="0.1755" style="stop-color:#D0D0D0"/>
	<stop  offset="0.3472" style="stop-color:#AAAAAA"/>
	<stop  offset="0.5167" style="stop-color:#8C8C8C"/>
	<stop  offset="0.6834" style="stop-color:#777777"/>
	<stop  offset="0.846" style="stop-color:#6A6A6A"/>
	<stop  offset="1" style="stop-color:#666666"/>
</linearGradient>
<path class="st9" d="M69.8,440.1c0.1-0.2,0.1-0.3,0.2-0.5c0.7-1.8,1.5-3.6,2.3-5.2c11.4-22.8,36.7-27.9,52.2-44.9
	c6.2-6.8,40,9.6,46.1,20.4c6.5,11.6,14.4,22.5,20,34.5c4.2,8.9,6.7,18.8,8.4,28.5c3.7,21.8,17.2,29.3,35,15.9
	c18.1-13.5,33.6-30.6,51.1-46.9c-11.4-16.7-9.5-26.2-2.7-33.1c7.1-7.4,19.8-11.8,28.2-18.6c-6.1-7.9-11.4-14.8-17.9-23.4
	c0.1-0.1,0.3-0.1,0.4-0.2c0,0-0.1-0.1-0.1-0.1c9.8-3.8,17.3-6.8,24.7-9.6c-1.2-1-2.4-2-3.5-3c4.2-6.8,8.3-13.6,12.7-20.3
	c4.1-6.2,8.8-12,12.9-18.3c1.2-1.8,0.2-5.1,1.5-6.7c21.1-26,40.7-53.6,64.3-77.2c0.9-0.9,1.9-1.7,3-2.4
	c14.7-10.1,40.8,3.5,46.3,22.2c1.9,6.3,5.9,12,9.3,17.7c3.5,5.9,11.7,12.7,10.5,17c-6.4,22.4,11.3,31.5,21.7,45.2
	c7.7,10.1,12.4,22.5,18.7,34.3c-4.8,5.1-9,9.6-10.6,11.1c-0.2,0.2-0.3,0.3-0.4,0.4c16.2,27.2,30.5,52.4,46,76.9
	c18.7,29.5,74.3,29,96.1,1.8c2.3-2.9,4.5-5.8,6.7-8.7c4.6-6.1,9.2-12.3,14-18.3c0.3-0.3,0.5-0.6,0.8-1c0.3-0.4,0.7-0.8,1-1.2
	c13.1-16,28.2-30.3,51.2-37c4.2-1.3,8.1-4,11.7-7.6c8-8.2,14.8-20.6,21.6-30.2c11.9-17.1,20.7-36.4,33.2-53c0.8-1.1,1.8-2,3-2.8
	c10.5-7.4,34.8-3.1,43.3,6.4c14.3,15.7,29.9,30.4,43.4,46.9c4.3,5.3,3.8,14.6,6.8,28.4c6.1,9.3,14.1,25.8,25.9,38.9
	c23.8,26.3,56.5,40.2,90.4,40.4c55.1,0.4,110.3-4.9,165.3-9.8c9.5-0.9,15.8-4.9,20.4-10.5c7.7-9.6,10.6-23.5,15.7-34.7
	c3.4-7.6,7.2-13.5,11.3-17.7c11.9-12.5,26.2-10.2,40.5,8.6c7.9,10.4,12.4,23.5,20.2,34.1c4.4,6,11.8,12.3,18.6,13.1
	c4.6,0.6,10.9-3.9,15.4-8.5c0.6-0.7,1.2-1.3,1.8-1.9c8.2-9.4,15.3-19.9,21.9-30.6c5.2-8.3,8.3-17.8,13.5-26.1
	c8-12.9,15.1-27.2,25.7-37.4c0.8-0.8,1.6-1.5,2.4-2.2c5.1-4.4,25.7-1.3,29,4.4c14.1,24,36.9,37.1,57.1,54
	c15.2,12.6,27.1,29.2,42.4,41.7c7.8,6.4,19.9,10,30,9.8c2.1,0,4.8-3,7.2-6.8c2.4-4.1,4.3-9,4.7-12.8c3.3-28.8,11-54.4,28.9-78.2
	c1.2-1.6,2.5-3.3,3.8-4.9c0.3-0.3,0.5-0.6,0.7-0.9c10.1-13.9,8.6-36.7,18.4-51.5c16.8-25.5,38.5-47.8,57.2-70.3
	c3.1-13,6.4-27.2,9.9-41.3c0.4-1.5,2.2-3.4,1.8-4.1c-16.5-24.8,13.9-42.6,10.1-66c-0.6-3.6,4.1-10.8,8.5-14.3
	c-31.4,2.8-60.8,8.1-73.5,13.6c-50.5,21.8-105.6,71.2-158.2,97c-55.5,27.2-96.9,49-155.8,59.7c-59,10.7-114.6,11.9-172.3,27.7
	c-43.1,11.8-127.1,60-169.2,49.6c-7.2-1.8-14.2-5.1-20.8-9.5c-38.7-25.3-69.1-88.2-107.6-114c-7.3-4.9-15-8.4-23-10.1
	c-52.3-10.9-129.1,41.6-182.5,43.7c-56.7,2.2-90.4-22.1-140.9-51.4l0,0c-0.1-0.1-0.2-0.1-0.3-0.2l-35.2,8.6
	c-1.2,0.3-2.4,0.5-3.6,0.8l-156.5,27.1c-28.7,29.8-57.9,61.7-88.2,76.9c-7,3.5-14.1,6.2-21.2,7.7c-40.6,8.6-89-46-132.3-37.2
	c-12.9,7.6-24.7,15.6-35.9,24.2c-1.6,1.2-3.2,2.5-4.7,3.7v164.8c0.1,0,0.2-0.1,0.3-0.1V474C13.3,467.5,62.4,453.5,69.8,440.1z"/>
<linearGradient id="SVGID_10_" gradientUnits="userSpaceOnUse" x1="840.8036" y1="1498.9128" x2="840.8036" y2="89.8337">
	<stop  offset="0" style="stop-color:#000000"/>
	<stop  offset="0.1301" style="stop-color:#050505"/>
	<stop  offset="0.2916" style="stop-color:#141415"/>
	<stop  offset="0.4698" style="stop-color:#2D2D2E"/>
	<stop  offset="0.66" style="stop-color:#4F5051"/>
	<stop  offset="0.8576" style="stop-color:#7B7C7E"/>
	<stop  offset="1" style="stop-color:#9FA1A3"/>
</linearGradient>
<path class="st10" d="M1681.6,92c-31.4,2.8-60.8,8.1-73.5,13.6c-50.5,21.8-105.6,71.2-158.2,97c-55.5,27.2-96.9,49-155.8,59.7
	c-59,10.7-114.6,11.9-172.3,27.7c-43.1,11.8-127.1,60-169.2,49.6c-7.2-1.8-14.2-5.1-20.8-9.5c-38.7-25.3-69.1-88.2-107.6-114
	c-7.3-4.9-15-8.4-23-10.1c-52.3-10.9-129.1,41.6-182.5,43.7c-56.7,2.2-90.4-22.1-140.9-51.4l0,0l0.1,0c-0.1-0.1-0.2-0.1-0.3-0.2
	c-4.7-2.7-9.5-5.5-14.5-8.3c-72.3-40.2-54.6-43.7-114.5-12.1c-21.9,11.6-44,33.5-66.4,56.8c0,0-0.1,0.1-0.1,0.1
	c-28.7,29.8-57.9,61.7-88.2,76.9c-7,3.5-14.1,6.2-21.2,7.7c-40.6,8.6-89-46-132.3-37.2c-12.9,7.6-24.7,15.6-35.9,24.2
	c-1.6,1.2-3.2,2.5-4.7,3.7v164.8c0.1,0,0.2-0.1,0.3-0.1V474c13-6.5,62.1-20.5,69.5-33.9c0.1-0.2,0.1-0.3,0.2-0.5
	c0.7-1.8,1.5-3.6,2.3-5.2c11.4-22.8,36.7-27.9,52.2-44.9c6.2-6.8,40,9.6,46.1,20.4c6.5,11.6,14.4,22.5,20,34.5
	c4.2,8.9,6.7,18.8,8.4,28.5c3.7,21.8,17.2,29.3,35,15.9c18.1-13.5,33.6-30.6,51.1-46.9c-11.4-16.7-9.5-26.2-2.7-33.1
	c7.1-7.4,19.8-11.8,28.2-18.6c-6.1-7.9-11.4-14.8-17.9-23.4c0.1-0.1,0.3-0.1,0.4-0.2c0,0-0.1-0.1-0.1-0.1c9.8-3.8,17.3-6.8,24.7-9.6
	c-1.2-1-2.4-2-3.5-3c4.2-6.8,8.3-13.6,12.7-20.3c4.1-6.2,8.8-12,12.9-18.3c1.2-1.8,0.2-5.1,1.5-6.7c21.1-26,40.7-53.6,64.3-77.2
	c0.9-0.9,1.9-1.7,3-2.4c14.7-10.1,40.8,3.5,46.3,22.2c1.9,6.3,5.9,12,9.3,17.7c3.5,5.9,11.7,12.7,10.5,17
	c-6.4,22.4,11.3,31.5,21.7,45.2c7.7,10.1,12.4,22.5,18.7,34.3c-4.8,5.1-9,9.6-10.6,11.1c-0.2,0.2-0.3,0.3-0.4,0.4
	c16.2,27.2,30.5,52.4,46,76.9c18.7,29.5,74.3,29,96.1,1.8c2.3-2.9,4.5-5.8,6.7-8.7c4.6-6.1,9.2-12.3,14-18.3c0.3-0.3,0.5-0.6,0.8-1
	c0.3-0.4,0.7-0.8,1-1.2c13.1-16,28.2-30.3,51.2-37c4.2-1.3,8.1-4,11.7-7.6c8-8.2,14.8-20.6,21.6-30.2c11.9-17.1,20.7-36.4,33.2-53
	c0.8-1.1,1.8-2,3-2.8c10.5-7.4,34.8-3.1,43.3,6.4c14.3,15.7,29.9,30.4,43.4,46.9c4.3,5.3,3.8,14.6,6.8,28.4
	c6.1,9.3,14.1,25.8,25.9,38.9c23.8,26.3,56.5,40.2,90.4,40.4c55.1,0.4,110.3-4.9,165.3-9.8c9.5-0.9,15.8-4.9,20.4-10.5
	c7.7-9.6,10.6-23.5,15.7-34.7c3.4-7.6,7.2-13.5,11.3-17.7c11.9-12.5,26.2-10.2,40.5,8.6c7.9,10.4,12.4,23.5,20.2,34.1
	c4.4,6,11.8,12.3,18.6,13.1c4.6,0.6,10.9-3.9,15.4-8.5c0.6-0.7,1.2-1.3,1.8-1.9c8.2-9.4,15.3-19.9,21.9-30.6
	c5.2-8.3,8.3-17.8,13.5-26.1c8-12.9,15.1-27.2,25.7-37.4c0.8-0.8,1.6-1.5,2.4-2.2c5.1-4.4,25.7-1.3,29,4.4
	c14.1,24,36.9,37.1,57.1,54c15.2,12.6,27.1,29.2,42.4,41.7c7.8,6.4,19.9,10,30,9.8c2.1,0,4.8-3,7.2-6.8c2.4-4.1,4.3-9,4.7-12.8
	c3.3-28.8,11-54.4,28.9-78.2c1.2-1.6,2.5-3.3,3.8-4.9c0.3-0.3,0.5-0.6,0.7-0.9c10.1-13.9,8.6-36.7,18.4-51.5
	c16.8-25.5,38.5-47.8,57.2-70.3c3.1-13,6.4-27.2,9.9-41.3c0.4-1.5,2.2-3.4,1.8-4.1c-16.5-24.8,13.9-42.6,10.1-66
	C1672.5,102.7,1677.2,95.5,1681.6,92z"/>
<linearGradient id="SVGID_11_" gradientUnits="userSpaceOnUse" x1="2.3742" y1="1189.5157" x2="2.3742" y2="-345.3525" gradientTransform="matrix(1 0 0 -1 0 1244)">
	<stop  offset="0" style="stop-color:#FFFFFF"/>
	<stop  offset="4.304647e-03" style="stop-color:#FEFEFE"/>
	<stop  offset="0.1755" style="stop-color:#D0D0D0"/>
	<stop  offset="0.3472" style="stop-color:#AAAAAA"/>
	<stop  offset="0.5167" style="stop-color:#8C8C8C"/>
	<stop  offset="0.6834" style="stop-color:#777777"/>
	<stop  offset="0.846" style="stop-color:#6A6A6A"/>
	<stop  offset="1" style="stop-color:#666666"/>
</linearGradient>
<path class="st11" d="M0,309.9c1.6-1.2,3.2-2.5,4.7-3.7C3.2,307.4,1.6,308.7,0,309.9z"/>
<linearGradient id="SVGID_12_" gradientUnits="userSpaceOnUse" x1="2.3742" y1="1189.5157" x2="2.3742" y2="-345.3525" gradientTransform="matrix(1 0 0 -1 0 1244)">
	<stop  offset="0" style="stop-color:#FFFFFF"/>
	<stop  offset="4.304647e-03" style="stop-color:#FEFEFE"/>
	<stop  offset="0.1755" style="stop-color:#D0D0D0"/>
	<stop  offset="0.3472" style="stop-color:#AAAAAA"/>
	<stop  offset="0.5167" style="stop-color:#8C8C8C"/>
	<stop  offset="0.6834" style="stop-color:#777777"/>
	<stop  offset="0.846" style="stop-color:#6A6A6A"/>
	<stop  offset="1" style="stop-color:#666666"/>
</linearGradient>
<path class="st12" d="M0,309.9c1.6-1.2,3.2-2.5,4.7-3.7C3.2,307.4,1.6,308.7,0,309.9z"/>
<linearGradient id="SVGID_13_" gradientUnits="userSpaceOnUse" x1="2.3742" y1="-254.9128" x2="2.3742" y2="1154.1663" gradientTransform="matrix(1 0 0 -1 0 1244)">
	<stop  offset="0" style="stop-color:#000000"/>
	<stop  offset="1" style="stop-color:#9FA1A3"/>
</linearGradient>
<path class="st13" d="M0,309.9c1.6-1.2,3.2-2.5,4.7-3.7C3.2,307.4,1.6,308.7,0,309.9z"/>
<path d="M1686,90.2c-1.1,0-2.4,0.6-3.7,1.6c5.1-0.5,10.3-0.9,15.5-1.2C1693.8,90,1689.7,89.8,1686,90.2z"/>
<linearGradient id="SVGID_14_" gradientUnits="userSpaceOnUse" x1="1609.2714" y1="1189.2726" x2="1609.2714" y2="-345.5955" gradientTransform="matrix(1 0 0 -1 0 1244)">
	<stop  offset="0" style="stop-color:#FFFFFF"/>
	<stop  offset="4.304647e-03" style="stop-color:#FEFEFE"/>
	<stop  offset="0.1755" style="stop-color:#D0D0D0"/>
	<stop  offset="0.3472" style="stop-color:#AAAAAA"/>
	<stop  offset="0.5167" style="stop-color:#8C8C8C"/>
	<stop  offset="0.6834" style="stop-color:#777777"/>
	<stop  offset="0.846" style="stop-color:#6A6A6A"/>
	<stop  offset="1" style="stop-color:#666666"/>
</linearGradient>
<path class="st14" d="M618.4,249.5c48.5-1.9,116.1-45.3,167.3-45.2c5.3,0,10.5,0.5,15.4,1.5c57.6,12,94.1,119.4,151.4,133.6
	c3.9,1,8.2,1.4,12.8,1.5c44.6,0.1,117.2-40.4,156.2-51.1c57.7-15.8,113.3-17,172.3-27.7c59-10.8,100.4-32.5,155.9-59.7
	c52.7-25.8,107.8-75.2,158.3-97c12.8-5.5,42.4-10.8,73.9-13.6c0,0,0,0,0,0c0.1,0,0.2,0,0.2,0c-0.1,0.1-0.2,0.1-0.3,0.2
	c0,0,0.1,0,0.1,0c0.1-0.1,0.2-0.1,0.3-0.2c0,0,0,0,0.1,0c0,0,0,0,0,0c0,0-0.1,0-0.1,0c1.5-1.1,2.8-1.8,4-1.8c3.6-0.2,7.9,0,12.1,0.6
	c-0.2,0-0.3,0-0.5,0c0,0,0,0,0,0c0.2,0,0.3,0,0.5,0c0.1,0,0.3,0.1,0.4,0.1c34.1-2,67.5-0.5,81.9,7.1
	c45.3,24.1,52.5,121.1,91.7,156.2c3.5,3.1,7.3,5.8,11.3,7.9c33.4,16.9,83.2-27.4,129.9-26.3c67.8,1.5,118.3,43.7,182.6,24.4
	c58.8-17.7,67.3-48.6,95.5-48.6c9.4,0,20.9,3.4,37.2,11.8c56,29,66,85.1,128.1,90.2c65.4,5.3,152.2-54.8,214.9-37.8
	c13.9,3.7,50,22.5,68.8,40.9v-162l-99.3-4c-22.8-1.1-44,12.1-52.9,33.2l-10.7,25.1c-6.6,15.5-19.9,27-36.1,31.4l-56.5,15.1
	c-23.4,6.3-48.1-3.6-60.8-24.3l-16.7-27.3c-7.7-12.5-17-24-27.6-34.1l-70.5-66.9c-25.1-23.8-65.7-18.6-84,10.7l-17.4,27.9
	c-17.4,27.9-55.3,34.2-80.8,13.5c-14.9-12.1-30.3-23.6-46.3-34.3c-27.6-18.6-66.4-58.6-81.4-61.8c-126.1-27-103.6,90.1-112.6,63.1
	c-6-18.1-86.6-40.2-139.4-52.9c-28.9-6.9-59.1-6.1-87.5,2.6l-255.5,77.3l-385,100.4c-23.4,6.1-48-3.9-60.6-24.6
	c-9.2-15.1-18.6-32.2-22.7-44.3c-2.3-6.8-9.6-14.6-19.3-22.7c-40.8-33.7-95.6-45.4-146.9-32.3l-144.6,36.9l-147.5,36
	c48.7,28.3,81.7,51.9,135.2,51.4C614.9,249.6,616.6,249.6,618.4,249.5z"/>
<linearGradient id="SVGID_15_" gradientUnits="userSpaceOnUse" x1="1323.6055" y1="1189.5157" x2="1323.6055" y2="-345.3525" gradientTransform="matrix(1 0 0 -1 0 1244)">
	<stop  offset="0" style="stop-color:#FFFFFF"/>
	<stop  offset="4.304647e-03" style="stop-color:#FEFEFE"/>
	<stop  offset="0.1755" style="stop-color:#D0D0D0"/>
	<stop  offset="0.3472" style="stop-color:#AAAAAA"/>
	<stop  offset="0.5167" style="stop-color:#8C8C8C"/>
	<stop  offset="0.6834" style="stop-color:#777777"/>
	<stop  offset="0.846" style="stop-color:#6A6A6A"/>
	<stop  offset="1" style="stop-color:#666666"/>
</linearGradient>
<path class="st15" d="M1294,262.1c59-10.8,100.4-32.5,155.9-59.7c52.7-25.8,107.8-75.2,158.3-97c12.8-5.5,42.3-10.8,73.7-13.6
	c0,0,0,0,0,0c-31.5,2.8-61.1,8.1-73.9,13.6c-50.5,21.8-105.6,71.2-158.3,97c-55.5,27.2-96.9,48.9-155.9,59.7
	c-59,10.7-114.6,11.9-172.3,27.7c-39,10.7-111.6,51.2-156.2,51.1c44.6,0.3,117.3-40.4,156.4-51.1C1179.4,274,1235,272.8,1294,262.1z
	"/>
<linearGradient id="SVGID_16_" gradientUnits="userSpaceOnUse" x1="1323.6055" y1="1189.2726" x2="1323.6055" y2="-345.5956" gradientTransform="matrix(1 0 0 -1 0 1244)">
	<stop  offset="0" style="stop-color:#FFFFFF"/>
	<stop  offset="4.304647e-03" style="stop-color:#FEFEFE"/>
	<stop  offset="0.1755" style="stop-color:#D0D0D0"/>
	<stop  offset="0.3472" style="stop-color:#AAAAAA"/>
	<stop  offset="0.5167" style="stop-color:#8C8C8C"/>
	<stop  offset="0.6834" style="stop-color:#777777"/>
	<stop  offset="0.846" style="stop-color:#6A6A6A"/>
	<stop  offset="1" style="stop-color:#666666"/>
</linearGradient>
<path class="st16" d="M1294,262.1c59-10.8,100.4-32.5,155.9-59.7c52.7-25.8,107.8-75.2,158.3-97c12.8-5.5,42.3-10.8,73.7-13.6
	c0,0,0,0,0,0c-31.5,2.8-61.1,8.1-73.9,13.6c-50.5,21.8-105.6,71.2-158.3,97c-55.5,27.2-96.9,48.9-155.9,59.7
	c-59,10.7-114.6,11.9-172.3,27.7c-39,10.7-111.6,51.2-156.2,51.1c44.6,0.3,117.3-40.4,156.4-51.1C1179.4,274,1235,272.8,1294,262.1z
	"/>
<linearGradient id="SVGID_17_" gradientUnits="userSpaceOnUse" x1="699.4274" y1="1189.5157" x2="699.4274" y2="-345.3525" gradientTransform="matrix(1 0 0 -1 0 1244)">
	<stop  offset="0" style="stop-color:#FFFFFF"/>
	<stop  offset="4.304647e-03" style="stop-color:#FEFEFE"/>
	<stop  offset="0.1755" style="stop-color:#D0D0D0"/>
	<stop  offset="0.3472" style="stop-color:#AAAAAA"/>
	<stop  offset="0.5167" style="stop-color:#8C8C8C"/>
	<stop  offset="0.6834" style="stop-color:#777777"/>
	<stop  offset="0.846" style="stop-color:#6A6A6A"/>
	<stop  offset="1" style="stop-color:#666666"/>
</linearGradient>
<path class="st17" d="M785.7,204.3c-51.2-0.1-118.8,43.3-167.3,45.2c-1.8,0.1-3.5,0.1-5.2,0.1c1.8,0,3.6-0.1,5.4-0.1
	C667.1,247.6,734.5,204.4,785.7,204.3z"/>
<linearGradient id="SVGID_18_" gradientUnits="userSpaceOnUse" x1="699.4274" y1="1189.2726" x2="699.4274" y2="-345.5956" gradientTransform="matrix(1 0 0 -1 0 1244)">
	<stop  offset="0" style="stop-color:#FFFFFF"/>
	<stop  offset="4.304647e-03" style="stop-color:#FEFEFE"/>
	<stop  offset="0.1755" style="stop-color:#D0D0D0"/>
	<stop  offset="0.3472" style="stop-color:#AAAAAA"/>
	<stop  offset="0.5167" style="stop-color:#8C8C8C"/>
	<stop  offset="0.6834" style="stop-color:#777777"/>
	<stop  offset="0.846" style="stop-color:#6A6A6A"/>
	<stop  offset="1" style="stop-color:#666666"/>
</linearGradient>
<path class="st18" d="M785.7,204.3c-51.2-0.1-118.8,43.3-167.3,45.2c-1.8,0.1-3.5,0.1-5.2,0.1c1.8,0,3.6-0.1,5.4-0.1
	C667.1,247.6,734.5,204.4,785.7,204.3z"/>
<linearGradient id="SVGID_19_" gradientUnits="userSpaceOnUse" x1="875.4971" y1="-254.9128" x2="875.4971" y2="1154.1663" gradientTransform="matrix(1 0 0 -1 0 1244)">
	<stop  offset="0" style="stop-color:#000000"/>
	<stop  offset="1" style="stop-color:#9FA1A3"/>
</linearGradient>
<path class="st19" d="M965.3,340.9c-4.6,0-8.9-0.5-12.8-1.5c-57.3-14.2-93.8-121.6-151.4-133.6c-4.9-1-10.1-1.5-15.4-1.5
	c5.3,0,10.3,0.5,15.2,1.5c8.2,1.7,15.9,5.3,23.3,10.3c38.6,25.7,68.9,88.5,107.6,114c6.6,4.3,13.4,7.5,20.5,9.3
	C956.3,340.4,960.6,340.8,965.3,340.9z"/>
<linearGradient id="SVGID_20_" gradientUnits="userSpaceOnUse" x1="875.497" y1="1189.2726" x2="875.497" y2="-345.5956" gradientTransform="matrix(1 0 0 -1 0 1244)">
	<stop  offset="0" style="stop-color:#FFFFFF"/>
	<stop  offset="4.304647e-03" style="stop-color:#FEFEFE"/>
	<stop  offset="0.1755" style="stop-color:#D0D0D0"/>
	<stop  offset="0.3472" style="stop-color:#AAAAAA"/>
	<stop  offset="0.5167" style="stop-color:#8C8C8C"/>
	<stop  offset="0.6834" style="stop-color:#777777"/>
	<stop  offset="0.846" style="stop-color:#6A6A6A"/>
	<stop  offset="1" style="stop-color:#666666"/>
</linearGradient>
<path class="st20" d="M965.3,340.9c-4.6,0-8.9-0.5-12.8-1.5c-57.3-14.2-93.8-121.6-151.4-133.6c-4.9-1-10.1-1.5-15.4-1.5
	c5.3,0,10.3,0.5,15.2,1.5c8.2,1.7,15.9,5.3,23.3,10.3c38.6,25.7,68.9,88.5,107.6,114c6.6,4.3,13.4,7.5,20.5,9.3
	C956.3,340.4,960.6,340.8,965.3,340.9z"/>
<linearGradient id="SVGID_21_" gradientUnits="userSpaceOnUse" x1="545.501" y1="-254.9128" x2="545.501" y2="1154.1663" gradientTransform="matrix(1 0 0 -1 0 1244)">
	<stop  offset="0" style="stop-color:#000000"/>
	<stop  offset="1" style="stop-color:#9FA1A3"/>
</linearGradient>
<path class="st21" d="M613.2,249.6c-53.5,0.5-86.5-23.1-135.2-51.4l-0.1,0C526.6,226.6,559.6,250.2,613.2,249.6z"/>
<linearGradient id="SVGID_22_" gradientUnits="userSpaceOnUse" x1="545.501" y1="1189.2726" x2="545.501" y2="-345.5956" gradientTransform="matrix(1 0 0 -1 0 1244)">
	<stop  offset="0" style="stop-color:#FFFFFF"/>
	<stop  offset="4.304647e-03" style="stop-color:#FEFEFE"/>
	<stop  offset="0.1755" style="stop-color:#D0D0D0"/>
	<stop  offset="0.3472" style="stop-color:#AAAAAA"/>
	<stop  offset="0.5167" style="stop-color:#8C8C8C"/>
	<stop  offset="0.6834" style="stop-color:#777777"/>
	<stop  offset="0.846" style="stop-color:#6A6A6A"/>
	<stop  offset="1" style="stop-color:#666666"/>
</linearGradient>
<path class="st22" d="M613.2,249.6c-53.5,0.5-86.5-23.1-135.2-51.4l-0.1,0C526.6,226.6,559.6,250.2,613.2,249.6z"/>
<linearGradient id="SVGID_23_" gradientUnits="userSpaceOnUse" x1="1681.8536" y1="-254.9128" x2="1681.8536" y2="1154.1663" gradientTransform="matrix(1 0 0 -1 0 1244)">
	<stop  offset="0" style="stop-color:#000000"/>
	<stop  offset="1" style="stop-color:#9FA1A3"/>
</linearGradient>
<path class="st23" d="M1682.1,91.8c-0.1,0-0.2,0-0.2,0c-0.1,0.1-0.2,0.1-0.3,0.2c0.1,0,0.2,0,0.2,0
	C1681.9,91.9,1682,91.9,1682.1,91.8z"/>
<linearGradient id="SVGID_24_" gradientUnits="userSpaceOnUse" x1="1681.8536" y1="1189.2726" x2="1681.8536" y2="-345.5956" gradientTransform="matrix(1 0 0 -1 0 1244)">
	<stop  offset="0" style="stop-color:#FFFFFF"/>
	<stop  offset="4.304647e-03" style="stop-color:#FEFEFE"/>
	<stop  offset="0.1755" style="stop-color:#D0D0D0"/>
	<stop  offset="0.3472" style="stop-color:#AAAAAA"/>
	<stop  offset="0.5167" style="stop-color:#8C8C8C"/>
	<stop  offset="0.6834" style="stop-color:#777777"/>
	<stop  offset="0.846" style="stop-color:#6A6A6A"/>
	<stop  offset="1" style="stop-color:#666666"/>
</linearGradient>
<path class="st24" d="M1682.1,91.8c-0.1,0-0.2,0-0.2,0c-0.1,0.1-0.2,0.1-0.3,0.2c0.1,0,0.2,0,0.2,0
	C1681.9,91.9,1682,91.9,1682.1,91.8z"/>
<linearGradient id="SVGID_25_" gradientUnits="userSpaceOnUse" x1="651.0023" y1="1189.5157" x2="651.0023" y2="-345.3525" gradientTransform="matrix(1 0 0 -1 0 1244)">
	<stop  offset="0" style="stop-color:#FFFFFF"/>
	<stop  offset="4.304647e-03" style="stop-color:#FEFEFE"/>
	<stop  offset="0.1755" style="stop-color:#D0D0D0"/>
	<stop  offset="0.3472" style="stop-color:#AAAAAA"/>
	<stop  offset="0.5167" style="stop-color:#8C8C8C"/>
	<stop  offset="0.6834" style="stop-color:#777777"/>
	<stop  offset="0.846" style="stop-color:#6A6A6A"/>
	<stop  offset="1" style="stop-color:#666666"/>
</linearGradient>
<path class="st25" d="M785.7,204.3c-51.2,0-118.6,43.3-167.1,45.2c-1.8,0.1-3.6,0.1-5.4,0.1c-53.6,0.6-86.6-23-135.3-51.3l0,0
	c50.5,29.3,84.2,53.6,140.9,51.4c53.4-2.1,130.2-54.6,182.5-43.7c8,1.7,15.7,5.2,23,10.1c-7.4-5-15.2-8.6-23.3-10.3
	C796,204.8,790.9,204.3,785.7,204.3z"/>
<linearGradient id="SVGID_26_" gradientUnits="userSpaceOnUse" x1="651.0023" y1="-254.9128" x2="651.0023" y2="1154.1663" gradientTransform="matrix(1 0 0 -1 0 1244)">
	<stop  offset="0" style="stop-color:#000000"/>
	<stop  offset="1" style="stop-color:#9FA1A3"/>
</linearGradient>
<path class="st26" d="M785.7,204.3c-51.2,0-118.6,43.3-167.1,45.2c-1.8,0.1-3.6,0.1-5.4,0.1c-53.6,0.6-86.6-23-135.3-51.3l0,0
	c50.5,29.3,84.2,53.6,140.9,51.4c53.4-2.1,130.2-54.6,182.5-43.7c8,1.7,15.7,5.2,23,10.1c-7.4-5-15.2-8.6-23.3-10.3
	C796,204.8,790.9,204.3,785.7,204.3z"/>
<linearGradient id="SVGID_27_" gradientUnits="userSpaceOnUse" x1="651.0023" y1="1189.2726" x2="651.0023" y2="-345.5956" gradientTransform="matrix(1 0 0 -1 0 1244)">
	<stop  offset="0" style="stop-color:#FFFFFF"/>
	<stop  offset="4.304647e-03" style="stop-color:#FEFEFE"/>
	<stop  offset="0.1755" style="stop-color:#D0D0D0"/>
	<stop  offset="0.3472" style="stop-color:#AAAAAA"/>
	<stop  offset="0.5167" style="stop-color:#8C8C8C"/>
	<stop  offset="0.6834" style="stop-color:#777777"/>
	<stop  offset="0.846" style="stop-color:#6A6A6A"/>
	<stop  offset="1" style="stop-color:#666666"/>
</linearGradient>
<path class="st27" d="M785.7,204.3c-51.2,0-118.6,43.3-167.1,45.2c-1.8,0.1-3.6,0.1-5.4,0.1c-53.6,0.6-86.6-23-135.3-51.3l0,0
	c50.5,29.3,84.2,53.6,140.9,51.4c53.4-2.1,130.2-54.6,182.5-43.7c8,1.7,15.7,5.2,23,10.1c-7.4-5-15.2-8.6-23.3-10.3
	C796,204.8,790.9,204.3,785.7,204.3z"/>
<linearGradient id="SVGID_28_" gradientUnits="userSpaceOnUse" x1="1306.8271" y1="1189.5157" x2="1306.8271" y2="-345.3525" gradientTransform="matrix(1 0 0 -1 0 1244)">
	<stop  offset="0" style="stop-color:#FFFFFF"/>
	<stop  offset="4.304647e-03" style="stop-color:#FEFEFE"/>
	<stop  offset="0.1755" style="stop-color:#D0D0D0"/>
	<stop  offset="0.3472" style="stop-color:#AAAAAA"/>
	<stop  offset="0.5167" style="stop-color:#8C8C8C"/>
	<stop  offset="0.6834" style="stop-color:#777777"/>
	<stop  offset="0.846" style="stop-color:#6A6A6A"/>
	<stop  offset="1" style="stop-color:#666666"/>
</linearGradient>
<path class="st28" d="M1608.2,105.4c-50.5,21.8-105.6,71.2-158.3,97c-55.5,27.2-96.9,48.9-155.9,59.7
	c-59,10.7-114.6,11.9-172.3,27.7c-39.1,10.7-111.8,51.3-156.4,51.1c-4.7,0-9-0.5-13-1.5c-7.1-1.8-13.9-5-20.5-9.3
	c6.7,4.4,13.6,7.7,20.8,9.5c42.1,10.4,126.1-37.8,169.2-49.6c57.7-15.8,113.3-17,172.3-27.7c58.9-10.7,100.3-32.5,155.8-59.7
	c52.6-25.8,107.7-75.2,158.2-97c12.7-5.5,42.2-10.8,73.5-13.6c0.1-0.1,0.2-0.1,0.3-0.2C1650.5,94.6,1621,99.9,1608.2,105.4z"/>
<linearGradient id="SVGID_29_" gradientUnits="userSpaceOnUse" x1="1306.827" y1="-254.9128" x2="1306.827" y2="1154.1663" gradientTransform="matrix(1 0 0 -1 0 1244)">
	<stop  offset="0" style="stop-color:#000000"/>
	<stop  offset="1" style="stop-color:#9FA1A3"/>
</linearGradient>
<path class="st29" d="M1608.2,105.4c-50.5,21.8-105.6,71.2-158.3,97c-55.5,27.2-96.9,48.9-155.9,59.7
	c-59,10.7-114.6,11.9-172.3,27.7c-39.1,10.7-111.8,51.3-156.4,51.1c-4.7,0-9-0.5-13-1.5c-7.1-1.8-13.9-5-20.5-9.3
	c6.7,4.4,13.6,7.7,20.8,9.5c42.1,10.4,126.1-37.8,169.2-49.6c57.7-15.8,113.3-17,172.3-27.7c58.9-10.7,100.3-32.5,155.8-59.7
	c52.6-25.8,107.7-75.2,158.2-97c12.7-5.5,42.2-10.8,73.5-13.6c0.1-0.1,0.2-0.1,0.3-0.2C1650.5,94.6,1621,99.9,1608.2,105.4z"/>
<linearGradient id="SVGID_30_" gradientUnits="userSpaceOnUse" x1="1306.8271" y1="1189.2726" x2="1306.8271" y2="-345.5956" gradientTransform="matrix(1 0 0 -1 0 1244)">
	<stop  offset="0" style="stop-color:#FFFFFF"/>
	<stop  offset="4.304647e-03" style="stop-color:#FEFEFE"/>
	<stop  offset="0.1755" style="stop-color:#D0D0D0"/>
	<stop  offset="0.3472" style="stop-color:#AAAAAA"/>
	<stop  offset="0.5167" style="stop-color:#8C8C8C"/>
	<stop  offset="0.6834" style="stop-color:#777777"/>
	<stop  offset="0.846" style="stop-color:#6A6A6A"/>
	<stop  offset="1" style="stop-color:#666666"/>
</linearGradient>
<path class="st30" d="M1608.2,105.4c-50.5,21.8-105.6,71.2-158.3,97c-55.5,27.2-96.9,48.9-155.9,59.7
	c-59,10.7-114.6,11.9-172.3,27.7c-39.1,10.7-111.8,51.3-156.4,51.1c-4.7,0-9-0.5-13-1.5c-7.1-1.8-13.9-5-20.5-9.3
	c6.7,4.4,13.6,7.7,20.8,9.5c42.1,10.4,126.1-37.8,169.2-49.6c57.7-15.8,113.3-17,172.3-27.7c58.9-10.7,100.3-32.5,155.8-59.7
	c52.6-25.8,107.7-75.2,158.2-97c12.7-5.5,42.2-10.8,73.5-13.6c0.1-0.1,0.2-0.1,0.3-0.2C1650.5,94.6,1621,99.9,1608.2,105.4z"/>
<path d="M1697.8,90.6c0.2,0,0.3,0,0.5,0c-4.2-0.6-8.5-0.8-12.1-0.6c-1.2,0-2.5,0.7-4,1.8c0,0,0.1,0,0.1,0c1.3-1,2.6-1.6,3.7-1.6
	C1689.7,89.8,1693.8,90,1697.8,90.6z"/>
<linearGradient id="SVGID_31_" gradientUnits="userSpaceOnUse" x1="1690.25" y1="1189.2726" x2="1690.25" y2="-345.5956" gradientTransform="matrix(1 0 0 -1 0 1244)">
	<stop  offset="0" style="stop-color:#FFFFFF"/>
	<stop  offset="4.304647e-03" style="stop-color:#FEFEFE"/>
	<stop  offset="0.1755" style="stop-color:#D0D0D0"/>
	<stop  offset="0.3472" style="stop-color:#AAAAAA"/>
	<stop  offset="0.5167" style="stop-color:#8C8C8C"/>
	<stop  offset="0.6834" style="stop-color:#777777"/>
	<stop  offset="0.846" style="stop-color:#6A6A6A"/>
	<stop  offset="1" style="stop-color:#666666"/>
</linearGradient>
<path class="st31" d="M1697.8,90.6c0.2,0,0.3,0,0.5,0c-4.2-0.6-8.5-0.8-12.1-0.6c-1.2,0-2.5,0.7-4,1.8c0,0,0.1,0,0.1,0
	c1.3-1,2.6-1.6,3.7-1.6C1689.7,89.8,1693.8,90,1697.8,90.6z"/>
<linearGradient id="SVGID_32_" gradientUnits="userSpaceOnUse" x1="2219.6589" y1="1189.5157" x2="2219.6589" y2="-345.3525" gradientTransform="matrix(1 0 0 -1 0 1244)">
	<stop  offset="0" style="stop-color:#FFFFFF"/>
	<stop  offset="4.304647e-03" style="stop-color:#FEFEFE"/>
	<stop  offset="0.1755" style="stop-color:#D0D0D0"/>
	<stop  offset="0.3472" style="stop-color:#AAAAAA"/>
	<stop  offset="0.5167" style="stop-color:#8C8C8C"/>
	<stop  offset="0.6834" style="stop-color:#777777"/>
	<stop  offset="0.846" style="stop-color:#6A6A6A"/>
	<stop  offset="1" style="stop-color:#666666"/>
</linearGradient>
<path class="st32" d="M2255.4,382.5c5.3-13.5,12.7-26.5,20.8-38.6c9.2-13.8,18.2-29.1,31-38.8c9.9-7.5,26.4-7.7,32.7,8.8
	c7.3,19.3,13,39,18.7,58.9c6.4,22.3,17.1,37.7,43.9,31.2c28.2-6.7,33.1,23.1,50.6,33.5c12.8,7.6,20.3,24.1,30,36.8
	c13.4,17.6,40.5,18,56.3,3.2c13.9-13,29.7-24.1,45.8-34.3c11.7-7.5,29.1-7.7,30.7-26.7c10.1,0.9,26.4-1.8,29.3,3.3
	c14.7,25.7,71.5,56.7,95.4,73.9V316.6c-18.8-18.5-55-37.3-68.8-41c-62.7-17-149.5,43.2-214.9,37.8c-62.1-5.1-72.1-61.2-128.1-90.2
	c-16.3-8.4-27.9-11.8-37.2-11.8c-28.1,0.1-36.6,30.9-95.5,48.6c-64.3,19.3-114.7-22.8-182.6-24.4c-46.7-1-96.5,43.3-129.9,26.3
	c-4.1-2.1-7.8-4.7-11.3-7.9c-39.3-35.2-46.5-132.1-91.7-156.2c-14.3-7.7-47.7-9.1-81.9-7.1c6.8,1.1,13.2,3.4,15.6,7.2
	c14.9,24.8,31.1,50.5,37.5,78.1c5,21.3,10.9,41.2,19.4,61.2c0.7,1.5,0.8,3.3,0.8,5.1c-0.1,4-1.4,8.4-1.3,11.9c0,1.1,0.2,2.2,0.7,3
	c9.9,17.7,20,35.4,29.7,53.2c16.1,29.5,27.9,62.4,49,87.6c23.3,27.7,56.2,45.8,94,52.3c31.8,5.5,57.2-8.4,76.9-28.7
	c12.2-12.4,17.4-33.2,21.9-51.2c4.4-17.5,13.5-27.5,30.5-29.1c13.1-1.2,36.8,17.2,36.9,30.3c0,0.9,0,1.7-0.2,2.6
	c-0.6,2.7-0.8,5.2-0.8,7.4c0.4,16.5,15.3,21,25.7,27.5c14.9,9.2,26.6,18.3,33.7,35.4c3.1,7.4,18.3,14.4,27.2,13.5
	c9-0.9,24.9-11.9,25.4-17c0,0,0-0.1,0-0.1c-0.3-2-0.5-4-0.5-5.8C2220,409.5,2247.8,402.2,2255.4,382.5z"/>
<linearGradient id="SVGID_33_" gradientUnits="userSpaceOnUse" x1="2219.6589" y1="-254.9128" x2="2219.6589" y2="1154.1663" gradientTransform="matrix(1 0 0 -1 0 1244)">
	<stop  offset="0" style="stop-color:#000000"/>
	<stop  offset="0.1625" style="stop-color:#040404"/>
	<stop  offset="0.3192" style="stop-color:#0F0F0F"/>
	<stop  offset="0.4738" style="stop-color:#222223"/>
	<stop  offset="0.6269" style="stop-color:#3D3D3E"/>
	<stop  offset="0.779" style="stop-color:#5F6061"/>
	<stop  offset="0.9284" style="stop-color:#888A8C"/>
	<stop  offset="1" style="stop-color:#9FA1A3"/>
</linearGradient>
<path class="st33" d="M2255.4,382.5c5.3-13.5,12.7-26.5,20.8-38.6c9.2-13.8,18.2-29.1,31-38.8c9.9-7.5,26.4-7.7,32.7,8.8
	c7.3,19.3,13,39,18.7,58.9c6.4,22.3,17.1,37.7,43.9,31.2c28.2-6.7,33.1,23.1,50.6,33.5c12.8,7.6,20.3,24.1,30,36.8
	c13.4,17.6,40.5,18,56.3,3.2c13.9-13,29.7-24.1,45.8-34.3c11.7-7.5,29.1-7.7,30.7-26.7c10.1,0.9,26.4-1.8,29.3,3.3
	c14.7,25.7,71.5,56.7,95.4,73.9V316.6c-18.8-18.5-55-37.3-68.8-41c-62.7-17-149.5,43.2-214.9,37.8c-62.1-5.1-72.1-61.2-128.1-90.2
	c-16.3-8.4-27.9-11.8-37.2-11.8c-28.1,0.1-36.6,30.9-95.5,48.6c-64.3,19.3-114.7-22.8-182.6-24.4c-46.7-1-96.5,43.3-129.9,26.3
	c-4.1-2.1-7.8-4.7-11.3-7.9c-39.3-35.2-46.5-132.1-91.7-156.2c-14.3-7.7-47.7-9.1-81.9-7.1c6.8,1.1,13.2,3.4,15.6,7.2
	c14.9,24.8,31.1,50.5,37.5,78.1c5,21.3,10.9,41.2,19.4,61.2c0.7,1.5,0.8,3.3,0.8,5.1c-0.1,4-1.4,8.4-1.3,11.9c0,1.1,0.2,2.2,0.7,3
	c9.9,17.7,20,35.4,29.7,53.2c16.1,29.5,27.9,62.4,49,87.6c23.3,27.7,56.2,45.8,94,52.3c31.8,5.5,57.2-8.4,76.9-28.7
	c12.2-12.4,17.4-33.2,21.9-51.2c4.4-17.5,13.5-27.5,30.5-29.1c13.1-1.2,36.8,17.2,36.9,30.3c0,0.9,0,1.7-0.2,2.6
	c-0.6,2.7-0.8,5.2-0.8,7.4c0.4,16.5,15.3,21,25.7,27.5c14.9,9.2,26.6,18.3,33.7,35.4c3.1,7.4,18.3,14.4,27.2,13.5
	c9-0.9,24.9-11.9,25.4-17c0,0,0-0.1,0-0.1c-0.3-2-0.5-4-0.5-5.8C2220,409.5,2247.8,402.2,2255.4,382.5z"/>
<linearGradient id="SVGID_34_" gradientUnits="userSpaceOnUse" x1="2564.3501" y1="1189.2726" x2="2564.3501" y2="-345.5956" gradientTransform="matrix(1 0 0 -1 0 1244)">
	<stop  offset="0" style="stop-color:#FFFFFF"/>
	<stop  offset="4.304647e-03" style="stop-color:#FEFEFE"/>
	<stop  offset="0.1755" style="stop-color:#D0D0D0"/>
	<stop  offset="0.3472" style="stop-color:#AAAAAA"/>
	<stop  offset="0.5167" style="stop-color:#8C8C8C"/>
	<stop  offset="0.6834" style="stop-color:#777777"/>
	<stop  offset="0.846" style="stop-color:#6A6A6A"/>
	<stop  offset="1" style="stop-color:#666666"/>
</linearGradient>
<path class="st34" d="M2671.8,275.6c-62.7-17-149.5,43.1-214.9,37.8C2522.3,318.8,2609.1,258.6,2671.8,275.6z"/>
<linearGradient id="SVGID_35_" gradientUnits="userSpaceOnUse" x1="2564.3501" y1="1189.5157" x2="2564.3501" y2="-345.3525" gradientTransform="matrix(1 0 0 -1 0 1244)">
	<stop  offset="0" style="stop-color:#FFFFFF"/>
	<stop  offset="4.304647e-03" style="stop-color:#FEFEFE"/>
	<stop  offset="0.1755" style="stop-color:#D0D0D0"/>
	<stop  offset="0.3472" style="stop-color:#AAAAAA"/>
	<stop  offset="0.5167" style="stop-color:#8C8C8C"/>
	<stop  offset="0.6834" style="stop-color:#777777"/>
	<stop  offset="0.846" style="stop-color:#6A6A6A"/>
	<stop  offset="1" style="stop-color:#666666"/>
</linearGradient>
<path class="st35" d="M2671.8,275.6c-62.7-17-149.5,43.1-214.9,37.8C2522.3,318.8,2609.1,258.6,2671.8,275.6z"/>
<linearGradient id="SVGID_36_" gradientUnits="userSpaceOnUse" x1="2564.3501" y1="-254.9128" x2="2564.3501" y2="1154.1663" gradientTransform="matrix(1 0 0 -1 0 1244)">
	<stop  offset="0" style="stop-color:#000000"/>
	<stop  offset="1" style="stop-color:#9FA1A3"/>
</linearGradient>
<path class="st36" d="M2671.8,275.6c-62.7-17-149.5,43.1-214.9,37.8C2522.3,318.8,2609.1,258.6,2671.8,275.6z"/>
<linearGradient id="SVGID_37_" gradientUnits="userSpaceOnUse" x1="1948.5502" y1="1189.2726" x2="1948.5502" y2="-345.5956" gradientTransform="matrix(1 0 0 -1 0 1244)">
	<stop  offset="0" style="stop-color:#FFFFFF"/>
	<stop  offset="4.304647e-03" style="stop-color:#FEFEFE"/>
	<stop  offset="0.1755" style="stop-color:#D0D0D0"/>
	<stop  offset="0.3472" style="stop-color:#AAAAAA"/>
	<stop  offset="0.5167" style="stop-color:#8C8C8C"/>
	<stop  offset="0.6834" style="stop-color:#777777"/>
	<stop  offset="0.846" style="stop-color:#6A6A6A"/>
	<stop  offset="1" style="stop-color:#666666"/>
</linearGradient>
<path class="st37" d="M2013.5,235.6c-46.7-1.1-96.5,43.2-129.9,26.3C1917,278.9,1966.8,234.6,2013.5,235.6z"/>
<linearGradient id="SVGID_38_" gradientUnits="userSpaceOnUse" x1="1948.5502" y1="1189.5157" x2="1948.5502" y2="-345.3525" gradientTransform="matrix(1 0 0 -1 0 1244)">
	<stop  offset="0" style="stop-color:#FFFFFF"/>
	<stop  offset="4.304647e-03" style="stop-color:#FEFEFE"/>
	<stop  offset="0.1755" style="stop-color:#D0D0D0"/>
	<stop  offset="0.3472" style="stop-color:#AAAAAA"/>
	<stop  offset="0.5167" style="stop-color:#8C8C8C"/>
	<stop  offset="0.6834" style="stop-color:#777777"/>
	<stop  offset="0.846" style="stop-color:#6A6A6A"/>
	<stop  offset="1" style="stop-color:#666666"/>
</linearGradient>
<path class="st38" d="M2013.5,235.6c-46.7-1.1-96.5,43.2-129.9,26.3C1917,278.9,1966.8,234.6,2013.5,235.6z"/>
<linearGradient id="SVGID_39_" gradientUnits="userSpaceOnUse" x1="1948.55" y1="-254.9128" x2="1948.55" y2="1154.1663" gradientTransform="matrix(1 0 0 -1 0 1244)">
	<stop  offset="0" style="stop-color:#000000"/>
	<stop  offset="1" style="stop-color:#9FA1A3"/>
</linearGradient>
<path class="st39" d="M2013.5,235.6c-46.7-1.1-96.5,43.2-129.9,26.3C1917,278.9,1966.8,234.6,2013.5,235.6z"/>
<linearGradient id="SVGID_40_" gradientUnits="userSpaceOnUse" x1="1826.4448" y1="1189.2726" x2="1826.4448" y2="-345.5956" gradientTransform="matrix(1 0 0 -1 0 1244)">
	<stop  offset="0" style="stop-color:#FFFFFF"/>
	<stop  offset="4.304647e-03" style="stop-color:#FEFEFE"/>
	<stop  offset="0.1755" style="stop-color:#D0D0D0"/>
	<stop  offset="0.3472" style="stop-color:#AAAAAA"/>
	<stop  offset="0.5167" style="stop-color:#8C8C8C"/>
	<stop  offset="0.6834" style="stop-color:#777777"/>
	<stop  offset="0.846" style="stop-color:#6A6A6A"/>
	<stop  offset="1" style="stop-color:#666666"/>
</linearGradient>
<path class="st40" d="M1872.3,254c-39.2-35.2-46.4-132.1-91.7-156.2C1825.8,121.9,1833,218.8,1872.3,254z"/>
<linearGradient id="SVGID_41_" gradientUnits="userSpaceOnUse" x1="1826.4448" y1="1189.5157" x2="1826.4448" y2="-345.3525" gradientTransform="matrix(1 0 0 -1 0 1244)">
	<stop  offset="0" style="stop-color:#FFFFFF"/>
	<stop  offset="4.304647e-03" style="stop-color:#FEFEFE"/>
	<stop  offset="0.1755" style="stop-color:#D0D0D0"/>
	<stop  offset="0.3472" style="stop-color:#AAAAAA"/>
	<stop  offset="0.5167" style="stop-color:#8C8C8C"/>
	<stop  offset="0.6834" style="stop-color:#777777"/>
	<stop  offset="0.846" style="stop-color:#6A6A6A"/>
	<stop  offset="1" style="stop-color:#666666"/>
</linearGradient>
<path class="st41" d="M1872.3,254c-39.2-35.2-46.4-132.1-91.7-156.2C1825.8,121.9,1833,218.8,1872.3,254z"/>
<linearGradient id="SVGID_42_" gradientUnits="userSpaceOnUse" x1="1826.4448" y1="-254.9128" x2="1826.4448" y2="1154.1663" gradientTransform="matrix(1 0 0 -1 0 1244)">
	<stop  offset="0" style="stop-color:#000000"/>
	<stop  offset="1" style="stop-color:#9FA1A3"/>
</linearGradient>
<path class="st42" d="M1872.3,254c-39.2-35.2-46.4-132.1-91.7-156.2C1825.8,121.9,1833,218.8,1872.3,254z"/>
<linearGradient id="SVGID_43_" gradientUnits="userSpaceOnUse" x1="2243.8367" y1="1189.2726" x2="2243.8367" y2="-345.5956" gradientTransform="matrix(1 0 0 -1 0 1244)">
	<stop  offset="0" style="stop-color:#FFFFFF"/>
	<stop  offset="4.304647e-03" style="stop-color:#FEFEFE"/>
	<stop  offset="0.1755" style="stop-color:#D0D0D0"/>
	<stop  offset="0.3472" style="stop-color:#AAAAAA"/>
	<stop  offset="0.5167" style="stop-color:#8C8C8C"/>
	<stop  offset="0.6834" style="stop-color:#777777"/>
	<stop  offset="0.846" style="stop-color:#6A6A6A"/>
	<stop  offset="1" style="stop-color:#666666"/>
</linearGradient>
<path class="st43" d="M2196.1,260c58.9-17.7,67.4-48.5,95.5-48.6C2263.4,211.4,2254.9,242.3,2196.1,260z"/>
<linearGradient id="SVGID_44_" gradientUnits="userSpaceOnUse" x1="2243.8367" y1="1189.5157" x2="2243.8367" y2="-345.3525" gradientTransform="matrix(1 0 0 -1 0 1244)">
	<stop  offset="0" style="stop-color:#FFFFFF"/>
	<stop  offset="4.304647e-03" style="stop-color:#FEFEFE"/>
	<stop  offset="0.1755" style="stop-color:#D0D0D0"/>
	<stop  offset="0.3472" style="stop-color:#AAAAAA"/>
	<stop  offset="0.5167" style="stop-color:#8C8C8C"/>
	<stop  offset="0.6834" style="stop-color:#777777"/>
	<stop  offset="0.846" style="stop-color:#6A6A6A"/>
	<stop  offset="1" style="stop-color:#666666"/>
</linearGradient>
<path class="st44" d="M2196.1,260c58.9-17.7,67.4-48.5,95.5-48.6C2263.4,211.4,2254.9,242.3,2196.1,260z"/>
<linearGradient id="SVGID_45_" gradientUnits="userSpaceOnUse" x1="2243.8367" y1="-254.9128" x2="2243.8367" y2="1154.1663" gradientTransform="matrix(1 0 0 -1 0 1244)">
	<stop  offset="0" style="stop-color:#000000"/>
	<stop  offset="1" style="stop-color:#9FA1A3"/>
</linearGradient>
<path class="st45" d="M2196.1,260c58.9-17.7,67.4-48.5,95.5-48.6C2263.4,211.4,2254.9,242.3,2196.1,260z"/>
<linearGradient id="SVGID_46_" gradientUnits="userSpaceOnUse" x1="2706.1858" y1="1189.2726" x2="2706.1858" y2="-345.5956" gradientTransform="matrix(1 0 0 -1 0 1244)">
	<stop  offset="0" style="stop-color:#FFFFFF"/>
	<stop  offset="4.304647e-03" style="stop-color:#FEFEFE"/>
	<stop  offset="0.1755" style="stop-color:#D0D0D0"/>
	<stop  offset="0.3472" style="stop-color:#AAAAAA"/>
	<stop  offset="0.5167" style="stop-color:#8C8C8C"/>
	<stop  offset="0.6834" style="stop-color:#777777"/>
	<stop  offset="0.846" style="stop-color:#6A6A6A"/>
	<stop  offset="1" style="stop-color:#666666"/>
</linearGradient>
<path class="st46" d="M2740.6,316.5c-18.8-18.5-54.9-37.2-68.8-40.9C2685.6,279.3,2721.8,298.1,2740.6,316.5L2740.6,316.5z"/>
<linearGradient id="SVGID_47_" gradientUnits="userSpaceOnUse" x1="2706.1858" y1="1189.5157" x2="2706.1858" y2="-345.3525" gradientTransform="matrix(1 0 0 -1 0 1244)">
	<stop  offset="0" style="stop-color:#FFFFFF"/>
	<stop  offset="4.304647e-03" style="stop-color:#FEFEFE"/>
	<stop  offset="0.1755" style="stop-color:#D0D0D0"/>
	<stop  offset="0.3472" style="stop-color:#AAAAAA"/>
	<stop  offset="0.5167" style="stop-color:#8C8C8C"/>
	<stop  offset="0.6834" style="stop-color:#777777"/>
	<stop  offset="0.846" style="stop-color:#6A6A6A"/>
	<stop  offset="1" style="stop-color:#666666"/>
</linearGradient>
<path class="st47" d="M2740.6,316.5c-18.8-18.5-54.9-37.2-68.8-40.9C2685.6,279.3,2721.8,298.1,2740.6,316.5L2740.6,316.5z"/>
<linearGradient id="SVGID_48_" gradientUnits="userSpaceOnUse" x1="2706.1855" y1="-254.9128" x2="2706.1855" y2="1154.1663" gradientTransform="matrix(1 0 0 -1 0 1244)">
	<stop  offset="0" style="stop-color:#000000"/>
	<stop  offset="1" style="stop-color:#9FA1A3"/>
</linearGradient>
<path class="st48" d="M2740.6,316.5c-18.8-18.5-54.9-37.2-68.8-40.9C2685.6,279.3,2721.8,298.1,2740.6,316.5L2740.6,316.5z"/>
<path d="M2645.2,420.3c-2.9-5.1-19.2-2.4-29.3-3.3c-1.6,19-19,19.2-30.7,26.7c-16.1,10.2-31.9,21.3-45.8,34.3
	c-15.8,14.8-42.9,14.4-56.3-3.2c-9.7-12.7-17.2-29.2-30-36.8c-17.5-10.4-22.4-40.3-50.6-33.5c-26.8,6.5-37.5-8.9-43.9-31.2
	c-5.7-19.9-11.4-39.7-18.7-59c-6.3-16.5-22.8-16.3-32.7-8.8c-12.8,9.7-21.8,25-31,38.8c-8.1,12.1-15.5,25.1-20.8,38.6
	c-7.6,19.6-35,26.9-34.7,52.2c0,1.7,0.2,3.4,0.5,5.3c0,0.2,0,0.4,0,0.6c0.6,4.9-16.1,16.6-25.4,17.5c-8.9,0.9-24.1-6.1-27.2-13.5
	c-7.1-17.1-18.8-26.2-33.7-35.4c-10.5-6.5-25.6-11.1-25.7-28c-0.1-2.4,0.2-5,0.8-7.9c0.1-0.7,0.2-1.4,0.2-2.1
	c-0.7-13-24-31-36.9-29.8c-17,1.6-26.1,11.6-30.5,29.1c-4.5,18-9.7,38.8-21.9,51.3c-19.7,20.3-45.1,34.2-76.9,28.7
	c-37.8-6.5-70.7-24.6-94-52.4c-21.1-25.2-32.9-58.2-49-87.7c-9.7-17.8-19.8-35.5-29.7-53.3c-0.5-0.9-0.7-2.1-0.7-3.3
	c-0.1-3.4,1.2-7.9,1.3-11.9c0-1.7-0.2-3.3-0.8-4.8c-8.5-20-14.4-40-19.4-61.3c-6.4-27.6-22.6-53.4-37.5-78.2c-2.4-4-9-6.2-16-7.3
	c-0.2,0-0.3,0-0.5-0.1c-5.2,0.3-10.4,0.7-15.5,1.2c-0.1,0.1-0.2,0.1-0.3,0.2c0,0,0,0-0.1,0c-4.4,3.5-9.1,10.7-8.5,14.3
	c3.8,23.4-26.6,41.1-10.1,65.9c0.4,0.7-1.4,2.6-1.8,4.1c-3.5,14.1-6.8,28.3-9.9,41.2c-18.7,22.5-40.4,44.7-57.2,70.2
	c-9.9,14.9-8.3,38-18.7,51.8c-0.3,0.5-0.7,0.9-1,1.3c-1.2,1.5-2.4,3-3.5,4.5c-17.6,23.6-25.3,49.1-28.6,77.7
	c-0.4,3.9-2.5,9.1-5,13.3c-2.4,4.1-5.3,7.3-7.5,7.3c-10.1,0.2-22.2-3.4-30-9.8c-15.3-12.5-27.2-29.1-42.4-41.8
	c-20.2-16.9-43-30-57.1-54.1c-3.3-5.7-23.9-8.8-29-4.4c-0.7,0.6-1.4,1.3-2.1,1.9c-10.4,10.1-17.5,24.3-25.4,37.1
	c-5.2,8.3-8.3,17.8-13.5,26.1c-6.6,10.7-13.7,21.2-21.9,30.6c-0.6,0.7-1.3,1.5-2.1,2.2c-4.5,4.6-11,9.4-15.7,8.8
	c-6.8-0.8-14.2-7.1-18.6-13.1c-7.8-10.6-12.3-23.7-20.2-34.1c-14.2-18.7-28.4-21.1-40.2-8.9c-4,4.2-7.7,10-11,17.4
	c-5.1,11.3-8.1,25.5-16,35c-4.7,5.8-11.1,10-20.7,10.9c-55,4.9-110.2,10.2-165.3,9.8c-33.9-0.2-66.6-14.1-90.4-40.5
	c-11.8-13.1-19.8-29.6-25.9-38.9c-3-13.8-2.5-23.1-6.8-28.4c-13.5-16.5-29.1-31.2-43.4-47c-8.4-9.4-32.3-13.7-43-6.6
	c-1.1,0.7-2,1.6-2.7,2.6c-12.5,16.6-21.3,35.9-33.2,52.9c-6.9,9.7-13.7,22.3-21.9,30.5c-3.7,3.8-7.7,6.6-12,7.9
	c-22.8,6.7-37.8,20.8-50.9,36.7c-0.3,0.4-0.7,0.8-1,1.2c-0.3,0.3-0.5,0.6-0.8,1c-4.8,6-9.3,12.1-14,18.3c-2.3,3.1-4.7,6.1-7,9.1
	c-21.8,27.2-77.4,27.7-96.1-1.8c-15.5-24.5-29.8-49.8-46-77c0.1-0.1,0.2-0.2,0.3-0.3c0,0,0,0,0,0c0.1-0.1,0.3-0.2,0.4-0.4
	c1.7-1.7,5.7-6,10.3-10.8c-6.3-11.8-11-24.2-18.7-34.3c-10.4-13.7-28.1-22.8-21.7-45.3c1.2-4.3-7-11.1-10.5-17
	c-3.4-5.7-7.4-11.4-9.3-17.7c-5.5-18.6-31.3-32.1-46-22.4c-0.9,0.6-1.8,1.4-2.7,2.2c-23.6,23.6-43.2,51.1-64.3,77.1
	c-1.3,1.6-0.3,4.9-1.5,6.7c-4.1,6.3-8.8,12.1-12.9,18.3c-4.4,6.7-8.5,13.5-12.7,20.3c1.2,1,2.5,2.1,3.7,3.1
	c-0.2,0.1-0.3,0.1-0.5,0.2c0,0,0.1,0.1,0.2,0.1c-7.5,2.9-15,5.8-24.8,9.6c6.5,8.5,11.7,15.4,17.8,23.3c-0.1,0.1-0.2,0.2-0.3,0.3
	c0,0,0,0,0,0c-8.3,6.8-21,11.2-28.2,18.6c-6.6,6.9-8.3,16.4,3,32.8c-0.1,0.1-0.2,0.2-0.3,0.3c0,0,0,0,0,0.1
	c-17.6,16.4-33.2,33.6-51.4,47.3c-17.8,13.4-31.3,5.9-35-15.9c-1.7-9.7-4.2-19.6-8.4-28.5c-5.6-12-13.5-22.9-20-34.5
	c-6.1-10.8-39.9-27.2-46.1-20.4c-15.4,16.9-40.4,22-51.9,44.4c-0.7,1.5-1.4,3-2,4.6c-0.1,0.4-0.3,0.7-0.5,1.1
	c-0.2,0.5-0.5,1-0.8,1.5c-0.3,0.4-0.6,0.9-1,1.3c-0.7,0.9-1.6,1.7-2.7,2.6c-0.8,0.6-1.6,1.3-2.5,1.9c-0.3,0.2-0.6,0.4-0.9,0.6
	c-0.6,0.4-1.3,0.9-2,1.3s-1.4,0.9-2.2,1.3c-0.7,0.4-1.5,0.8-2.3,1.3c-0.4,0.2-0.8,0.4-1.2,0.6c-1.2,0.6-2.5,1.3-3.8,1.9
	c-0.9,0.4-1.7,0.8-2.6,1.2c-0.9,0.4-1.8,0.8-2.7,1.2c-0.9,0.4-1.8,0.8-2.8,1.2c-0.5,0.2-0.9,0.4-1.4,0.6c-0.9,0.4-1.9,0.8-2.8,1.2
	c-3.3,1.4-6.7,2.7-10,3.9c-1.4,0.5-2.8,1.1-4.2,1.6c-3.7,1.4-7.3,2.7-10.5,3.9c-0.8,0.3-1.6,0.6-2.4,0.9c-4.4,1.7-8.2,3.2-10.7,4.4
	v591.7v176.9h87.3l2653,0.2V499.8C2712.4,476,2662.9,451.3,2645.2,420.3z"/>
<path d="M310.6,390.2C310.6,390.2,310.6,390.2,310.6,390.2c-8.4,6.7-21.2,11.2-28.2,18.6C289.6,401.4,302.3,397,310.6,390.2z"/>
<path d="M13.3,469.3c3.2-1.2,6.8-2.5,10.5-3.9c1.4-0.5,2.8-1.1,4.2-1.6c3.3-1.3,6.7-2.6,10-3.9c0.9-0.4,1.9-0.8,2.8-1.2
	c0.5-0.2,0.9-0.4,1.4-0.6c0.9-0.4,1.9-0.8,2.8-1.2c0.9-0.4,1.8-0.8,2.7-1.2c0.9-0.4,1.8-0.8,2.6-1.2c1.3-0.6,2.5-1.2,3.8-1.9
	c0.4-0.2,0.8-0.4,1.2-0.6c0.8-0.4,1.6-0.8,2.3-1.3c0.7-0.4,1.5-0.9,2.2-1.3s1.4-0.9,2-1.3c0.3-0.2,0.6-0.4,0.9-0.6
	c0.9-0.6,1.8-1.3,2.5-1.9c1-0.9,1.9-1.7,2.7-2.6c0.4-0.4,0.7-0.9,1-1.3c0.3-0.5,0.6-1,0.8-1.5c-7.4,13.5-56.5,27.4-69.5,33.9v0.6
	c2.5-1.2,6.2-2.7,10.7-4.4C11.7,469.9,12.5,469.6,13.3,469.3z"/>
<path d="M199,472.9c-1.7-9.7-4.2-19.6-8.4-28.5c-5.6-12-13.5-22.9-20-34.5c-6.1-10.8-39.9-27.2-46.1-20.4
	c-15.5,17-40.8,22.1-52.2,44.9c11.5-22.4,36.5-27.5,51.9-44.4c6.2-6.8,40,9.6,46.1,20.4c6.5,11.6,14.4,22.5,20,34.5
	c4.2,8.9,6.7,18.8,8.4,28.5c3.7,21.8,17.2,29.3,35,15.9c18.2-13.7,33.8-30.9,51.4-47.3c0,0,0,0,0-0.1c-17.5,16.3-33,33.4-51.1,46.9
	C216.2,502.2,202.7,494.7,199,472.9z"/>
<path d="M668.7,426.4c13.1-15.9,28.1-30,50.9-36.7c4.3-1.3,8.3-4.2,12-7.9c-3.6,3.6-7.5,6.4-11.7,7.6
	C696.9,396.2,681.8,410.4,668.7,426.4z"/>
<path d="M1291.2,439.9c-6.8-0.8-14.2-7.1-18.6-13.1c-7.8-10.6-12.3-23.7-20.2-34.1c-14.3-18.8-28.6-21.2-40.5-8.6
	c11.8-12.2,26-9.8,40.2,8.9c7.9,10.4,12.4,23.5,20.2,34.1c4.4,6,11.8,12.3,18.6,13.1c4.7,0.6,11.2-4.1,15.7-8.8
	C1302.1,436,1295.8,440.5,1291.2,439.9z"/>
<path d="M1530.4,443.1c-10.1,0.2-22.2-3.4-30-9.8c-15.3-12.5-27.2-29.1-42.4-41.7c-20.2-16.9-43-30-57.1-54
	c-3.3-5.7-23.9-8.8-29-4.4c-0.8,0.7-1.6,1.5-2.4,2.2c0.7-0.7,1.4-1.3,2.1-1.9c5.1-4.4,25.7-1.3,29,4.4
	c14.1,24.1,36.9,37.2,57.1,54.1c15.2,12.7,27.1,29.3,42.4,41.8c7.8,6.4,19.9,10,30,9.8c2.2-0.1,5.1-3.2,7.5-7.3
	C1535.2,440.1,1532.5,443.1,1530.4,443.1z"/>
<path d="M1571.2,345.3c1.1-1.5,2.3-3,3.5-4.5c0.4-0.4,0.7-0.9,1-1.3c-0.2,0.3-0.5,0.6-0.7,0.9C1573.7,342,1572.4,343.7,1571.2,345.3
	z"/>
<path d="M1164.5,447c-55,4.9-110.2,10.2-165.3,9.8c-33.9-0.2-66.6-14.1-90.4-40.4c-11.8-13.1-19.8-29.6-25.9-38.9
	c-3-13.8-2.5-23.1-6.8-28.4c-13.5-16.5-29.1-31.2-43.4-46.9c-8.5-9.5-32.8-13.8-43.3-6.4c10.7-7.1,34.6-2.8,43,6.6
	c14.3,15.8,29.9,30.5,43.4,47c4.3,5.3,3.8,14.6,6.8,28.4c6.1,9.3,14.1,25.8,25.9,38.9c23.8,26.4,56.5,40.3,90.4,40.5
	c55.1,0.4,110.3-4.9,165.3-9.8c9.7-0.9,16.1-5,20.7-10.9C1180.3,442.1,1174,446.1,1164.5,447z"/>
<path d="M293.1,366.6c9.8-3.8,17.3-6.8,24.8-9.6c0,0-0.1-0.1-0.2-0.1c-7.5,2.8-14.9,5.8-24.7,9.6C293,366.5,293.1,366.6,293.1,366.6
	z"/>
<path d="M515.1,365.4c-6.3-11.8-11-24.2-18.7-34.3c-10.4-13.7-28.1-22.8-21.7-45.2c1.2-4.3-7-11.1-10.5-17
	c-3.4-5.7-7.4-11.4-9.3-17.7c-5.5-18.7-31.6-32.3-46.3-22.2c14.8-9.7,40.5,3.8,46,22.4c1.9,6.3,5.9,12,9.3,17.7
	c3.5,5.9,11.7,12.7,10.5,17c-6.4,22.5,11.3,31.6,21.7,45.3c7.7,10.1,12.4,22.5,18.7,34.3c-4.6,4.8-8.5,9-10.3,10.8
	C506.1,375,510.3,370.5,515.1,365.4z"/>
<path d="M550.1,453.8c-15.5-24.5-29.8-49.7-46-76.9c-0.1,0.1-0.2,0.2-0.3,0.3c16.2,27.2,30.5,52.5,46,77c18.7,29.5,74.3,29,96.1,1.8
	c2.4-3,4.7-6,7-9.1c-2.2,2.9-4.5,5.8-6.7,8.7C624.4,482.8,568.8,483.3,550.1,453.8z"/>
<path d="M1698.3,90.6c-0.2,0-0.3,0-0.5,0C1698,90.7,1698.1,90.7,1698.3,90.6c0.1,0.1,0.3,0.1,0.4,0.1
	C1698.6,90.7,1698.4,90.6,1698.3,90.6z"/>
<path d="M1681.9,92C1682,92,1682,92,1681.9,92c0.1-0.1,0.2-0.1,0.3-0.2c0,0,0,0-0.1,0C1682.1,91.9,1682,91.9,1681.9,92z"/>
<path d="M1751.8,176c-6.4-27.6-22.6-53.3-37.5-78.1c-2.3-3.8-8.7-6.1-15.6-7.2c-0.1,0-0.3,0-0.4,0c7,1.1,13.6,3.3,16,7.3
	c14.9,24.8,31.1,50.6,37.5,78.2c5,21.3,10.9,41.3,19.4,61.3c0.6,1.4,0.8,3.1,0.8,4.8c0.1-1.8-0.1-3.5-0.8-5.1
	C1762.7,217.2,1756.8,197.3,1751.8,176z"/>
<path d="M2195.8,458c-8.9,0.9-24.1-6.1-27.2-13.5c-7.1-17.1-18.8-26.2-33.7-35.4c-10.4-6.5-25.3-11-25.7-27.5
	c0.1,16.9,15.2,21.4,25.7,28c14.9,9.2,26.6,18.3,33.7,35.4c3.1,7.4,18.3,14.4,27.2,13.5c9.3-0.9,26-12.6,25.4-17.5
	C2220.7,446.1,2204.8,457.1,2195.8,458z"/>
<path d="M2645.2,419.8c-2.9-5.1-19.2-2.4-29.3-3.3c-1.6,19-19,19.2-30.7,26.7c-16.1,10.2-31.9,21.3-45.8,34.3
	c-15.8,14.8-42.9,14.4-56.3-3.2c-9.7-12.7-17.2-29.2-30-36.8c-17.5-10.4-22.4-40.2-50.6-33.5c-26.8,6.5-37.5-8.9-43.9-31.2
	c-5.7-19.9-11.4-39.6-18.7-58.9c-6.3-16.5-22.8-16.3-32.7-8.8c-12.8,9.7-21.8,25-31,38.8c-8.1,12.1-15.5,25.1-20.8,38.6
	c-7.6,19.7-35.4,27-34.7,52.6c-0.3-25.3,27.2-32.6,34.7-52.2c5.3-13.5,12.7-26.5,20.8-38.6c9.2-13.8,18.2-29.1,31-38.8
	c9.9-7.5,26.4-7.7,32.7,8.8c7.3,19.3,13,39.1,18.7,59c6.4,22.3,17.1,37.7,43.9,31.2c28.2-6.8,33.1,23.1,50.6,33.5
	c12.8,7.6,20.3,24.1,30,36.8c13.4,17.6,40.5,18,56.3,3.2c13.9-13,29.7-24.1,45.8-34.3c11.7-7.5,29.1-7.7,30.7-26.7
	c10.1,0.9,26.4-1.8,29.3,3.3c17.7,31,67.2,55.7,95.4,79.5v-6.1C2716.7,476.5,2659.9,445.5,2645.2,419.8z"/>
<path d="M2073.3,341.3c-17,1.6-26.1,11.6-30.5,29.1c-4.5,18-9.7,38.8-21.9,51.2c-19.7,20.3-45.1,34.2-76.9,28.7
	c-37.8-6.5-70.7-24.6-94-52.3c-21.1-25.2-32.9-58.1-49-87.6c-9.7-17.8-19.8-35.5-29.7-53.2c-0.4-0.9-0.6-1.9-0.7-3
	c0,1.3,0.2,2.4,0.7,3.3c9.9,17.8,20,35.5,29.7,53.3c16.1,29.5,27.9,62.5,49,87.7c23.3,27.8,56.2,45.9,94,52.4
	c31.8,5.5,57.2-8.4,76.9-28.7c12.2-12.5,17.4-33.3,21.9-51.3c4.4-17.5,13.5-27.5,30.5-29.1c12.9-1.2,36.2,16.8,36.9,29.8
	C2110.1,358.5,2086.4,340.1,2073.3,341.3z"/>
</svg>
