<?xml version="1.0" encoding="utf-8"?>
<!-- Generator: Adobe Illustrator 23.0.2, SVG Export Plug-In . SVG Version: 6.00 Build 0)  -->
<svg version="1.1" id="Layer_1" xmlns="http://www.w3.org/2000/svg" xmlns:xlink="http://www.w3.org/1999/xlink" x="0px" y="0px"
	 viewBox="0 0 3502.4 502.2" style="enable-background:new 0 0 3502.4 502.2;" xml:space="preserve">
<style type="text/css">
	.st0{fill:url(#SVGID_1_);}
</style>
<linearGradient id="SVGID_1_" gradientUnits="userSpaceOnUse" x1="-6750.5337" y1="-3798.834" x2="-6750.5337" y2="-2564.4763" gradientTransform="matrix(-1 0 0 -1 -5892.4424 -6363.3105)">
	<stop  offset="0" style="stop-color:#A104FF"/>
	<stop  offset="0.1884" style="stop-color:#8103CD"/>
	<stop  offset="0.7535" style="stop-color:#25013B"/>
	<stop  offset="1" style="stop-color:#000000"/>
</linearGradient>
<polygon class="st0" points="644.1,-3798.8 1072.1,-3798.8 1072.1,-2564.5 644.1,-2564.5 "/>
<g>
	<path d="M2314.1,0c-90.1,0-180.2,0-270.3,0C1365.6,0,685.7,0,0,0c8.8,14,12.8,25.8,21.4,32.8c21.3,17.4,21.3,49.1,49.4,61.4
		c1.1,0.5,0.9,3.3,1.5,5c4.1,11.2,7.3,22.9,13,33.4c2.2,4,10.2,7.2,15.4,7c3.8-0.1,7.6-6.2,10.9-10c5.4-6.5,9.6-14,15.7-19.8
		c15.2-14.4,31-28.3,46.8-42c6-5.2,13.5-13.8,19.3-13.1c9.6,1.1,20.6,6.7,26.9,13.6c9.2,10.2,14.2,23.7,22.1,35.1
		c7.2,10.3,21.5,19,23,29.5c2.5,18.1,13.6,17,25.5,15c18.8-3.2,27.5,3.7,31.2,20.2c6,26.9,12.2,53.8,20.3,80.2
		c1.9,6.1,11.9,14.4,17.5,14c6.7-0.5,13.7-8.6,18.7-14.6c3.6-4.4,3.8-11.1,6.4-16.4c7.4-14.5,15.7-28.5,22.9-43.1
		c6.5-13.3,8.6-30,18.8-40c11.6-11.4,15.4-21.6,14.3-36.5c-1-13.3,7.7-22.6,22.5-24.9c15.7-2.4,23,6.2,25.1,18.9
		c2.6,15.2,11.1,25.5,24.3,34.9c10.3,7.4,25.6,21.5,23.4,28.6c-4.5,14.4,4.4,22.6,8.8,32.3c3.2,7,12.2,14.3,20,16.1
		c5.2,1.2,16.2-5.8,19-11.4c6.7-13.8,14-28.9,14.2-43.5c0.5-29.4,19.3-46.3,42.1-60.7c8.2-5.2,20.8-7.9,30.7-6.7
		c36.6,4.5,63.5,28.6,80.7,53.7c21.6,31.6,34.7,69.6,43.5,106.5c5.2,22.1,18.2,37,30.4,55c-12.9,16.4-3.5,32.2,3.4,48.2
		c2.3,5.4,7.5,11.6,6.2,16.2c-6.1,21.4,6.3,38.3,13.2,56.7c7,18.5,14.2,37.2,18.4,56.3c2.9,13.3,10.8,14.3,22.1,14.3
		c12.3,0,14.7-6.5,15.3-16.2c0.8-12.4,1.3-25.3,5.5-36.9c9.2-25.3,2.9-52.3,11.6-77.5c0.7-1.9-0.7-4.9-2-6.8
		c-6.6-9.9-0.2-14.2,7.6-20.2c7.8-6.1,12.7-15.3,18.9-23.3c2.9-3.7,5.7-7.4,8.4-11.3c3.9-5.8,9.1-11.3,11.2-17.7
		c9.9-29.8,18.5-60,28.7-89.7c2.8-8.1,12.3-14.5,13.7-22.5c3.5-19.3,4.8-39.1,5.4-58.8c0.3-10.3,2.6-19.7,14.5-18.8
		c7.7,0.6,16.7,6.9,21.9,12.9c11.1,13,19.1,28.3,30.3,41.3c18.2,20.9,42.6,37.3,52,64.5c1.6,4.6,8.6,11.5,11.6,10.9
		c7.3-1.5,17.6-5.3,19.8-10.7c6.6-15.6,22.9-27.7,19.4-47.3c-0.9-5.1,2.6-12.3,6.6-16.5c11.2-12,19.8-24.3,22.3-40.6
		c0.7-4.3,10-10.8,14.7-10.3c5.3,0.5,14.3,8.2,13.9,12c-2.2,20.1,13.1,33.1,20.9,49c7.7,15.8,19.9,18,30.1,3.2
		c8.7-12.6,13.9-28,17.2-42.8c4-17.6,13.7-27.7,32.5-30.8c26.8-4.4,53.5-9.4,80.4-13.3c63.7-9.2,124,27.3,140.6,82.2
		c3.4,11.3,16.7,20,5.7,33.5c-0.7,0.8,1.9,4.2,3.3,6.2c14.1,19.8,27.4,40.2,42.9,59c4.2,5.1,15.8,8.3,22.9,7
		c6.9-1.3,13.4-8.7,18.1-14.8c5.2-6.7,8.2-15,12-22.6c4-7.9,8-15.7,11.6-23.7c1.4-3.1,0.3-8.1,2.4-9.6
		c20.6-14.4,20.7-45.6,50.7-52.3c2.5-0.6,4.5-4.2,6-6.8c11.8-20,22.5-40.5,35.5-59.8c4.6-6.9,13.7-13.1,22.2-15.4
		c23-6.2,50.9,12.6,58.3,33.9c7.7,22.2,9.5,47.5,32.9,63.4c2.7,1.8,1.3,10,0.1,14.9c-1.3,5.5-7.6,11.4-6.3,15.7
		c4.5,14,8.6,29.4,18.1,40.3c11.7,13.5,17.4,26.2,13.9,43c-0.8,3.7,1.6,8.2,3.2,12.1c5.2,13.1,9.1,27,16.6,38.9
		c4.5,7.1,14.2,13.1,22.9,15.8c5.3,1.6,16.5-2.1,19.3-6.5c10.4-16.4,33.8-27.7,25.9-51.9c-0.3-1,1.8-3.2,3.4-4.2
		c16.4-10.1,23.1-25,25-42.4c0.4-3.3,3.2-6.4,5.1-9.5c5.3-8.8,10.7-17.5,16.1-26.2c-1.7-1.2-3.5-2.4-5.2-3.6
		c6.9-2.9,13.9-5.7,23.6-9.7c-5.8-9.5-11.1-18-17.3-28.2c3.1-2.4,5.5-4.3,8-6.1c15.4-11.2,30.1-22.4,16.3-43.3
		c-1.4-2.2-0.1-7.2,1.8-9.8c1.8-2.5,3.5-5,5.3-7.4c2.9,7.7,5,16.3,6.2,25.8c1.2,9.2,11.2,16.4,17.1,24.6c3.4,4.7,6.1,10.4,9.9,14.4
		c2.8,3,9.1,6.6,10.1,5.2c7.3-9.8,14-20.5,20-31.7c2.7-5.1,1.9-13.7,4.9-18c1.9-2.8,3.5-5.7,4.8-8.7c1.8,3,4.1,5.9,6.8,8.7
		c4.3,4.4,3.1,13,7,18c8.5,11.3,18.1,21.9,28.5,31.7c1.5,1.4,10.4-2.2,14.5-5.2c2.9-2.1,5.3-4.7,7.7-7.3c1,1,2,2.1,2.9,3.1
		c1.7,1.8,3.4,3.7,5.6,6.1c-4.4,10.2-8,18.7-12.1,28.2c6.8,4,11.7,6.8,16.5,9.7c-1.2,1.2-2.4,2.4-3.6,3.6
		c3.8,8.7,7.5,17.5,11.2,26.2c1.3,3.1,3.3,6.2,3.6,9.5c1.4,17.5,6,32.3,17.5,42.4c1.1,0.9,2.6,3.1,2.3,4.2
		c-5.5,24.3,10.9,35.5,18.1,51.9c2,4.4,9.8,8.1,13.5,6.5c6.1-2.7,12.9-8.7,16-15.8c5.3-11.9,8-25.7,11.6-38.9
		c1.1-3.9,2.8-8.4,2.2-12.1c-2.4-16.8,1.5-29.5,9.7-43c6.7-10.9,9.6-26.3,12.7-40.3c0.9-4.2-3.5-10.2-4.4-15.7
		c-0.8-4.9-1.8-13.1,0.1-14.9c16.3-15.9,17.6-41.2,23-63.4c5.2-21.3,24.7-40,40.8-33.9c5.9,2.3,12.3,8.5,15.5,15.4
		c9.1,19.3,16.6,39.8,24.8,59.8c1.1,2.6,2.5,6.2,4.2,6.8c21,6.7,21,37.9,35.5,52.3c1.5,1.5,0.8,6.6,1.7,9.6c2.5,8,5.3,15.9,8.1,23.7
		c2.7,7.6,4.8,15.9,8.4,22.6c3.3,6.1,7.8,13.5,12.7,14.8c4.9,1.3,13.1-1.9,16-7c10.9-18.8,20.2-39.2,30-59c1-2,2.8-5.4,2.3-6.2
		c-7.7-13.4,1.6-22.1,4-33.5c11.6-54.8,53.8-91.4,98.4-82.2c18.8,3.9,37.5,8.8,56.2,13.3c13.2,3.1,20,13.2,22.8,30.8
		c2.4,14.8,6,30.2,12.1,42.8c7.1,14.8,15.7,12.6,21.1-3.2c5.4-15.9,16.2-28.8,14.6-49c-0.3-3.8,6-11.4,9.7-12
		c3.3-0.5,9.8,6,10.3,10.3c1.8,16.3,7.8,28.6,15.6,40.6c2.8,4.2,5.3,11.4,4.6,16.5c-2.5,19.5,8.9,31.7,13.6,47.3
		c1.6,5.4,8.8,9.2,13.9,10.7c2.1,0.6,7-6.3,8.1-10.9c6.6-27.2,23.7-43.5,36.4-64.5c7.9-12.9,13.4-28.2,21.2-41.3
		c3.6-6.1,9.9-12.4,15.3-12.9c8.3-0.9,9.9,8.5,10.2,18.8c0.4,19.6,1.4,39.4,3.8,58.8c1,8,7.7,14.5,9.6,22.5
		c7.1,29.7,13.1,59.9,20.1,89.7c1.5,6.4,5.1,11.9,7.8,17.7c1.8,3.9,3.8,7.6,5.9,11.3c4.3,7.9,7.7,17.2,13.2,23.3
		c5.5,6.1,10,10.3,5.3,20.2c-0.9,2-1.9,4.9-1.4,6.8c6.1,25.2,1.7,52.2,8.1,77.5c2.9,11.6,3.3,24.5,3.9,36.9
		c0.4,9.8,2.1,16.2,10.7,16.2c7.9,0,13.4-1.1,15.5-14.3c2.9-19.1,8-37.8,12.9-56.3c4.9-18.4,13.5-35.3,9.3-56.7
		c-0.9-4.6,2.7-10.8,4.4-16.2c4.8-16,11.4-31.8,2.3-48.2c8.5-17.9,17.6-32.8,21.3-55c6.1-36.9,15.3-75,30.4-106.5
		c12-25.1,30.8-49.2,56.5-53.7c6.9-1.2,15.8,1.5,21.5,6.7c15.9,14.4,29.1,31.3,29.4,60.7c0.2,14.7,5.2,29.8,10,43.5
		c1.9,5.7,9.6,12.6,13.3,11.4c5.5-1.8,11.8-9.1,14-16.1c3.1-9.7,9.3-17.9,6.2-32.3c-1.5-7.1,9.1-21.3,16.4-28.6
		c9.3-9.4,15.2-19.7,17-34.9c1.5-12.7,6.6-21.4,17.6-18.9c10.4,2.3,16.4,11.6,15.8,24.9c-0.7,14.8,1.9,25,10,36.5
		c7.1,9.9,8.6,26.6,13.1,40c5,14.6,10.8,28.6,16,43.1c1.9,5.2,2,12,4.5,16.4c3.5,6.1,8.4,14.2,13.1,14.6c3.9,0.4,10.9-7.9,12.2-14
		c5.6-26.4,10-53.3,14.2-80.2c2.6-16.5,8.7-23.4,21.8-20.2c8.3,2,16.1,3.1,17.8-15c1-10.5,11-19.2,16.1-29.5
		c3.3-6.7,5.8-14.1,8.7-21.1V0C3104.2,0,2708.7,0,2314.1,0z"/>
</g>
</svg>
