<?xml version="1.0" encoding="utf-8"?>
<!-- Generator: Adobe Illustrator 23.0.2, SVG Export Plug-In . SVG Version: 6.00 Build 0)  -->
<svg version="1.1" id="Layer_1" xmlns="http://www.w3.org/2000/svg" xmlns:xlink="http://www.w3.org/1999/xlink" x="0px" y="0px"
	 viewBox="0 0 3504.2 615.9" style="enable-background:new 0 0 3504.2 615.9;" xml:space="preserve">
<style type="text/css">
	.st0{fill:url(#SVGID_1_);}
	.st1{fill:url(#SVGID_2_);}
	.st2{fill:url(#SVGID_3_);}
</style>
<linearGradient id="SVGID_1_" gradientUnits="userSpaceOnUse" x1="1746.9315" y1="564.1467" x2="1746.9315" y2="1225.7445" gradientTransform="matrix(1 0 0 -1 0 1180)">
	<stop  offset="0" style="stop-color:#FFFFFF"/>
	<stop  offset="1" style="stop-color:#666666"/>
</linearGradient>
<path class="st0" d="M3523-41c-19.1-10.8-147.2,0-172,0c-128,0-255.9,0-383.9,0c-786.2,0-1572.3,0-2358.5,0
	c-214.5,0-427.9,0-642.4,0c0,61.6,0,123.2,0,184.9c0,41.6,0,83.2,0,124.8V343c24.1,18.3,208.4,11,250.1,12.7
	c135.3,5.6,273.8,6.7,408.3,16.9c95.5,7.3,134.7,43.7,207.2,84.3c25.6,14.3,48.6,33.6,79,35.3c47.1,2.7,138-30.9,182.4-40.8
	c105.4-23.7,108.8,9,182.1,59.7c47.6,32.9,95.4,65.7,144.4,97.8c21,13.8,87.9,2.5,122.2,3.6c48.8,1.7,158-55.5,188.6-82.1
	c71.1-61.8,142.4-123.6,213.9-185.2c52.6,33.4,207.1,153.2,272.9,134.7c46.8-13.1,109.9-95,141.4-120.7
	c40-32.5,80.4-64.9,121.1-97.1c67.7,39.1,143.4,102.5,224.6,129.8c56.5,19,130.6,14.9,198.4,17.3c93.8,3.3,246.4,25.6,335.5,6.7
	c66.7-14.1,132.8-65.4,188.8-93.4c32,37.5,63.9,75,95.8,112.5c0-87.6,0-175.2,0-262.9c0-53.1,0-106.2,0-159.3
	C3523,2.9,3533.5-35.1,3523-41z"/>
<linearGradient id="SVGID_2_" gradientUnits="userSpaceOnUse" x1="1745.5981" y1="768.2701" x2="1745.5981" y2="1223.281" gradientTransform="matrix(1 0 0 -1 0 1180)">
	<stop  offset="0" style="stop-color:#BDBEC0"/>
	<stop  offset="1" style="stop-color:#565656"/>
</linearGradient>
<path class="st1" d="M-33.8,173.9c129.2,11.2,264,22.3,393.2,33.5c106.9,9.3,231.8,9.2,329.9,35.6c67.3,18.1,126.7,54,197.9,66.9
	c64.1,11.5,142.5-9,205.5,2.7c94.5,17.6,179.1,98.5,280.8,99.1c30.6,0.2,82.7-20,110.4-26.6c80.8-19.1,161.8-38.1,242.8-57
	c152.7-35.7,305.4-71.3,458.2-106.8c93.6-21.8,173-18.1,275.5-18.7c141.5-0.9,211.7-7.2,330.7,34.2c65.8,22.9,161,73.7,235.7,82
	c56.5,6.2,56.9-5,111.6-34.7c41.8-22.6,134.2-92.9,192.4-97.8c65.5-5.5,145.8,48.3,191.9,72c0-86.9,6.6-174.7,0-261.5
	c-3.5-45.8,11.2-36.2-59.6-37.7c-239.1-5.3-480.2,0-719.5,0c-740.7,0-1481.4,0-2222,0c-185.6,0-370.1,0-555.6,0
	C-31.6,30.7-36,102.3-33.8,173.9z"/>
<linearGradient id="SVGID_3_" gradientUnits="userSpaceOnUse" x1="1749.3568" y1="1223.0778" x2="1749.3568" y2="635.597" gradientTransform="matrix(1 0 0 -1 0 1180)">
	<stop  offset="0" style="stop-color:#000000"/>
	<stop  offset="1" style="stop-color:#9FA1A3"/>
</linearGradient>
<path class="st2" d="M-33.8,104.4c49.4,26.7,106.3,50.1,152.3,82.1c49,34.2,98.6,113.7,160.2,123.6c75.7,12.1,152.9-66.6,228.8-68.6
	c88.7-2.3,127.7,80.4,196.8,131.7c43.6,32.3,125,157.3,168.8,169.4c58.1,16,151.6-78.7,192.2-117.5c63.2-60.5,127.9-89.8,215.6-65.6
	c54,14.9,63.9,45.9,111.4,69c39.3,19.2,63.3,14.4,112.1,0.2c76.1-22.1,113.6-84.7,182.8-111.3c52.9-20.3,94.9-12.8,144.2,18.6
	c28.9,18.4,51.8,69.1,78.2,77.4c74.6,23.4,177.8-96.9,222.5-139.8c45.7,63.5,104.1,71.5,184.3,69.6c89.2-2.1,103.5-25.3,140.6-101.7
	c100.7,64.1,207.2,95.1,279.1-24.1c49.5,98.2,81.7,170.3,181.3,223.1c79.3,42,155.9,107.2,220.2,7.4c49-76.1,11-164.4,133.8-194
	c76.3-18.4,186.8,59.2,251.6,90.7c0-59.2,0-118.3,0-177.5c0-31.7,21.9-183.5,0-204.8c-12.4-12.1-95.5,0-112.2,0
	c-256.1,0-512.3,0-768.4,0c-714.1,0-1428.3,0-2142.4,0c-178.3,0-355.5,0-533.7,0C-32.9,9.7-34.6,57-33.8,104.4z"/>
<g>
	<path d="M2315.9-37.7c-91.5,0-183,0-274.6,0c-688.9,0-1378.5,0-2075,0c8.9,14.2,12,26.2,20.7,33.4C8.5,13.4,8.5,45.5,37.1,58
		c1.1,0.5,0.9,3.4,1.6,5.1c4.2,11.4,7.4,23.2,13.2,33.9c2.2,4,10.4,7.3,15.7,7.1c3.8-0.1,7.8-6.3,11-10.2
		c5.5-6.6,9.7-14.2,15.9-20.1c15.4-14.7,31.4-28.7,47.6-42.7c6.1-5.3,13.7-14,19.6-13.3c9.7,1.1,21,6.8,27.3,13.8
		c9.4,10.4,14.4,24.1,22.5,35.6c7.3,10.5,21.9,19.3,23.4,30c2.6,18.4,13.8,17.3,25.9,15.2c19.1-3.3,28,3.7,31.7,20.5
		c6.1,27.3,12.4,54.7,20.6,81.5c1.9,6.2,12.1,14.6,17.8,14.2c6.8-0.5,13.9-8.7,19-14.9c3.7-4.5,3.8-11.3,6.5-16.6
		c7.5-14.7,16-29,23.2-43.8c6.6-13.5,8.8-30.5,19.1-40.6c11.8-11.6,15.7-22,14.6-37c-1-13.6,7.8-23,22.9-25.3
		c15.9-2.5,23.4,6.3,25.5,19.2c2.6,15.5,11.2,25.9,24.7,35.5c10.5,7.5,26,21.9,23.8,29.1c-4.6,14.7,4.5,23,8.9,32.8
		c3.2,7.1,12.4,14.5,20.4,16.3c5.3,1.2,16.4-5.9,19.3-11.6c6.9-14,14.2-29.3,14.4-44.2c0.5-29.9,19.6-47,42.7-61.6
		c8.4-5.3,21.2-8.1,31.2-6.8c37.2,4.6,64.5,29.1,81.9,54.6c21.9,32.1,35.3,70.7,44.2,108.2c5.3,22.5,18.5,37.6,30.9,55.8
		c-13.1,16.7-3.6,32.7,3.4,48.9c2.4,5.5,7.6,11.8,6.3,16.5c-6.1,21.7,6.4,38.9,13.5,57.6c7.1,18.8,14.4,37.7,18.7,57.2
		c3,13.5,11,14.5,22.4,14.6c12.5,0,14.9-6.6,15.6-16.5c0.8-12.6,1.4-25.7,5.6-37.5c9.3-25.7,3-53.1,11.7-78.8c0.7-1.9-0.7-4.9-2-6.9
		c-6.7-10.1-0.2-14.4,7.7-20.6s12.9-15.6,19.2-23.6c2.9-3.8,5.8-7.6,8.5-11.5c4-5.9,9.2-11.5,11.3-17.9
		c10.1-30.3,18.8-60.9,29.1-91.1c2.8-8.2,12.5-14.8,13.9-22.9c3.5-19.6,4.8-39.7,5.5-59.7c0.3-10.5,2.7-20,14.8-19.1
		c7.8,0.6,16.9,7,22.2,13.1c11.3,13.2,19.4,28.8,30.8,41.9c18.5,21.2,43.3,37.9,52.8,65.5c1.6,4.6,8.8,11.7,11.8,11.1
		c7.4-1.5,17.8-5.4,20.1-10.9c6.7-15.8,23.3-28.2,19.7-48c-0.9-5.2,2.7-12.4,6.7-16.8c11.3-12.1,20.1-24.7,22.7-41.2
		c0.7-4.3,10.2-10.9,14.9-10.4c5.4,0.6,14.5,8.3,14.1,12.2c-2.2,20.5,13.3,33.6,21.2,49.8c7.8,16,20.2,18.3,30.6,3.3
		c8.8-12.8,14.1-28.5,17.5-43.5c4.1-17.9,13.9-28.1,33-31.3c27.2-4.5,54.3-9.5,81.6-13.5c64.7-9.4,126,27.8,142.8,83.5
		c3.5,11.5,17,20.3,5.8,34c-0.7,0.8,1.9,4.3,3.3,6.3c14.3,20.1,27.8,40.8,43.6,59.9c4.3,5.2,16.1,8.5,23.2,7.1
		c7-1.3,13.7-8.9,18.4-15c5.3-6.9,8.3-15.2,12.2-23c4-8,8.1-16,11.8-24.1c1.4-3.1,0.3-8.3,2.5-9.8c20.9-14.6,21.1-46.4,51.5-53.1
		c2.5-0.6,4.6-4.3,6.1-6.9c12-20.3,22.9-41.2,36-60.7c4.7-7,14-13.4,22.5-15.6c23.3-6.3,51.7,12.8,59.2,34.4
		c7.8,22.6,9.7,48.3,33.4,64.4c2.7,1.8,1.3,10.2,0.1,15.1c-1.3,5.6-7.8,11.6-6.4,15.9c4.5,14.2,8.7,29.8,18.4,40.9
		c11.9,13.7,17.7,26.6,14.1,43.7c-0.8,3.8,1.6,8.3,3.2,12.3c5.3,13.3,9.2,27.4,16.9,39.5c4.6,7.3,14.4,13.3,23.3,16
		c5.4,1.7,16.7-2.1,19.6-6.6c10.5-16.6,34.3-28.1,26.3-52.7c-0.3-1,1.9-3.3,3.4-4.2c16.7-10.3,23.4-25.4,25.4-43.1
		c0.4-3.4,3.3-6.5,5.2-9.7c5.4-8.9,10.9-17.8,16.3-26.7c-1.8-1.2-3.5-2.5-5.3-3.7c7.1-2.9,14.1-5.8,24-9.8
		c-5.9-9.6-11.2-18.3-17.6-28.6c3.2-2.4,5.6-4.4,8.1-6.2c15.7-11.3,30.6-22.8,16.6-43.9c-1.5-2.2-0.1-7.3,1.8-10
		c1.8-2.5,3.6-5,5.3-7.6c2.9,7.9,5.1,16.5,6.3,26.2c1.2,9.3,11.4,16.6,17.4,25c3.4,4.8,6.2,10.6,10.1,14.6c2.9,3,9.2,6.7,10.3,5.2
		c7.4-10,14.2-20.8,20.3-32.2c2.7-5.1,1.9-13.9,4.9-18.3c1.9-2.8,3.5-5.8,4.8-8.8c1.9,3,4.1,6,6.9,8.8c4.3,4.4,3.2,13.2,7.1,18.3
		c8.6,11.4,18.4,22.3,29,32.2c1.5,1.4,10.6-2.2,14.7-5.2c2.9-2.1,5.4-4.7,7.8-7.4c1,1.1,2,2.1,3,3.1c1.8,1.8,3.5,3.8,5.7,6.2
		c-4.4,10.3-8.2,19-12.3,28.6c6.9,4,11.8,6.9,16.8,9.8c-1.2,1.2-2.5,2.5-3.7,3.7c3.8,8.9,7.6,17.7,11.4,26.7
		c1.3,3.2,3.4,6.3,3.6,9.7c1.4,17.7,6.1,32.8,17.8,43.1c1.1,0.9,2.6,3.2,2.4,4.2c-5.6,24.7,11.1,36.1,18.4,52.7
		c2,4.5,10,8.3,13.7,6.6c6.2-2.8,13.1-8.8,16.3-16c5.4-12.1,8.1-26.2,11.8-39.5c1.1-4,2.8-8.5,2.3-12.3c-2.5-17.1,1.6-30,9.9-43.7
		c6.8-11.1,9.7-26.7,12.9-40.9c1-4.3-3.5-10.4-4.5-15.9c-0.8-5-1.8-13.3,0.1-15.1c16.6-16.1,17.9-41.8,23.4-64.4
		c5.2-21.7,25.1-40.7,41.5-34.4c6,2.3,12.5,8.7,15.8,15.6c9.2,19.6,16.8,40.5,25.2,60.7c1.1,2.6,2.5,6.3,4.3,6.9
		c21.3,6.8,21.4,38.5,36,53.1c1.5,1.5,0.8,6.7,1.7,9.8c2.5,8.1,5.4,16.1,8.2,24.1c2.7,7.7,4.9,16.1,8.6,23c3.3,6.2,8,13.7,12.9,15
		c5,1.3,13.3-2,16.3-7.1c11-19.1,20.5-39.8,30.5-59.9c1-2,2.8-5.5,2.3-6.3c-7.8-13.6,1.6-22.5,4-34c11.8-55.7,54.6-92.8,99.9-83.5
		c19.1,3.9,38.1,9,57.1,13.5c13.4,3.2,20.3,13.4,23.1,31.3c2.4,15.1,6.1,30.7,12.3,43.5c7.2,15,15.9,12.8,21.4-3.3
		c5.5-16.2,16.4-29.3,14.8-49.8c-0.3-3.9,6.1-11.6,9.9-12.2c3.3-0.5,10,6.1,10.4,10.4c1.8,16.5,7.9,29.1,15.9,41.2
		c2.8,4.3,5.3,11.6,4.7,16.8c-2.5,19.8,9.1,32.2,13.8,48c1.6,5.4,8.9,9.4,14.1,10.9c2.1,0.6,7.1-6.4,8.3-11.1
		c6.7-27.6,24.1-44.2,37-65.5c8-13.1,13.6-28.7,21.6-41.9c3.7-6.2,10-12.6,15.5-13.1c8.5-0.9,10.1,8.6,10.3,19.1
		c0.5,20,1.4,40,3.8,59.7c1,8.1,7.8,14.7,9.8,22.9c7.2,30.2,13.3,60.9,20.4,91.1c1.5,6.5,5.2,12.1,7.9,17.9
		c1.9,3.9,3.9,7.7,5.9,11.5c4.4,8,7.9,17.5,13.4,23.6c5.6,6.2,10.1,10.5,5.4,20.6c-0.9,2-1.9,5-1.4,6.9c6.1,25.6,1.7,53,8.2,78.8
		c3,11.8,3.4,24.9,3.9,37.5c0.5,9.9,2.1,16.5,10.9,16.5c8,0,13.6-1.1,15.7-14.6c3-19.4,8.1-38.4,13.1-57.2
		c5-18.7,13.7-35.9,9.4-57.6c-0.9-4.7,2.8-11,4.4-16.5c4.9-16.2,11.6-32.3,2.4-48.9c8.7-18.2,17.9-33.3,21.6-55.8
		c6.2-37.5,15.6-76.2,30.9-108.2c12.2-25.5,31.3-50,57.4-54.6c7-1.2,16,1.6,21.8,6.8c16.2,14.6,29.6,31.8,29.9,61.6
		c0.2,14.9,5.3,30.2,10.1,44.2c2,5.8,9.8,12.8,13.5,11.6c5.6-1.8,12-9.2,14.3-16.3c3.1-9.8,9.5-18.2,6.3-32.8
		c-1.6-7.2,9.3-21.6,16.6-29.1c9.4-9.6,15.5-20,17.3-35.5c1.5-12.9,6.7-21.7,17.9-19.2c10.6,2.4,16.7,11.8,16,25.3
		c-0.8,15,1.9,25.4,10.2,37c7.2,10.1,8.7,27.1,13.3,40.6c5.1,14.8,11,29.1,16.3,43.8c1.9,5.3,2,12.2,4.6,16.6
		c3.6,6.2,8.5,14.4,13.3,14.9c4,0.4,11.1-8,12.4-14.2c5.7-26.8,10.2-54.2,14.4-81.5c2.6-16.8,8.8-23.8,22.2-20.5
		c8.5,2.1,16.3,3.2,18.1-15.2c1-10.7,20-19.5,25.1-30c3.3-6.8-2.9-14.3,0-21.4v-83.5C3118.5-37.7,2716.7-37.7,2315.9-37.7z"/>
</g>
</svg>
