<?xml version="1.0" encoding="utf-8"?>
<!-- Generator: Adobe Illustrator 23.0.2, SVG Export Plug-In . SVG Version: 6.00 Build 0)  -->
<svg version="1.1" id="Layer_1" xmlns="http://www.w3.org/2000/svg" xmlns:xlink="http://www.w3.org/1999/xlink" x="0px" y="0px"
	 viewBox="0 0 356 356" style="enable-background:new 0 0 356 356;" xml:space="preserve">
<style type="text/css">
	.st0{fill:#FFFFFF;}
</style>
<g>
	<rect width="356" height="356"/>
</g>
<g>
	<g>
		<path class="st0" d="M260.3,216.3c-3,0-5.7-1.9-6.7-4.9c-1.2-3.7,0.8-7.7,4.5-8.9c13.4-4.4,22-16.1,22-29.9
			c0-17.5-14.2-31.7-31.6-31.7c-1.2,0-2.5,0.1-4.1,0.3l-6.9,0.9l-1-6.9c-4.2-29.5-29.9-51.7-59.7-51.7c-24.6,0-46.6,14.8-55.9,37.6
			l-1.8,4.3l-4.6,0.1c-21.3,0.4-38.6,18-38.6,39.3c0,15.5,9,29.7,23,36.1c3.5,1.6,5.1,5.8,3.5,9.3c-1.6,3.5-5.8,5.1-9.3,3.5
			c-19-8.7-31.2-27.9-31.2-48.9c0-27.4,21.1-50.3,47.9-53.1C122,86,147.9,69.5,176.8,69.5c34.6,0,64.6,24.2,72.4,57.4
			c24.9,0.4,45,20.8,45,45.7c0,19.7-12.8,37.1-31.7,43.3C261.7,216.1,261,216.3,260.3,216.3z"/>
		<path class="st0" d="M152.7,219.5C152.7,219.5,152.7,219.5,152.7,219.5C152.7,219.5,152.7,219.5,152.7,219.5L152.7,219.5
			L152.7,219.5L152.7,219.5C152.7,219.5,152.7,219.5,152.7,219.5L152.7,219.5L152.7,219.5C152.7,219.5,152.7,219.5,152.7,219.5
			L152.7,219.5L152.7,219.5L152.7,219.5C152.7,219.5,152.7,219.5,152.7,219.5C152.7,219.5,152.7,219.5,152.7,219.5L152.7,219.5
			L152.7,219.5C152.7,219.5,152.7,219.5,152.7,219.5L152.7,219.5C152.7,219.5,152.7,219.5,152.7,219.5
			C152.7,219.5,152.7,219.5,152.7,219.5L152.7,219.5C152.7,219.5,152.7,219.5,152.7,219.5L152.7,219.5
			C152.6,219.5,152.6,219.5,152.7,219.5C152.6,219.5,152.6,219.5,152.7,219.5C152.6,219.5,152.6,219.5,152.7,219.5L152.7,219.5
			C152.6,219.5,152.6,219.5,152.7,219.5C152.6,219.5,152.6,219.5,152.7,219.5C152.6,219.5,152.6,219.5,152.7,219.5L152.7,219.5
			C152.6,219.5,152.6,219.5,152.7,219.5L152.7,219.5c-0.2-0.1-0.3-0.1-0.4-0.1h0h0c0,0,0,0,0,0c0,0,0,0,0,0h0h0c0,0,0,0,0,0
			c0,0,0,0,0,0c0,0,0,0,0,0h0h0h0c0,0,0,0,0,0h0h0h0h0c0,0,0,0,0,0h0h0h0h0c0,0,0,0,0,0c-3,0-5.5-2.5-5.6-5.5V152h4.7c0,0,0,0,0,0
			c0.7,0,1.2-0.5,1.2-1.2c0-0.5-0.3-0.9-0.7-1.1l-22.8-15.7c-0.4-0.3-0.9-0.3-1.4,0l-23,15.8c-0.4,0.3-0.6,0.8-0.5,1.3
			c0.2,0.5,0.6,0.8,1.1,0.8h4.7l0,61.9c0,4.3,3.5,7.8,7.8,7.9c0,0,0.1,0,0.1,0h34c0,0,0,0,0,0c0.3,0,0.6-0.1,0.8-0.3c0,0,0,0,0,0
			c0,0,0,0,0,0c0,0,0,0,0,0l0,0l0,0l0,0l0,0l0,0c0,0,0,0,0,0c0,0,0,0,0,0c0,0,0,0,0,0l0,0c0,0,0,0,0,0c0.2-0.2,0.3-0.5,0.3-0.8v0v0
			v0v0v0v0v0v0C153.4,220.1,153.1,219.7,152.7,219.5z"/>
		<path class="st0" d="M202,219.5C202,219.5,202,219.5,202,219.5C201.9,219.5,201.9,219.5,202,219.5L202,219.5
			C201.9,219.5,201.9,219.5,202,219.5L202,219.5L202,219.5L202,219.5L202,219.5C201.9,219.5,201.9,219.5,202,219.5L202,219.5
			L202,219.5C201.9,219.5,201.9,219.5,202,219.5C201.9,219.5,201.9,219.5,202,219.5L202,219.5L202,219.5L202,219.5L202,219.5
			L202,219.5C201.9,219.5,201.9,219.5,202,219.5C201.9,219.5,201.9,219.5,202,219.5L202,219.5L202,219.5
			C201.9,219.5,201.9,219.5,202,219.5C201.9,219.5,201.9,219.5,202,219.5C201.9,219.5,201.9,219.5,202,219.5
			C201.9,219.5,201.9,219.5,202,219.5C201.9,219.5,201.9,219.5,202,219.5C201.9,219.5,201.9,219.5,202,219.5
			C201.9,219.5,201.9,219.5,202,219.5C201.9,219.5,201.9,219.5,202,219.5C201.9,219.5,201.9,219.5,202,219.5L202,219.5L202,219.5
			c-0.2-0.1-0.3-0.1-0.4-0.1h0c0,0,0,0,0,0c0,0,0,0,0,0h0h0h0l0,0c0,0,0,0,0,0c0,0,0,0,0,0h0c0,0,0,0,0,0h0c0,0,0,0,0,0s0,0,0,0h0h0
			h0c0,0,0,0,0,0h0h0h0h0c0,0,0,0,0,0c-3,0-5.5-2.5-5.6-5.5v-48.1h4.7c0,0,0,0,0,0c0.7,0,1.2-0.5,1.2-1.2c0-0.5-0.3-0.9-0.7-1.1
			l-22.8-15.7c-0.4-0.3-0.9-0.3-1.4,0l-23,15.8c-0.4,0.3-0.6,0.8-0.5,1.3c0.2,0.5,0.6,0.8,1.1,0.8h4.7l0,48.1c0,4.3,3.5,7.8,7.8,7.9
			c0,0,0.1,0,0.1,0h34c0,0,0,0,0,0c0.3,0,0.6-0.1,0.8-0.3c0,0,0,0,0,0c0,0,0,0,0,0c0,0,0,0,0,0c0,0,0,0,0,0l0,0l0,0c0,0,0,0,0,0l0,0
			c0,0,0,0,0,0c0,0,0,0,0,0c0,0,0,0,0,0c0,0,0,0,0,0c0,0,0,0,0,0c0.2-0.2,0.3-0.5,0.3-0.8v0v0v0v0v0v0v0v0
			C202.6,220.1,202.4,219.7,202,219.5z"/>
		<path class="st0" d="M251.2,219.5L251.2,219.5C251.2,219.5,251.2,219.5,251.2,219.5L251.2,219.5
			C251.2,219.5,251.2,219.5,251.2,219.5L251.2,219.5C251.2,219.5,251.2,219.5,251.2,219.5L251.2,219.5L251.2,219.5
			C251.2,219.5,251.2,219.5,251.2,219.5C251.2,219.5,251.2,219.5,251.2,219.5L251.2,219.5L251.2,219.5
			C251.2,219.5,251.2,219.5,251.2,219.5C251.2,219.5,251.2,219.5,251.2,219.5L251.2,219.5C251.2,219.5,251.2,219.5,251.2,219.5
			C251.2,219.5,251.2,219.5,251.2,219.5L251.2,219.5C251.2,219.5,251.2,219.5,251.2,219.5C251.2,219.5,251.2,219.5,251.2,219.5
			L251.2,219.5C251.2,219.5,251.2,219.5,251.2,219.5C251.2,219.5,251.2,219.5,251.2,219.5C251.2,219.5,251.1,219.5,251.2,219.5
			C251.1,219.5,251.1,219.5,251.2,219.5L251.2,219.5C251.1,219.5,251.1,219.5,251.2,219.5L251.2,219.5
			C251.1,219.5,251.1,219.5,251.2,219.5C251.1,219.5,251.1,219.5,251.2,219.5C251.1,219.5,251.1,219.5,251.2,219.5
			C251.1,219.5,251.1,219.5,251.2,219.5L251.2,219.5c-0.2-0.1-0.3-0.1-0.4-0.1h0c0,0,0,0,0,0c0,0,0,0,0,0h0h0h0c0,0,0,0,0,0
			c0,0,0,0,0,0c0,0,0,0,0,0h0h0h0c0,0,0,0,0,0h0c0,0,0,0,0,0h0h0h0h0h0h0h0h0c-3,0-5.5-2.5-5.6-5.5v-34.2h4.7c0,0,0,0,0,0
			c0.7,0,1.2-0.5,1.2-1.2c0-0.5-0.3-0.9-0.7-1.1l-22.8-15.7c-0.4-0.3-0.9-0.3-1.4,0l-23,15.8c-0.4,0.3-0.6,0.8-0.5,1.3
			c0.2,0.5,0.6,0.8,1.1,0.8h4.7l0,34.2c0,4.3,3.5,7.8,7.8,7.9c0,0,0.1,0,0.1,0h34c0,0,0,0,0,0c0.3,0,0.6-0.1,0.8-0.3l0,0
			c0,0,0,0,0,0c0,0,0,0,0,0l0,0l0,0l0,0l0,0l0,0l0,0c0,0,0,0,0,0c0,0,0,0,0,0l0,0c0,0,0,0,0,0c0.2-0.2,0.3-0.5,0.3-0.8v0v0v0v0v0v0
			v0v0C251.9,220.1,251.6,219.7,251.2,219.5z"/>
	</g>
	<g>
		<path class="st0" d="M121.2,252.5c-1.1-1.2-2.6-2.2-4.2-2.9c-1.7-0.7-3.7-1.1-5.9-1.1c-2.2,0-4.2,0.4-5.9,1.1
			c-1.7,0.7-3.1,1.7-4.2,2.9c-1.2,1.3-2,2.7-2.6,4.4c-0.6,1.7-0.9,3.5-0.9,5.5c0,1.5,0.2,2.9,0.5,4.3c0.3,1.3,0.8,2.6,1.4,3.8
			c0.7,1.1,1.5,2.2,2.6,3c1,0.9,2.3,1.5,3.8,2c1.5,0.5,3.3,0.7,5.3,0.7c2,0,3.8-0.3,5.3-0.7c1.5-0.5,2.8-1.2,3.8-2
			c1-0.8,1.9-1.9,2.6-3c0.7-1.2,1.1-2.5,1.4-3.8c0.3-1.4,0.5-2.8,0.5-4.3c0-2-0.3-3.8-0.9-5.5C123.2,255.2,122.3,253.8,121.2,252.5z
			 M117.7,265.9c-0.3,1.1-0.7,2.1-1.2,3c-0.6,0.9-1.3,1.6-2.2,2.1c-0.9,0.5-2,0.8-3.2,0.8c-1.2,0-2.3-0.3-3.2-0.8
			c-0.9-0.5-1.7-1.2-2.2-2.1c-0.6-0.9-1-1.8-1.2-3c-0.3-1.1-0.4-2.2-0.4-3.5c0-1.3,0.1-2.5,0.4-3.6c0.3-1.1,0.7-2.1,1.3-2.9
			c0.6-0.9,1.3-1.5,2.2-2c0.9-0.5,1.9-0.7,3.1-0.7h0c1.2,0,2.3,0.3,3.1,0.7c0.9,0.5,1.6,1.1,2.2,2c0.6,0.8,1,1.8,1.3,2.9
			c0.3,1.1,0.4,2.3,0.4,3.6C118.1,263.6,118,264.8,117.7,265.9z"/>
		<path class="st0" d="M141.7,275.7c1.1-0.4,2-0.9,2.9-1.6c0.9-0.7,1.6-1.5,2.3-2.4l0.2-0.2h0.8l0.1,0.5v1c0,0.7,0.1,1.3,0.3,1.8
			c0.2,0.5,0.5,0.8,0.9,1.1c0.4,0.3,1,0.4,1.7,0.4c0.7,0,1.3-0.1,1.7-0.4c0.4-0.3,0.7-0.6,0.9-1.1c0.2-0.5,0.3-1.1,0.3-1.8v-21.1
			c0-0.6-0.1-1.2-0.3-1.7c-0.2-0.5-0.5-0.8-1-1.1c-0.5-0.3-1.2-0.4-2-0.5c-0.9,0-1.5,0.2-2,0.5c-0.5,0.3-0.8,0.7-1,1.1
			c-0.2,0.5-0.3,1.1-0.3,1.7v12.6c0,1.1-0.2,2-0.6,2.8c-0.4,0.8-0.9,1.5-1.5,2.1c-0.6,0.6-1.3,1-2,1.3c-0.8,0.3-1.5,0.4-2.2,0.4
			c-1.2,0-2.2-0.3-3-0.8c-0.8-0.5-1.4-1.2-1.8-2.1c-0.4-0.8-0.6-1.8-0.6-3v-13.4c0-0.6-0.1-1.2-0.3-1.7c-0.2-0.5-0.5-0.8-1-1.1
			c-0.5-0.3-1.2-0.4-2-0.5c-0.9,0-1.6,0.2-2,0.5c-0.5,0.3-0.8,0.7-1,1.1c-0.2,0.5-0.3,1.1-0.3,1.7v14.9c0,1.9,0.3,3.4,0.8,4.6
			c0.5,1.2,1.2,2.2,2.1,2.9c0.9,0.7,1.8,1.2,2.9,1.5c1.1,0.3,2.1,0.5,3.2,0.5h0.1C139.4,276.3,140.6,276.1,141.7,275.7z"/>
		<path class="st0" d="M91.3,238.6c-0.5-0.2-1.1-0.4-1.8-0.4c-0.7,0-1.3,0.1-1.8,0.4c-0.5,0.2-0.8,0.6-1.1,1.1
			c-0.3,0.5-0.4,1.1-0.4,1.9V273c0,0.7,0.1,1.4,0.4,1.9c0.3,0.5,0.6,0.8,1.1,1.1c0.5,0.3,1.1,0.4,1.8,0.4c0.7,0,1.3-0.1,1.8-0.4
			c0.5-0.2,0.8-0.6,1.1-1.1c0.3-0.5,0.4-1.1,0.4-1.9v-31.5c0-0.7-0.1-1.4-0.4-1.9C92.1,239.2,91.8,238.8,91.3,238.6z"/>
		<path class="st0" d="M306.4,250.7c-0.1-0.3-0.3-0.7-0.6-1c-0.3-0.3-0.6-0.6-1-0.8c-0.4-0.2-1-0.3-1.7-0.4c-0.6,0-1.1,0.1-1.5,0.4
			c-0.4,0.3-0.8,0.6-1,1c-0.3,0.5-0.5,1-0.7,1.6l-4.8,17.8h-0.8l-0.2-0.4l-4.9-17.9c-0.2-0.8-0.6-1.4-1.2-1.8
			c-0.6-0.5-1.3-0.7-2.2-0.7c-0.6,0-1.1,0.1-1.6,0.4c-0.5,0.3-0.9,0.6-1.1,1.1c-0.3,0.5-0.4,1-0.4,1.6c0,0.2,0,0.5,0.1,0.8
			c0.1,0.3,0.2,0.7,0.3,1.1c0.1,0.4,0.3,0.9,0.5,1.5l8,22.9l0,0.2c-0.2,0.8-0.5,1.5-0.8,1.9c-0.4,0.4-0.8,0.7-1.2,0.8
			c-0.3,0.1-0.7,0.1-1,0.1l-0.2,0h-0.8c-0.6,0-1.1,0.1-1.6,0.3c-0.4,0.2-0.8,0.5-1,0.8c-0.2,0.4-0.4,0.8-0.4,1.4
			c0,0.5,0.1,1,0.4,1.4c0.3,0.4,0.7,0.8,1.3,1.1c0.6,0.3,1.5,0.5,2.5,0.5c1.1,0,2.1-0.2,3-0.5c0.8-0.3,1.5-0.8,2.2-1.4
			c0.6-0.6,1.2-1.4,1.7-2.4c0.5-1,1-2.1,1.4-3.4l8.9-25.1c0.2-0.5,0.3-0.9,0.4-1.3c0.1-0.4,0.1-0.7,0.1-0.9
			C306.5,251.4,306.5,251.1,306.4,250.7z"/>
		<path class="st0" d="M257.2,272.2c-0.1-0.4-0.2-0.8-0.3-1.4c-0.1-0.5-0.1-1.2-0.1-2.1v-12.9c0-1.3-0.3-2.4-0.8-3.3
			c-0.6-0.9-1.3-1.7-2.4-2.3c-1-0.6-2.3-1.1-3.8-1.4c-1.5-0.3-3.1-0.4-4.9-0.4c-0.2,0-0.5,0-0.7,0l-0.2,0c-0.7,0-1.4,0.1-2,0.2
			l-0.3,0c-0.7,0.1-1.3,0.2-1.9,0.4c-1.4,0.4-2.7,0.9-3.7,1.6c-1,0.7-1.7,1.4-2.2,2.1c-0.5,0.7-0.7,1.4-0.7,2.1
			c0,0.4,0.1,0.8,0.3,1.2c0.2,0.4,0.5,0.6,0.9,0.9c0.4,0.2,0.9,0.3,1.5,0.3c0.5,0,0.9-0.1,1.3-0.4c0.4-0.3,0.8-0.6,1.2-1
			c0.4-0.4,0.9-0.9,1.4-1.3c0.6-0.4,1.2-0.8,2-1.1c0.3-0.1,0.8-0.2,1.2-0.3c0.1,0,0.2,0,0.3,0l0.1,0c0.4,0,0.8-0.1,1.3-0.1
			c0.9,0,1.8,0.1,2.6,0.3c0.8,0.2,1.5,0.6,2,1.2c0.5,0.6,0.8,1.3,0.8,2.2c0,0.9-0.2,1.5-0.6,2c-0.4,0.5-0.9,0.8-1.5,1
			c-0.5,0.2-1.1,0.3-1.8,0.4l-4.7,0.5c-1.4,0.1-2.8,0.4-4.1,0.8c-1.2,0.3-2.3,0.8-3.2,1.4c-0.9,0.6-1.6,1.4-2.1,2.4
			c-0.5,1-0.8,2.2-0.8,3.7c0,1.1,0.2,2.1,0.7,3c0.4,0.9,1,1.6,1.8,2.3c0.8,0.6,1.6,1.1,2.6,1.5c1,0.3,2,0.5,3,0.5h0.1
			c1.3,0,2.5-0.1,3.6-0.4c0.2,0,0.4-0.1,0.6-0.2c0.2,0,0.3-0.1,0.5-0.2l0.4-0.2c0.1,0,0.2-0.1,0.3-0.1c0.6-0.2,1.1-0.5,1.5-0.7
			c1.1-0.6,2.1-1.5,3-2.5l0.9-1l0,1.3c0,0.7,0.2,1.4,0.4,2c0.3,0.6,0.7,1,1.2,1.4c0.6,0.4,1.3,0.5,2.3,0.5c0.5,0,1-0.1,1.5-0.3
			c0.4-0.2,0.8-0.5,1.1-0.9c0.3-0.3,0.4-0.8,0.4-1.2c0-0.2,0-0.5-0.1-0.7L257.2,272.2z M250.2,266.2c0,0.8-0.2,1.6-0.5,2.3
			c-0.3,0.7-0.8,1.4-1.5,2c-0.6,0.6-1.4,1-2.3,1.3c-0.4,0.1-0.8,0.2-1.3,0.3l-0.2,0c-0.5,0.1-1,0.1-1.5,0.1c-1,0-1.8-0.2-2.5-0.5
			c-0.7-0.3-1.3-0.8-1.7-1.3c-0.4-0.6-0.6-1.2-0.6-1.9c0-0.9,0.2-1.6,0.7-2.2c0.4-0.6,1.1-1.1,1.9-1.4c0.8-0.3,1.7-0.6,2.8-0.7
			l2.8-0.4c0.3,0,0.6-0.1,1-0.2c0.4-0.1,0.8-0.2,1.1-0.3c0.3-0.1,0.6-0.3,0.9-0.5l0.9-0.8V266.2z"/>
		<path class="st0" d="M63.3,244.8c1.3-0.6,2.6-0.9,4.1-0.9c1.4,0,2.5,0.2,3.4,0.5c0.9,0.3,1.7,0.8,2.3,1.4c0.6,0.5,1.1,1.1,1.5,1.7
			c0.4,0.6,0.8,1.1,1.2,1.6c0.3,0.5,0.8,0.8,1.2,1.1c0.5,0.3,1,0.4,1.8,0.4c1.1,0,2-0.3,2.5-0.9c0.6-0.6,0.8-1.4,0.8-2.5
			c0-0.6-0.2-1.4-0.6-2.2c-0.4-0.8-1-1.7-1.8-2.5c-0.8-0.8-1.8-1.6-3-2.3c-1.2-0.7-2.6-1.3-4.1-1.7c-1.6-0.4-3.3-0.6-5.2-0.7
			c-2.3,0-4.5,0.3-6.4,1c-1.9,0.7-3.6,1.6-5,2.8c-1.4,1.2-2.6,2.6-3.6,4.2c-1,1.6-1.7,3.4-2.2,5.3c-0.5,1.9-0.7,3.9-0.7,6
			c0,4.2,0.8,7.8,2.2,10.7c1.4,2.8,3.5,5,6.2,6.4c2.7,1.4,6,2.2,9.9,2.2c2,0,3.9-0.3,5.7-0.9c1.7-0.6,3.3-1.4,4.6-2.4
			c1.3-1,2.3-2.1,3-3.3c0.7-1.2,1.1-2.5,1.1-3.7c0-0.6-0.2-1.1-0.5-1.5c-0.3-0.4-0.8-0.7-1.3-1c-0.6-0.2-1.2-0.4-1.8-0.4
			c-0.6,0-1,0.2-1.5,0.4c-0.4,0.3-0.8,0.7-1.2,1.2c-0.4,0.5-0.8,1.1-1.3,1.7c-0.4,0.6-1,1.2-1.5,1.8c-0.6,0.6-1.3,1.1-2.2,1.5
			c-0.9,0.4-1.9,0.6-3.1,0.6c-1.9,0-3.6-0.4-5-1.1c-1.4-0.7-2.5-1.7-3.3-3c-0.8-1.2-1.4-2.7-1.8-4.3c-0.4-1.6-0.6-3.3-0.6-5
			c0-2.1,0.3-4,0.8-5.6c0.5-1.7,1.3-3.1,2.2-4.2C61,246.3,62.1,245.4,63.3,244.8z"/>
		<path class="st0" d="M184,241.5c0-0.7-0.1-1.4-0.4-1.9c-0.3-0.5-0.6-0.8-1.1-1.1c-1-0.5-2.5-0.5-3.6,0c-0.5,0.2-0.8,0.6-1.1,1.1
			c-0.3,0.5-0.4,1.1-0.4,1.9v10.9h-0.8l-0.3-0.3c-0.7-1.1-1.7-2-2.9-2.7c-0.3-0.2-0.6-0.3-1-0.4c-0.1,0-0.1,0-0.2-0.1l-0.2,0
			c-0.3-0.1-0.5-0.1-0.8-0.2l-0.1,0c-0.1,0-0.2,0-0.3-0.1l-0.5-0.1c-0.4,0-0.7-0.1-1.1-0.1c-1.5,0-2.9,0.3-4.1,0.7
			c-1.2,0.5-2.3,1.1-3.1,2c-0.9,0.9-1.6,1.8-2.2,3c-0.6,1.2-1,2.4-1.3,3.7c-0.3,1.3-0.4,2.7-0.4,4.2c0,2.4,0.3,4.5,0.9,6.3
			c0.6,1.8,1.5,3.2,2.5,4.4c1,1.1,2.3,2,3.6,2.6c1.4,0.6,2.8,0.8,4.4,0.8c0.6,0,1.1,0,1.7-0.1c0.6-0.1,1.1-0.2,1.6-0.4
			c1-0.3,1.9-0.8,2.6-1.5c0.7-0.6,1.3-1.5,1.7-2.5l0.1-0.3h0.9l0.1,0.5v1.2c0,1,0.3,1.8,0.7,2.3c0.5,0.5,1.2,0.8,2.2,0.8
			c1,0,1.8-0.3,2.2-0.8c0.5-0.5,0.7-1.3,0.7-2.3L184,241.5L184,241.5z M177.5,265.8c-0.2,1-0.6,2-1.1,2.8c-0.5,0.8-1.2,1.5-2.1,2
			c-0.2,0.1-0.4,0.2-0.7,0.3c-0.1,0-0.1,0-0.2,0.1l-0.2,0.1c-0.1,0-0.3,0.1-0.4,0.1c-0.1,0-0.2,0-0.3,0l-0.1,0
			c-0.2,0-0.3,0.1-0.4,0.1c-0.1,0-0.2,0-0.3,0l-0.2,0c-0.1,0-0.2,0-0.3,0c-1.1,0-2.1-0.3-3-0.8c-0.8-0.5-1.5-1.1-2.1-2
			c-0.5-0.8-0.9-1.8-1.2-2.8c-0.3-1-0.4-2.1-0.4-3.3c0-0.8,0.1-1.6,0.2-2.3c0.1-0.8,0.3-1.6,0.6-2.4c0.3-0.8,0.7-1.5,1.2-2.2
			c0.5-0.7,1.2-1.2,1.9-1.6c0.8-0.4,1.7-0.6,2.7-0.6h0c0.1,0,0.3,0,0.4,0l0.2,0c0.1,0,0.2,0,0.3,0c0.1,0,0.3,0,0.4,0.1l0.2,0
			c0.1,0,0.2,0,0.2,0c0.2,0,0.3,0.1,0.5,0.1l0.1,0c0.1,0,0.1,0,0.2,0.1c0.2,0.1,0.5,0.2,0.7,0.4c0.9,0.6,1.6,1.3,2.1,2.2
			c0.5,0.9,0.9,1.8,1.1,2.9c0.2,1.1,0.3,2.1,0.3,3.1C177.8,263.7,177.7,264.7,177.5,265.8z"/>
		<path class="st0" d="M279.1,253.7c0.3-0.5,0.5-1.1,0.5-2c0-0.6-0.2-1.2-0.5-1.6c-0.3-0.5-0.7-0.8-1.3-1.1
			c-0.6-0.3-1.2-0.4-1.9-0.4c-0.8,0-1.6,0.2-2.2,0.5c-0.6,0.3-1.2,0.8-1.6,1.4c-0.5,0.6-0.9,1.2-1.2,2c-0.3,0.7-0.6,1.5-0.8,2.3
			l-0.1,0.4H269l-0.1-0.5v-2.9c0-0.7-0.1-1.2-0.4-1.7c-0.3-0.4-0.6-0.8-1-1c-0.4-0.2-1-0.4-1.5-0.4s-1.1,0.1-1.5,0.3
			c-0.4,0.2-0.8,0.6-1,1c-0.3,0.4-0.4,1-0.4,1.7V273c0,0.6,0.1,1.2,0.3,1.7c0.2,0.5,0.5,0.8,1,1.1c0.5,0.3,1.1,0.5,2,0.5
			c0.9,0,1.6-0.2,2-0.5c0.5-0.3,0.8-0.7,1-1.1c0.2-0.5,0.3-1.1,0.3-1.7v-8.9c0-2.2,0.2-3.9,0.6-5.2c0.4-1.4,1-2.4,1.8-3
			c0.8-0.6,1.7-0.9,2.8-0.9l1.5,0c0.6,0,1.1-0.1,1.6-0.3C278.4,254.5,278.8,254.2,279.1,253.7z"/>
		<path class="st0" d="M224.1,250.6c-0.9-0.7-1.8-1.2-2.9-1.5c-1.1-0.3-2.1-0.5-3.2-0.5c-1.5,0-2.7,0.2-3.8,0.6
			c-1.1,0.4-2.1,0.9-2.9,1.6c-0.9,0.7-1.6,1.5-2.3,2.4l-0.2,0.2h-0.8l-0.1-0.5v-1c0-0.7-0.1-1.3-0.3-1.8c-0.2-0.5-0.5-0.8-0.9-1.1
			c-0.4-0.3-1-0.4-1.7-0.4c-0.7,0-1.3,0.1-1.7,0.4c-0.4,0.3-0.7,0.6-0.9,1.1c-0.2,0.5-0.3,1.1-0.3,1.8V273c0,0.6,0.1,1.2,0.3,1.7
			c0.2,0.5,0.5,0.8,1,1.1c0.5,0.3,1.2,0.5,2,0.5c0.9,0,1.6-0.2,2-0.5c0.5-0.3,0.8-0.7,1-1.1c0.2-0.5,0.3-1.1,0.3-1.7v-12.6
			c0-1.1,0.2-2,0.6-2.8c0.4-0.8,0.9-1.5,1.5-2.1c0.6-0.6,1.3-1,2-1.3c0.7-0.3,1.5-0.4,2.2-0.4c1.2,0,2.2,0.3,3,0.8
			c0.8,0.5,1.4,1.2,1.8,2.1c0.4,0.8,0.6,1.8,0.6,3V273c0,0.6,0.1,1.2,0.3,1.7c0.2,0.5,0.5,0.8,1,1.1c0.5,0.3,1.2,0.5,2,0.5
			c0.9,0,1.6-0.2,2-0.5c0.5-0.3,0.8-0.7,1-1.1c0.2-0.5,0.3-1.1,0.3-1.7v-14.9c0-1.9-0.3-3.4-0.8-4.6
			C225.7,252.2,225,251.3,224.1,250.6z"/>
		<path class="st0" d="M195.1,249c-0.5-0.3-1.2-0.4-2-0.5c-0.9,0-1.6,0.2-2,0.5c-0.5,0.3-0.8,0.7-1,1.1c-0.2,0.5-0.3,1.1-0.3,1.7
			V273c0,0.6,0.1,1.2,0.3,1.7c0.2,0.5,0.5,0.8,1,1.1c0.5,0.3,1.1,0.5,2,0.5c0.9,0,1.6-0.2,2-0.5c0.5-0.3,0.8-0.7,1-1.1
			c0.2-0.5,0.3-1.1,0.3-1.7v-21.1c0-0.6-0.1-1.2-0.3-1.7C195.9,249.7,195.6,249.3,195.1,249z"/>
		<path class="st0" d="M194.8,238.7c-0.5-0.3-1.1-0.4-1.7-0.5c-0.6,0-1.2,0.2-1.7,0.5c-0.5,0.3-0.9,0.7-1.2,1.2
			c-0.3,0.5-0.4,1.1-0.5,1.7c0,0.6,0.2,1.2,0.5,1.7c0.3,0.5,0.7,0.9,1.2,1.2c0.5,0.3,1.1,0.4,1.7,0.5c0.6,0,1.2-0.2,1.7-0.5
			c0.5-0.3,0.9-0.7,1.2-1.2c0.3-0.5,0.4-1.1,0.5-1.7c0-0.6-0.2-1.2-0.5-1.7C195.7,239.4,195.3,239,194.8,238.7z"/>
	</g>
</g>
</svg>
