<?xml version="1.0" encoding="utf-8"?>
<!-- Generator: Adobe Illustrator 23.0.2, SVG Export Plug-In . SVG Version: 6.00 Build 0)  -->
<svg version="1.1" id="Layer_1" xmlns="http://www.w3.org/2000/svg" xmlns:xlink="http://www.w3.org/1999/xlink" x="0px" y="0px"
	 viewBox="0 0 3610.3 594.7" style="enable-background:new 0 0 3610.3 594.7;" xml:space="preserve">
<style type="text/css">
	.st0{fill:#470274;}
</style>
<g>
	
		<image style="overflow:visible;opacity:0.46;enable-background:new    ;" width="3791" height="638" xlink:href="D556CF0550C6C094.png"  transform="matrix(0.9984 0 0 0.9984 -94.4238 -21.0318)">
	</image>
	<g>
		<g>
			<path class="st0" d="M1915,332l-0.2,1.9c-0.2,4,1,7.4,3.7,10.2c2.7,2.8,6.5,4.3,11.4,4.5c4.8,0.2,9.2-0.6,13.3-2.5
				c4.1-1.9,7.3-4.6,9.4-8.1l1.1-20.8l-12.1-0.6C1925.6,315.7,1916.7,320.9,1915,332z"/>
			<path class="st0" d="M1607.8,256.9c-7.9-0.4-14.2,2.3-18.8,8.3c-4.6,5.9-7.3,15.3-8,28.2c-0.6,11.5,1.1,20.4,5.1,26.7
				c4,6.3,10,9.7,18.1,10.1c7.8,0.4,14.1-2.3,18.8-8c4.7-5.8,7.4-15.3,8.1-28.5c0.6-11.3-1.2-20.1-5.2-26.5
				C1621.8,260.7,1615.7,257.3,1607.8,256.9z"/>
			<path class="st0" d="M-29.5,30.2l-17.9,342l3670,192.3l17.9-342L-29.5,30.2z M1442,308.1c4.9,8.4,13.1,12.9,24.6,13.5
				c10.4,0.5,18.2-1.4,23.6-5.9c5.3-4.5,8.7-11.6,9.9-21.5l33.5,1.8c-2.2,17.4-9.4,30.9-21.5,40.3c-12.2,9.4-27.8,13.7-46.9,12.7
				c-20.9-1.1-36.9-9-48.1-23.6c-11.2-14.7-16.2-34.3-14.9-58.8l0.5-9.9c0.8-15.6,4.3-29.3,10.4-40.9c6.1-11.6,14.5-20.4,25.1-26.2
				s22.6-8.4,36.2-7.7c18.8,1,33.6,6.8,44.6,17.5c10.9,10.7,16.8,25.1,17.7,43.4l-33.5-1.8c-0.3-10.5-2.8-18.3-7.6-23.3
				c-4.8-5-12.3-7.8-22.6-8.3c-11.2-0.6-19.7,3-25.7,10.7s-9.5,20-10.5,36.8l-0.6,12.3C1435.1,286.7,1437.1,299.7,1442,308.1z
				 M1645.3,341.6c-10.9,10.7-25.1,15.5-42.6,14.6c-17.4-0.9-31-7.2-40.8-18.9c-9.8-11.7-14.2-27.2-13.2-46.4l0.1-1.5
				c0.6-12,3.5-22.6,8.6-31.7s12.1-16.1,21.1-20.7c8.9-4.7,19.2-6.7,30.6-6.1c16.3,0.9,29.4,6.5,39.2,17.1
				c9.8,10.5,14.8,24.4,15.1,41.6l-0.2,8.3C1662.2,316.3,1656.3,330.9,1645.3,341.6z M1783.7,363.4l-32.3-1.7l4.1-77.3
				c0.4-6.9-0.9-11.9-3.7-15.1c-2.8-3.2-7.7-5.1-14.6-5.4c-9.1-0.5-16.1,3-21.1,10.5l-4.5,85.2l-32.3-1.7l6.3-120.9l30.4,1.6l0.3,14
				c9.2-10.3,21.1-15.1,35.6-14.4c12.8,0.7,22.1,4.9,28,12.8s8.5,19.3,7.8,34.2L1783.7,363.4z M1868.7,367.2
				c-6.4,1.6-13,2.2-19.7,1.9c-22.6-1.2-33.6-13.2-32.8-36.1l3.4-65.1l-17.7-0.9l1.2-23.7l17.7,0.9l1.6-29.7l32.3,1.7l-1.6,29.7
				l20.7,1.1l-1.2,23.7l-20.7-1.1l-3.2,60.3c-0.2,4.5,0.5,7.7,2.1,9.7s4.8,3.2,9.7,3.4c3.6,0.2,6.8,0.1,9.5-0.3L1868.7,367.2z
				 M1988.1,374.1l-32.6-1.7c-1.3-3-2.2-6.7-2.7-11c-8.3,8.3-18.7,12.1-31.2,11.5c-11.8-0.6-21.5-4.6-28.9-11.8
				c-7.4-7.3-10.9-16.1-10.3-26.5c0.7-12.8,5.9-22.4,15.8-28.7c9.9-6.4,23.8-9.1,41.7-8.2l14.9,0.8l0.4-6.9
				c0.3-5.6-0.9-10.1-3.6-13.6s-7.1-5.4-13.3-5.7c-5.4-0.3-9.8,0.8-13,3.2c-3.2,2.4-5,5.9-5.2,10.5l-32.3-1.7
				c0.4-7,2.9-13.4,7.5-19.1s11-10.1,19.1-13.1s17-4.2,26.9-3.7c14.9,0.8,26.5,5.1,34.9,13.1c8.4,7.9,12.2,18.7,11.5,32.2l-2.7,52.4
				c-0.5,11.5,0.6,20.2,3.4,26.3L1988.1,374.1z M2042.8,345c3.5,5.6,9.1,8.7,16.9,9.1c6,0.3,10.9-1.1,14.8-4.2
				c3.9-3.1,6.1-7.3,6.5-12.8l30.3,1.6c-0.5,8.2-3.1,15.6-7.9,22.2c-4.8,6.6-11,11.6-18.9,14.9c-7.8,3.4-16.4,4.8-25.6,4.3
				c-17.3-0.9-30.6-7.1-40-18.6s-13.6-26.9-12.6-46.3l0.1-2.1c1-18.6,6.7-33.2,17.2-43.8c10.5-10.6,24.4-15.4,41.7-14.5
				c15.1,0.8,27,5.7,35.7,14.8c8.7,9.1,12.7,20.8,12.1,35.1l-30.3-1.6c0.2-6.3-1.5-11.5-5-15.6s-8.3-6.3-14.4-6.7
				c-7.5-0.4-13.3,2.1-17.5,7.3c-4.1,5.3-6.5,14.1-7.2,26.4l-0.2,3.4C2037.8,330.3,2039.2,339.3,2042.8,345z M2188,383.9
				c-6.4,1.6-13,2.2-19.7,1.9c-22.6-1.2-33.6-13.2-32.8-36.1l3.4-65.1l-17.7-0.9l1.2-23.7l17.7,0.9l1.6-29.7l32.3,1.7l-1.6,29.7
				l20.7,1.1l-1.2,23.7l-20.7-1.1l-3.2,60.3c-0.2,4.5,0.5,7.7,2.1,9.7s4.8,3.2,9.7,3.4c3.6,0.2,6.8,0.1,9.5-0.3L2188,383.9z"/>
			<path class="st0" d="M1623,322.1c-4.7,5.8-11,8.5-18.8,8c-8-0.4-14.1-3.8-18.1-10.1c-4-6.3-5.7-15.2-5.1-26.7
				c0.7-12.9,3.3-22.3,8-28.2c4.6-5.9,10.9-8.7,18.8-8.3c8,0.4,14,3.8,18.1,10.3c4.1,6.4,5.8,15.3,5.2,26.5
				C1630.4,306.8,1627.7,316.3,1623,322.1z"/>
		</g>
	</g>
</g>
</svg>
