<?xml version="1.0" encoding="utf-8"?>
<!-- Generator: Adobe Illustrator 23.0.2, SVG Export Plug-In . SVG Version: 6.00 Build 0)  -->
<svg version="1.1" id="Layer_1" xmlns="http://www.w3.org/2000/svg" xmlns:xlink="http://www.w3.org/1999/xlink" x="0px" y="0px"
	 viewBox="0 0 400 400" style="enable-background:new 0 0 400 400;" xml:space="preserve">
<style type="text/css">
	.st0{fill:#FFFFFF;}
</style>
<rect x="2104.8" y="1398.9" style="fill:none;" width="9" height="6.8"/>
<text transform="matrix(1 0 0 1 2104.8293 1405.5763)" style="font-family:'JuggerRockExpanded'; font-size:12px;">L</text>
<g>
	<path class="st0" d="M110.5,255.3l14.1-14.1l5.3,5.3l-20.8,20.8L76.9,235l6.7-6.7L110.5,255.3z"/>
	<path class="st0" d="M103.1,213c-1-1-1.4-2.1-1.4-3.3c0-1.3,0.6-2.4,1.7-3.6c1.1-1.1,2.3-1.7,3.5-1.7c1.3,0,2.4,0.4,3.3,1.4
		c1,1,1.4,2.1,1.4,3.4c0,1.3-0.6,2.5-1.7,3.5c-1.1,1.1-2.3,1.6-3.5,1.7C105.2,214.4,104.1,213.9,103.1,213z M140.1,236.4l-6.4,6.4
		l-24-24l6.4-6.4L140.1,236.4z"/>
	<path class="st0" d="M127.3,201.2l3,2.6c-0.4-3.9,0.8-7.2,3.7-10.1c2.5-2.5,5.2-3.7,7.9-3.4c2.7,0.3,5.6,1.8,8.6,4.8l15.5,15.5
		l-6.4,6.4l-15.3-15.3c-1.4-1.4-2.6-2.1-3.8-2.1c-1.2,0-2.5,0.7-3.9,2c-1.8,1.8-2.4,3.9-1.8,6.4l16.9,16.9l-6.4,6.4l-24-24
		L127.3,201.2z"/>
	<path class="st0" d="M169.9,187.3l0,4.6l7.3,7.3l-6.4,6.4l-34.1-34.1l6.4-6.4l18.9,18.9l-0.4-2.8l-1.1-13.3l7.7-7.7l1.3,18.7
		l23.4,4.6l-7.4,7.4L169.9,187.3z"/>
	<path class="st0" d="M206.1,171.2c-3.5,3.5-7.5,5.3-11.8,5.4c-4.4,0.1-8.3-1.7-11.9-5.3l-0.6-0.6c-2.4-2.4-4.1-5-5.1-7.9
		c-1-2.8-1.1-5.6-0.4-8.3c0.7-2.7,2.1-5.2,4.3-7.4c3.3-3.3,6.9-4.8,10.9-4.6s7.8,2.2,11.6,6l2.6,2.6l-15.3,15.3
		c1.8,1.4,3.7,2,5.6,1.9c2-0.1,3.8-0.9,5.4-2.5c2.5-2.5,3.5-5.3,3.1-8.5l6.7,0.4c0.4,2.3,0.2,4.7-0.7,7.1
		C209.5,167.1,208.1,169.2,206.1,171.2z M185.7,152.3c-1.3,1.3-1.9,2.7-1.8,4.4c0.1,1.7,0.8,3.4,2.2,5.2l8.9-8.9l-0.5-0.5
		c-1.5-1.4-2.9-2.1-4.5-2.2C188.5,150.2,187,150.9,185.7,152.3z"/>
	<path class="st0" d="M206,146.1c-3.7-3.7-5.9-7.6-6.4-11.5c-0.5-3.9,0.6-7.3,3.6-10.2c2.3-2.3,5.1-3.4,8.4-3.2l-12.2-12.2l6.4-6.4
		l34.1,34.1l-5.8,5.8l-2.9-2.2c0.4,3.6-0.7,6.6-3.2,9.2c-2.8,2.8-6.2,4-10.1,3.5C213.9,152.3,210,150.1,206,146.1z M212.9,140.2
		c2.2,2.2,4.4,3.6,6.3,4c2,0.4,3.7-0.1,5.2-1.6c2-2,2.5-4.2,1.7-6.7l-9.5-9.5c-2.5-0.9-4.7-0.3-6.7,1.6
		C206.9,131.1,207.9,135.2,212.9,140.2z"/>
	<path class="st0" d="M252.2,124.2l-6.7,6.7l-32.3-32.3l6.7-6.7L252.2,124.2z"/>
	<path class="st0" d="M239.9,88.6l3,2.6c-0.4-3.9,0.8-7.2,3.7-10.1c2.5-2.5,5.2-3.7,7.9-3.4c2.7,0.3,5.6,1.8,8.6,4.8l15.5,15.5
		l-6.4,6.4L256.8,89c-1.4-1.4-2.6-2.1-3.8-2.1c-1.2,0-2.5,0.7-3.9,2c-1.8,1.8-2.4,3.9-1.8,6.4l16.9,16.9l-6.4,6.4l-24-24L239.9,88.6
		z"/>
</g>
</svg>
