<?xml version="1.0" encoding="utf-8"?>
<!-- Generator: Adobe Illustrator 23.0.2, SVG Export Plug-In . SVG Version: 6.00 Build 0)  -->
<svg version="1.1" id="Layer_1" xmlns="http://www.w3.org/2000/svg" xmlns:xlink="http://www.w3.org/1999/xlink" x="0px" y="0px"
	 viewBox="0 0 400 400" style="enable-background:new 0 0 400 400;" xml:space="preserve">
<rect x="2104.8" y="1398.9" style="fill:none;" width="9" height="6.8"/>
<text transform="matrix(1 0 0 1 2104.8293 1405.5763)" style="font-family:'JuggerRockExpanded'; font-size:12px;">L</text>
<g>
	<path d="M54.9,181.8l-5.3,5.3l11.8,11.8l-6.7,6.7l-32.3-32.3l12-12c3.8-3.8,7.6-5.9,11.4-6.3c3.8-0.4,7.2,1,10.3,4.1
		c2.2,2.2,3.6,4.5,4.1,6.9c0.5,2.4,0.2,5-0.8,7.8l20.2,6.2l0.3,0.3l-7.1,7.1L54.9,181.8z M44.2,181.7l5.4-5.4
		c1.7-1.7,2.5-3.4,2.6-5.2c0.1-1.8-0.6-3.4-2.1-4.9c-1.5-1.5-3.2-2.3-4.9-2.3c-1.7,0-3.5,0.9-5.3,2.7l-5.3,5.3L44.2,181.7z"/>
	<path d="M94.8,166.4c-3.5,3.5-7.5,5.3-11.8,5.4c-4.4,0.1-8.3-1.7-11.9-5.3l-0.6-0.6c-2.4-2.4-4.1-5-5.1-7.9c-1-2.8-1.1-5.6-0.4-8.3
		c0.7-2.7,2.1-5.2,4.3-7.4c3.3-3.3,6.9-4.8,10.9-4.6c4,0.2,7.8,2.2,11.6,6l2.6,2.6L79,161.5c1.8,1.4,3.7,2,5.6,1.9
		c2-0.1,3.8-0.9,5.4-2.5c2.5-2.5,3.5-5.3,3.1-8.5l6.7,0.4c0.4,2.3,0.2,4.7-0.7,7.1C98.2,162.2,96.8,164.4,94.8,166.4z M74.4,147.4
		c-1.3,1.3-1.9,2.7-1.8,4.4c0.1,1.7,0.8,3.4,2.2,5.2l8.9-8.9l-0.5-0.5c-1.5-1.4-2.9-2.1-4.5-2.2C77.2,145.4,75.7,146.1,74.4,147.4z"
		/>
	<path d="M114.2,132.8c-0.8-0.8-1.8-1-3-0.7c-1.2,0.3-2.9,1.2-4.9,2.5c-6.9,4.5-12.2,4.9-15.8,1.3c-2.1-2.1-3-4.8-2.7-8
		s1.9-6.2,4.8-9.1c3-3,6.2-4.8,9.5-5.2c3.3-0.4,6,0.6,8.3,2.8l-6.4,6.4c-0.9-0.9-2-1.4-3.2-1.4c-1.2,0-2.4,0.6-3.7,1.9
		c-1.1,1.1-1.7,2.2-1.8,3.2c-0.1,1.1,0.2,2,1,2.7c0.7,0.7,1.6,0.9,2.7,0.7c1.1-0.2,2.6-1,4.5-2.3c1.9-1.3,3.6-2.3,5.1-3
		c4.6-2.1,8.5-1.7,11.5,1.4c2.2,2.2,3,4.9,2.5,8.1c-0.5,3.2-2.3,6.3-5.2,9.3c-2,2-4.2,3.4-6.4,4.3c-2.3,0.8-4.5,1.1-6.6,0.7
		c-2.1-0.4-3.9-1.3-5.4-2.7l6.1-6.1c1.2,1.1,2.5,1.5,3.9,1.4c1.4-0.2,2.7-0.9,4.1-2.2c1.2-1.2,1.9-2.4,2.1-3.5
		C115.3,134.5,115,133.6,114.2,132.8z"/>
	<path d="M143.1,112.3c0.3,3.5-0.9,6.7-3.7,9.4c-2.6,2.6-5.3,3.8-8.1,3.7c-2.8-0.1-5.7-1.6-8.6-4.4l-15.7-15.7l6.4-6.4l15.5,15.5
		c2.5,2.5,4.9,2.6,7.2,0.3c2.2-2.2,2.9-4.4,2.2-6.7l-17-17l6.4-6.4l24,24l-6,6L143.1,112.3z"/>
	<path d="M138.6,73.7l2.9,2.5c-0.4-3.8,0.9-7.1,3.8-10c3.1-3.1,6.4-4,10-2.7c-0.8-4.1,0.4-7.7,3.5-10.9c2.6-2.6,5.3-3.8,8.1-3.5
		c2.8,0.2,5.7,1.9,8.7,4.9L191,69.3l-6.4,6.4l-15.3-15.3c-1.4-1.4-2.6-2.1-3.8-2.2c-1.2-0.1-2.4,0.5-3.8,1.9
		c-1.9,1.9-2.3,4.2-1.2,6.7L177,83.3l-6.4,6.4l-15.3-15.3c-1.4-1.4-2.7-2.1-3.8-2.2c-1.2-0.1-2.4,0.5-3.7,1.9
		c-1.8,1.8-2.4,3.9-1.7,6.2l17,17l-6.4,6.4l-24-24L138.6,73.7z"/>
	<path d="M207.4,53.8c-3.5,3.5-7.5,5.3-11.8,5.4c-4.4,0.1-8.3-1.7-11.9-5.3l-0.6-0.6c-2.4-2.4-4.1-5-5.1-7.9c-1-2.8-1.1-5.6-0.4-8.3
		c0.7-2.7,2.1-5.2,4.3-7.4c3.3-3.3,6.9-4.8,10.9-4.6c4,0.2,7.8,2.2,11.6,6l2.6,2.6l-15.3,15.3c1.8,1.4,3.7,2,5.6,1.9
		c2-0.1,3.8-0.9,5.4-2.5c2.5-2.5,3.5-5.3,3.1-8.5l6.7,0.4c0.4,2.3,0.2,4.7-0.7,7.1C210.8,49.6,209.4,51.8,207.4,53.8z M187,34.8
		c-1.3,1.3-1.9,2.7-1.8,4.4c0.1,1.7,0.8,3.4,2.2,5.2l8.9-8.9l-0.5-0.5c-1.5-1.4-2.9-2.1-4.5-2.2C189.8,32.8,188.3,33.5,187,34.8z"/>
</g>
</svg>
