<?xml version="1.0" encoding="utf-8"?>
<!-- Generator: Adobe Illustrator 23.0.2, SVG Export Plug-In . SVG Version: 6.00 Build 0)  -->
<svg version="1.1" id="Layer_1" xmlns="http://www.w3.org/2000/svg" xmlns:xlink="http://www.w3.org/1999/xlink" x="0px" y="0px"
	 viewBox="0 0 356 356" style="enable-background:new 0 0 356 356;" xml:space="preserve">
<style type="text/css">
	.st0{fill:#470274;}
	.st1{fill:#FFFFFF;}
</style>
<g>
	<g>
		<rect class="st0" width="356" height="356"/>
	</g>
</g>
<path class="st1" d="M105.9,82.7l31.9,54.5c1.6-21.2,19.3-38,40.9-38.1h83.6C235.4,43.6,153.8,24.2,105.9,82.7z M165.5,232.3
	l32.1-55.3c-5.6,2.9-11.9,4.5-18.7,4.5c-17.8,0-33-11.3-38.7-27.2l-38.5-65.8C60,154.8,107.5,225.3,165.5,232.3z M215.1,160
	l-42.4,73.1c80.3,2.4,114.5-75.1,92.5-127.3h-63.9C223.6,121.5,222.9,145.5,215.1,160z M161.6,170.2c-23-13.3-23-46.6,0-59.8
	s51.9,3.4,51.9,29.9S184.6,183.5,161.6,170.2z"/>
<g>
	<path class="st1" d="M73.6,295.1c-1.6,0.8-4.9,1.6-9,1.6c-9.6,0-16.9-6.1-16.9-17.3c0-10.7,7.3-18,17.9-18c4.3,0,7,0.9,8.1,1.5
		l-1.1,3.6c-1.7-0.8-4.1-1.4-6.9-1.4c-8,0-13.3,5.1-13.3,14.1c0,8.4,4.8,13.8,13.1,13.8c2.7,0,5.4-0.6,7.2-1.4L73.6,295.1z"/>
	<path class="st1" d="M79,260.2h4.5v15.3h0.1c0.7-1.3,1.8-2.4,3.2-3.1c1.3-0.8,2.9-1.3,4.6-1.3c3.3,0,8.6,2,8.6,10.5v14.6h-4.5
		v-14.1c0-4-1.5-7.3-5.7-7.3c-2.9,0-5.2,2-6,4.5c-0.3,0.6-0.3,1.3-0.3,2.1v14.8H79V260.2z"/>
	<path class="st1" d="M107.1,279.3c0-2.9-0.1-5.4-0.2-7.7h3.9l0.2,4.8h0.2c1.1-3.3,3.8-5.4,6.8-5.4c0.5,0,0.9,0.1,1.3,0.2v4.2
		c-0.5-0.1-0.9-0.2-1.5-0.2c-3.1,0-5.4,2.4-6,5.7c-0.1,0.6-0.2,1.3-0.2,2.1v13.1h-4.4v-16.8H107.1z"/>
	<path class="st1" d="M145.4,283.7c0,9.1-6.3,13-12.2,13c-6.6,0-11.8-4.9-11.8-12.6c0-8.2,5.4-13,12.2-13
		C140.7,271.1,145.4,276.2,145.4,283.7z M125.9,284c0,5.4,3.1,9.4,7.5,9.4c4.3,0,7.5-4,7.5-9.5c0-4.2-2.1-9.4-7.4-9.4
		C128.2,274.4,125.9,279.3,125.9,284z"/>
	<path class="st1" d="M151.1,278.3c0-2.5-0.1-4.6-0.2-6.6h3.9l0.2,4h0.2c1.4-2.3,3.7-4.5,7.7-4.5c3.3,0,5.9,2,7,4.9h0.1
		c0.8-1.4,1.7-2.4,2.7-3.2c1.5-1.1,3.1-1.7,5.4-1.7c3.2,0,8.1,2.1,8.1,10.7v14.5h-4.4v-13.9c0-4.7-1.7-7.6-5.3-7.6
		c-2.5,0-4.5,1.9-5.3,4.1c-0.2,0.6-0.4,1.4-0.4,2.2v15.2h-4.4v-14.7c0-3.9-1.7-6.8-5.1-6.8c-2.8,0-4.8,2.2-5.5,4.5
		c-0.3,0.7-0.4,1.4-0.4,2.2v14.8H151L151.1,278.3L151.1,278.3z"/>
	<path class="st1" d="M195.9,284.7c0.1,6,4,8.5,8.4,8.5c3.2,0,5.1-0.6,6.8-1.3l0.8,3.2c-1.6,0.7-4.3,1.5-8.2,1.5
		c-7.6,0-12.1-5-12.1-12.4S196,271,203.1,271c8,0,10.1,7.1,10.1,11.6c0,0.9-0.1,1.6-0.2,2.1L195.9,284.7L195.9,284.7z M209,281.5
		c0.1-2.8-1.2-7.3-6.2-7.3c-4.5,0-6.5,4.2-6.9,7.3H209z"/>
	<path class="st1" d="M253.6,295.1c-1.6,0.8-4.9,1.6-9,1.6c-9.6,0-16.9-6.1-16.9-17.3c0-10.7,7.3-18,17.9-18c4.3,0,7,0.9,8.1,1.5
		l-1.1,3.6c-1.7-0.8-4.1-1.4-6.9-1.4c-8,0-13.3,5.1-13.3,14.1c0,8.4,4.8,13.8,13.1,13.8c2.7,0,5.4-0.6,7.2-1.4L253.6,295.1z"/>
	<path class="st1" d="M259.1,262.5c2.2-0.5,5.4-0.7,8.5-0.7c4.7,0,7.8,0.9,9.9,2.8c1.7,1.5,2.7,3.9,2.7,6.5c0,4.5-2.8,7.5-6.4,8.7
		v0.2c2.6,0.9,4.2,3.3,5,6.9c1.1,4.8,1.9,8.1,2.6,9.4h-4.6c-0.6-1-1.3-3.9-2.3-8.2c-1-4.7-2.8-6.5-6.9-6.6h-4.2v14.8H259
		L259.1,262.5L259.1,262.5z M263.6,278h4.5c4.7,0,7.7-2.6,7.7-6.5c0-4.4-3.2-6.3-7.9-6.4c-2.1,0-3.7,0.2-4.4,0.4L263.6,278
		L263.6,278z"/>
	<path class="st1" d="M305.4,296.2l-4.4-7.6c-1.8-2.9-2.9-4.8-4-6.8l0,0c-1,2-1.9,3.8-3.7,6.8l-4.1,7.5h-5.1l10.5-17.3l-10-16.9h5.1
		l4.5,8c1.3,2.2,2.2,4,3.1,5.8h0.2c1-2,1.8-3.6,3.1-5.8l4.7-8h5.1L300,278.5l10.7,17.6L305.4,296.2L305.4,296.2z"/>
</g>
</svg>
