<?xml version="1.0" encoding="utf-8"?>
<!-- Generator: Adobe Illustrator 23.0.2, SVG Export Plug-In . SVG Version: 6.00 Build 0)  -->
<svg version="1.1" id="Layer_1" xmlns="http://www.w3.org/2000/svg" xmlns:xlink="http://www.w3.org/1999/xlink" x="0px" y="0px"
	 viewBox="0 0 356 356" style="enable-background:new 0 0 356 356;" xml:space="preserve">
<style type="text/css">
	.st0{fill:#FFFFFF;}
</style>
<g>
	<rect width="356" height="356"/>
</g>
<g>
	<path class="st0" d="M38.9,198.6v-57.5h38.2v4.6H44.4v20.8H74v4.6H44.4V194H78v4.6H38.9z"/>
	<path class="st0" d="M101.4,180.7l-12.9,17.9h-5.8l15.9-21.4l-14.6-20h5.9l11.4,16.4l11.7-16.4h6.1l-14.9,20l15.5,21.4h-5.7
		L101.4,180.7z"/>
	<path class="st0" d="M132.3,214.9h-4.8v-57.6h4.8v7.3h0.2c0.7-1.3,1.6-2.5,2.7-3.6c1.1-1.1,2.3-1.9,3.6-2.6c1.3-0.7,2.6-1.2,4-1.6
		c1.4-0.4,2.7-0.6,4.1-0.6c3.4,0,6.2,0.6,8.5,1.7c2.3,1.1,4.3,2.6,5.8,4.6c1.5,1.9,2.6,4.2,3.3,6.9c0.7,2.7,1,5.5,1,8.5
		c0,2.9-0.4,5.6-1.1,8.3c-0.7,2.7-1.9,5-3.4,7c-1.5,2-3.4,3.6-5.7,4.8c-2.3,1.2-5,1.8-8.2,1.8c-2.9,0-5.7-0.7-8.4-2
		c-2.7-1.3-4.8-3.2-6.3-5.8V214.9z M132.3,178.1c0,2.3,0.3,4.6,1,6.7c0.6,2.1,1.6,3.9,2.8,5.5c1.2,1.6,2.7,2.8,4.4,3.8
		c1.7,0.9,3.7,1.4,5.9,1.4c2.4,0,4.6-0.5,6.4-1.5c1.8-1,3.3-2.3,4.5-4c1.2-1.7,2-3.7,2.6-5.9c0.5-2.3,0.7-4.7,0.6-7.3
		c0-2.6-0.4-4.9-1.1-6.9c-0.7-2-1.7-3.7-3-5.1c-1.3-1.4-2.8-2.4-4.5-3.2c-1.7-0.7-3.6-1.1-5.6-1.1c-2.2,0-4.2,0.5-6,1.4
		c-1.8,0.9-3.2,2.1-4.4,3.7c-1.2,1.6-2.1,3.4-2.7,5.6C132.6,173.3,132.3,175.6,132.3,178.1z"/>
	<path class="st0" d="M180.7,198.6h-4.8v-41.3h4.8v7.7h0.2c1.3-3.3,3-5.6,5.1-6.9c2.1-1.3,4.9-2,8.3-2v5.2c-2.7-0.1-4.9,0.4-6.7,1.3
		c-1.8,0.9-3.2,2.1-4.2,3.7c-1,1.5-1.8,3.4-2.2,5.5c-0.4,2.1-0.6,4.3-0.6,6.6V198.6z"/>
	<path class="st0" d="M205.2,179c0,2.2,0.3,4.4,0.9,6.3c0.6,2,1.4,3.7,2.6,5.2c1.1,1.5,2.6,2.6,4.4,3.5c1.8,0.9,3.8,1.3,6.1,1.3
		c3.1,0,5.8-0.8,8.1-2.5c2.2-1.6,3.7-4,4.5-7h5.3c-0.6,2-1.4,3.8-2.3,5.5c-1,1.7-2.2,3.1-3.6,4.4c-1.4,1.3-3.1,2.2-5.1,2.9
		c-2,0.7-4.3,1-6.9,1c-3.3,0-6.1-0.6-8.5-1.7c-2.4-1.1-4.4-2.6-5.9-4.6c-1.5-1.9-2.7-4.2-3.4-6.9c-0.7-2.6-1.1-5.5-1.1-8.5
		c0-3,0.4-5.9,1.3-8.5c0.9-2.7,2.1-5,3.8-7c1.6-2,3.6-3.6,5.9-4.7c2.3-1.1,5-1.7,8-1.7c5.7,0,10.2,2,13.4,5.9
		c3.2,3.9,4.8,9.6,4.8,17H205.2z M232.2,175c0-2-0.3-3.9-0.8-5.7c-0.6-1.8-1.4-3.3-2.5-4.6c-1.1-1.3-2.5-2.3-4.1-3.1
		c-1.6-0.8-3.5-1.2-5.7-1.2c-2.1,0-4,0.4-5.6,1.2c-1.6,0.8-3,1.9-4.2,3.2c-1.1,1.3-2.1,2.9-2.8,4.6c-0.7,1.8-1.1,3.6-1.4,5.6H232.2z
		"/>
	<path class="st0" d="M249.4,185.7c0.7,3.6,2.1,6.1,4,7.5c1.9,1.5,4.7,2.2,8.3,2.2c1.8,0,3.3-0.2,4.6-0.6c1.3-0.4,2.3-1,3.2-1.7
		c0.8-0.7,1.4-1.5,1.9-2.4c0.4-0.9,0.6-1.9,0.6-2.9c0-2-0.7-3.5-2-4.5c-1.3-1-2.9-1.8-4.9-2.3c-2-0.6-4.1-1-6.4-1.4
		c-2.3-0.4-4.4-1-6.4-1.8c-2-0.8-3.6-1.9-4.9-3.4c-1.3-1.5-2-3.6-2-6.3c0-3.5,1.3-6.3,3.8-8.5c2.5-2.2,6.1-3.3,10.7-3.3
		c4.5,0,8.1,1,10.9,3c2.8,2,4.5,5.3,5.1,10h-4.9c-0.4-3.2-1.6-5.4-3.6-6.7c-2-1.3-4.5-2-7.5-2c-3,0-5.3,0.7-6.9,2
		c-1.6,1.3-2.4,3-2.4,5.1c0,1.9,0.7,3.3,2,4.3c1.3,1,2.9,1.8,4.9,2.4c2,0.6,4.1,1.2,6.4,1.6c2.3,0.5,4.4,1.2,6.4,2
		c2,0.9,3.6,2.1,4.9,3.6c1.3,1.5,2,3.6,2,6.2c0,2-0.4,3.7-1.3,5.2c-0.9,1.5-2,2.8-3.5,3.8c-1.5,1-3.3,1.8-5.3,2.3
		c-2,0.5-4.3,0.8-6.7,0.8c-2.4,0-4.6-0.4-6.5-1.1c-1.9-0.7-3.5-1.7-4.8-3c-1.3-1.3-2.4-2.8-3.1-4.5c-0.7-1.7-1.2-3.5-1.3-5.5H249.4z
		"/>
	<path class="st0" d="M289.4,185.7c0.7,3.6,2.1,6.1,4,7.5c1.9,1.5,4.7,2.2,8.3,2.2c1.8,0,3.3-0.2,4.6-0.6c1.3-0.4,2.3-1,3.2-1.7
		c0.8-0.7,1.4-1.5,1.9-2.4c0.4-0.9,0.6-1.9,0.6-2.9c0-2-0.7-3.5-2-4.5c-1.3-1-2.9-1.8-4.9-2.3c-2-0.6-4.1-1-6.4-1.4
		c-2.3-0.4-4.4-1-6.4-1.8c-2-0.8-3.6-1.9-4.9-3.4c-1.3-1.5-2-3.6-2-6.3c0-3.5,1.3-6.3,3.8-8.5c2.5-2.2,6.1-3.3,10.7-3.3
		c4.5,0,8.1,1,10.9,3c2.8,2,4.5,5.3,5.1,10h-4.9c-0.4-3.2-1.6-5.4-3.6-6.7c-2-1.3-4.5-2-7.5-2c-3,0-5.3,0.7-6.9,2
		c-1.6,1.3-2.4,3-2.4,5.1c0,1.9,0.7,3.3,2,4.3c1.3,1,2.9,1.8,4.9,2.4c2,0.6,4.1,1.2,6.4,1.6c2.3,0.5,4.4,1.2,6.4,2
		c2,0.9,3.6,2.1,4.9,3.6c1.3,1.5,2,3.6,2,6.2c0,2-0.4,3.7-1.3,5.2c-0.9,1.5-2,2.8-3.5,3.8c-1.5,1-3.3,1.8-5.3,2.3
		c-2,0.5-4.3,0.8-6.7,0.8c-2.4,0-4.6-0.4-6.5-1.1c-1.9-0.7-3.5-1.7-4.8-3c-1.3-1.3-2.4-2.8-3.1-4.5c-0.7-1.7-1.2-3.5-1.3-5.5H289.4z
		"/>
</g>
</svg>
