<?xml version="1.0" encoding="utf-8"?>
<!-- Generator: Adobe Illustrator 23.0.2, SVG Export Plug-In . SVG Version: 6.00 Build 0)  -->
<svg version="1.1" id="Layer_1" xmlns="http://www.w3.org/2000/svg" xmlns:xlink="http://www.w3.org/1999/xlink" x="0px" y="0px"
	 viewBox="0 0 742.6 687.7" style="enable-background:new 0 0 742.6 687.7;" xml:space="preserve">
<style type="text/css">
	.st0{fill:#FFFFFF;}
</style>
<path class="st0" d="M190.3,97.2c4.8,0,9.8,0,15.8,0c-5.4,2.4-10,4-14,6.5c-8.5,5.3-16.8,10.9-24.9,16.6
	c-11.1,7.8-22.5,15.4-33,24.1c-15.1,12.5-27,28-35.3,45.8c-4.5,9.7-7.4,20.2-11.6,30c-6.1,14.2-9,28.9-9.5,44.3
	c-0.2,4.7-1.2,9.6-2.6,14.1c-2.2,7.4-7.7,9-13.8,4.1c-5.6-4.5-11.1-9.3-16.4-14.2c-5.9-5.3-12-10.6-17.4-16.4
	c-6.2-6.7-11-14.4-13.4-23.3c-4.5-17-9.1-34-12.9-51.2c-2.3-10.3-1.1-20.9,1.4-31.2c3.4-14.6,7-29.1,13.6-42.6c1.7-3.4,3.8-6.7,6-10
	c-0.5,10.2-0.5,20.3,1.8,30.2c1.4-10,2.8-20,4.1-30c1.2-9.3,2-18.8,7.6-26.9C43.2,56.4,54.4,52.3,67,56.5C80.8,61,88.4,71.3,91.5,85
	c1.2,5.3-1.2,9.8-4.6,13.9c-3.7,4.4-7.1,9.1-10.6,13.7c-0.5,0.7-0.8,1.7-1.5,3.5c1.7-0.6,2.8-0.6,3.4-1.2
	c5.3-5.5,10.9-10.9,15.7-16.9c6.3-7.6,4.6-16,1.1-24.3c-3-7.2-7.8-13-14.2-17.7c4.3-1,5.6-0.5,15.4,5.1c-1.1-1.6-2.1-3.1-2.7-4
	c8-4,16-8.1,23.9-12c-0.8,2.1-2.3,4.7-2.7,7.4c-0.6,3.8-1.3,8-0.4,11.6c1.6,6.5,6.8,9.4,13.5,8.9c1.1-0.1,2.1-0.2,2.8-0.2
	c1.2,3.5,1.8,7.1,3.5,10c4.8,8.2,12.8,11.9,21.8,13.4c22.2,3.5,37.5-13.2,41.1-32.4c1.7-9,1.1-17.8-3.3-26.1
	c-6-11.4-20.2-18.1-32.8-15.3c-4.2,0.9-8.4,2-13.2,3.1c0.7-3.2,1.3-6.1,2-9c-0.3-0.1-0.6-0.3-0.9-0.4c-0.7,1-1.7,1.8-2,2.9
	c-2.2,7.8-4.7,15.6-6.4,23.6c-1.7,8-2.2,16.5-9.2,22.1c-1.8,1.4-4.9,2.2-7.2,1.8c-2.7-0.5-5-3-4.5-6.2c0.5-3.7,1.2-7.6,2.7-11.1
	c3.9-9.1,8.3-17.9,12.4-26.9c4.4-9.7,12.2-14.8,22.1-17.7c4.5-1.3,8.8-1.6,13,0.6c1,0.5,1.7,1.4,3.4,2.7c0.5-1.6,1.1-3.4,1.8-5.5
	c15.6-3.3,31.8-4.1,47.2,3.1c7.7,3.6,15,8.2,22.4,12.5c5,2.9,9.8,6.1,14.6,9.3c1.5,1,2.6,2.6,4.6,4.6c-2.8,0.9-4.7,1.5-6.6,2
	c-9.6,2.6-13.5,7.4-13.6,17.2c0,2.1-0.8,2.4-2.7,2.8c-4.2,0.8-8.5,1.7-12.4,3.3c-5.9,2.5-7.5,2.5-12.3-1.8c-0.8-0.7-1.9-1.1-3.1-1.8
	c-0.3,4.6,4.4,9.1,9.5,9.1c3.2,0,6.6-0.4,9.6-1.6c10.9-4.1,18.3,1.3,20.9,13c2.7,12.1-2,21.4-10.2,29.7c-2.5,2.5-6.2,2.7-9.7,0.6
	c-2.7-1.7-5.2-3.5-7.7-5.4C217.4,92.9,198.1,91.9,190.3,97.2z M52.7,158.8c0-1.7,0.2-2.8,0-3.8c-1.7-8.2-0.2-15.9,2.6-23.7
	c3.6-10.1,6.7-20.4,9.2-30.7c2.4-10-0.1-14.3-9.8-18.6c2-0.6,3.8-1.1,6.2-1.9c-11-4.6-22.5,2.3-23.3,14.3
	c-0.9,13.3-0.8,26.8-0.2,40.1c0.3,5.4,2.7,10.9,5.1,15.9C44.3,154.4,47.4,157.8,52.7,158.8z M110.5,76.4c-1.9,0.2-4.6-0.6-5.4,2.8
	c-2.3,9.9-1.7,19.9,0.1,29.8c1.1,6.3,5.5,8.7,11.5,6.5c2.7-1,5.3-3,7.2-5.1c5.6-6.4,8.1-13.8,4.8-22.1
	C125.5,80.4,119.2,76.7,110.5,76.4z M205.2,47.6c0.4-0.2,0.9-0.4,1.3-0.6c-1-2.1-1.8-4.3-3-6.2c-4.2-6.9-2.5-13.5,1.1-19.9
	c1.9-3.3,5.1-3.6,8.5-3.6c0.9,0,1.9-0.9,2.8-1.4c-0.9-0.6-1.8-1.5-2.8-1.6c-4.4-0.8-9-0.1-11.8,2.9c-2.5,2.6-4.3,6.9-4.4,10.5
	C196.8,35.3,200.8,41.6,205.2,47.6z M169.3,97.2c14,3.5,35-17.6,34.6-35.4c-1.1,1.5-1.8,2.3-2.3,3.2c-1.3,3-2.7,5.9-3.7,9
	c-3.2,9.1-9.9,14.6-18.3,18.5C176.3,94.1,172.9,95.6,169.3,97.2z M72.7,270.7c-5.4,8.9-11.2,3.7-17.6,0.2c4.3,6.6,9.1,8.9,13.6,6.8
	C71.2,276.5,73.1,274.5,72.7,270.7z M225.6,94.7c2,3.7,5.1,5.6,8.9,5.8c3.9,0.2,6.4-2.7,8.9-5.2c-3,0.6-6,2.3-8.8,2.2
	C231.6,97.4,228.6,95.7,225.6,94.7z M70.4,128.7c-0.5-0.2-1.1-0.4-1.6-0.5c-0.6,2.1-1.3,4.2-1.9,6.3c0.5,0.2,1,0.3,1.5,0.5
	C69.1,132.9,69.7,130.8,70.4,128.7z"/>
<path class="st0" d="M276.2,108.2c-3,1.9-6,3.7-9.6,6c0.7-5.8,1-11,2-15.9c0.9-4.5,6.3-7.7,12.7-7.7c7.8,0,15,2.2,21.2,7.2
	c5,4,6.8,14,3.2,20c-4.2,7.1-1.2,13.7,0.8,20.5c0.1,0.3,0.5,0.5,0.8,0.7c0.2,0.1,0.5,0,1.5,0c-0.2-4-0.4-8.1-0.7-12.1
	c0.4-0.1,0.7-0.3,1.1-0.4c3,4.9,6.1,9.8,8.9,14.8c5.8,10,5.8,20.6,1.8,31.1c-5.7,14.8-12,29.5-18,44.2c-6.3,15.5-12.5,31.1-19,46.5
	c-2.8,6.5-5.7,13.1-9.7,18.9c-9.1,13.2-22.4,19.8-38,22.1c-12.4,1.8-24.6,0.9-36.1-4.5c-1.5-0.7-3-1.6-4.3-2.7
	c-2.5-2.2-2.7-4.9-0.2-7.1c3-2.7,6.1-5.7,9.7-7.4c24.3-11.6,40.2-30.9,50.9-55.1c1-2.2,1.9-4.4,3.1-6.6c-0.9,4.1-1.7,8.1-2.8,13.1
	c1.2-1,1.8-1.3,2-1.7c6.3-15.1,7.1-30.6,3.4-46.5c-1.9-8.2-3.4-16.5-5.1-24.7c-1.4-7.1-4.7-12.9-11.1-16.6c-0.6-0.3-1.2-0.5-2.4-0.3
	c1.2,1.6,2.5,3.2,3.7,4.8c-0.1,0.2-0.2,0.3-0.3,0.5c-6.1-3.5-12.4-6.7-18.3-10.5c-3-1.9-3.3-5.6-1.2-8.7c3.6-5.3,8.5-8.7,15-8.6
	c4.3,0.1,8.7,0.7,13,1.1c8.6,0.8,15.6-2.4,21-9c1-1.3,1.4-3,2.1-4.6C277,108.8,276.6,108.5,276.2,108.2z M305.9,170.8
	c-1.1,0.6-1.9,0.8-2.3,1.3c-3.2,4-7,6.1-12.4,6c-2.5-0.1-5.1,1.6-7.6,2.4c0.1,0.4,0.2,0.8,0.4,1.2c3.3-0.3,6.5-0.8,9.8-0.8
	C299.8,181.1,304.4,177.7,305.9,170.8z M269,252.9c-3.1,1.3-5.4,2.6-6.3,5.4c-0.6,2-1.8,2.6-3.8,3.1c-3.3,0.9-6.4,2.6-9.6,4
	c0.2,0.4,0.3,0.8,0.5,1.3c4.5-1.2,9-2.5,13.5-3.8c0.3-0.1,0.6-0.4,0.8-0.7C265.7,259.3,267.2,256.5,269,252.9z"/>
<path class="st0" d="M590.5,197.6c-1.8,0.8-3.3,1.4-4.6,2.2c-0.7,0.4-1.2,1.2-1.8,1.9c0.9,0.3,1.9,1.1,2.7,0.9
	c9.1-1.3,16.2-8.6,16.7-17.8c0.2-4.3-0.5-8.6-1.2-12.9c-0.6-4-1.7-8-2.6-12c-2.5-10.6,1.2-18.9,10-24.7c10.7-7,22.6-10.3,35.5-7.8
	c9.4,1.8,16.8,7.1,23.1,14.1c9.7,10.8,16.6,23.2,18.7,37.7c2.2,14.9-2.3,30.3-17.2,37.8c-9.7,4.9-20.3,6.2-31,4.6
	c-8.9-1.3-17.7-2.6-26,2.2c-1.2,0.7-2.6,1.5-3.2,2.6c-1.2,2.4-0.3,3.9,2.6,3.6c0,3.8-0.3,7.7,0.1,11.5c0.5,4.1,0.3,7.8-3.1,10.5
	c-4,3.1-8.3,3.6-12.9,1.6c-7.2-3.2-12.3-8.8-17.5-14.4c-7.9-8.5-15.6-17.1-23.4-25.6c-6.1-6.7-5.1-12.9,2.1-18.2
	c7.2-5.4,14.3-5.4,22.1-2.1C582.8,194.9,586.3,196.1,590.5,197.6z M676.1,190.5c-3-20.9-12.4-36.7-32.4-45.9c2.2,0,4,0,6.4,0
	c-8.3-4.2-17-2.4-22.2,4.1c-5,6.2-6.6,13.3-5.4,21.1c1.8,11.3,6.9,21.2,15.1,29c6.5,6.2,14.4,9.6,23.5,6.9
	c8.6-2.5,14.1-8.9,18.9-16.1c0.2-0.3-0.2-1-0.4-2C678.2,188.8,677,189.7,676.1,190.5z M597.7,243.7c-0.6,0.3-1.2,0.5-1.7,0.9
	c-0.8,0.5-1.5,1.1-2.2,1.6c0.8,0.4,1.6,1,2.4,1c4.9,0.2,6.9-2,6.2-6.9c-0.9-5.6-2.1-11.3-5.8-15.7c-3.7-4.4-7.5-8.8-11.8-12.6
	c-4.7-4.3-9.9-8.1-16.6-9c-4.6-0.6-9.4,2-10.3,5.9c-0.5,2.1-0.4,4.1,2.3,5.3c0.7-2.1-0.9-5,2.5-5.6
	C563.6,226.7,581,243.7,597.7,243.7z"/>
<path class="st0" d="M543.6,237.8c-2.8,1-5.7,2-8.6,3c-1.2-8.1,2.6-13.8,9.2-14.5c5.1-0.5,8.3,2.1,8.9,7.2c0.2,2,0.2,4.2,1,6
	c0.8,1.8,1.6,4.2,5,2.3c1.4-0.8,4.8,0.8,6.3,2.2c1.1,1.1,1.5,4.2,0.8,5.8c-2.2,5.3-6.2,9.2-11.8,11.1c-3.9,1.4-9-2-9.4-6.1
	c-0.1-0.7,0.8-1.6,1.3-2.3c0.8-1,1.6-1.9,2.5-2.9c-0.3-0.5-0.6-0.9-0.9-1.4c-4.1,1.9-8.5,3.6-12.4,5.9c-7.3,4.3-14.2,9.2-21.4,13.5
	c-6.9,4.1-14.2,7.7-21.2,11.8c-8.3,4.9-16.6,9.9-24.5,15.3c-8.3,5.7-16.5,11.8-24.3,18.2c-5.8,4.8-11.1,10.4-16.5,15.7
	c-0.8,0.8-1.1,2.1-2.1,3.9c1.4-0.5,1.9-0.5,2.2-0.8c3.1-3.4,5.4-1.6,7.9,1c6.6,6.8,6.7,11.3,0.3,18.4c-3.7,4-8.2,6.8-13.5,8
	c-6.3,1.5-11.5-1.3-14.4-7.3c-2-4.3-3.8-8.8-6.2-13c-1-1.9-2.9-3.5-4.8-4.5c-1.7-0.9-3.6-2.4-6.2-0.3c-0.9,0.7-4.7-1.6-6.9-3
	c-7.9-5.1-8.8-13.5-2.2-20.3c4.9-5,11-7.6,18.1-8c5.5-0.4,8.4,3.4,11.8,6.9c-1.7,2.7-3.4,5.5-5.2,8.3c0.3,0.3,0.6,0.6,0.8,0.8
	c1-0.8,2.3-1.3,3.1-2.3c11.5-14.6,27.7-22.6,43.4-31.4c10.3-5.8,20.7-11.3,31.4-16.5c15.4-7.4,31.1-14.3,46.6-21.6
	c4.5-2.1,8.5-5,12.8-7.5C544.1,239,543.9,238.4,543.6,237.8z M396.2,315.5c-0.3,0.5-0.6,1-1,1.5c5.4,0.8,7.7,5,10.6,8.7
	c1.5,1.9,3.2,3.5,5,5.1c0.7,0.6,1.9,0.8,2.9,1.2c-3.9-4.6-7.4-8.9-11.3-12.9C400.9,317.4,398.3,316.6,396.2,315.5z"/>
<path class="st0" d="M438.9,387.2c2.5-3.2,4.8-6.2,7.7-9.9c-4.9,0.3-7.9,2.3-10.6,4.9c-2.7,2.5-5.3,5.4-8.5,7
	c-4.9,2.5-9.8,0.3-14-2.2c-2.9-1.7-5.3-4.5-7.6-7c-2.6-2.9-2.7-7.5-0.1-10.3c2.9-3.1,5.8-6.4,11.1-4.6c2.2,0.8,5.1,0.4,7.5-0.2
	c5.4-1.2,10.7-2.7,16-4.2c1-0.3,1.9-1.1,3.8-2.1c-2.1-0.6-3.2-0.9-4.1-1.1c2-3.7,3.8-7.6,6.2-11.1c1-1.5,3-2.4,4.7-3.2
	c9.3-4.5,18.6-1.4,21.4,7.7c2.6,8.1,0.2,13.3-7.7,14.8c-1.3,0.3-2.6,0.5-3.9,0.9c-5.9,1.8-7.9,5.7-5.6,11.5c0.3,0.7,1.2,1.2,1.9,1.9
	c0.6-0.7,1.3-1.3,1.7-2c0.4-0.8,0.3-1.9,0.6-2.8c1.1-2.5,4.1-2.9,5.6-0.7c7.6,10.9,17.4,19.9,28.2,27.4c7,4.9,15.6,7.4,23.5,10.9
	c1,0.5,2.4,0.4,3.6,0.3c0.7-0.1,1.8-0.9,1.8-1.3c0-0.8-0.6-1.8-1.3-2.2c-1.2-0.8-2.6-1.2-3.9-1.8c2.1-5.3,8.1-9.2,13.5-9
	c6.1,0.3,11,4.3,12.6,11c0.9,3.9,1.2,8.1,1.1,12.2c-0.2,5.8-4.7,9.5-10.3,8.2c-7.2-1.7-12.5,1.1-17,6.1c-0.6,0.7-0.2,2.4-0.3,3.7
	c0.3,0,0.6,0,0.9,0.1c-0.6,1-1.2,2-1.8,3.1c-3.9,6.8-8.4,8.9-16,7.1c-5.7-1.3-10.4-4.4-14.3-8.7c-2.6-3-2-6.1,1.7-7.6
	c3.9-1.5,7.9-3.2,12.2-1.6c0.7,0.3,1.7-0.2,2.5-0.3c-0.3-0.9-0.3-2-0.9-2.5c-3.9-3.6-7.7-7.4-11.9-10.6c-7.2-5.5-14.4-11-22.1-15.8
	c-8-5-16.4-9.1-24.7-13.6C441.4,388.7,440.4,388.1,438.9,387.2z"/>
<path class="st0" d="M412,115.1c-2.1,1.1-3.6,1.9-5.1,2.7c-3.1-10.4-1.4-16.2,10-20.1c4.8-1.6,8.6,0.2,11.3,4.3
	c2.7,4.1,4.7,8.5,1.9,13.5c-2.5,4.5-2.4,7.2,1.1,11.7c0.5-0.9,1-1.6,1.6-2.7c18.4,18.3,29.2,41,38.4,64.7c0.4-0.1,0.8-0.1,1.2-0.2
	c0.6-1.3,1.1-2.6,1.8-4.2c1,0,2.2,0,3.4,0c7.4,0.1,9.9,2.6,9.3,9.9c-0.3,2.9-1.2,6-2.6,8.5c-2.7,5.2-7.3,6.5-12.6,4.2
	c-2-0.9-3.8-2-5.6-3.8c0.9,0,1.9,0.1,2.8,0c0.7-0.1,1.5-0.4,2.2-0.7c-0.4-0.8-0.7-2-1.3-2.2c-1.9-0.5-4.1-1.2-5.9-0.7
	c-4,0.9-7.7,2.8-9.8,6.7c-1.7,3.1-5.3,3.7-8.4,1.6c-4.8-3.3-8.4-13.2-6.5-18.9c0.4-1.2,1.6-2.6,2.8-3c3.5-1.3,9.7,1.9,11.4,5.3
	c0.3,0.6,0.7,1.1,2.2,1.7c0.3-2,0.9-3.9,0.8-5.9c-0.1-6.7-3.5-11.9-7.4-16.9c-7.3-9.4-16.9-16.1-26.8-22.4c-1.6-1-3.3-2-5-3
	c0.2-1.4,0.3-2.8,0.5-4.1c-0.3-0.2-0.6-0.4-0.9-0.6c-1.3,1.2-2.8,2.3-4,3.6c-4.2,4.6-8.3,6-12.7,4.1c-4.1-1.8-7.9-8.2-7.6-12.7
	c0.3-5.3,4.2-10.1,9.1-11.3c1-0.3,2.1-0.4,3.2-0.5C410.2,122.8,411.2,121.7,412,115.1z"/>
<path class="st0" d="M667.4,300.6c3.4,1.1,4.4-1,4.9-3.4c1.5-7.2-0.4-14-3.2-20.4c-2-4.5-5.4-8.4-8.2-12.5c-0.4,0.1-0.8,0.3-1.2,0.4
	c-0.1,0.9-0.3,1.7-0.4,2.6c-4.3-2.3-5.4-5.5-3.2-9.9c2.4-4.8,6.7-7.8,11.4-9.5c8.7-3.3,17.5-6.2,26.5-8.5c8.8-2.3,12.2,0.7,13.1,9.8
	c0.2,2.5,0.8,5,1.3,7.9c-2.3,0.3-4.6,0.6-7.1,1c0.8,2.9,2.9,3.3,5.1,3.4c6,0.2,11.2-1.6,15.3-6.1c2-2.2,3.5-2,5.3,0.1
	c2.2,2.6,4.5,5.2,3.2,9c-1.4,3.9-5.3,6.4-9.6,6.2c-2.4-0.1-4.8-0.5-7.1-1.1c-4.3-1.1-11,3-11.3,7.3c-0.1,1.8,1,2.8,2.8,1.8
	c1.4-0.8,2.6-1.7,3.9-2.6c1.9-1.2,3-0.8,3.1,1.5c0.1,4.8,1.6,8.9,4.6,12.6c2.7,3.4,1.6,7.1-3,8.4c-7,2.1-14.2,3.7-21.4,5.1
	c-5.4,1.1-11,1.5-16.5,2.2C670.9,306.8,667.9,305,667.4,300.6z M669.5,255.2c10.5-4,20.5-7.8,30.7-11.6
	C694.3,240.8,674,248.2,669.5,255.2z"/>
<path class="st0" d="M716.2,335.6c5.1,2.9,9.8,2.6,14.6,1c1.6-0.5,3.1-1.3,4.7-1.9c3.3-1.3,5.7-0.3,6.7,3c1.1,3.6-0.3,8.8-3.1,10.9
	c-2.8,2.2-8.7,2.6-11.6,0.3c-2-1.6-3.7-1.4-5.6-0.5c-1.9,0.9-3.8,1.7-5.4,2.8c-1,0.7-1.5,2.2-2.2,3.3c1.2,0.4,2.4,0.8,3.6,1.2
	c0.3,0.1,0.7,0,0.3,0c0.7,3.6,1.6,7,1.9,10.4c0.1,1.1-1.1,2.8-2.2,3.3c-8.7,4.1-18.1,5.2-27.5,4c-6.9-0.9-13.7-2.6-20.5-4.1
	c-1.2-0.2-2.3-0.7-3.3-1.3c-3-1.7-3-2.5,0-5.1c1.6,3,2.9,2.7,4.6-0.2c4.6-8,6-16.2,2.5-24.9c-1-2.5-2-4.9-3.2-7.3
	c-1.5-3.1,0.4-7.2,4.1-7.8c9.9-1.6,19.7-3.1,29.7-4.4c4.8-0.6,9.6-0.9,14.4-0.7c8.2,0.2,10.2,3.1,7.5,10.8c-0.7,2,1.1,5.1-2.2,5.9
	c-2.1,0.5-4.3,0.4-6.4,0.6C717.3,334.8,717.1,335,716.2,335.6z M684.1,326.6c0.1,0.4,0.1,0.8,0.2,1.1c8.9-1.4,17.9-2.8,26.8-4.2
	c-0.1-0.3-0.1-0.7-0.2-1C701.8,322.4,692.8,323.5,684.1,326.6z M677.7,364.9c4.9,3.7,20.4,5.4,25.2,2.9
	C694.4,366.8,686.5,365.9,677.7,364.9z"/>
<path class="st0" d="M668.4,430.7c2.9-6.5,2.9-12.6,1.4-18.9c-0.1-0.6-0.4-1.3-0.1-1.8c2.9-5,0.1-8.6-3-12.2
	c-0.5-0.5-0.9-1.1-1.5-1.6c-5.8-5.7-2.6-7.3,2.4-8.8c3.5-1.1,7.4-1.4,11.1-1.2c8.2,0.4,16.3,1.6,24.5,1.9c6.1,0.3,12.3-0.2,18.4-0.4
	c4.2-0.1,5.2,1.4,3.6,5.3c-0.1,0.2-0.2,0.4-0.3,0.7c-2,4.1-2.8,9.5-9.9,6.7c0.6,3.4,2.6,4.5,4.9,4.7c2.4,0.2,4.8-0.2,7.2-0.5
	c1.2-0.1,2.3-0.7,3.5-1c3.1-0.6,6.5-2.4,8.6,1.7c1.9,3.6,0.8,9-2.2,11.6c-3.2,2.7-6.7,3.1-10.5,1.5c-2.2-1-4.4-2.2-6.7-2.6
	c-1.6-0.3-3.7,0-5.2,0.8c-1.3,0.6-2.2,2.2-3.2,3.4c1.4,0.2,2.7,0.8,4.1,0.7c2.7-0.3,3.7,0.7,3.7,3.4c0,5.1-1,6.7-6,7.9
	c-2.6,0.6-5.2,1.1-7.8,1c-9.7-0.1-19.3-0.2-29-0.6C673.8,432.4,671.3,431.4,668.4,430.7z M699.4,427.1c-6.6,0-13.1,0-19.7,0
	C684.7,429.8,695.3,429.8,699.4,427.1z"/>
<path class="st0" d="M709.6,463.2c-1.2-0.1-2.7-0.3-4.4-0.5c1.7,4.1,6.7,6.6,11.8,6c1.9-0.2,3.8-0.7,5.7-1c3-0.6,6,0.2,7.1,3
	c0.9,2.4,1.2,5.9,0.1,7.8c-1.8,3-4.8,5.3-7.8,7.3c-1.1,0.8-3.6,0.3-5-0.5c-2.8-1.4-5.2-3.5-7.8-5.3c-3.6-2.5-7.4-2.6-11.3-0.7
	c-0.7,0.4-1.2,1.3-1.8,2c0.8,0.5,1.6,1.3,2.5,1.6c1.1,0.4,2.3,0.3,3.4,0.4c-0.3,2.5-0.7,4.6-0.8,6.7c-0.1,4-1.1,5.2-5.1,5.4
	c-1.8,0.1-3.6-0.1-5.4-0.6c-8-2.2-16-4.4-24-6.8c-1.6-0.5-3.1-1.6-5.4-2.9c5.3-1.2,6-4.6,6.1-8.4c0-2.4-0.3-4.8-0.1-7.2
	c0.1-1.2,1.1-2.3,1.4-3.5c0.2-0.9,0.3-2,0-2.9c-1.1-2.9-2.4-5.8-3.6-8.7c-1.8-4.3-0.7-7.2,3.8-7.7c6.3-0.6,12.7-0.4,19.1-0.1
	c7.6,0.4,15.2,1.1,22.7,1.9c5.9,0.7,6.6,2.5,3.2,7.4C712.5,458.2,711.2,460.5,709.6,463.2z M672.6,449.6c0.1,0.4,0.1,0.7,0.2,1.1
	c0.4,0.1,0.9,0.3,1.2,0.2c5.1-1.4,9.9,0.2,14.9,1.4c4.2,1,8.5,1.1,12.8,1.4c1,0.1,2.2-0.7,3.7-1.3c-1-0.6-1.3-1-1.6-1
	c-8.1-1.1-16.2-2.3-24.3-3.2C677.3,448.1,674.9,449.2,672.6,449.6z M688.6,489.3c-6-1.2-10.9-2.2-15.9-3.2
	C675.3,489,685.4,491.2,688.6,489.3z"/>
<path class="st0" d="M419.9,224.2c-0.5-4.7-1.5-8.8-1.3-12.8c0.2-4.4,3.6-7.5,8.4-8.2c4.2-0.6,7.7,0.4,10.5,4.1
	c2.1,2.7,2.4,4.8,0.9,8c-2,4.1-0.6,8.2,2.2,11.8c2.4-2.4,6.3-2.7,9.2-0.7c2.9,2,1.7,4.5,1,7.1c-3,10.2-13.9,11.8-20.6,5.5
	c-1.2-1.2-2.6-2.1-3.9-3.2c-1.4-1.2-2.7-2.2-3.9,0.4c-0.3,0.6-1.5,1-2.4,1.2c-8.1,1.6-16.3,3.2-24.5,4.6c-2.1,0.4-4.4,0.1-7.4,0.1
	c-0.5,1.4-1.3,3.7-2.2,6c-2,4.8-4.1,6.4-8.2,6.1c-4.1-0.3-7.1-3-7.9-7.6c-0.5-2.9-0.7-6-1.1-9c1.5-0.4,2.9-0.8,4.2-1.1
	c0.1-0.5,0.2-1,0.4-1.5c-2.8-1.3-5.5-3.1-8.4-3.8c-3.2-0.8-6.3-1.6-7.3-5c-1.1-3.4,0.1-6.3,2.7-8.8c2.8-2.6,6.1-3.6,9.6-2.4
	c1.2,0.4,2.2,2.1,2.9,3.4c1.6,2.9,1.8,6.5,7.2,5.6c4.1-0.7,8.5,1.8,12.8,1.7c6.3-0.1,12.7-1,18.9-2.1c2.2-0.4,4.2-1.7,6.3,0.5
	C418.3,224.4,419.6,224.2,419.9,224.2z"/>
<path class="st0" d="M687.8,531.7c-1.4-0.4-2.5-0.8-3.6-1.1c-0.3,0.2-0.5,0.5-0.8,0.7c1.1,1.2,1.9,2.9,3.2,3.5
	c3.2,1.3,6.6,2,9.8,3.2c2.2,0.8,5.3,1.7,6.1,3.5c0.7,1.5-0.7,4.6-2,6.4c-5.6,7.5-8.6,5.7-15.1-1.4c-2.7-3-5.6-4.9-9.7-4.3
	c-1,0.2-2,1.1-3,1.7c0.8,0.8,1.5,1.5,2.3,2.3c0.3,0.3,1.2,0.5,1.2,0.7c-0.4,2.7-0.6,5.5-1.6,7.9c-0.4,0.9-2.6,1.9-3.8,1.6
	c-2.7-0.5-5.4-1.5-7.7-2.8c-7.6-4.3-15.1-9-22.7-13.4c-2.9-1.7-3.7-3.9-2.4-6.9c5.7,0.9,8-0.1,10.8-5.2c3.4-6.1,3.9-12.7,2.5-19.5
	c-0.4-2.1-0.5-4.9,0.7-6.3c0.9-1.1,4.1-0.9,5.9-0.3c9.8,3.1,19.5,6.3,29.1,9.7c5.9,2.1,6.6,5.3,3,10.4c-1,1.3-1.6,3-2,4.6
	C687.8,528.1,688,529.8,687.8,531.7z M664.1,548.8c0.4-0.6,0.8-1.1,1.2-1.7c-5.7-3.4-11.5-6.8-17.2-10.2c-0.2,0.3-0.4,0.6-0.6,1
	C653.1,541.5,658.6,545.1,664.1,548.8z"/>
<path class="st0" d="M332.7,61.5c3.2-3.2,3.1-6.7,0.2-9.9c-1.7-1.8-3.7-3.6-4.9-5.7c-2.6-4.9-1.3-9.2,3-11.4
	c5.1-2.6,10.9-1.3,13.2,3.3c1.2,2.3,1.5,5,2.4,7.5c1.1,3,2.3,6,3.9,8.8c0.5,0.9,2.2,1.1,3.3,1.6c0.4-1,0.8-2.1,1.2-3.2
	c1.1-0.3,2.4-0.6,3.7-1c5.5-1.7,6.7-1.6,8.5,3.7c2.1,6.1,3.6,12.5,4.8,18.9c0.8,4.6-3.2,8.3-8.6,8.7c-3.6,0.2-7.3-0.2-10.8,0.5
	c-3.3,0.7-6.6,2.3-9.5,4.1c-7.1,4.4-10.6,3.7-14.7-3.8c-1.4-2.5-3-5.1-3.6-7.9c-1.1-5.4-4-9.7-6.8-14.2c-1.7-2.7-1-4.1,2.3-4.4
	c1.6-0.2,3.2,0,4.7-0.3c1.4-0.3,2.7-1,4.5-1.6C330.4,57.2,331.5,59.3,332.7,61.5z"/>
<path class="st0" d="M648.5,581.6c-0.3-0.3-1-0.8-1.7-1.3c-0.3,0.4-0.7,0.6-0.6,0.7c1.4,5.2,3.7,9.5,9.6,10.9c3.3,0.7,4.4,4.2,2.8,8
	c-1.5,3.6-4.1,4.9-7.1,3c-1.9-1.2-3.7-3.2-4.5-5.2c-1.9-4.8-10.1-8.2-14.8-4.7c1.9,2.9,0.2,5.1-1.8,7c-2.3,2.1-4.5,0.3-6.1-1
	c-6-4.7-11.9-9.5-17.6-14.5c-3.6-3.1-4.3-7.6-2.4-10.5c6.8,2.9,9.5,0.1,14.4-7.2c3-4.4,4.5-9.1,3.3-14.7c-0.8-3.7,1.9-5.8,5.5-4.7
	c2.7,0.8,5.3,2.3,7.5,4c5.8,4.3,11.3,8.9,17,13.3c1.2,1,2.6,1.8,3.7,2.9c3.8,3.5,3.3,7.3-1.3,10C652.6,578.6,650.8,580,648.5,581.6z
	 M609.9,579.9c0.1,3.7,9.1,10.6,14.1,9.2C618.8,585.7,614.3,582.8,609.9,579.9z M630.2,557.1c-0.2,0.4-0.4,0.7-0.5,1.1
	c2.2,3.3,3.7,4,7,2.7C634.1,559.4,632.1,558.2,630.2,557.1z"/>
<path class="st0" d="M581,588.6c5-0.2,11.1,1.1,15.7,5c5.7,4.9,10.5,10.9,15.3,16.8c2.6,3.1,2,4.4-1.7,5.9c-4,1.6-5.4,4.8-5.8,9.5
	c-2.3-2.5-4.1-4.5-6.3-6.8c-1.4,5.1,1,10.2,4.9,11.8c2.5,1,5.1,2,7.6,3.2c2.5,1.2,3.3,3,1.8,5.6c-1.9,3.3-4.9,5-7.3,3.5
	c-2.1-1.3-4.3-3.1-5.3-5.2c-2.1-4.2-6.7-4.5-9.7-7.1c-0.3-0.3-1.6,0.2-2.1,0.7c-0.2,0.2,0.2,1.3,0.5,1.8c0.6,1.1,1.9,2.1,1.8,3.1
	c-0.1,3.2-1.7,4.1-4.9,3.2c-0.6-0.2-1.2-0.3-1.7-0.6c-8-5.4-16-10.7-23.9-16.2c-0.9-0.6-1.6-1.8-2-2.9c-0.3-0.9-0.5-2.4,0-2.9
	c0.7-0.7,2.5-1.4,3.1-0.9c2.8,1.9,4.6-0.2,6.4-1.5c4.5-3.6,7.5-8.4,9.6-13.8C578.3,597.1,579.4,593.4,581,588.6z M582.4,632.5
	c-4.2-5.4-10.8-7.6-16.1-11.6C570.1,626.8,575.4,630.6,582.4,632.5z M586.6,599.7c-0.2,0.3-0.4,0.6-0.7,0.9c1.1,3.1,3.8,4.8,7.9,4
	C591,602.7,588.8,601.2,586.6,599.7z"/>
<path class="st0" d="M473.4,179.2c8.3-12.7,14.7-25.6,18.3-39.7c3.6-14,6.9-28.1,5.8-42.8c-0.5-7.6-2.1-14.6-8.2-20.1
	c-1.1-1-1.2-4.5-0.3-6.2c1.2-2.3,3.4-0.6,4.9,0.5c10.7,7.7,15,18.7,15.5,31.3c0.8,19.1-1.8,37.9-8.1,55.9
	c-2.6,7.5-8.1,14.1-12.5,20.9c-0.6,1-2.8,1.3-4.3,1.4c-2.1,0.1-4.3-0.1-6.5-0.3C476.6,179.8,475.2,179.5,473.4,179.2z"/>
<path class="st0" d="M414.1,84.5c-0.6-2.4-1-4-1.4-5.6c-0.4,0-0.8,0-1.2,0c-0.7,3-1.3,5.9-2,8.9c-1,4.4-2.2,8.4-5.6,11.8
	c-3.6,3.7-4.8,8.6-3,13.8c1.1,3.4,0.4,5.2-3.3,6.5c-5.9,2-9.2,6.6-10.7,12.7c-0.5,2.1-1.7,4.2-3.1,5.8c-3.4,3.9-7.3,7.4-10.5,11.5
	c-2.1,2.8-3.3,6.3-4.8,9.6c-0.8,1.9-1.5,3.9,1.4,5c0.7,0.3,1.1,2.4,0.8,3.5c-0.3,1-1.5,2.2-2.5,2.6c-7.1,2.3-14.3-4.8-13.4-12.2
	c1.1-8.8,7.1-13.9,13.3-18.5c12.6-9.2,20.8-21.3,26-35.7c0.8-2.3,1.7-4.5,2.6-6.7c2.1-5.2,2.2-10.5,0.6-15.9
	c-1.5-5.1-3.3-10.2,0.4-15.2c2.6-3.5,6.2-5.1,10.4-4.7c4.3,0.4,7.3,2.9,8.6,7.2C418.5,74.3,418.5,79.5,414.1,84.5z"/>
<path class="st0" d="M390.5,41.3c0.7,0.3,1.7,1.2,2.6,1.1c0.5,0,1.1-1.6,1.4-2.5c1.4-5.7,0.4-10.6-4.2-14.7c-3.3-3-2.4-6.1,1.8-7.8
	c6.4-2.5,10.5,0,11.1,6.7c0.3,3.4,0.4,6.7,0.6,10.1c0.2,3.2,1.9,4.1,5.4,2.6c-0.3-1-0.6-2.1-0.8-2.9c1.8-1.1,3.5-2.1,5.1-3.1
	c2.3-1.5,5.9,1.3,6.3,4.9c0.2,2-0.1,4.1,0.1,6.1c0.6,5.5,1.3,10.9,1.9,16.4c0.2,1.4,0.3,2.7,0.5,4.1c-0.2,0.2-0.5,0.4-0.7,0.6
	c-4.9-5-10.4-8.3-17.6-6.6c-7.2,1.6-11.3,6.4-14.2,13.7c-1.2-1.6-2.2-2.7-2.8-4c-2.6-5.8-5.4-11.6-7.6-17.5
	c-1.6-4.2-0.2-5.7,4.3-6.1C385.8,42.4,388.1,41.7,390.5,41.3z"/>
<path class="st0" d="M101.8,222.1c-2.4-1.1-4.9-2.2-7.5-3.4c2.1-5.6,4.1-11.1,6.5-16.5c0.3-0.7,2.5-1.1,3.5-0.7
	c2.8,1.2,5.4,2.9,8.1,4.5c0.3-0.4,0.6-0.7,1-1.1c-2-1.8-3.9-3.8-6.1-5.2c-4.5-3.1-4.8-4.4-1.1-9c10.5,7.2,20.9,14.7,29.1,24.7
	c0.8,1,1.4,2.2,2.2,3.3c3.7,5.6,2.5,8.5-4.2,9.1c-7.2,0.7-14.4,1.2-21.7,1.5c-5.7,0.3-11.5,0.3-17.3,0.2c-1.5,0-4,0.2-2.9-2.7
	c0.8-2.2,0.9-5.4,4.6-4.9c1.8,0.3,3.6,0.9,5.4,1.3C101.5,222.9,101.7,222.5,101.8,222.1z"/>
<path class="st0" d="M530.3,634.8c1.2-0.6,2.3-1.6,3.6-1.7c10.3-1.2,18.7,6.1,18.5,15.2c-0.1,3.2,0.1,3.2,5.6,10.7
	c-2.5-0.5-4.2-0.7-5.7-1.3c-2.6-0.9-5-1.1-6.8,1.5c-1.8,2.5-3.4,1.7-4.9-0.2c-0.7-0.9-1.4-1.8-2.1-2.8c-3,3.8-2.1,7.2,2.1,8.8
	c1.9,0.7,4.2,1.4,3.6,3.7c-0.7,2.4-2.4,4.5-3.9,6.6c-0.1,0.2-2.6-0.8-3.1-1.7c-0.8-1.4-0.8-3.2-1.1-4.9c-0.6-3.7-3-5.2-6.9-4.2
	c0.6,1.2,1.1,2.3,1.5,3.1c-1.4,2.6-2.6,5-4.2,8c-5.1-7.3-10.1-14.2-14.8-21.2c-0.6-0.9-0.2-2.6-0.2-4c1.5,0,3.3-0.6,4.4,0
	c2.9,1.8,4.5-0.8,6.6-1.6c4.2-1.7,7.7-4.4,9.6-8.8c0.8-2,1.2-3.4-1.8-4C530.2,635.5,530.2,635.2,530.3,634.8z M544.7,646.1
	c-0.5-4.6-2.5-6.4-6.4-5.7C540.4,642.3,542.3,643.9,544.7,646.1z"/>
<path class="st0" d="M500.9,191.9c0.8-0.5,1.3-1.1,1.6-1c3.7,1.4,6.4-1,8.3-3.1c10.8-11.3,19.9-23.9,23.2-39.4
	c2.9-14,3.7-28.2-0.7-42.2c-0.2-0.8-0.5-1.8-0.2-2.5c0.5-1.4,1-3.4,2-3.9c0.9-0.4,3,0.6,3.9,1.5c5.9,6,8,13.7,8.2,21.8
	c0.2,12.3-3.6,23.7-7.7,35.1c-4.7,12.9-12.4,23.6-23.4,31.8c-4,3-8.4,4.9-13.5,2.9C502.1,192.8,501.7,192.4,500.9,191.9z"/>
<path class="st0" d="M452.6,30.8c2.7,0.3,5,0.7,7.4,0.9c3.3,0.3,5.4,2.1,5.2,5.3c-0.2,4.7-0.7,9.3-1.7,13.9c-0.7,3.1-3.9,4-7.8,2.5
	c-1.9-0.7-3.8-1.7-5.7-2.4c-3.8-1.5-7.2-1.1-10.5,1.5c-4,3.2-6.5,2.3-7.6-2.7c-1.2-5.7-2-11.5-3-17.6c3,0.1,5.6-2.2,7.2,1.4
	c0.1,0.2,1.9,0,2.3-0.5c2.7-3.2,2.6-10.3-0.2-13.5c-1.7-2-3.4-4.1-0.8-6.5c2.3-2,6.5-1.2,8.3,1.3c2.4,3.3,2.5,7.1,2.4,11.1
	c-0.1,2.6,0.3,5.2,1,7.7c0.2,0.9,1.9,1.5,2.8,2.2c0.2-1.1,0.4-2.2,0.6-3.4C452.6,31.7,452.6,31.3,452.6,30.8z"/>
<path class="st0" d="M459,150.2c-2.9-4.1-6-8.1-8.4-12.5c-0.8-1.5,0-4.2,0.5-6.2c1.3-5,2.8-10,4.4-14.9c3.5-10.6,0.4-20.6-2.8-30.4
	c-1-3-4-5.4-5.7-8.2c-0.9-1.5-0.9-3.4-1.3-5.2c1.8-0.4,3.7-1.4,5.3-1c4.8,1.2,8.4,4.4,9.9,9.3c5.4,17.4,9.7,34.9,4,53.2
	c-1.6,5.2-3.1,10.6-4.6,15.8C459.9,150.2,459.5,150.2,459,150.2z"/>
<path class="st0" d="M444.2,492.2c9.3,3.3,16.9-2.7,25-6.4c3.5-1.6,7.1-3.2,10.3-5.3c4.1-2.8,8-6.1,11.7-9.4
	c2.1-1.9,3.8-4.4,5.8-6.5c1.7-1.8,6-0.3,6.8,2c1.2,3.8,2.7,7.4,3.7,11.2c0.4,1.5,0,4.5-0.6,4.7c-1.8,0.5-4.7,0.7-5.8-0.4
	c-1.7-1.8-3.2-2-5.1-1.2c-5.1,2-10.3,3.7-14.9,7c-4.9,3.5-10.5,5.9-15.5,9.3c-3.3,2.2-6.2,5.2-9.2,7.9c-1.6,1.4-3,3.2-4.7,4.5
	c-2.7,2.2-5.8,2.1-8.1-0.4c-2.2-2.3-4.3-5-5.7-7.8C435.7,496.8,438.9,492,444.2,492.2z"/>
<path class="st0" d="M314.8,108.5c-0.5-1-1.1-2-1.4-3.1c-2.5-10-9.7-15.2-18.9-18c-3.9-1.2-8-1.6-12.1-2.1
	c-3.2-0.4-8.4-7.2-7.4-10.2c0.3-0.9,1.9-1.8,3-1.9c3.1-0.1,3.7-1.9,3.3-4.3c-0.6-3.3-1.6-6.2-5-7.9c-3.9-2-4.1-3.7-0.9-6.8
	c0.9-0.9,2-1.8,3.1-2.4c2.6-1.4,4.5-0.6,5.2,2.3c0.5,2.1,0.4,4.4,1.2,6.4c0.9,2.1,2.2,4.2,3.8,5.8c2.1,2,4.3,1.8,6.5-0.6
	c4.2-4.5,7.5-3.6,9.3,2.3c3.8,12.3,7.7,24.6,11.5,36.9c0.3,1.1,0.2,2.3,0.3,3.5C315.7,108.3,315.3,108.4,314.8,108.5z"/>
<path class="st0" d="M358,468.6c-1.3-0.5-2.5-1-3.8-1.5c3.3-1.5,6.5-3.1,9.8-4.6c3.1-1.4,5.4-0.1,6.5,2.6c2.8,6.9,2.8,14.1,2.5,21.4
	c-0.1,2.2-3.1,3.4-4.2,1.8c-3.5-5-8.4-3.6-12.3-2.1c-6,2.3-11.6,5.8-17.2,8.9c-2.8,1.6-5.7,4.2-8.8,1.8c-3.2-2.4-1.9-6.1-0.9-9.4
	c3.6-12,11.7-17.8,24.1-17.7c1.2,0,2.4-0.2,3.6-0.4C357.4,469.5,357.5,469.2,358,468.6z M334.1,494.8c3.7-5.3,9.3-6.9,15-8.6
	c2.4-0.7,4.8-1.5,7.2-2.5c0.8-0.3,1.5-1.1,2.9-2.1C346.8,481.7,334.8,487.9,334.1,494.8z"/>
<path class="st0" d="M134.3,173.4c-3.7-2.9-7.5-5.8-11-8.6c0.1-0.6,0.1-0.8,0.2-0.9c1.8-1.8,3.3-4.6,5.3-5c1.6-0.3,3.7,2.4,6.3,3.4
	c-0.4-0.8-0.8-1.7-1.3-2.4c-3.2-4.1-3-4.7,1.8-7.8c2.8,3.4,5.5,6.9,8.5,10.2c4.3,5,9,9.7,13.1,14.8c3.3,4,2,7.1-3.1,7.6
	c-3.5,0.4-7.2-0.1-10.8-0.5c-9.2-1.1-18.4-2.4-27.6-3.7c-2.6-0.4-3.4-1.5-1.7-3.9c1.6-2.1,3-4.4,4.4-6.6c1.6-2.6,3.3-2.9,5.9-1
	c2.9,2.1,6.3,3.7,9.4,5.5C133.9,174.1,134.1,173.8,134.3,173.4z"/>
<path class="st0" d="M82.3,272.7c-0.1-3.6,1.1-5.2,4.7-4.5c1.5,0.3,3.2,0.2,4.7-0.1c3.1-0.7,6.2-1.6,9.4-3.2
	c-1.1-0.2-2.1-0.4-3.2-0.4c-3.7,0-7.5,0.1-11.2,0.2c-2.6,0.1-3.9-0.9-3.3-3.7c0.6-2.7,1.1-5.4,1.5-8.2c0.3-2.4,1.3-2.8,3.4-2
	c2.3,0.8,4.7,1.3,7.1,2c0.1-0.4,0.3-0.8,0.4-1.1c-2.3-1.3-4.7-2.6-7-3.8c-3.3-1.7-3.3-1.6-2.1-5.7c2,0.8,4,1.5,5.9,2.3
	c8.6,3.7,17.2,7.4,26.7,8.7c2.7,0.4,5.3,2.1,7.8,3.5c2.4,1.4,2.1,3.2,0.4,5.1c-3.3,3.8-8.1,4.9-12.6,5.9
	c-10.4,2.1-20.8,3.7-31.3,5.4C83.2,272.9,82.8,272.8,82.3,272.7z"/>
<path class="st0" d="M479.6,468.8c-6,1.5-15.1,3.6-24.2,6c-5.2,1.3-10.3,3.3-15.6,4.3c-1.9,0.4-5.6-0.7-6.2-2.1
	c-1.7-4.1-2.4-8.7-3-13.1c-0.3-2.1,1.1-4.2,3.6-4c2.3,0.2,5.1-0.3,6.3,2.9c0.3,0.8,2.3,1.6,3.4,1.5c9.2-1.1,18.4-2.2,27.6-3.6
	c3.4-0.5,6.7-1.9,9.9-3.1c2.1-0.8,3.7-2.1,3.1-4.9c-0.4-2.1,0.8-3.1,2.8-1.5c1.9,1.4,4.2,2.7,5.3,4.6
	C495.7,461.4,490,468.9,479.6,468.8z"/>
<path class="st0" d="M506.6,43.9c10.5-2,11.1,4.1,9.8,11.6c-0.5,2.8-2,5.6-3.7,8.1c-1.5,2.2-4,2.7-6.3,0.8c-2.7-2.2-5.5-4.3-7.9-6.8
	c-2.7-2.7-5.7-3.8-9.4-3.7c-7.3,0.1-9.8-2.5-9.7-9.9c0-1.2,0.3-2.4,0.5-3.6c0.4-2.2,0.8-4.9,3.5-4.7c2.3,0.2,5.9-0.8,6.3,3.5
	c0,0.1,2.8,0.5,3,0.1c1.1-2,1.9-4.1,2.5-6.3c0.4-1.2,0.2-2.6,0.3-4c0.5-3.3,2.3-4.9,5-4.4c3.2,0.7,5.3,3.8,4.3,6.8
	c-1,2.7-2.4,5.2-3.5,7.9c-0.5,1.2-0.9,2.8-0.5,3.8c0.5,1.3,1.8,2.4,3,3C504.4,46.2,505.7,44.7,506.6,43.9z"/>
<path class="st0" d="M382.9,425.4c0.3-4.2,4-4.6,6.5-4.8c2.7-0.2,5.9,1,8.2,2.5c1.6,1.1,2.5,3.7-0.6,5.5c-1.4,0.8-2.4,3-2.8,4.7
	c-0.6,2.7-0.2,5.6-0.9,8.2c-0.3,1.5-2.1,3.9-2.8,3.7c-1.9-0.5-5-1.9-5.1-3.1c-0.2-5.5-4.5-5.9-8-6.6c-4.4-0.9-8.9-0.1-12.9,2.4
	c-2,1.3-4.2,2.5-6.5,3c-2.1,0.5-5.5,0.8-6.5-0.4c-1.3-1.6-1.8-5-1-7c3.8-10.1,8.1-14.4,19.6-11.8
	C374.4,422.7,378.5,424.1,382.9,425.4z M358,437.7c7.2-1.5,13.7-2.9,20.3-4.3C372.9,430.7,363.1,433,358,437.7z"/>
<path class="st0" d="M522,454.6c-0.4-1.6-1-3.2-1-4.7c0-1.7,0.2-3.5,0.9-5c0.8-1.7,2.1-3.2,3.4-4.6c2.6-2.7,5.1-5.1,9.5-4
	c5.1,1.3,9.2-1.7,12.7-4.8c2.9-2.6,5.7-1.8,7.8-0.4c1.4,1,2.3,4.2,1.9,6c-1.5,6.3-3.8,12.4-9.6,16c-3.2,2-7.1,2.9-10.5,4.5
	c-3,1.4-6.1,2.9-8.9,4.6c-3.3,2-4.5,1.9-5.9-1.8c-0.7-1.7-0.7-3.7-1-5.6C521.5,454.7,521.8,454.7,522,454.6z M544.7,446.1
	c-3.7,2.8-7.1,5.4-10.9,8.2C539.2,455.5,542.1,453.2,544.7,446.1z"/>
<path class="st0" d="M586.7,106c1-1.1,1.8-1.9,2.5-2.7c1.3,0.8,2.4,1.7,3.7,2.3c5.3,2.2,6.5,5.5,3,10.1c-2.1,2.7-4.7,5.2-7.5,7.1
	c-3.9,2.7-6.5,1.5-7.7-3.1c-0.6-2.2-0.8-4.5-1.1-6.8c-0.7-6-3.7-8.7-9.7-9.1c-2.2-0.1-4.3-0.9-6.4-1.4c1.3-1.7,2.4-3.7,4.1-5
	c3.2-2.3,3.8-5.7,4.6-9.1c0.4-1.5,0.4-3.1,0.6-4.6c4.1-1.1,7.6,2.5,6.9,7.1c-0.1,0.6-0.4,1.2-0.4,1.8c0.1,1.1,0.5,2.1,0.8,3.2
	c0.7-0.8,1.6-1.5,2-2.4c1.7-3.3,3-6.8,4.8-10c0.7-1.1,2.4-2.3,3.7-2.2c1.3,0,2.9,1.2,3.7,2.3c1.8,2.7,1.1,6.7-1.3,8.9
	c-1.6,1.5-3.3,2.8-5,4.2C584.9,99,584.3,102.4,586.7,106z"/>
<path class="st0" d="M226.1,253.8c1,0.6,2,1.2,3.8,2.2c-9.4,0.9-16.8-3.3-24.7-5.1c6.2,4.2,13.1,6.7,20.3,8.4
	c-1.5,3.8-2.7,4.2-9.8,3.8c0.7,1.1,1.3,2,2.5,3.9c-2,0-3.5,0.5-4.4-0.1c-7.4-5-13.8-11-18.5-18.5c-2.4-3.8-1-6.4,3.5-6.9
	c2.7-0.3,5.5,0,8.3,0.1c8.4,0.4,16.9,0.8,25.3,1.2c1.9,0.1,3.8,0.2,6.3,0.4c-3,5.6-5.1,11.1-13.1,9.4
	C225.8,253,225.9,253.4,226.1,253.8z"/>
<path class="st0" d="M541,67.9c1.3-5.6,2.5-11.2,3.8-17.1c3.5,2.3,4.3,5.4,2.8,9.1c-0.8,1.9-1.9,3.6-2.6,5.5
	c-1.3,3.4-0.5,5.6,2.8,7.2c0.5-1.3,1-2.6,1.4-3.9c6.8-1.4,9.1,0.1,9.4,6.9c0.1,3.1-0.1,6.4-1.1,9.3c-0.7,2-2.7,4.3-4.6,4.8
	c-1.9,0.5-5.2-0.5-6.2-2c-3.9-5.5-8.8-8.7-15.3-10c-3.5-0.7-4.6-3.2-4.1-6.5c0.7-4.4,1.3-8.8,2.2-13.1c0.3-1.5,1.4-3.6,2.7-4
	c2.3-0.8,2.7,1.6,3.4,3.2c1.4,3.5,2.9,6.9,4.4,10.4C540.4,67.7,540.7,67.8,541,67.9z"/>
<path class="st0" d="M251.4,213.3c0.8,0.6,1.6,1.2,3,2.3c-7,1.7-12.9-1.5-19.1-1.7c-0.1,0.4-0.2,0.7-0.3,1.1
	c5.6,1.6,11.2,3.2,17.3,4.9c-1.9,3.5-3.7,6.9-5.7,10.7c-1.8-1.2-3.4-2.1-4.9-3.3c-6.4-5.5-12.9-10.8-18.9-16.6
	c-3.5-3.4-2.8-5.4,1.9-6.5c5.3-1.2,10.7-1.6,16-2.3c4.2-0.6,8.3-1.2,12.5-1.8c2.7-0.4,4.2,0.6,3.8,3.6c-0.2,1.7-0.2,3.4-0.5,5
	c-0.4,2.7-1.2,5.2-5.4,3.5C251.2,212.6,251.3,213,251.4,213.3z"/>
<path class="st0" d="M402.7,470.2c-0.8-1.2-1.2-1.8-2.1-2.9c5-1.2,9.6-2.8,14.3-2.9c1.7,0,4.2,3.5,5,5.9c1.1,3.2,1,6.9,1.1,10.3
	c0,2.6-1.8,4-4.1,2.7c-4.7-2.7-9.8-1.9-14.7-1.8c-1.7,0.1-3.6,1.8-5,3.1c-4.5,4-6.3,4-9.7-1c-2.6-3.7-3.7-7.9-2.9-12.4
	c0.3-1.9,1.5-4.7,2.9-5.2c1.7-0.6,4.2,0.6,6.2,1.4c1.8,0.7,3.2,2.1,5,2.7C399.5,470.5,400.9,470.2,402.7,470.2z M390.9,480.9
	c2,2.7,4,2.3,5.7,1.1c2.9-2,5.9-3.1,9.5-2.3c0.6,0.1,1.3-0.4,2.1-0.7C401.8,474.7,397.1,480.9,390.9,480.9z"/>
<path class="st0" d="M165.2,132.6c-0.6-3.2,0.9-5,6.4-7.2c2.8,8.5,6.9,16.6,6.5,25.9c-0.2,4.6-1.3,5.3-5.5,3.5
	c-7.7-3.4-15.5-6.7-23.2-10.1c-0.8-0.4-1.6-0.9-3-1.7c3.7-2.8,6.9-5.4,10.4-7.8c0.5-0.3,2,0.4,2.6,1c1.4,1.3,2.5,2.8,3.7,4.3
	c0.3-0.3,0.7-0.6,1-0.9c-0.7-0.8-1.6-1.5-2-2.4c-0.7-1.5-1-3.1-1.5-4.6C162,132.6,163.4,132.6,165.2,132.6z"/>
<path class="st0" d="M481.2,446.3c-0.6,8.6-6.8,9-12.7,9.6c1.4-0.6,2.8-1.1,4.3-1.7c0-0.3,0.1-0.6,0.1-0.9c-1.1-0.2-2.3-0.9-3.2-0.6
	c-2.2,0.8-4.6,1.6-6.4,3.1c-7,5.5-14.2,5.8-21.7,1.3c-1.1-0.7-2.4-1.1-3.7-1.5c-5-1.9-6.6-7.8-3.3-12.1c1.8-2.5,4.3-2.8,5.9-0.2
	c5.1,8.4,12,9.2,20.2,5.6c4.6-2,9.1-4.2,13.5-6.5c2.3-1.2,4-1.5,5.3,1.3C480,444.7,480.8,445.7,481.2,446.3z"/>
<path class="st0" d="M250.1,154.3c1,4.9,2.2,9.3,2.6,13.8c0.1,1.6-1.9,3.3-3,5.2c0.2,0,1.3,0,2.1,0.4c0.7,0.3,1.6,1.2,1.6,1.8
	c0,0.6-1,1.7-1.6,1.7c-2,0.2-4,0.1-6,0.1c0,0.3-0.1,0.6-0.1,1c2.6,0.3,5.3,0.6,8.2,0.9c0.7,3.4,1.5,6.9,2.4,11.2
	c-2-0.6-3.3-0.9-4.5-1.5c-5.3-2.6-10.5-5.4-15.8-8.1c-5.2-2.6-5.4-5.7-0.7-8.9c0.9-0.6,1.9-1,2.8-1.6c3.3-2.2,3.4-3.3,0.9-6.4
	c-2.5-3.1-1.9-5.9,1.8-7.7c0.7-0.4,1.6-0.7,2.4-0.8C245.2,155,247.3,154.7,250.1,154.3z"/>
<path class="st0" d="M504.3,674.3c-1,0.8-1.8,1.9-2.3,1.8c-7.1-1.2-12.5,3.1-18.4,5.5c-4,1.6-5.1,1.1-7-2.9c-1.2-2.5-3-4.6-4.2-7.1
	c-0.7-1.6-0.8-3.4-1.2-5.2c1.7-0.3,3.7-1.2,5.2-0.8c4.9,1.5,6.4,1.1,8.9-3.3c0.5-0.8,0.9-1.7,1.3-2.6c2.4-4.5,2.9-4.2,7.2-1.6
	c3,1.9,3.7,4.2,4.4,7.2c0.3,1.4,1.7,2.5,2.6,3.8C501.9,670.8,503,672.4,504.3,674.3z M488.4,672.5c-2.7,1.4-4.7,2.3-7.3,3.6
	C485.4,677.7,487.2,676.8,488.4,672.5z"/>
<path class="st0" d="M517,384c1.1,0.9,2.5,1.5,3.3,2.7c1.5,2.4,0.8,4.9-1.1,6.6c-3.2,2.8-7.2,3.9-11.5,3.1c-1.1-0.2-2.4-1.8-2.7-3
	c-2.2-8.3-3.6-16.8-11.1-22.5c-1.7-1.3-3-2.2-5.4-1.3c-3.6,1.4-5.4,0.3-6-2.8c-0.7-4,1.3-7.4,4.5-7.8c0.9-0.1,1.8-0.6,2.7-0.9
	c-0.5-0.7-1.1-1.4-1.5-2.1c-0.5-1-1.1-2.2-0.9-3.1c0.1-0.6,1.7-1.2,2.6-1.2c2.9,0,5.7,3.2,6.8,6.1c3.2,8.7,6.6,17.3,10.5,25.7
	c1,2.2,4,3.6,6.3,5c0.7,0.4,2.3-0.2,3.3-0.7c0.3-0.2-0.3-1.8-0.5-2.7C516.5,384.6,516.7,384.3,517,384z"/>
<path class="st0" d="M416.7,504.7c-1.2-0.9-2-1.5-2.6-2c1-1.1,2.3-2.1,3-3.5c1.5-2.8,3.6-2.7,5.7-1.3c5.7,3.9,8.4,9.8,9.6,16.4
	c0.5,2.6-3,4.5-5.3,3.2c-3.4-1.9-4.5-1.5-6.2,1.9c-2.7,5.4-3.4,5.5-8.3,1.7c-6-4.7-8-10.1-6-16.1
	C409.8,507.3,413.2,508.4,416.7,504.7z"/>
<path class="st0" d="M368.7,132c-3.9-6.6-7.9-12.9-11.2-19.6c-1.4-2.8-1.7-6.5-1.3-9.7c0.4-4,4-5.5,7.2-3.1c3.5,2.6,6.4,6.1,9.3,9.4
	c1,1.1,1.5,2.7,2.1,4.2C379,123.7,378.5,125.1,368.7,132z"/>
<path class="st0" d="M561.4,120.2c4.8-2.3,5.3-2,8.1,2c4,5.7,4.4,12.3,3,18.5c-2.3,9.8-5.4,19.5-8.8,29c-1,2.8-3.9,5.1-6.2,7.4
	c-1.7,1.7-3.7,0.9-5-0.8c-0.4-0.5-0.1-2.4,0.4-2.6c7.1-3.1,8.9-9.6,10.1-16.1C564.7,147.2,566.7,138.3,561.4,120.2z"/>
<path class="st0" d="M436.2,164.3c2.8,3.1,5.4,5.7,7.7,8.5c0.4,0.4,0.3,1.8-0.1,2.2c-6.4,6.2-12.8,12.5-21.6,15.1
	c-1.7,0.5-3.5,0.8-5.3,0.9c-4.7,0.4-6.2-1.7-3.9-5.7c1.1-1.9,2.9-4.1,4.8-4.6c5.8-1.6,9.3-6.1,13.4-9.9
	C432.9,169.2,434.1,167.1,436.2,164.3z"/>
<path class="st0" d="M331.4,257.4c2.6-0.2,5.8-0.7,8.9-0.4c2,0.2,2.6,2,1.4,4.2c-3.5,6.4-2.9,8.7,1.6,14.1c1.6,1.9,2.9,5.2,2.4,7.4
	c-0.3,1.6-3.7,2.8-5.9,3.7c-1.4,0.6-3.1,0.4-4.6,0.2c-5.4-0.7-7.4-3.2-6.3-8.6c0.8-3.8,2.7-7.4,3.3-11.2
	C332.6,264.1,331.7,261.1,331.4,257.4z"/>
<path class="st0" d="M372,343.9c0.2,3.9,0.3,6.5,0.6,9.1c0.4,4.7,2.2,8.7,6.1,11.8c1.1,0.9,2.4,3.1,2.1,4.2
	c-0.8,2.5-3.4,3.2-5.7,2.2c-2.7-1.2-5.4-2.8-7.6-4.7c-6.1-5.3-6.6-15.8-1.2-21.4c0.9-0.9,2.1-1.9,3.3-2.1
	C370.5,342.9,371.7,343.8,372,343.9z"/>
<path class="st0" d="M349.8,341.2c-9.6,1.6-17.9-2-21.3-8.2c-1.9-3.4-0.7-6.6,0.2-9.7c0.2-0.7,1.9-1.4,3-1.4c3,0,6,0.2,9,0.6
	c0.9,0.1,1.9,1.3,2.3,2.2c0.5,0.9,0.6,2.1,0.5,3.2C342.7,333.3,344.1,337.9,349.8,341.2z"/>
<path class="st0" d="M420.2,151c-4.5,10.2-9.6,18.5-18,24.4c-1,0.7-2.2,1.4-3.3,1.4c-1.2,0-2.6-0.6-3.4-1.4c-0.4-0.4,0-2,0.4-2.9
	c0.4-0.8,1.1-1.6,1.8-2.2c4-3.4,6.2-7.6,6.5-12.8c0.1-0.9,1.4-2,2.3-2.7c2.4-1.6,4.9-3.4,7.6-4.3C415.7,149.9,417.9,150.8,420.2,151
	z"/>
<path class="st0" d="M184.9,115.9c2.6-1.7,5-4.3,7.8-4.7c2.5-0.4,5.4,1.6,8.3,2.5c-0.8-1.6-1.8-3.5-3.1-5.9c2.1-0.9,4-1.9,6-2.4
	c0.6-0.2,2.1,0.9,2.3,1.6c0.9,4.8,1.7,9.7,2.1,14.5c0.2,2.3-2,3.2-3.9,2.6c-6.6-2.1-13-4.6-19.6-6.9
	C184.8,116.8,184.9,116.3,184.9,115.9z"/>
<path class="st0" d="M420.7,439.1c1.8-0.8,3-1.3,4.2-1.8c0.4,1.4,1.3,2.8,1.1,4.1c-0.2,2.6-0.8,5.2-1.6,7.7c-0.7,2.3-2.2,2.8-4,0.8
	c-0.9-1.1-2.3-2.2-2.5-3.4c-0.7-3.5-3.2-3-5.6-2.9c-1.7,0.1-3.9,2.5-5-0.2c-1-2.5-1.6-5.5-1.2-8.1c0.4-2.9,2.7-5.2,6-5.4
	c3.3-0.2,5.3,1.9,6.6,4.8C419.4,436.2,420,437.7,420.7,439.1z"/>
<path class="st0" d="M322.2,261.9c5.1,0.2,6.2,2.2,3.9,6.6c-1.2,2.4-1.5,5.2-2.2,7.8c-0.7,2.5,0,5.9-3.6,6.7
	c-3.4,0.8-10.7-1.9-11.5-4.5c-0.2-0.7,0.8-2.5,1.6-2.8c5-1.4,6.8-5,7.2-9.7C317.9,262.1,318.3,261.7,322.2,261.9z"/>
<path class="st0" d="M388.3,542.1c-0.7-0.4-1-0.5-1.2-0.7c-3.6-4.3-3.3-16.7,0.4-20.9c3.7-4.1,8.4-3.7,11.2,1.3
	c0.9,1.6,1.5,3.3,1.9,5.1c0.5,2.5,0,4.4-3.4,4.6c-3.4,0.1-5.3,2.5-6.6,5.4C389.8,538.5,389.1,540.3,388.3,542.1z M389.2,535.7
	c2.5-3.5,4.6-6.4,6.7-9.4C392.2,526.2,389.2,530,389.2,535.7z"/>
<path class="st0" d="M429.7,686.3c0.8-0.5,1.5-1.3,2.4-1.6c5.1-1.8,9.5-4.3,13.4-8.1c3.3-3.2,11-1.2,12.6,3c1.4,3.5,0.2,5.7-3.5,6.1
	c-7.1,0.8-14.3,1.5-21.4,2.2c-1.1,0.1-2.2-0.3-3.3-0.5C429.8,686.9,429.7,686.6,429.7,686.3z"/>
<path class="st0" d="M376.1,269.2c-3.1,2.8-5.4,5-7.8,7c-2.8,2.4-6.1,1.6-6.6-2c-0.7-4.6-2.3-7.7-6.7-9.8c-3.2-1.5-2.8-3.5,0.3-5.6
	c1.1-0.7,2.2-1.4,3.5-1.9c2.2-0.8,3.6-0.5,3.8,2.4c0.4,5.5,1.6,6.5,6.7,7.7C371.3,267.4,373.3,268.2,376.1,269.2z"/>
<path class="st0" d="M328.7,297.4c3.6-0.3,6.9-0.9,10.2-0.8c1.5,0.1,4,1.4,4.3,2.7c0.9,3.1,0.9,6.4,0.9,9.6c0,0.6-2.1,1.5-3.3,1.5
	c-2.4,0.1-4.8-0.5-7.2-0.5c-3.4,0-4.7-2-4.9-5C328.6,302.4,328.7,299.9,328.7,297.4z"/>
<path class="st0" d="M396,286.7c-1.2,0.9-2.4,2.5-3.7,2.6c-4.7,0.3-9.5,0.4-14.2,0c-1.1-0.1-2.9-2.3-2.8-3.4
	c0.2-1.7,1.6-3.4,2.8-4.7c0.8-0.9,2.4-1.1,3.6-1.6c2.5-1.2,4.7-0.8,5.9,1.6c1.7,3.5,4.4,4.9,8.2,4.7
	C395.9,286.1,395.9,286.4,396,286.7z"/>
<path class="st0" d="M187.1,274.3c2.6,1.9,5.1,3.7,8.1,5.9c-1.4,1.1-2.5,2-4.1,3.2c-3.9-5.1-7.6-10.1-11.4-15.1c0.3-0.5,0.7-1,1-1.5
	c7.8,2.3,15.6,4.5,23.5,6.8c-0.1,0.6-0.1,1.2-0.2,1.8c-1.7,0-3.4,0-5,0c-0.6,0-1.3,0.2-1.9,0.3c0.2,0.6,0.3,1.3,0.6,2.3
	c-3.4-1.7-6.6-3.4-9.9-5C187.5,273.5,187.3,273.9,187.1,274.3z"/>
<path class="st0" d="M424.4,247.8c-1.5,1.7-2.1,3.1-3.2,3.7c-7.1,3.7-14.5,5.7-22.5,3.1c-0.7-0.2-1.5-0.4-2-0.9
	c-0.8-0.8-1.5-1.9-2.2-2.8c1.1-0.5,2.1-1.4,3.2-1.5c4.7-0.2,9.3,0.1,14-0.1C415.5,249,419.4,248.4,424.4,247.8z"/>
<path class="st0" d="M380.3,150.8c-0.1,9.3-1.6,18.1-6.3,25.9c-1.5,2.4-4.2,4.2-6.6,5.9c-0.7,0.5-3.4-0.4-3.6-1.1
	c-0.6-1.8-0.2-3.9,2.4-4.4c7.9-1.6,9.1-2.8,8.9-11C374.9,160.3,374.8,154.8,380.3,150.8z"/>
<path class="st0" d="M145.9,39.1c0.1-4.5,2.6-6.9,5.4-7.7c6.4-1.8,12.9-3.9,19.7-2.4c5.6,1.3,10.7,3.5,14.2,8.5
	C172.1,29.4,159.2,30.1,145.9,39.1z"/>
<path class="st0" d="M304.4,315.4c-2.9-3.1-5.6-5.4-7.5-8.3c-0.8-1.2-0.7-4.8,0-5.2c1.8-0.9,4.4-1,6.4-0.6c2.4,0.5,2.5,2.9,2.2,5.1
	C305.2,309,305,311.5,304.4,315.4z"/>
<path class="st0" d="M341.8,229.2c1,2.4,1.9,4.3,2.5,6.2c1.2,3.5-0.5,7.2-3.8,8.8c-2.8,1.3-3.6-0.8-3.9-2.7
	C336.1,236.8,337.9,232.9,341.8,229.2z"/>
<path class="st0" d="M473,238.2c0.1-5.2,3.3-9.2,5.7-13.3c0.2-0.4,2.1-0.4,2.6,0.1c0.9,1,1.8,2.4,1.9,3.6
	C483.4,233,477.9,238.1,473,238.2z"/>
<path class="st0" d="M428.7,93.7c-5.2-0.6-9.8-1.1-13.2-1.5c2.3-2,5.5-4.7,8.8-7.5C425.3,86.7,427,90.3,428.7,93.7z"/>
<path class="st0" d="M360.3,242.9c-1.5,1.8-2.6,4.3-4.5,5.1c-2.2,0.9-5.5-2.8-5-5.7c0.4-2.2,0.7-5.1,3.9-5.3
	C357.3,236.9,359.5,239.5,360.3,242.9z"/>
<path class="st0" d="M299.5,285c4.7,2.3,8.8,4.3,13.1,6.4c-3.3,3.3-12.8,2.3-14.2-1.2C298,289,299,287.2,299.5,285z"/>
<path class="st0" d="M59.1,91.2c-1.6-1.2-3.2-2.3-4.8-3.5c0.3-0.4,0.6-0.9,0.9-1.3c1.7,1.1,3.4,2.2,5.1,3.3
	C59.9,90.2,59.5,90.7,59.1,91.2z"/>
<path class="st0" d="M119.2,84.7c-3.1-1.1-6-2.2-8.7-3.3C112.7,80,116.6,81.3,119.2,84.7z"/>
<path class="st0" d="M657.4,163.2c-1.8-0.9-3.7-1.9-5.5-2.8c-6-3.1-12.1-6.1-18.3-9.3c3-2.5,6.9-2.2,10.2-1
	c6.2,2.3,12.2,5.4,13.9,12.8C657.6,162.9,657.5,163.1,657.4,163.2z"/>
<path class="st0" d="M665.8,173.3c4.9,4.9,6.4,14.4,3.1,21.4c2.1-6.5-0.4-12.4-2.4-18.4c-0.3-1-0.4-2.1-0.5-3.2
	C665.9,173.1,665.8,173.3,665.8,173.3z"/>
<path class="st0" d="M657.4,163.2c0.1-0.1,0.2-0.2,0.3-0.3c1.1,0.6,2.6,0.9,3.3,1.9c0.9,1.1,1.2,2.8,1.7,4.2c0,0,0.2-0.2,0.2-0.2
	C659.6,168.2,657.4,166.8,657.4,163.2z"/>
<path class="st0" d="M662.9,168.6c0,0-0.2,0.2-0.2,0.2c3.3-0.1,2.5,2.7,3.1,4.5c0,0,0.1-0.2,0.1-0.2
	C662.7,173,662,171.9,662.9,168.6z"/>
<path class="st0" d="M574.6,226.9c-2.4-4.6-4.9-9.2-7.1-14c-0.5-1,0-2.7,0.6-3.8c0.4-0.7,1.9-1.2,2.6-1c0.9,0.3,2.4,1.6,2.3,2.2
	c-1.3,5.7,0.5,10.9,2.9,15.9C575.4,226.5,575,226.7,574.6,226.9z"/>
<path class="st0" d="M594.7,238.9c-3.3-0.8-6.6-1.6-9.8-2.5c0.1-0.3,0.1-0.6,0.2-0.9c3.3,0.8,6.6,1.5,9.9,2.3
	C594.9,238.2,594.8,238.6,594.7,238.9z"/>
</svg>
