<?xml version="1.0" encoding="utf-8"?>
<!-- Generator: Adobe Illustrator 23.0.2, SVG Export Plug-In . SVG Version: 6.00 Build 0)  -->
<svg version="1.1" id="Layer_1" xmlns="http://www.w3.org/2000/svg" xmlns:xlink="http://www.w3.org/1999/xlink" x="0px" y="0px"
	 viewBox="0 0 136 281" style="enable-background:new 0 0 136 281;" xml:space="preserve">
<g>
	<g>
		<path d="M0,0v281h136V0H0z M83.2,187.3c-2.4,0.5-3.2-1-3.2-2.3v-13.2c0-4.5-1.6-7.4-3.3-8.9c10.7-1.2,21.9-5.3,21.9-23.7
			c0-5.2-1.9-9.5-4.9-12.9c0.5-1.2,2.1-6.1-0.5-12.7c0,0-4-1.3-13.2,4.9c-3.8-1.1-8-1.6-12-1.6c-4.1,0-8.2,0.6-12,1.6
			c-9.2-6.2-13.2-4.9-13.2-4.9c-2.6,6.6-1,11.5-0.5,12.7c-3.1,3.4-4.9,7.6-4.9,12.9c0,18.4,11.2,22.5,21.9,23.8
			c-1.4,1.2-2.6,3.3-3.1,6.4c-2.7,1.2-9.7,3.4-14-4c0,0-2.5-4.6-7.4-5c0,0-4.7-0.1-0.3,2.9c0,0,3.2,1.5,5.3,7c0,0,2.8,8.6,16.1,5.7
			v8.9c0,1.3-0.8,2.8-3.2,2.3c-19.1-6.4-32.9-24.4-32.9-45.6c0-26.5,21.5-48.1,48.1-48.1c26.5,0,48.1,21.5,48.1,48.1
			C116.1,162.9,102.3,180.9,83.2,187.3z"/>
	</g>
</g>
</svg>
