<?xml version="1.0" encoding="utf-8"?>
<!-- Generator: Adobe Illustrator 23.0.2, SVG Export Plug-In . SVG Version: 6.00 Build 0)  -->
<svg version="1.1" id="Layer_1" xmlns="http://www.w3.org/2000/svg" xmlns:xlink="http://www.w3.org/1999/xlink" x="0px" y="0px"
	 viewBox="0 0 356 356" style="enable-background:new 0 0 356 356;" xml:space="preserve">
<style type="text/css">
	.st0{fill:#470274;}
	.st1{fill:#FFFFFF;}
</style>
<g>
	<g>
		<rect class="st0" width="356" height="356"/>
	</g>
	<g>
		<path class="st1" d="M295.9,167.1l-107-107c-6.2-6.2-16.1-6.2-22.3,0l-22.2,22.2l28.2,28.2c6.5-2.2,14.1-0.7,19.3,4.5
			c5.2,5.3,6.7,12.8,4.5,19.4l27.2,27.2c6.6-2.3,14.2-0.8,19.4,4.5c7.3,7.3,7.3,19.2,0,26.5s-19.2,7.3-26.6,0
			c-5.5-5.5-6.9-13.6-4.1-20.4L187,146.9v66.6c1.8,0.9,3.5,2.1,5,3.6c7.3,7.3,7.3,19.2,0,26.6c-7.3,7.3-19.2,7.3-26.5,0
			s-7.3-19.2,0-26.6c1.8-1.8,3.9-3.2,6.1-4.1v-67.3c-2.2-0.9-4.3-2.3-6.1-4.1c-5.6-5.6-6.9-13.7-4-20.5l-27.8-27.8l-73.3,73.3
			c-6.2,6.2-6.2,16.2,0,22.3l107,107c6.2,6.2,16.1,6.2,22.3,0l106.5-106.5C302,183.3,302,173.3,295.9,167.1z"/>
	</g>
</g>
</svg>
