<?xml version="1.0" encoding="utf-8"?>
<!-- Generator: Adobe Illustrator 23.0.2, SVG Export Plug-In . SVG Version: 6.00 Build 0)  -->
<svg version="1.1" id="Layer_1" xmlns="http://www.w3.org/2000/svg" xmlns:xlink="http://www.w3.org/1999/xlink" x="0px" y="0px"
	 viewBox="0 0 53.8 53.8" style="enable-background:new 0 0 53.8 53.8;" xml:space="preserve">
<style type="text/css">
	.st0{fill:#FFFFFF;}
</style>
<g>
	<path class="st0" d="M0,0v53.8h53.8V0H0z M32.6,43.9c-0.9,0.2-1.2-0.4-1.2-0.9v-4.9c0-1.7-0.6-2.8-1.2-3.3c4-0.4,8.2-2,8.2-8.9
		c0-2-0.7-3.6-1.8-4.8c0.2-0.5,0.8-2.3-0.2-4.7c0,0-1.5-0.5-4.9,1.8c-1.4-0.4-3-0.6-4.5-0.6c-1.5,0-3.1,0.2-4.5,0.6
		c-3.4-2.3-4.9-1.8-4.9-1.8c-1,2.5-0.4,4.3-0.2,4.8c-1.1,1.3-1.8,2.9-1.8,4.8c0,6.9,4.2,8.4,8.2,8.9c-0.5,0.4-1,1.2-1.1,2.4
		c-1,0.5-3.6,1.2-5.2-1.5c0,0-0.9-1.7-2.8-1.9c0,0-1.7,0-0.1,1.1c0,0,1.2,0.6,2,2.6c0,0,1,3.2,6,2.1v3.3c0,0.5-0.3,1-1.2,0.9
		C14.1,41.6,9,34.8,9,26.9C9,17,17,9,26.9,9s17.9,8,17.9,17.9C44.9,34.8,39.7,41.6,32.6,43.9z"/>
</g>
</svg>
