<?xml version="1.0" encoding="utf-8"?>
<!-- Generator: Adobe Illustrator 23.0.2, SVG Export Plug-In . SVG Version: 6.00 Build 0)  -->
<svg version="1.1" id="Layer_1" xmlns="http://www.w3.org/2000/svg" xmlns:xlink="http://www.w3.org/1999/xlink" x="0px" y="0px"
	 viewBox="0 0 67.3 281" style="enable-background:new 0 0 67.3 281;" xml:space="preserve">
<g>
	<g>
		<path d="M0,0v281h67.3V0H0z M41.2,168.7c-1.2,0.2-1.6-0.5-1.6-1.1V161c0-2.2-0.8-3.7-1.6-4.4c5.3-0.6,10.8-2.6,10.8-11.7
			c0-2.6-0.9-4.7-2.4-6.4c0.2-0.6,1-3-0.2-6.3c0,0-2-0.6-6.5,2.4c-1.9-0.5-4-0.8-5.9-0.8c-2,0-4.1,0.3-5.9,0.8
			c-4.6-3.1-6.5-2.4-6.5-2.4c-1.3,3.3-0.5,5.7-0.2,6.3c-1.5,1.7-2.4,3.8-2.4,6.4c0,9.1,5.5,11.1,10.8,11.8c-0.7,0.6-1.3,1.6-1.5,3.2
			c-1.3,0.6-4.8,1.7-6.9-2c0,0-1.2-2.3-3.7-2.5c0,0-2.3,0-0.1,1.4c0,0,1.6,0.7,2.6,3.5c0,0,1.4,4.3,8,2.8v4.4c0,0.6-0.4,1.4-1.6,1.1
			c-9.4-3.2-16.3-12.1-16.3-22.6c0-13.1,10.6-23.8,23.8-23.8c13.1,0,23.8,10.6,23.8,23.8C57.4,156.6,50.6,165.5,41.2,168.7z"/>
	</g>
</g>
</svg>
