<?xml version="1.0" encoding="utf-8"?>
<!-- Generator: Adobe Illustrator 23.0.2, SVG Export Plug-In . SVG Version: 6.00 Build 0)  -->
<svg version="1.1" id="Layer_1" xmlns="http://www.w3.org/2000/svg" xmlns:xlink="http://www.w3.org/1999/xlink" x="0px" y="0px"
	 viewBox="0 0 356 356" style="enable-background:new 0 0 356 356;" xml:space="preserve">
<style type="text/css">
	.st0{fill:#470274;}
	.st1{fill:#FFFFFF;}
</style>
<g>
	<rect class="st0" width="356" height="356"/>
</g>
<g>
	<path class="st1" d="M185.1,283.1c-32.2,0-87.7-20.5-110.1-81.1c-11.5-31.2-8.1-66,23.1-98.8c-22.4,45.5-1.6,94.2,32.6,123.7
		c39.2,33.8,112.7,45.3,151.1-2.6C259.7,270.1,221.4,283.1,185.1,283.1z M287,169.7c-21.8,31.4-69.5,34.8-101.8,11.9
		c-63.4-44.8-31-98.9-31-98.9c-17.5,21.3-31.6,48.2-13.7,84.2c10.4,21,31.2,39,55.4,45.1C229.4,220.5,270.9,210.5,287,169.7z
		 M281.2,129.6c-13.1,20.4-47.6,16.1-63.8,3.4c-36.1-28.5-18-60-18-60c-18,20-17.7,48.6,4.9,68.8
		C232.4,166.7,270.1,155.6,281.2,129.6z"/>
</g>
</svg>
