<?xml version="1.0" encoding="utf-8"?>
<!-- Generator: Adobe Illustrator 23.0.2, SVG Export Plug-In . SVG Version: 6.00 Build 0)  -->
<svg version="1.1" id="Layer_1" xmlns="http://www.w3.org/2000/svg" xmlns:xlink="http://www.w3.org/1999/xlink" x="0px" y="0px"
	 viewBox="0 0 356 356" style="enable-background:new 0 0 356 356;" xml:space="preserve">
<style type="text/css">
	.st0{fill:#470274;}
	.st1{fill:#FFFFFF;}
</style>
<g>
	<g>
		<rect x="0.2" class="st0" width="356" height="356"/>
	</g>
	<g>
		<path class="st1" d="M75.7,280.5v-205h205v205H75.7z M196,244.6l0.2,0.4c1.6,3.6,3.4,5.5,5.8,8.2c0.4,0.4,0.8,0.9,1.3,1.4
			c6.4,6.4,17.4,10.4,28.7,10.4c19.2,0,28.6-9.9,31.1-19.2v-0.1c1.3-4.2,1.5-9.2,0.6-14.2c-1.7-10.8-9.5-18.3-26.1-25
			c-1.2-0.5-2.4-1.1-3.6-1.6c-5.1-2.2-9.9-4.2-11.5-7.9c-0.7-2.6-0.8-4.1-0.4-5.7c1.1-4.3,5.4-5.8,8.8-5.8c1.2,0,2.5,0.2,3.6,0.5
			c3.5,1.2,6.4,3.8,8.1,7.5l0.2,0.5l16-10.3l-0.3-0.4c-2.3-3.6-3.5-5.2-5-6.7c-5.5-6.2-12.8-9-23.4-9c-0.4,0-0.8,0-1.2,0l-6.1,0.8
			c-6.3,1.6-11.8,4.8-14.9,8.8c-4.7,5.3-6.8,12.8-5.8,20.6s4.9,14.6,10.8,18.5c4.9,3.7,10.9,6.2,16.2,8.5
			c7.2,3.1,13.4,5.7,14.6,10.2c0.7,3.1,0.2,5.7-1.4,7.7c-2.1,2.6-6.2,4.1-11.4,4.1c-1.1,0-2.3-0.1-3.5-0.2
			c-7.1-1.5-10.8-5.2-14.7-11.2l-0.3-0.4L196,244.6z M127.6,246.8l0.2,0.4c2.8,5.7,6.8,10.3,11.5,13.2c5,3,11.2,4.6,17.9,4.6
			c3.3,0,6.7-0.4,10.1-1.2c7.2-2.1,12.8-6.5,15.9-12.4c3.7-7.2,3.6-15.8,3.5-24.8c0-1.4,0-2.8,0-4.2c0.1-17.5,0-52.7,0-53.1v-0.5
			h-20.3v50.4c0,2.2,0,4.3,0,6.3c0.1,7.8,0.2,14.5-1.1,16.8c-1.8,3.8-5.4,4.5-8.2,4.5c-1.6,0-3.3-0.3-4.7-0.8c-3-1.1-5.5-5.1-7.3-8
			l-0.9-1.4L127.6,246.8z"/>
		<path d="M280.2,76v204h-204V76H280.2 M207.5,177c-4.8,5.4-6.9,13.1-5.9,21c1,8,5,14.8,11,18.8c5,3.8,11,6.3,16.3,8.5
			c7.1,3,13.2,5.6,14.3,9.9c0.6,3,0.2,5.4-1.3,7.2c-2,2.5-6,3.9-11,3.9c-1.1,0-2.3-0.1-3.4-0.2c-6.2-1.3-9.9-4.2-14.4-11l-0.5-0.8
			l-0.8,0.5l-15.6,9l-0.8,0.5l0.4,0.8c1.7,3.7,3.5,5.6,5.9,8.4c0.4,0.4,0.8,0.9,1.3,1.4l0,0l0,0c6.4,6.5,17.6,10.6,29.1,10.6
			c19.4,0,29.1-10.1,31.6-19.5v-0.1c1.3-4.3,1.5-9.4,0.6-14.4c-1.8-11-9.7-18.6-26.4-25.4c-1.2-0.6-2.5-1.1-3.7-1.6
			c-5-2.1-9.7-4.1-11.2-7.6c-0.7-2.6-0.8-3.9-0.4-5.5c1-4,5.1-5.4,8.3-5.4c1.2,0,2.4,0.2,3.5,0.5c3.4,1.1,6.1,3.7,7.8,7.2l0.5,1
			l1-0.6l15.1-9.7l0.8-0.5l-0.5-0.8c-2.3-3.6-3.6-5.3-5.1-6.8c-5.6-6.2-13.1-9.2-23.8-9.2c-0.4,0-0.8,0-1.3,0h-0.1h-0.1
			c-1,0.1-2,0.3-3,0.4c-1,0.1-2,0.3-3,0.4h-0.1h-0.1C216.2,169.7,210.7,172.9,207.5,177 M157,246.4c-2.2,0-3.9-0.5-4.5-0.7
			c-2.9-1-5.3-4.9-7.1-7.8c-0.2-0.3-0.4-0.7-0.6-1l-0.5-0.8l-0.8,0.5l-15.7,9.6l-0.8,0.5l0.4,0.8c2.8,5.8,6.9,10.4,11.7,13.4
			c5.1,3.1,11.4,4.7,18.1,4.7c3.3,0,6.8-0.4,10.2-1.2l0,0l0,0c7.3-2.1,13-6.6,16.2-12.7c3.8-7.3,3.7-15.9,3.6-25c0-1.4,0-2.8,0-4.2
			c0.1-17.5,0-52.8,0-53.1v-1h-1h-19.3h-1v1v49.9c0,2.2,0,4.3,0,6.3c0.1,7.4,0.2,14.4-1.1,16.5l0,0l0,0
			C163,245.6,159.6,246.4,157,246.4 M281.2,75h-206v206h206V75L281.2,75z M230.9,247.4c8.1,0,15.1-3.6,13.3-12.4
			c-2.2-8.2-19.4-10.2-31.1-19c-11.9-8-14.6-27.3-4.9-38.4c3.3-4.1,8.8-7.1,14.6-8.6c2-0.3,4.1-0.5,6.1-0.8c0.4,0,0.8,0,1.2,0
			c10.9,0,17.9,3.1,23,8.8c1.5,1.5,2.7,3.1,5,6.7l-15.1,9.7c-1.9-4.1-5-6.7-8.4-7.8c-1.2-0.4-2.5-0.6-3.8-0.6c-4.2,0-8.2,2-9.3,6.2
			c-0.5,1.7-0.4,3.3,0.4,6c2.1,4.8,9.1,6.9,15.4,9.7c18.2,7.4,24.3,15.3,25.8,24.7c1.4,8.1-0.5,13.6-0.6,14.1
			c-3.4,12.9-16.9,18.8-30.6,18.8c-10.8,0-21.8-3.6-28.4-10.3c-3.2-3.6-5.1-5.4-7-9.5l15.6-9c4.2,6.4,8.1,10,15,11.4
			C228.5,247.3,229.7,247.4,230.9,247.4L230.9,247.4z M157,247.4c3.2,0,6.8-1.1,8.6-4.8c1.7-3,1.2-12.7,1.2-23.3v-49.9h19.3
			c0,0,0.1,35.4,0,53.1c0,10.8,0.8,20.6-3.4,28.8c-3.2,6.1-8.8,10.2-15.5,12.2c-3.4,0.8-6.7,1.2-9.9,1.2c-6.6,0-12.7-1.6-17.6-4.5
			c-4.9-3-8.8-7.7-11.4-13l15.7-9.6c2,3.1,4.7,7.9,8.2,9.1C153.3,247,155.1,247.4,157,247.4L157,247.4z"/>
	</g>
</g>
</svg>
