<?xml version="1.0" encoding="utf-8"?>
<!-- Generator: Adobe Illustrator 23.0.2, SVG Export Plug-In . SVG Version: 6.00 Build 0)  -->
<svg version="1.1" id="Layer_1" xmlns="http://www.w3.org/2000/svg" xmlns:xlink="http://www.w3.org/1999/xlink" x="0px" y="0px"
	 viewBox="0 0 3504.2 1740.5" style="enable-background:new 0 0 3504.2 1740.5;" xml:space="preserve">
<style type="text/css">
	.st0{fill:url(#SVGID_1_);}
	.st1{fill:#3C0082;}
	.st2{fill:url(#SVGID_2_);}
</style>
<linearGradient id="SVGID_1_" gradientUnits="userSpaceOnUse" x1="1752.1001" y1="537.881" x2="1752.1001" y2="1740.4396">
	<stop  offset="0" style="stop-color:#53027C"/>
	<stop  offset="0.1714" style="stop-color:#500278"/>
	<stop  offset="0.353" style="stop-color:#48026B"/>
	<stop  offset="0.5394" style="stop-color:#390156"/>
	<stop  offset="0.7291" style="stop-color:#260138"/>
	<stop  offset="0.9196" style="stop-color:#0C0012"/>
	<stop  offset="1" style="stop-color:#000000"/>
</linearGradient>
<path class="st0" d="M2492.1,838.4c-60.4,1.3-94,56-203.5,54.8c-96.2,28.3-122.1-5.7-210.9-22.7c-87.5-16.7-408.7-97.8-531.2-83.8
	c1.6-6.9,3.1-13.8,4.7-20.7c1.2-5.3,2.4-10.6,3.6-16c0.3-1.4,0.9-2.2,2.4-2.2c0.9,0,1.7-0.3,2.6-0.4c1.1-0.2,1.7-0.7,1.7-1.9
	c0-1.2,0-2.5,0-3.7c0-0.8,0.4-1,1.2-1c2.2,0.1,4.4,0,6.6,0.1c1.1,0,1.2-0.5,1.2-1.4c-0.1-2.9-0.2-5.8-0.3-8.7c0-0.8-0.1-1.6-0.2-2.3
	c-0.7-2.9-1.3-5.8-2-8.7c-1.7-6.9-3.3-13.8-5.1-20.7c-0.9-3.7-1.8-7.4-2.9-11.1c-0.7-2.4-1.1-2.6-3.6-2.6c-3.6,0-7.3,0-10.9,0
	c-0.5,0-1.2-0.2-1.3-0.6c-0.9-1.8-1.7-3.6-2.5-5.5c-0.5-1.3-0.1-1.8,1.3-1.8c0.9,0,1.4-0.3,1.6-1.2c0.1-0.4,0.6-0.7,1-0.8
	c0.9-0.3,1.8-0.3,2.7-0.6c6-2.4,8.7-8.2,6.5-14.2c-1.9-5.4-6.2-8.5-11.3-10.6c-5.4-2.2-11.1-2.7-16.8-2.5c-1.6,0.1-3.2,0.2-5,0.3
	c0-0.4,0-0.6,0.1-0.8c0.8-4,1.6-8,2.4-12c1.1-5.9,2.2-11.8,3.3-17.7c1.4-7.1,2.8-14.2,4.2-21.3c1.2-6,2.3-12,3.5-18
	c0.9-4.7,1.8-9.4,2.8-14.1c1.4-6.9,2.8-13.8,4.2-20.7c0.2-0.9,0.3-1.8,0.2-2.7c-0.1-1.8-1.1-2.8-2.8-2.8c-1.4,0-2.8,0.2-4.2,0.6
	c-2.5,0.8-4.9,2-7.4,2.6c-7.6,1.9-15.3,3.6-23,5.4c-12.6,3-25.1,5.9-37.7,8.9c-7,1.7-14.1,3.4-21.1,5c-10.4,2.5-20.8,4.9-31.2,7.4
	c-6.6,1.6-13.2,3.1-19.8,4.7c-0.5,0.1-1,0.1-1.4-0.1c-3.2-1.6-6.5-1.7-9.9-0.9c-4.5,1.1-8.3,3.5-10.8,7.4c-3.1,4.7-4.3,9.7-1.9,15.1
	c0.2,0.4,0.2,1,0.1,1.4c-0.8,3.1-1.6,6.1-2.4,9.2c-2.3,8.6-4.5,17.2-6.8,25.8c-1.4,5.2-2.8,10.5-4.2,15.7c-1.2,4.5-2.3,9.1-3.5,13.6
	c-2.4,9-4.8,17.9-7.2,26.9c-1.2,4.6-2.4,9.3-3.6,13.9c-1.7,6.5-3.4,13-5.2,19.5c-0.9,3.3-1.6,6.6-3.1,9.7c-1,2-1.6,4.4-1.9,6.7
	c-0.3,2.3,1,3.6,3.4,3.4c1.9-0.1,3.7-0.7,5.6-1c8.1-1.4,16.2-2.8,24.3-4.1c7.4-1.3,14.9-2.5,22.3-3.8c5.7-0.9,11.3-1.8,17-2.8
	c6.7-1.2,13.4-2.4,20-3.6c3-0.5,6-0.9,9-1.4c4.9-0.8,9.8-1.6,14.7-2.4c7.7-1.3,15.4-2.6,23-3.9c0.4-0.1,1,0.1,1.2,0.4
	c0.7,1.1,1.4,2.3,1.4,3.7c-0.1,3.6,0,7.2,0,10.8c0,9.7,0,19.3,0,29c0,1.2,0.4,1.5,1.5,1.4c2-0.1,4.1,0,6.1,0c1.4,0,2.7,0,4.1,0
	c0,0.1,0.1,0.2,0.1,0.3c-0.4,0.3-0.8,0.5-1.1,0.8c-1.5,1.2-3.3,2.3-4.6,3.7c-1.8,2-3.4,4.2-5,6.3c-5.1,6.5-10.2,13-15.3,19.5
	c-3.7,4.6-7.4,9.2-11,13.9c-0.8,1-1.6,2-2.4,3c-13.3,3.9-27,8.2-40.9,12.8c-2.6,0-4.5,0-4.9,0c0.4,0,1.9,0,4.9,0
	c-98.3,31.9-206.9,75.3-248,92c-11,4.5-21.4,10.1-31.2,16.8c-47.2,32.2-199.9,134.3-274.4,156.5c-88.8,26.5-853,30.3-853,30.3v622.2
	h3504V655C3504.1,655,2569.3,836.7,2492.1,838.4z M1506.1,790.7c-0.5,0-0.9,0-1.4,0c-0.7,0-1.1-0.1-1.1-1c0-0.8,0.4-0.9,1.1-0.9
	c3.6,0,7.2,0,10.8,0c0.5,0,1,0,1.6,0c0.1-1,0.1-1.9,0.2-3.1c1.7,0,3.4,0,5.1,0c0.2,0,0.6,0.7,0.6,1.1c0,1.2,0,2.4,0,3.7
	c-1.9,0.4-3.8,0.8-5.8,1.2c0-0.3,0-0.7,0-1c-2.3,0-4.5-0.1-6.6,0.1c-0.4,0-0.9,0.8-1,1.3c-0.2,0.5-0.3,0.9-0.5,1.4
	c-0.9,0.2-1.8,0.4-2.7,0.6c0.2-0.7,0.4-1.4,0.7-2C1507.5,790.8,1507.4,790.7,1506.1,790.7z M1519.1,653.6c-2.5-1.2-5-2.4-7.6-3.7
	c1.2-2,2.4-4,3.8-6.3c1.5,3.5,2.8,6.6,4.1,9.8C1519.3,653.4,1519.2,653.5,1519.1,653.6z M1519.4,654.3c-3.1,1.6-6,3.1-9,4.5
	c-0.2,0.1-0.6-0.2-1-0.4c-0.1,0,0-0.2-0.1-0.2c-1.6-2.2-0.7-4.2,0.7-6.1c1.4-1.9,1.3-1.9,3.4-0.8c1.4,0.7,2.9,1.4,4.3,2.1
	C1518.2,653.6,1518.7,653.9,1519.4,654.3z M1514.7,643.7c-1,1.7-2.1,3.4-3.1,5.2c-0.4,0.7-0.8,0.7-1.4,0.4c-2.2-1.1-2.2-1.1-1.5-3.3
	c0.9-2.8,1.8-5.7,2.8-8.6c0.1-0.4,0.3-0.8,0.6-1.5c1,2.5,1.9,4.6,2.8,6.8C1515,642.9,1514.9,643.4,1514.7,643.7z M1509.5,652.2
	c-0.4,0.7-0.9,1.5-1.4,2.3c-1.7-2-1.2-3.9-0.1-5.8c0.1,0,0.1,0,0.1,0C1511,649.7,1511,649.7,1509.5,652.2z M1507,656.3
	c-0.5,0.8-0.9,1.7-1.3,2.6c0.4-0.6,0.9-1.2,1.3-1.8c0.3-0.4,0.5-0.7,0.9-1.3c0.5,1.2,0.9,2.2,1.2,3.1c0.1,0.2-0.1,0.5-0.2,0.6
	c-1.4,0.7-2.8,1.4-4.4,2c0.4-0.9,0.8-1.7,1.2-2.6c-0.4,0.5-0.9,1-1.3,1.5c-0.1,0-0.1,0-0.2-0.1c0.8-2.4,1.5-4.8,2.3-7.3
	C1507.8,654.3,1507.8,655,1507,656.3z M1509.5,659.7c0.9,2.4,1.8,4.7,2.8,6.9c0.2,0.5,0.5,0.9,0.7,1.4c-0.2-0.8-0.4-1.7-0.7-2.5
	c-0.7-1.8-1.4-3.5-2.1-5.3c-0.1-0.3,0-0.9,0.2-1c2.8-1.5,5.7-2.9,8.6-4.4c0.1,0.1,0.2,0.1,0.3,0.2c-1.2,6.1-2.3,12.1-3.5,18.2
	c-0.1,0-0.2,0.1-0.4,0.1c-0.5-1.2-1-2.3-1.5-3.5c-0.3-0.7-0.7-1.3-1-1.9c0.6,1.8,1.3,3.6,2,5.5c-3.8-3.6-7.5-7.1-11.3-10.8
	C1505.6,661.7,1507.5,660.7,1509.5,659.7z M1519.5,694.7c0.5-0.1,1.1,0,1.8,0c-4.3,11.5-8.5,22.8-12.7,34.2c-0.1,0-0.2,0-0.3,0
	c-0.5-1.1-1-2.2-1.5-3.3c-2.5-6-4.9-12-7.4-18c-0.6-1.4-1.1-2.9-1.7-4.3c-0.3-0.8-0.2-1.2,0.5-1.7c1.1-0.9,2.1-1.9,2.8-3
	c0.7-1.2,1.7-1.6,2.9-1.8C1509,696,1514.2,695.4,1519.5,694.7z M1538.2,787c-1.1,0-1.8,0-2.8,0c0.2-0.6,0.4-1.1,0.7-1.8
	C1536.7,785.8,1537.3,786.3,1538.2,787z M1537.7,781.1c3,0,5.6,0,8.3,0c-0.2,2.1-0.2,2.1-2.1,2.1c-0.7,0-1.4-0.1-2.1,0
	C1540,783.5,1538.9,782.5,1537.7,781.1z M1535.6,776.5c-0.1,0.4-0.4,0.7-0.7,1c-0.2-0.4-0.5-0.7-0.5-1.1c-0.1-1-0.1-2,0-3
	c0-0.8-0.2-1.3-1.1-1.1c-1,0.2-1.4-0.3-1.3-1.3c0.1-0.9-0.1-1.8,0-2.7c0.3-2-0.5-3.4-2-4.5c-0.8-0.7-1.7-1.3-2.5-2
	c0.1-0.2,0.2-0.4,0.3-0.6c3.8-0.9,7.7-1.7,11.8-2.7c-0.9,4-1.8,7.7-2.6,11.4C1536.6,772.2,1536.1,774.4,1535.6,776.5z M1534.5,684.8
	c-0.6,2.2-1,4.5-1.5,6.7c-0.1,0.5-0.2,0.9-0.4,1.4c-0.1,0-0.2,0-0.4,0c0-3.7,0-7.5,0-11.2c0-1.1,0-2.2,0-3.3c0-0.8-0.2-1.3-1.1-1.2
	c-1.3,0.2-1.8-0.5-2-1.7c-0.6-3.4-1.4-6.7-2.1-10.1c0-0.2-0.1-0.5-0.1-1c0.4,0.4,0.7,0.6,0.9,0.8c1.3,1.5,2.6,2.9,3.7,4.5
	c0.7,0.9,1.2,2,1.5,3.1c0.6,1.8,0.9,3.7,1.5,5.6C1535.1,680.5,1535,682.6,1534.5,684.8z M1544.3,787c-0.8-0.7-1.5-1.2-2.2-1.8
	c0.1-0.1,0.1-0.2,0.2-0.3c0.9,0,1.8,0,2.9,0c-0.2,0.7-0.3,1.3-0.5,2C1544.6,786.9,1544.5,786.9,1544.3,787z M1545.1,779.5
	c-2.2,0-4.4,0-6.8,0c0.2-0.7,0.3-1.2,0.5-1.7c-0.5-0.1-0.9-0.2-1.3-0.3c0,0,0-0.1,0-0.1c3,0,6.1,0,9.1,0
	C1547,779,1546.7,779.5,1545.1,779.5z M1546.7,775.6c-3,0.1-6,0.1-9.1,0.1c0-2.1,0.2-2.3,1.9-2.3c2.4,0,4.8,0,7.1,0
	c0.3,0,1,0.5,0.9,0.6C1547.4,774.6,1547.1,775.6,1546.7,775.6z M1546.5,771.9c-2.3,0-4.5,0-6.8,0c-0.4,0-0.9-0.1-1.3-0.1
	c0.1-2,0.1-2.1,1.9-2.1c2.7,0,5.4,0,8.1,0C1548.6,771.7,1548.4,771.9,1546.5,771.9z M1548.4,768.1c-3,0.1-6,0.1-9.1,0.1
	c0-2.2,0.1-2.2,1.9-2.2c2.3,0,4.7,0,7,0c0.4,0,0.7,0.4,1.1,0.6C1549.1,767,1548.8,768.1,1548.4,768.1z M1548,764.3
	c-2.6,0-5.1,0-7.7,0c-0.1-2,0.1-2.3,2-2.3c2.2,0,4.4,0,6.6,0c0.4,0,0.9,0.1,1.4,0.1C1550,764.3,1550,764.3,1548,764.3z
	 M1544.3,731.8c0-0.9-0.3-1.3-1.2-1.2c-0.6,0-1.2,0.1-1.7,0c-0.3,0-0.7-0.2-1-0.3c0-0.2,0.1-0.3,0.1-0.5c2,0,4,0,6.1,0
	c0.2,0,0.5,0.5,0.6,0.7c0.1,2.5,0.1,4.9,0.1,7.4c0,1.1-0.6,1.2-1.4,1.2c-0.8,0-1.5,0-1.4-1.2C1544.3,736,1544.2,733.9,1544.3,731.8z
	 M1549,760.5c-2.2,0-4.5,0-6.7,0c-0.4,0-0.8,0-1.2-0.1c0-2.1,0.1-2.1,2-2.2c2.2,0,4.4,0,6.6-0.1c0.5,0,1,0,1.5,0.1
	C1551,760.4,1550.9,760.5,1549,760.5z M1551.1,756.5c-3,0.1-6.1,0.1-9.2,0.1c0.2-2.1,0.2-2.2,2.1-2.3c2.4-0.1,4.7,0,7.1,0
	c0.3,0,0.9,0.5,0.9,0.5C1551.7,755.5,1551.4,756.5,1551.1,756.5z M1552.6,752.2c-0.1,0.2-0.5,0.5-0.8,0.5c-2.6,0.1-5.1,0.2-7.7,0.2
	c-0.6,0-1.4,0.1-1.4-0.8c0-0.8,0.1-1.7,1.2-1.9c3.1-0.5,6.1-1,9.5-1.6C1553.1,750,1553,751.1,1552.6,752.2z M1553.5,738.5
	c0,0.2-0.5,0.6-0.8,0.7c-1.4,0.1-2.7,0-4.1,0c-0.8,0-1.1-0.4-1.1-1.2c0-2.7,0-5.3,0-8.2c1.9,0,3.4,0,5,0c0.9,0,1.2,0.4,1.2,1.2
	C1553.7,733.5,1553.6,736,1553.5,738.5z M1554.2,738.9c0-2.7,0-5.4,0-8c0-0.3,0.3-0.6,0.4-0.9c0.2,0.3,0.5,0.5,0.6,0.8
	c0.7,2.6,1.3,5.3,2,8.1C1556.3,738.9,1555.3,738.9,1554.2,738.9z M1555.6,725.2c2.7,0,5.1,0,7.6,0c2.6,0,3.1,0.5,3,3.4
	c0,0.1-1.2,0.1-1.9,0.1c-2.3,0-4.5,0-6.8,0c-0.9,0-1.4-0.3-1.5-1.2C1556,726.8,1555.8,726.2,1555.6,725.2z M1558,735.6
	c0-0.6-0.1-1.3-0.2-2.2c3.3,0,6.4,0,9.5,0c0.2,0,0.5,0.3,0.6,0.5c0.3,0.9,0.5,1.8,0.7,2.9c-0.7,0-1.3,0.1-1.8,0.1
	c-2.4,0-4.7,0-7.1,0.1C1558.6,737,1558,736.7,1558,735.6z M1569.1,738.9c-0.4,0.1-0.8,0.1-1.1,0.1c-2.7,0-5.4,0-8.1,0
	c-0.9,0-1.2-0.4-1.1-1.4c0.3,0,0.7-0.1,1.1-0.1c2.7,0,5.3,0.1,8,0C1568.8,737.5,1569.2,737.9,1569.1,738.9z M1569.6,734.4
	c-0.1,0-0.2,0.1-0.3,0.1c-0.4-1.4-0.8-2.9-1.2-4.3c1.4-0.5,1.6-0.4,1.6,0.9C1569.6,732.2,1569.6,733.3,1569.6,734.4z M1567.5,722.7
	c0.1,0,0.2,0,0.3,0c0.5,2,1,4.1,1.6,6.2c-1.6,0.3-1.9,0.1-1.9-1.2C1567.4,726,1567.5,724.4,1567.5,722.7z M1567.5,732.6
	c-0.5,0-1,0.1-1.4,0.1c-2.2,0-4.5,0-6.7,0c-2.1,0-2.4-0.3-2.4-2.8c3.2,0,6.2,0,9.3,0c0.3,0,0.7,0.4,0.8,0.7
	C1567.3,731.2,1567.3,731.9,1567.5,732.6z M1564.7,710.1c1.1,4.6,2.9,9,2,14.1C1564.9,719.6,1563.9,715,1564.7,710.1z M1565,722.8
	c0,0.5,0.2,1,0.3,1.7c-1.7,0-3.1,0-4.6,0c-1.3,0-2.6-0.1-3.9,0c-1,0.1-1.6-0.3-1.7-1.3c-0.1-0.6-0.3-1.2-0.5-1.9
	c0.5-0.1,1-0.2,1.4-0.2c2.3,0,4.6,0.1,6.9,0C1564.2,721,1564.8,721.5,1565,722.8z M1564.2,720.3c-0.8,0-1.5,0.1-2.1,0.1
	c-2.2,0-4.3,0-6.5,0c-1,0-1.4-0.4-1.6-1.3c-0.1-0.6-0.3-1.2-0.5-1.9c0.5-0.1,0.9-0.1,1.3-0.1c2.4,0,4.8,0,7.3,0c1,0,1.5,0.3,1.7,1.3
	C1563.8,718.9,1564,719.5,1564.2,720.3z M1553.3,704.8c1.8,0,3.7,0,5.5,0c1,0,1.6,0.3,1.6,1.3c0,0.6,0.2,1.2,0.4,2c-2,0-3.9,0-5.7,0
	c-1,0-1.9,0-2.9,0c-0.7,0-1.1-0.2-1-1c0-0.1,0-0.2,0-0.2C1551.2,704.5,1551,704.8,1553.3,704.8z M1551.7,703.6c2.5,0,5.1,0,7.6,0
	c0,0.1,0,0.1,0,0.2c-2.5,0-5,0-7.6,0C1551.7,703.8,1551.7,703.7,1551.7,703.6z M1556.8,708.9c0.5,0,1.1,0,1.6,0c3.2,0,3.2,0,3.5,3.4
	c-3,0-6.1,0-9.1,0c-0.3,0-0.6-0.4-0.7-0.7c-0.3-0.8-0.4-1.7-0.6-2.7C1553.3,708.9,1555.1,708.9,1556.8,708.9z M1558.5,712.9
	c0.5,0,0.9,0,1.4,0c2.5,0,3.2,0.7,3.1,3.5c-1.2,0-2.4,0-3.6,0c-1.7,0-3.4,0-5.1,0c-0.7,0-1.1-0.2-1.2-0.9c-0.1-0.8-0.3-1.5-0.5-2.5
	C1554.7,712.9,1556.6,712.9,1558.5,712.9z M1546.3,686.1c3.5,0,6.9,0,10.4,0c1.3,0,2.2,0.4,2.5,1.8c1,4.3,2,8.5,3.3,12.7
	c1.2,3.8,1.3,7.6,1.2,11.4c0,0.2-0.1,0.3-0.1,0.5c-0.1,0-0.2,0-0.3,0c-1.1-4.5-2.3-9-3.4-13.6c-0.2-0.7-0.3-1-1.1-1
	c-1.2,0-2.3,0-3.5,0c-0.8,0-1.1-0.3-1.1-1.1c-0.1-3-0.1-3.1-3.1-3c-1.9,0.1-3-0.4-3.7-2.2c-0.7-1.8-1.7-3.5-2.6-5.5
	C1545.5,686.2,1545.9,686.1,1546.3,686.1z M1542.4,721.2c2.7-3.1,5.1-6.4,7.7-9.7c0.1,0,0.3,0,0.4,0.1c1.4,5.7,2.9,11.5,4.3,17.4
	c-1.2,0.1-2.2,0.2-3.2,0.2c-3.2,0-6.5,0-9.7,0c-1.1,0-1.5-0.4-1.6-1.6C1540.1,725.2,1540.7,723.2,1542.4,721.2z M1522.2,650.2
	c7-0.6,14-0.8,20.7,2c4.5,1.9,8.3,4.6,10,9.4c1.9,5.5-1.3,10.8-7.1,11.7c-0.4,0.1-0.8-0.1-1.2-0.2c-0.4-0.1-0.8-0.2-1.2-0.2
	c-1.6,0-3.2,0-4.8,0c-0.9,0-1.5-0.3-2-1c-3.4-4-6.9-8-10.6-12.2c-0.8,2.2-1.9,4.1-1.8,6.4c0.1,2.5,0,5.1,0,7.6c0,1-0.3,1.3-1.3,1.3
	c-2-0.1-4,0-6.2,0c0.1-0.6,0.1-1.2,0.2-1.7c0.6-3.6,1.2-7.1,1.9-10.6c0.7-3.9,1.6-7.7,2.5-11.5
	C1521.2,650.7,1521.8,650.2,1522.2,650.2z M1519.9,652.3c-0.1,0-0.3,0-0.4,0.1c-0.8-2-1.7-4-2.5-6c-0.1-0.2-0.1-0.3-0.2-0.5
	c-1.4-2-0.9-3.6,0.4-5.5c2.3-3.4,4.3-6.9,6.4-10.4c0.2-0.3,0.4-0.5,0.6-0.7c0.1,0,0.2,0.1,0.3,0.1
	C1522.9,637,1521.4,644.6,1519.9,652.3z M1515.3,642.6c-1.1-2.5-2-4.7-2.8-6.9c-0.4-1.1,0.1-2.5,1-3c3.4-1.8,6.9-3.5,10.3-5.2
	c0.1-0.1,0.3-0.1,0.8-0.2C1521.5,632.4,1518.5,637.3,1515.3,642.6z M1513.5,632.3c-0.1-0.1-0.2-0.2-0.3-0.3
	c1.2-3.6,2.3-7.3,3.6-11.2c2.8,1.9,5.4,3.7,8.2,5.7C1521,628.5,1517.3,630.4,1513.5,632.3z M1517.2,619.8c0.6-2.1,1.3-4.2,2-6.4
	c0-0.1,0.2-0.2,0.5-0.6c1.7,4.2,3.4,8.3,5,12.3c-0.1,0.1-0.2,0.2-0.3,0.2c-1.2-0.8-2.4-1.6-3.6-2.4c-1.1-0.7-2.1-1.5-3.1-2.2
	C1517.4,620.6,1517.1,620.1,1517.2,619.8z M1525.3,624.5c-0.1,0-0.3,0-0.4,0c-0.3-0.7-0.6-1.3-0.9-2c-1.3-3.1-2.5-6.2-3.8-9.2
	c-0.3-0.8-0.1-1.2,0.4-1.7c0.8-0.8,1.6-1.6,2.4-2.5c0,0,0,0,0,0c1.5-1.4,3-2.7,4.4-4.1c0.5-0.5,1-0.9,1.5-1.4
	c0.1,0.1,0.2,0.1,0.3,0.2C1527.9,610.7,1526.6,617.6,1525.3,624.5z M1529.1,602.8c-1.8,1.8-3.7,3.6-5.5,5.4
	c-0.3,0.3-0.4,0.6-0.6,0.9c-1,0.7-1.9,1.5-3,2.3c0.4-5.6,4.8-8.9,7.6-13.3c0.7,1.3,1.4,2.4,1.9,3.6
	C1529.6,601.9,1529.4,602.5,1529.1,602.8z M1529.9,600.6c-1.7-1.3-1.9-2.8-0.8-4.3c0.6-0.8,1.1-1.5,1.7-2.3c0.1,0.1,0.2,0.1,0.3,0.2
	C1530.7,596.3,1530.3,598.4,1529.9,600.6z M1534.1,578.9c-0.1,0-0.3,0-0.4,0c-0.3-1.5-0.6-2.9-0.8-4.4c0-0.4,0.3-0.8,0.6-1.2
	c0.6-0.9,1.2-1.7,1.8-2.5c0.1,0,0.2,0.1,0.4,0.1C1535.1,573.5,1534.6,576.2,1534.1,578.9z M1532.7,571.1c2.1-6.6,4.2-13.3,6.4-19.9
	c0.1-0.2,0.2-0.4,0.5-0.6c-0.3,1.7-0.6,3.3-0.9,5c-0.8,4-1.5,8.1-2.4,12.1c-0.3,1.3-1.2,2.5-1.8,3.7c-0.4,0.7-0.9,1.2-1.4,1.8
	c-0.1,0-0.2,0-0.4-0.1C1532.6,572.4,1532.5,571.7,1532.7,571.1z M1529.5,581c0.7-2.1,1.1-4.4,2.9-6c2.1,5,0.6,9.9-0.6,15.2
	c-0.3-0.6-0.6-1-0.7-1.4c-0.6-1.6-1-3.2-1.6-4.8C1529,583,1529.1,582.1,1529.5,581z M1526.2,591.1c0.9-2.1,1.5-4.4,2.2-6.6
	c0.1-0.3,0.3-0.5,0.5-0.9c0.9,2.6,1.8,5,2.6,7.5c0.1,0.4,0.2,1,0,1.3c-1.1,1.6-2.3,3.2-3.6,5
	C1526.8,595.1,1525.1,593.6,1526.2,591.1z M1525.3,594.2c0.1,0,0.2,0,0.4,0c0.5,0.9,1,1.8,1.4,2.7c0.2,0.4,0.2,1,0,1.3
	c-1.5,2-3,4-4.6,6c-0.1-0.1-0.3-0.1-0.4-0.2C1523.2,600.7,1524.2,597.5,1525.3,594.2z M1379.3,591c3.1-4.2,6.9-7.9,11.3-10.8
	c0.5-0.3,1.1-0.5,1.7-0.5c11.8,0.6,23.5,1.2,35.3,1.8c11,0.6,22.1,1.1,33.1,1.7c3.1,0.2,6.2,0.4,9.8,0.6c-1.6,1.5-3,2.7-4.4,3.9
	c-4.8,4.3-9.7,8.5-14.5,12.8c-5.2,4.7-10.3,9.4-15.4,14.1c-2.5,2.4-5,4.8-7.5,7.2c-1.3,1.2-1.3,1.3-2.6,0.2
	c-2.6-2.2-5.2-4.3-7.8-6.5c-0.3-0.2-0.3-0.8-0.2-1.2c0.3-1.4,0.7-2.8,0.9-4.2c0.1-0.5-0.1-1.1-0.4-1.5c-1.1-1.9-2.7-2-3.7,0
	c-1.7,3.3-4.2,5.7-7.5,7.3c-0.7,0.3-1.6,0.8-1.4,1.8c0.2,1.1,0.9,1.7,2,2c1.8,0.5,3.5,0.2,5.1-0.5c0.7-0.3,1.1-0.2,1.6,0.4
	c2.2,2.8,4.5,5.5,6.8,8.2c0.5,0.5,0.4,0.9-0.1,1.3c-5,5-10.1,9.9-15.1,14.9c-4.7,4.7-9.3,9.6-13.9,14.4c-3.3,3.5-6.6,7-9.9,10.5
	c-0.3,0.3-0.6,0.5-1.1,1c-0.1-0.7-0.2-1.3-0.2-1.8c-0.3-10.3-0.7-20.7-1-31c-0.5-14.6-1-29.2-1.4-43.7
	C1378.6,592.4,1378.9,591.5,1379.3,591z M1447.3,710.7c-0.2-0.6-0.4-1.1-0.5-1.7c-0.1-0.3,0-0.9,0.2-0.9c1.8-0.6,3.5-1.2,5.5,0.2
	C1450.6,709.1,1449.4,710.7,1447.3,710.7z M1447.3,710.7C1447.3,710.7,1447.3,710.7,1447.3,710.7c-0.3,0.4-0.6,0.8-1,1
	c-1.6,0.9-3.1,1.9-4.8,2.7c-0.5,0.2-1.2,0.4-1.6,0.3c-2.1-0.8-4-1.7-6.4-2.7c1.1-0.4,1.9-0.7,2.8-0.9c2.9-0.8,5.8-1.6,8.6-2.5
	c0.8-0.2,1.2,0,1.5,0.7C1446.7,709.8,1447,710.2,1447.3,710.7z M1451.3,707.4c0-0.2,0-0.3,0-0.5c2.1-0.6,4.1-1.2,6.2-1.8
	c0.1,0.1,0.1,0.2,0.2,0.3c-1.5,0.8-2.9,1.7-4.4,2.3C1452.7,708,1451.9,707.5,1451.3,707.4z M1459.4,704.9c0.1,0.1,0.2,0.2,0.3,0.2
	c-0.8,1.4-1.5,2.8-2.3,4.1c-0.1,0.2-0.5,0.3-0.6,0.3c-1-0.4-2-0.8-3.3-1.3C1455.8,706.9,1457.6,705.9,1459.4,704.9z M1400.7,721.7
	c-0.9,0.7-1.8,1.4-2.7,2c-1,0.7-2,1.5-3,2.1c-0.3,0.2-0.8,0.4-1.1,0.3c-1-0.5-2-1-3-1.6c0-0.1,0.1-0.2,0.1-0.3
	c3.2-0.9,6.4-1.9,9.6-2.8C1400.6,721.5,1400.7,721.6,1400.7,721.7z M1341.5,718.7c-0.2,0.2-0.3,0.4-0.8,0.5c0.4-1.5,0.7-2.9,1.1-4.4
	c1.9-7.4,3.9-14.8,5.9-22.1c1.8-6.6,3.6-13.2,5.3-19.8c1.2-4.6,2.3-9.1,3.5-13.7c1.9-7.1,3.8-14.3,5.7-21.4
	c2.4-9.2,4.9-18.4,7.3-27.6c1.1-4.3,2.2-8.7,3.4-13c0.1-0.5,0.6-0.9,1-1.2c0.7-0.5,1.6-0.9,2.6-1.5c0.1,0.5,0.1,0.8,0.1,1.2
	c0.2,6.1,0.3,12.2,0.6,18.4c0.4,11.1,0.8,22.2,1.2,33.2c0.3,8,0.5,15.9,0.7,23.9c0,0.6-0.2,1.3-0.6,1.8
	c-5.8,6.7-11.7,13.3-17.4,20.1c-4.3,5.2-8.5,10.6-12.6,15.9C1346.1,712.1,1343.9,715.5,1341.5,718.7z M1346.3,737.4
	c0-0.1-0.1-0.2-0.1-0.3c3.8-1.1,7.6-2.4,11.4-3.3c3.8-0.9,7.5-2.7,11.5-2.7c-2,1.5-3.8,3.2-6.5,3.5
	C1357.2,735.4,1351.7,736.4,1346.3,737.4z M1366.5,733.9c2.5-2.7,5.5-3.2,8.5-1.4C1372.3,733,1369.6,733.4,1366.5,733.9z
	 M1371.3,730.7c2.1-2.1,5-2.7,7.5-2.8c2.6-0.1,5.2,1.4,7.7,2.5C1381.4,731.3,1376.5,733,1371.3,730.7z M1388.6,730.2
	c-0.2,0.1-0.6,0.1-0.8,0c-2.3-0.8-4.7-1.6-7-2.5c-0.1,0-0.2-0.2-0.5-0.4c2.2-0.6,4.3-1.2,6.3-1.8c0.3-0.1,0.7-0.1,1-0.3
	c2.5-1.4,4.2,0.3,6.4,1.5C1392,727.9,1390.3,729.1,1388.6,730.2z M1397.2,728.7c-2.1,0.4-4.3,0.8-6.4,1.1c-0.1-0.1-0.1-0.3-0.2-0.4
	c1.3-0.8,2.4-2,3.8-2.4c0.8-0.2,1.9,0.8,2.9,1.3C1397.2,728.5,1397.2,728.6,1397.2,728.7z M1397.7,728.2c-0.9-0.5-1.8-1-3-1.7
	c4.4-2.8,7.9-6.7,13.6-7.1c-0.9,0.9-1.6,1.7-2.3,2.4c-2.1,2-4.2,4-6.2,6C1399.1,728.5,1398.5,728.7,1397.7,728.2z M1400.4,728.2
	c-0.1-0.1-0.2-0.3-0.3-0.4c1.1-1,2.1-2,3.2-3c1.6-1.5,3.2-3.1,4.8-4.7c0.8-0.8,1.5-1,2.6-0.5c3.6,1.6,7.3,3.1,11,4.7
	c0,0.1,0,0.2,0,0.4C1414.6,725.8,1407.5,727,1400.4,728.2z M1422.4,724.1c-4.1-1.7-8.1-3.4-12.5-5.2c0.6-0.2,0.9-0.4,1.2-0.5
	c1.9-0.5,3.8-1.1,5.8-1.6c0.3-0.1,0.8-0.1,1,0.1c1.6,2.3,3.2,4.6,4.8,6.9C1422.6,723.9,1422.5,724,1422.4,724.1z M1418,716.4
	c3.9-1.1,7.6-2.2,11.3-3.2c0.1,0.1,0.2,0.2,0.2,0.2c-1.9,3.6-3.9,7.1-6,11C1421.7,721.6,1419.9,719.1,1418,716.4z M1424.6,723.9
	c-0.1-0.1-0.2-0.2-0.2-0.2c0.6-1.1,1.1-2.2,1.7-3.2c1.2-2.2,2.5-4.4,3.7-6.7c0.6-1.1,2.1-1.9,3.2-1.5c2.3,0.8,4.5,1.9,7.1,2.9
	C1434.8,718.3,1429.7,721.1,1424.6,723.9z M1426.5,723.8c0-0.1-0.1-0.2-0.1-0.3c0.8-0.5,1.6-1,2.4-1.4c3.7-2.1,7.5-4.2,11.2-6.2
	c0.3-0.2,0.9-0.3,1.3-0.1c2.8,1.2,5.7,2.4,8.5,3.6c0.1,0.1,0.2,0.2,0.6,0.5C1442.2,721.2,1434.4,722.5,1426.5,723.8z M1450.9,719.4
	c-3.1-1.3-6.3-2.7-9.4-4c0-0.1-0.1-0.2-0.1-0.4c2-1.1,3.9-2.2,6.1-3.5c1.3,2.6,2.5,5.1,3.6,7.5
	C1451.1,719.2,1451,719.3,1450.9,719.4z M1450.1,716c-0.6-1.2-1.1-2.5-1.8-3.7c-0.3-0.6-0.3-1,0.4-1.4c1.3-0.7,2.6-1.5,3.9-2.2
	c0.3-0.2,0.8-0.1,1.2,0c0.2,0,0.4,0.2,0.7,0.3c0.8,0.3,1.8,0.4,2.2,1c0.3,0.5-0.3,1.4-0.5,2.2c0,0,0,0,0,0c-0.7,1.1-1.4,2.2-2,3.3
	c-0.7,1.2-1.4,2.5-2.2,4C1451.2,718.2,1450.6,717.1,1450.1,716z M1452.5,719.5c1.3-2.6,2.5-5,3.7-7.3c0.2-0.2,0.5-0.5,0.6-0.8
	c0.3-1.1,0.9-1.1,1.9-0.7c3.9,1.6,7.9,3.2,11.9,4.8c0.3,0.1,0.6,0.4,0.9,0.8C1465.2,717.3,1459,718.4,1452.5,719.5z M1471.4,715.4
	c-4.5-1.8-9.1-3.7-13.8-5.6c1.1-1.9,2-3.7,2.9-5.3c3.8,3.6,7.5,7,11.2,10.5C1471.6,715.1,1471.5,715.3,1471.4,715.4z M1476.2,579
	c-0.7,0.6-1.5,1.1-2.1,1.8c-0.9,1.1-2,1.1-3.3,1.1c-6.8-0.4-13.6-0.8-20.4-1.2c-4.9-0.2-9.8-0.4-14.6-0.6
	c-8.4-0.4-16.8-0.9-25.2-1.4c-5-0.3-9.9-0.5-14.9-0.7c-0.6,0-1.1-0.1-1.7-0.2c0.5-1.1,1-2.1,1.5-3c0.2-0.3,0.7-0.4,1.1-0.5
	c4.6-1.1,9.2-2.1,13.7-3.2c8.3-2,16.5-3.9,24.8-5.9c7.2-1.7,14.5-3.5,21.7-5.2c9.1-2.1,18.1-4.2,27.2-6.4c7.3-1.7,14.7-3.5,22-5.2
	c4.7-1.1,9.5-2.2,14.2-3.3c0.4-0.1,0.7-0.1,1.1-0.2c0,0.1,0.1,0.2,0.1,0.2c-1.3,0.8-2.6,1.6-3.8,2.5c-6.9,4.9-14,9.6-20.8,14.7
	C1489.9,567.7,1483.1,573.4,1476.2,579z M1480.4,704.7c0.4-1.5,1-2.8,2.7-3.3c5.2-1.5,9.6-4.5,13.4-8.2c2.4-2.3,4.5-4.9,5.9-8
	c0.7-1.5,2-2.1,3.8-2C1505.5,690.4,1487.7,705.2,1480.4,704.7z M1481.8,721.1c-0.3-0.7,0-0.9,0.7-0.9c1.2,0,2.3-0.1,3.5,0.1
	c0.4,0.1,0.9,0.6,1.1,1.1c2.2,5.6,4.3,11.2,6.4,16.8c1.9,5.1,3.8,10.2,5.7,15.3c0.6,1.6,1.3,3.2,1.9,4.8c0.1,0.4,0.3,0.7,0.5,1.3
	c-1.8,0-3.3,0-4.9,0c-0.2,0-0.5-0.4-0.6-0.6c-1.4-3.5-2.7-7-4-10.5c-1.3-3.6-2.7-7.2-4-10.7C1486,732.1,1483.9,726.6,1481.8,721.1z
	 M1481.5,773.6c0.1,0.1,0.3,0.1,0.4,0.2c-0.1,1.4-0.1,2.8-0.2,4.1c-0.1,1.7-0.1,1.7,1.6,1.7c1.5,0,3,0,4.5,0c1.5,0,1.8,0.4,1.1,1.8
	c-0.8,1.6-1.5,3.2-2.5,4.7c-3.6,5.2-7.2,10.4-10.8,15.6c-6.9,1.9-14,3.9-21.3,6C1463.5,796.4,1472.5,785,1481.5,773.6z"/>
<g>
	<path class="st1" d="M1676.3,1051.8c0.1,0,0.3,0,0.4,0C1667.5,1051.8,1662,1051.8,1676.3,1051.8z"/>
	<path class="st1" d="M1698.8,1051.8c0.1,0,0.1,0,0.2,0C1699.1,1051.8,1699,1051.8,1698.8,1051.8z"/>
	<path class="st1" d="M1676.7,1051.8c8.7,0,20.5,0,22.1,0C1691.5,1051.8,1684.1,1051.8,1676.7,1051.8z"/>
</g>
<linearGradient id="SVGID_2_" gradientUnits="userSpaceOnUse" x1="-6755.2246" y1="-2077.4797" x2="-6755.2246" y2="-843.1221" gradientTransform="matrix(-1 0 0 -1 -5901.8247 -2920.6018)">
	<stop  offset="0" style="stop-color:#A104FF"/>
	<stop  offset="0.1884" style="stop-color:#8103CD"/>
	<stop  offset="0.7535" style="stop-color:#25013B"/>
	<stop  offset="1" style="stop-color:#000000"/>
</linearGradient>
<polygon class="st2" points="639.4,-2077.5 1067.4,-2077.5 1067.4,-843.1 639.4,-843.1 "/>
</svg>
