<?xml version="1.0" encoding="utf-8"?>
<!-- Generator: Adobe Illustrator 23.0.2, SVG Export Plug-In . SVG Version: 6.00 Build 0)  -->
<svg version="1.1" id="Layer_1" xmlns="http://www.w3.org/2000/svg" xmlns:xlink="http://www.w3.org/1999/xlink" x="0px" y="0px"
	 viewBox="0 0 3504.2 1740.5" style="enable-background:new 0 0 3504.2 1740.5;" xml:space="preserve">
<style type="text/css">
	.st0{fill:url(#SVGID_1_);}
	.st1{fill:#3C0082;}
	.st2{fill:url(#SVGID_2_);}
</style>
<linearGradient id="SVGID_1_" gradientUnits="userSpaceOnUse" x1="1752.1001" y1="315.2347" x2="1752.1001" y2="1740.4695">
	<stop  offset="0" style="stop-color:#470274"/>
	<stop  offset="0.1806" style="stop-color:#440270"/>
	<stop  offset="0.3678" style="stop-color:#3D0263"/>
	<stop  offset="0.558" style="stop-color:#30014F"/>
	<stop  offset="0.7503" style="stop-color:#1E0132"/>
	<stop  offset="0.9425" style="stop-color:#08000D"/>
	<stop  offset="1" style="stop-color:#000000"/>
</linearGradient>
<path class="st0" d="M3352.2,716.8c-18.5,1.8-251.5,112.9-251.5,112.9s-229.3-5.6-251.5,0c-22.2,5.6-207.2,73.4-259,111
	c-51.8,37.7-129.5,63.9-321.8,82.8l-115.9-17c-42.2-6.2-85.2-5.7-127.2,1.3l-108.4,18.3l0,0h-28.8c-7.6-6.7-15.2-13.4-22.9-20
	c-1-0.8-1.2-1.5-1-2.7c2.2-9.8,4.4-19.6,6.6-29.4c1.6-7.3,3.3-14.6,4.8-22c0.4-1.9,1.2-3,3.3-3.1c1.2,0,2.3-0.4,3.5-0.6
	c1.5-0.2,2.3-1,2.3-2.6c0-1.7,0-3.4,0-5.1c0-1.1,0.6-1.4,1.7-1.4c3,0.1,6,0,9,0.2c1.5,0.1,1.7-0.6,1.6-1.9c-0.2-4-0.3-8-0.4-12
	c0-1.1-0.1-2.2-0.3-3.2c-0.9-4-1.8-8-2.8-12c-2.3-9.5-4.6-19-6.9-28.5c-1.2-5.1-2.5-10.2-3.9-15.2c-0.9-3.3-1.5-3.5-4.8-3.5
	c-4.9,0-9.9,0-14.8,0c-0.6,0-1.6-0.3-1.8-0.8c-1.2-2.5-2.4-5-3.3-7.6c-0.7-1.7-0.1-2.4,1.8-2.5c1.2,0,1.9-0.4,2.2-1.6
	c0.1-0.5,0.8-1,1.4-1.2c1.2-0.4,2.5-0.4,3.6-0.8c8.2-3.3,11.9-11.2,8.9-19.5c-2.6-7.4-8.4-11.7-15.4-14.6c-7.3-3-15-3.7-22.9-3.4
	c-2.2,0.1-4.4,0.3-6.8,0.4c0-0.5,0-0.8,0.1-1c1.1-5.5,2.2-11,3.2-16.4c1.5-8.1,3-16.2,4.5-24.3c1.9-9.8,3.8-19.5,5.7-29.2
	c1.6-8.3,3.1-16.5,4.7-24.8c1.2-6.5,2.5-13,3.8-19.4c1.9-9.5,3.8-19,5.7-28.5c0.2-1.2,0.4-2.5,0.3-3.7c-0.2-2.4-1.4-3.8-3.9-3.9
	c-1.9,0-3.9,0.3-5.7,0.8c-3.4,1.1-6.6,2.7-10,3.6c-10.4,2.6-20.8,5-31.2,7.5c-17.1,4.1-34.1,8.1-51.2,12.2
	c-9.6,2.3-19.2,4.6-28.7,6.9c-14.2,3.4-28.3,6.8-42.5,10.2c-9,2.2-17.9,4.3-26.9,6.5c-0.6,0.1-1.4,0.2-2-0.1
	c-4.3-2.2-8.9-2.3-13.4-1.3c-6.2,1.4-11.2,4.8-14.7,10.2c-4.2,6.5-5.9,13.4-2.6,20.8c0.2,0.6,0.3,1.3,0.1,1.9
	c-1,4.2-2.1,8.4-3.2,12.6c-3.1,11.8-6.1,23.7-9.2,35.5c-1.9,7.2-3.9,14.4-5.7,21.6c-1.6,6.2-3.1,12.5-4.7,18.7
	c-3.2,12.3-6.5,24.6-9.8,37c-1.7,6.4-3.2,12.8-4.9,19.2c-2.3,8.9-4.7,17.9-7.1,26.8c-1.2,4.5-2.2,9.1-4.3,13.3
	c-1.4,2.8-2.1,6-2.5,9.2c-0.4,3.2,1.4,4.9,4.6,4.7c2.6-0.2,5.1-0.9,7.6-1.4c11-1.9,22-3.8,33-5.7c10.1-1.7,20.2-3.5,30.3-5.2
	c7.7-1.3,15.4-2.5,23.1-3.9c9.1-1.6,18.2-3.3,27.2-4.9c4.1-0.7,8.2-1.2,12.3-1.9c6.7-1.1,13.3-2.2,20-3.3
	c10.4-1.8,20.9-3.6,31.3-5.4c0.5-0.1,1.3,0.2,1.6,0.5c1,1.6,1.9,3.1,1.9,5.2c-0.1,5,0,9.9,0,14.9c0,13.3,0,26.6,0,39.8
	c0,1.6,0.5,2,2,2c2.8-0.1,5.6,0,8.3,0c1.8,0,3.7,0,5.5,0c0,0.1,0.1,0.3,0.1,0.4c-0.5,0.4-1,0.7-1.5,1.1c-2.1,1.7-4.4,3.2-6.2,5.1
	c-2.5,2.7-4.6,5.8-6.8,8.7c-6.9,8.9-13.9,17.8-20.8,26.8c-3.9,5-7.9,10-11.8,15h-35.2v25.7c-0.7,0-1.4,0-2.2,0c-0.2,0-2.7,0-8.7,0
	c-0.7,0-1.3,0.1-2.1,0.1c0,1.2,0,2.4,0,3.6l-215.3-24.5h-199.8l-61.2-69.7c-38.9-44.5-58.8-103-54.9-162.5l3.4-51.9
	c0.9-13.1-9.6-24.1-22.5-23.8l-47.1,1.4c0.1-3.5-0.8-7.1,0.2-10.3c2.3-7,3.4-13.7-1.1-20.4c-0.2-0.3-0.3-0.7-0.2-1
	c2.5-7.4,2.6-14.8,0.1-22.2c-0.4-1.3,1.6-3.2,2.5-4.8c1.8,1,3.9,1.7,5.4,3.1c2.2,1.9,4.2,4.2,6,6.4c1.9,2.3,3.5,4.9,5.2,7.4
	c1.1,1.6,2.2,3.4,3.2,5.1c2.3,4,4.6,7.8,6.9,11.8c0.5,0.9,0.9,1.9,1.6,2.7c2.2,2.7,5.6,4.1,8.6,2.3c1.6-0.9,2.5-4.6,1.8-6.5
	c-1.8-5-4.4-9.9-7-14.6c-2.5-4.5-4.9-8.8-2.6-13.9c0.4-0.9,0.1-2.4-0.6-3.3c-6.3-8.2-11.2-17.3-19.9-24c-3.7-2.9-2.9-7.2,0.9-10
	c2.8-2,4.7-0.7,5.6,1.5c1,2.4,3.5,4.1,6.1,3.7c5.1-0.8,8.5,0.7,10.8,5c3.5,6.5,4.9,6.4,12.6,4.4c2.2-0.6,5.3,1.4,8.3,2.3
	c2.3-3.8-0.3-6.9-3.1-9.5c-7.6-6.8-16.6-12.4-23.9-19.3c-3.9-3.7-8.2-6.8-12.8-9.4c-1.5-0.8-2.5-2.1-3.6-3.4c-2.8-3.5-1.9-5.3,3-5.8
	c1.7-0.2,3.4-0.1,5-0.5c4.8-1.3,8.8-0.4,12.4,2.7c2.3,2,4.9,3.2,8.5,1.9c3.5-1.2,6.1,0.6,8.7,2.9c5.2,4.7,7.6,5,12.5,2.3
	c0.2-1.4,0.2-1.9,0.4-3.3c-5.5-4.8-11.1-9.6-16.6-14.5c-8.2-7.2-17.7-11.8-29.5-12.6c-2.8-0.2-6-0.5-8-1.9c-1.8-1.3-2.6-4.1-2.9-6.3
	c-0.4-2.4,1.4-3.8,4.3-3.8c0.9,0,2.2-0.5,2.6-1.1c2.8-4.4,5.9-2.4,9.1-0.5c3.2,1.9,6.2,4.2,9.7,5.3c2.2,0.7,5.2-0.3,7.8-0.5
	c-0.6-2-0.6-4.7-2.1-6.1c-5-4.9-11.7-6.9-19-7.8c-2.6-0.3-5.7-1.1-7.5-2.6c-2.6-2.2-1.9-5.3,0.5-7.6c2.5-2.5,5.7-2,7.9,0.1
	c2.7,2.6,5.5,3.7,9.6,3.3c2-0.2,4.4,1.6,6.5,2.7c3.8,2,7,5.7,12.4,4.6c1.5-3.2,1-6.1-1.9-8.1c-9-6.4-14.2-16.3-24.7-21.3
	c-1.5-0.7-3.2-3.8-2.6-4.9c1.4-2.7,4.1-1.3,6.3-0.1c1.2,0.7,2.5,1.3,3.7,2.1c2.8,1.8,5.5,4.2,7.6-0.7c0.2-0.4,2.6-0.6,3.6-0.2
	c1.8,0.7,3.1,2.4,4.9,2.9c1.8,0.4,4.9,0.2,5.6-0.8c1-1.3,1.1-4.2,0.1-5.5c-1.8-2.2-4.6-3.8-7.1-5.4c-8.1-5.6-16.4-11.1-24.4-16.9
	c-1.5-1.1-2.7-3.2-3.1-4.9c-0.2-1.1,1-2.7,2.1-3.6c0.6-0.4,2.4,0.1,3.5,0.6s2,1.5,3,2.2c2.4,1.7,4.8,3.9,6.5-0.8
	c0.8-2.2,2.9-2.6,5.7-1.6c2.4,0.9,5.3,1,7.9,1.4c0.4-0.8,0.4-0.7,0.8-1.5c-3.3-3.5-6.6-6.9-10.4-10.9c1.9-0.4,3.2-0.6,4.3-0.9
	c1.4-0.5,3.9-1.1,3.9-1.6c-0.1-1.4-0.8-3.3-2-4.2c-6.2-4.8-12.6-9.2-18.8-13.9c-1.7-1.2-3.5-3.1-3.8-4.9c-0.8-4.7,4-7.8,9-6
	c3.9,1.4,7.5,3.5,11.6,5.4c1.3-5.4,0.1-9.6-4.6-13c-3.8-2.9-7.3-6-11-9c0.3-0.6,0.3-0.5,0.6-1.1c4.2,1.3,8.4,2.6,12.6,4
	c-0.7-7.5-4.6-12.2-9.9-16.5c-4.9-4.1-9.4-8.7-13.5-13.3c-1.3-1.5-0.5-4.4-0.6-6.6c2.4,0,4.8-0.3,7.1,0c2.3,0.3,4.5,1.3,7.1,2.1
	c1.5-6.6-7.5-7.8-7.1-14c2.4,0.5,4.5,1,6.6,1.2c2.3,0.2,4.6,0.2,6.9,0.3c-0.8-2.1-1.1-4.7-2.6-6.2c-3.7-3.6-7.8-6.9-12-10
	c-5-3.5-8.9-7.4-10.4-13c-0.2-0.9-1.2-1.7-2-2.7c-4.7,2.2-6.1,6.1-7.5,10.1c-1.6,4.8-2.9,9.8-5.5,14.2c-3,5.2-6.8,5.3-12.4,2.2
	c-11.8-6.5-17.3-16.4-19.8-28c-1.1-4.9-0.7-5.1,4.7-4.6c0.8,0.1,1.6,0,1.6,0c-4.5-11.5-9.1-23-13.9-35.2c-2.6,5.3-4.7,10-7.3,14.5
	c-2.5,4.3-4.8,8.9-8.4,12.3c-5.9,5.8-2.5,8.4,3.2,9.8c5.7,1.2,7.4,4,6.9,8.4c-0.6,4.8-1,9.8-2.6,14.4c-2,5.9-8.5,7.5-14.2,9.5
	s-11.7,3.2-17.4,5.1c-1.9,0.6-4.3,2.4-4.4,4c-0.1,1.3,2.2,3.4,3.9,4.3c3.1,1.5,4.7,3.1,2.6,5.9c-0.3,0.4-0.7,1.1-0.8,1.5
	c-0.6,2.5-1.2,5.2-1.9,7.7c3.1,0.1,6.3,0.7,9.2,0.2c5-0.8,9.8-2.2,15.4-3.7c0.1,13.2-11,18.8-20,26.8c2.6,0.9,4.3,1.8,6.2,2.1
	c2.1,0.3,4.3,0.1,6.7,0.2c-4,6.7-15.1,11.5-22.7,10.4c-1.9-0.3-3.9,0.5-5.9,0.8c0.9,2,1.4,4.4,2.8,6.1c0.9,1.1,3.2,1.2,4.9,1.9
	c2.7,1.1,6.8,0.3,7.6,4.4c0.1,0.6,2.6,0.9,4,1.2c4.2,0.8,5.8,3.3,3.2,6.2c-4.6,5.3-10.9,8.7-18.2,10c-3.8,0.7-7-2.4-7.8-7.1
	c2.6-0.7,5.3-1.5,9.4-2.6c-3.8-2.9-6.5-5.7-9.9-7.4c-7-3.6-9.7-8.4-8.9-15.4c0.5-5.2,0.5-10.4,0.2-15.6c-0.1-1.6-1.8-3.2-2.8-4.7
	c-1.5,1-3.5,1.8-4.3,3.3c-2.1,4.2-4.2,8.3-5.5,12.7c-1.9,6.9-6.1,12.2-12.2,16.6c-1.5,1.1-2.4,3.1-3.5,4.6c1.8,0.9,3.6,1.7,5.4,2.6
	c1.4,0.7,2.8,1.3,4.2,1.9c0,0.7,0,0.7-0.1,1.4c-3,1.1-5.9,2.3-8.9,3.4c-2.6,0.9-5.5,1.3-8.1,2.3c-1.2,0.4-2,1.7-2.9,2.6
	c1.1,0.8,2,2,3.2,2.3c3.1,0.6,6.3,0.5,9.4,1.2c2.3,0.5,5.4,1.4,6.1,2.9c0.7,1.3-1.4,3.8-2.3,5.7c-0.8,1.8-1.7,3.6-2.6,5.3
	c2,0.5,4,1.1,6,1.4c2.8,0.4,5.7,0.4,8.5,0.6c0.3,0.8,0.3,0.8,0.5,1.6c-2.5,2-4.9,4.3-7.7,6c-5.6,3.4-11.5,6.4-17.2,9.7
	c-1.6,0.9-3.2,2-4.5,3.4c-3.6,3.8-2.4,6.6,2.9,7.4c3.9,0.6,4.6,1.9,1.9,4.5c-2.5,2.4-4.7,5.2-2.6,8.2c2.5,3.6,7.1,2.4,11,2
	c1.7-0.2,3.3-0.8,5-1.2c0.2,0.3,0.4,0.6,0.6,1c-4.4,2.7-8.8,5.6-13.4,8c-1.1,0.6-3.3,0.3-4.6-0.3c-8.5-3.7-17-7.2-25.1-11.5
	c-2.6-1.3-5.3-4.8-5.3-7.2c0.1-2.4,3.1-5.3,5.7-6.9c2.8-1.8,6.7-2.3,9.8-3.9c4.6-2.1,4.8-6,0.7-8.8c-1.3-0.9-2.7-1.8-4.2-2.3
	c-9.4-3.8-14.8-10.5-18.2-18.8c-0.8-2-2-4.1-3.4-5.9c-0.7-1-2.3-2.2-3.3-2.1c-1.1,0.1-2.4,1.5-2.8,2.6c-1.7,4.2-3.2,8.4-4.5,12.7
	c-1.9,6.4-7.4,9-14,10.4c-3.4,0.7-6.7,1.5-10.3,2.3c0.1,1.6,0.2,3.3,0.3,6.1c-11,0.2-21.9,0.5-32.8,0.5c-1.2,0-3.4-1.3-3.4-2
	c0-1.2,1.1-2.9,2.2-3.5c3.1-1.6,6.7-2.5,9.8-4.1c1.8-0.9,3.2-2.5,4.8-3.8c-1.8-0.9-3.6-2-5.4-2.9c-2.6-1.1-5.7-1.7-7.8-3.4
	c-8.2-6.4-12.9-14.6-13-24.4c0-0.9-0.3-1.7-0.6-3.7c-2.4,2.2-4.7,3.7-6.1,5.7c-2.3,3.1-5.3,4.4-9.4,5c-2.8,0.4-6.3,1.7-7.8,3.7
	c-2.1,2.6-0.2,5.7,2.7,7.7c2.8,1.9,1.4,3.4-0.5,5c-4.8,4.1-4.8,6.3-1.7,11.7c0.7,1.1,0.2,3.5-0.7,4.6c-6.6,8-16.6,11.3-26.7,13.9
	c-2.6,0.7-6.2-0.6-8.9-1.7c-1.4-0.6-3-3.1-2.6-4.2c0.4-1.2,2.9-2.2,4.6-2.6c3.7-0.7,7.6-1,11.4-1.4c0.3-0.7,0.3-0.8,0.6-1.5
	c-1.9-2.1-3.6-4.4-5.6-6.5c-1.3-1.3-3-2.4-4.3-3.8c-4.7-5-2.7-10.4,4.3-11.7c1.1-0.2,2.2-0.5,4.3-0.9c-1.4-2.3-2.2-4.5-3.7-6.3
	c-4.2-5.2-8.6-10.2-13-15.2c-1.2-1.4-2.5-2.7-3.5-4.2c-3-4.6-3.1-7.8,4.1-8.6c1-0.1,1.9-0.4,3.9-0.8c-2.4-4.3-4.9-8.1-6.8-12.3
	c-2.7-6.1-4.9-12.4-7.5-18.6c-0.5-1.3-2.1-3.2-3.2-3.2c-1.8,0-4.4,0.8-5.4,2c-1.5,1.8-2,4.3-2.7,6.5c-2.5,8.2-4.6,16.5-7.3,24.6
	c-0.8,2.3-0.9,3.4,1.7,4.6c3,1.4,3.9,3.6,1.5,6.1c-4,4.3-8,8.7-12,12.9c-1.3,1.3-2.7,2.5-3.9,4c-3.3,3.8-2.6,5.4,2.5,6.9
	c1.2,0.4,2.4,0.9,3.4,1.3c-1.1,3.2-2,5.9-3,8.8c0.4,0.2,0.9,0.4,1.3,0.6c-2.7,1.3-5.3,2.6-8,4c-6.2,3.2-6.5,5-0.8,9.3
	c-2.5,1.8-5.3,3.5-7.3,5.6c-1.4,1.5-2.9,4.4-2.2,5.6c0.9,1.5,4.1,2.1,6.4,3c1.1,0.4,3.2,0.2,3.5,0.8c2.3,4.6,7.4,4.5,11.5,6
	c1.2,0.4,2.9,1.3,3,2.1c0.1,1-1,2.7-2,3.1c-3.5,1.2-7.1,2.5-10.9,3c-9,1.2-18.2,1.8-27.2,3.1c-1.7,0.2-4.2,1.6-4.4,2.7
	c-0.3,1.9,0,5,1.5,6c3.9,2.7,3.7,5.3,1.6,8.7c-0.8,1.2-0.6,3.8,0.4,4.8c0.7,0.8,3.4,0.1,5.1,0.3c1.5,0.1,3.1,0.3,4.4,0.9
	c3.3,1.6,6.4,3.5,9.9,4.4c1.8,2.2,3.7,4.6,5.9,7.2c-4,1.4-8.2,2.4-11.8,4.3c-3.7,1.8-7.1,4.2-10.1,6.8c-1.8,1.5-2,4.7,1.4,4.5
	c4.6-0.4,8.2,1.6,12.3,2.1c4.9,0.6,10,0.1,15,0.3c1.6,0.1,3.1,1,4.6,1.5c-1,1.2-1.7,3.1-3.1,3.6c-5.5,1.8-11.2,3.3-16.8,5
	c-9.4,2.9-18.8,5.8-28.2,8.7c-2.5,0.8-4.9,1.7-7.4,2.3c-4.7,1.1-8.1-1.2-9.2-5.9c-1.3-5.9,0.2-8.2,5.9-9c0.3,0,0.7,0,1-0.1
	c2.6-1.6,5.1-3.3,7.7-5c-2-1.6-4.1-3.3-6.2-4.9c-0.4-0.3-0.9-0.3-1.4-0.5c-3.1-1.4-7.4-2.7-6.4-6.3c0.6-2.1,4.2-4.3,6.9-5.3
	c3.8-1.3,3-2.9,0.9-4.4c-2.2-1.5-5-2.4-7.2-4c-1.7-1.2-4.1-3-4.1-4.4c0-1.5,2.4-3.5,4.3-4.3c5.5-2.3,6.1-3.6,1.4-7.2
	c-5.1-3.9-7.9-9-10.6-14.3c-2.9-5.8-6.9-6.3-11-1.1c-3.5,4.4-6.2,9.4-8.6,14.3c-1.8,3.8,0,6.1,4.5,7.3c7.6,2.1,8.6,5.9,3,10.8
	c-1.3,1.1-2.7,2.1-4,3.4c-4.2,3.7-4.1,4.6,0.9,7.4c2.9,1.6,3,3.7,0.9,5.4c-3.2,2.6-6.8,5-10.4,7.2c-3.3,2-5.1,4.3-1.1,8
	c-3.3,0.7-5.9,1.2-8.6,1.9c-2.1,0.5-4.4,0.7-6.1,1.8c-1.4,0.9-3,2.6-3,4.1c0,1.3,1.6,3.6,2.9,4c5.8,1.5,11.8,2.4,17.7,3.8
	c2.6,0.6,5,1.7,7.5,2.5c-1,2-1.6,4.3-3,6.2c-2.8,4.1-7.7,5.3-12.6,6.3c-3.2,0.7-5.3,1.4-2.5,4.6c2,2.2,0.5,3.9-1.6,4.6
	c-5.2,1.6-10.6,3.6-16,3.9c-4.4,0.2-5.6,1.6-5.6,4.9c0.1,3.9,1.4,7.3,5.3,9.5c1,0.5,1.9,1.2,2.7,1.9c1.9,1.6,3.8,4.8,5.6,4.8
	c3.7-0.1,7.9-1.2,11.1-3c5.3-3,5.6-3.3,9.4,1.1c1.9,2.1,4.4,4,6.3,6.1c1.1,1.3,2.1,3.1,2,4.6c-0.6,10.3-1.5,20.6-2.3,30.9
	c-0.8,0.3-0.8,0.3-1.6,0.5c-2.5-2.9-5-5.7-7.9-9.1c-1.2,1.6-1.7,2.4-2.4,3.3c-2.2,2.2-3.9,1.7-5.2-0.7c-1.1-2.2-2.2-4.5-3.3-6.7
	c-0.8,0-0.9,0.1-1.7,0.1c-0.4,1.3-0.4,3.1-1.4,3.9c-1.3,1.1-4.2,2.6-4.9,2.2c-4.6-3.2-6.1,0.4-7.4,2.7c-1.3,2.1-2.1,3.2-5.2,2.7
	c-1.4-0.2-3.5,1.7-4.8,3.1c-1.8,1.9-2.9,5.4-6.3,1.3c-0.3-0.4-1.5-0.3-2.3-0.2c-9.7,1.4-18.8,5.2-28.9,5c-3.7-0.1-6.6-0.6-8.8-3.7
	c-0.8-1.1-4.9-1.7-6.3-0.9c-6.1,3.7-12.8,1.9-19.3,2c-0.9,0-2.5-2.9-2.7-4.4c-0.3-4,0-7.9,0-12.2c-11.9,0.2-9.9,9.8-15.4,15.8
	c-0.7-2.1-1.2-3.7-1.8-5.2c-0.6-1.3-1.3-2.6-2-4c-1.4,1-3.3,1.8-4,3.2c-1.5,2.7-2.2,5.9-3.6,8.7c-0.7,1.3-2.3,2.1-3.5,3.2
	c-0.8-1.1-2.3-2.1-2.4-3.4c-0.6-6-1.3-12-1.2-18.1c0-3.4,3-4.6,6.7-4.5c3.1,0.1,6.2,0.1,10.1,0.2c-2-3.6-4-6.5-5.5-9.8
	c-0.6-1.1-0.2-2.6-0.3-4c1.5,0.1,3.3-0.3,4.5,0.2c4.3,1.9,8.4,4.3,12.8,6.6c0.5-1.9,0.9-3.8,1.2-5.4c4.9,0.8,9.3,1.6,14.9,2.5
	c-0.9-1.9-1.2-2.4-1.3-3c-0.5-1.7-1-3.5-1.5-5.2c1.9-0.1,3.8-0.3,5.6-0.3c1.9,0,3.8,0.3,6-0.2c-15.5-11.2-33.9-17.6-51.2-26
	c0.1-0.7,0.1-0.6,0.2-1.3c2.9-0.4,5.8-1,8.7-1.2c2.1-0.1,4.3,0.3,6.5,0.3c2.5,0,4.3-0.8,3.7-3.5c-0.8-3.8,1.2-4.6,5-4.5
	c1.8,0.1,3.6-0.8,5.4-1.2c-1.1-1.5-1.9-3.4-3.5-4.5c-6.8-4.8-14.3-8.6-24.3-9.5c1.7-1.7,2.9-2.9,4.6-4.6c-2.7-1.7-5.2-3.5-7.9-5
	c-1.5-0.9-3.5-1.2-4.7-2.3c-1.5-1.3-2.5-3.2-3.8-4.8c2.1-0.2,4.3-0.7,6.4-0.6c3.4,0.2,6.8,0.7,11.9,1.3c-1.7-2.6-2.2-4.3-3.5-5.4
	c-7.6-6.6-14.5-13.7-19.9-22c-1.8-2.7-3.7-3.4-5.3,0.4c-1.4,3.4-2.9,6.6-4.4,9.9c-1.3,3-3.1,4.9-7.3,4.8c-4.4-0.1-7.5-1.6-8.8-5.3
	c-2-5.5-3.5-11.2-5.5-16.7c-0.7-1.9-2.4-3.6-3.6-5.4c-1.7,1.4-3.7,2.7-4.9,4.5c-2.4,3.4-4.6,6.8-6.3,10.5c-0.8,1.8-1,4.5-0.1,6.2
	c1.4,2.6,0.7,4.2-1.6,5.6c-2.2,1.4-4.5,3-6.6,4.5c-2.3,1.6-3.4,3.6-0.4,5.3c3.8,2.1,2.4,4.4,0.2,6.1c-3.6,2.7-7.6,5-11.4,7.4
	c-1.6,1-3.4,1.9-4.7,3.3c-2.2,2.2-1.8,4,1.7,4.8c5.1,1.2,6,2.9,4.1,7.3c-2.9,6.9-10,7.9-16.8,9.5c-4.6,1-9.5,1.7-13.7,3.6
	c-2.1,0.9-3.5,4-4,6.2c-0.2,0.7,3.5,2.4,5.7,3.2c2,0.6,4.3,0.5,6.5,0.5c4.4-0.1,7.9,0.2,7.6,5.6c-0.1,2.6,2.3,4.1,5.6,3.2
	c2.5-0.6,5.4-0.6,7.7-1.6c5.2-2.1,7.9,0.7,10.6,3.8c0.9,1,1.7,2.1,2.6,3.3c4.4,5.6,2.4,9.6-5.5,10.1c-4.8,0.3-9.7-0.1-14.5-0.1
	c-4.7,0-8.2,2.6-9.1,6.7c-0.9,3.9,1.1,6.2,5.7,6.5c2.4,0.2,4.9,0.1,7.9,0.1c-0.3,1.8-0.4,3-0.8,4c-1.4,4.3-0.6,5.5,4.5,5.1
	c5.3-0.3,10.5-1.5,15.7-2c5.5-0.6,6.5,0.4,6.5,5.3c-0.1,3.9-0.1,7.7-0.6,11.5c-0.2,1.2-1.7,2.3-2.5,3.6c-1.3-0.8-2.8-1.4-3.8-2.4
	c-1-0.9-1.5-2.3-2.4-3.4c-3.6-4-5.7-3.9-9.1,0.1c-1,1.1-2.9,1.7-4.4,2.5c-1-1.4-2.1-2.7-2.8-4.3c-0.5-0.9,0-2.2-0.6-3
	c-0.9-1.1-2.2-2.3-3.6-2.5c-1-0.2-2.7,1-3.5,1.9c-1.3,1.6-2,3.7-3,5.5c-5.7-1.4-4.2-9.8-12-8.8c-0.3-1.3-0.3-2.5-0.8-3.5
	c-1.3-2.5-2.4-5.2-6.5-5.2c-3.9,0-6.9,0.4-8.4,4.4L0.1,602v1138.5h3504v-904C3504.1,836.5,3370.6,714.9,3352.2,716.8z M420.4,660.2
	c-4-2.1-7-3.6-9.7-5.3c-0.7-0.4-1.1-2.3-0.8-2.5c3.1-1.9,5.5-5.5,10.7-4.3C420.5,651.7,420.4,655.2,420.4,660.2z M453.8,673.8
	c0.5,0.3,1.1,0.5,1.6,0.8c-0.7,2.3-1.4,4.7-2,7c-2.8-0.8-5.6-1.7-8.4-2.5c0.1-0.5,0.2-1,0.3-1.6C448.1,676.2,451,675,453.8,673.8z
	 M439.8,645.8c3.4,2,5.9,3.2,7.9,4.8c0.8,0.6,1.4,3,1,3.3c-1.9,1.2-4.1,2.2-6.4,2.9c-0.5,0.1-2.4-1.6-2.5-2.5
	C439.5,651.7,439.8,649.2,439.8,645.8z M461.6,701.3c-0.5,8.6-1.3,17-2,25.6c-0.5,0.1-0.9,0.3-1.4,0.4c-1.8-2.4-3.6-4.9-5.3-7.3
	c-2-2.9-3.8-3.2-5.7,0.1c-0.6,1-1.8,2.4-2.9,2.5c-5.7,0.7-9.7-2.6-9.7-7.8c0-0.7,0-1.5,0-2.2c-0.2-6.3-0.2-6.3,6.7-5.3
	c8.9,1.2,9,1.1,10.2-6.6c0.1-0.6,0.1-1.2,0.4-1.7c0.8-1.3,2-3.7,2.7-3.7c1.9,0.2,4,1.2,5.5,2.4C461.1,698.4,461.7,700,461.6,701.3z
	 M473,675.4c0.3-2.6,0.5-5.3,0.7-7.9c2.6,0.6,5.2,1.2,7.8,1.7c-1.8,2.3-3.7,4.8-5.5,7.1C475,676,474,675.7,473,675.4z M711.1,667.2
	c3,0.3,6,0.2,9,0.7c1.2,0.2,2.7,1.2,3.2,2.2c0.3,0.6-0.9,2-1.7,2.9c-2.8,2.5-5.9,4.8-8.6,7.3c-1.8,1.6-1.8,3.5,1.1,4.5
	c1.5,0.5,3.1,1.1,4.7,1.2c4.5,0.3,6.3,2.4,5.9,6.1c-0.4,3.9-1.4,7.6-1.6,11.4c-0.4,7.7-4,12.3-13.1,14c-8.6,1.6-11.3,0.4-11.5-7.6
	c0-2.3-0.5-4.7-0.9-7.8c-1.9,1.1-2.8,1.5-3.4,2.1c-2.8,2.7-5.3,5.6-8.2,8.1c-1.3,1.1-3.4,1.4-5.2,2c-0.6-1.4-1.6-2.7-1.8-4.2
	c-0.7-3.9-1.1-7.7-1.6-12c-4.8,1-4.5,4.3-5.8,6.5c-0.9,1.6-2.3,3.1-3.4,4.6c-0.9-1.5-1.9-3.1-2.7-4.6c-0.7-1.3-1.2-2.6-1.7-4.1
	c-0.5,0-1,0-1.4,0c-2.9,4.9-5.8,9.7-8.7,14.6c-0.6-0.2-1.1-0.3-1.7-0.5c-1.4-13.6-2.2-27.4,1.4-41.6c2.1,0.6,3.7,1.2,5.4,1.5
	c1.4,0.2,3,0.4,4.2,0c2.6-0.9,5-2.2,7.5-3.4c2.5-1.1,5.2-1.9,7.4-3.4c2.9-1.8,3-3.7-0.3-5.8c-4.2-2.9-8.3-6-11.5-9.7
	c-4.1-4.6-2.1-7.2,4.4-8.3c4.4-0.7,8.7-2.4,12.8-4.1c4.6-1.8,9-4.3,13.6-6.2c1.1-0.5,2.8,0,4.2,0.1c-0.1,1.2,0.1,2.6-0.4,3.8
	c-1.2,2.4-3,4.6-4.2,7c-0.7,1.5-0.8,3.3-1.5,6.2c3.1-1,5.1-1.2,6.4-2.2c4.7-3.7,9-7.7,13.9-11.2c1.8-1.3,5-2.3,6.8-1.7
	c1.6,0.5,3.1,3.4,3.3,5.3c0.6,6.6-3.8,10.9-9.7,14.4c-2.7,1.6-5.5,3.3-7.6,5.5C705,664.1,706.3,666.7,711.1,667.2z M810.1,611.2
	c1.4,2.6,2.3,5.9,1.8,8.7c-0.1,0.9-5.1,1.2-7.9,1.7c-0.5,0.1-1,0-1.5,0c-3.5-0.4-5.9,0.5-7.5,3.7c-1.7,3.3-6.9,4.6-10.4,2.6
	c-8.3-4.6-14.6-11.1-20.5-18.4c6.8-0.2,12.8-0.4,20.3-0.6c5.8,5.1,6,3,14,1.2c1.9-0.4,3.9-1.2,5.8-1
	C806.3,609.2,809.4,609.9,810.1,611.2z M774.2,586.4c1.3-1.1,2.7-2,3.8-3.3c1.5-1.5,2.9-3.2,4-4.9c0.9-1.3,1.4-2.9,1.9-4.1
	c5.5,1.6,10.6,3,15.5,4.6c0.8,0.3,1.6,2.2,1.3,3c-2.2,4.7-15.3,10.7-20.7,9.2C777.8,590.2,776.2,588,774.2,586.4z M763.1,544.4
	c3.5-1.5,6.9-3.5,9.7-5.8c2.8-2.3,5.1-3,8.8-1.4c5.1,2.1,10.4,4,16.2,1.5c1.4-0.6,3.2-0.5,4.9-0.7c0.4,0.4,0.8,0.9,1.3,1.3
	c-4.8,3.9-9.1,8.3-14.4,11.5c-8,4.8-20.2,3.2-27.2-2.5C759.9,546.4,760.3,545.6,763.1,544.4z M819.4,702.9c-5.2,8.9-11.6,7.9-18,1.1
	c-0.7-0.8-1.2-1.7-1.9-2.6c-1.3-1.7-2.7-3.5-4.1-5.3c-0.4,0.2-0.9,0.4-1.3,0.5c0.6,2,1.6,4.1,1.8,6.1c0.1,2.2-0.5,4.6-0.9,6.8
	c-2.3-0.9-4.9-1.4-6.7-2.9c-3-2.2-5.5-5.1-8.2-7.6c-0.4,0.1-0.9,0.2-1.3,0.4c0.4,4.6,0.9,9.3,1.4,14.9c-7.6-3.6-8.7-9.3-10.8-14.8
	c-1.3,1.3-2.1,2.4-2.2,3.7c-0.3,2.7-1.3,5.4-4.8,5c-3.2-0.3-5.5-2.2-5.5-5.8c0.1-3.6-0.2-7.1-0.7-10.6c-0.5-3.8,0.2-6.4,5-7.1
	c3.2-0.6,4.9-2.5,4.5-5.5c-0.3-2-0.7-4.1-1.5-6c-2.3-4.8-5.2-9.3-7.1-14.2c-0.9-2.3-1.4-6.1,0.1-7.7s5.6-1.4,8.5-1.8
	c0.7-0.1,1.6,0.3,2.4,0.5c11.3,3.7,11.3,3.7,19-4.2c0.2-0.2,0.5-0.3,1.2-0.7c0.3,0.9,0.9,1.7,0.7,2.3c-1.3,3.1-3,5.9-4.1,9
	c-0.6,1.6-0.2,3.6-0.3,5.4c2,0,4,0,5.9,0.1s4.8-0.3,5.6,0.7c2.5,2.9,5.5,3.1,9,2.7c2.5-0.2,5-0.6,7.4-0.8c5.5-0.5,7.9,3.3,9.6,6.5
	c0.8,1.5-0.9,4.6-2.3,6.4c-1.8,2.5-4.6,4.6-6.6,7.1c-2.5,3.3-1.8,4.2,2.4,4.8c3.3,0.5,6.6,1.3,10.1,2
	C823.4,695.6,821.5,699.3,819.4,702.9z M882.8,603c0.7,1.8,1.7,3.2,1.6,4.4c-0.6,5.5-3.3,10.4-11,10c-8.4-0.5-18.3-6-20-12.2
	c3.5,0.2,6.7,0.2,9.9,0.7C869.8,607,876.7,609.2,882.8,603z M870.7,586.6c-3.3,3.4-7.4,4.4-12.1,3.1c-4.8-1.4-10.1-7.3-9.7-10.9
	c0.1-0.9,1.4-2.1,2.5-2.5c3.9-1.4,8-2.5,13-4.2c0.5,0.8,1.1,2.1,2.1,3.3c1,1.1,2.2,2.1,3.5,3.1C873.6,581.2,873.9,583.4,870.7,586.6
	z M836.8,543.5c-2.8-0.9-2.7-2.3-0.8-4c1.1-0.9,2.4-1.5,3.7-2.2c3.3-1.8,6.5-3.7,9.8-5.4c1.5-0.7,3.3-1.8,4.7-1.6
	c4.9,1,9.7,2.5,14.5,3.9c0,0.5,0,0.9,0,1.4c-7.9,1.4-11.6,5.4-9.7,12.9c-7.7-1.7-14.4-3.3-21.2-4.8
	C837.5,543.6,837.2,543.5,836.8,543.5z M885.5,670.9c3.5,3.4,2.9,5.4-1.5,7.7c-2.6,1.3-5.5,2.2-8,3.7c-1.1,0.6-2.3,2.2-2,3.2
	c0.3,1.1,1.9,2.2,3.2,2.9c1.8,0.7,3.8,0.9,5.8,1.3c3.4,0.8,4.5,3.2,4,5.8c-1,5.2-2.3,10.5-3.9,15.6c-0.5,1.6-2.4,3-3.6,4.4
	c-1.6-1.1-3.2-2.2-4.6-3.5c-0.9-0.8-1.2-2.2-2-3.1c-0.8-0.7-2.1-1.1-3.1-1.6c-0.5,0.8-1.3,1.6-1.4,2.5c-0.2,2.2,0.2,4.5-0.3,6.6
	c-0.3,1.3-1.9,2.5-2.9,3.8c-1.3-0.9-3.1-1.5-3.9-2.7c-1.2-1.9-1.6-4.2-2.6-6.2c-0.5-1.1-1.6-2-2.4-3c-1.1,0.7-2.3,1.4-3.4,2.2
	c-1.7,1.2-3.4,2.4-5.1,3.7c-1.4-1.7-2.8-3.5-4-5.3c-0.5-0.7-0.4-1.7-0.4-2.6c0-6,0.1-11.9,0-17.9c-0.1-3.2,0.7-5.2,4.7-6.2
	c4.4-1.1,4.8-3.4,1.6-6.6c-2.8-2.9-5.9-5.5-8.4-8.6c-2.2-2.6-4.7-5.5-1.8-9.5c4.2,1.8,8.1,3.8,12.3,5.2c2.4,0.8,5.2,0.8,7.9,1.2
	c0.2-2.6,1.2-5.5,0.3-7.8c-1.9-5.2-4.8-10.1-7.2-15.1c-0.9-1.9-2-3.8-2.4-5.8c-0.3-1.2,0.2-3.1,1.1-4c0.5-0.5,2.9,0.1,4.1,0.7
	c2.1,1.1,4.2,2.4,5.9,4c7.3,7,16,9.5,27.4,5.2c-0.4,3.3-0.4,5.9-1.2,8.2c-1,3.3-2.3,6.5-4,9.5C881.1,663.3,881.5,667.1,885.5,670.9z
	 M975.2,694.4c-0.1,3.4-2.5,3.5-5.2,2.1c-1.8-0.9-3.3-2.1-6.3-4.1c-0.1,4.4,0.1,7.4-0.3,10.4c-0.2,1.3-1.6,2.5-2.4,3.9
	c-1.2-0.8-2.7-1.5-3.5-2.5c-1.2-1.6-1.8-3.7-2.9-6c-5.1,2.9-2.7,8.2-5.4,12c-1.4-1.7-2.5-3.2-4.6-5.7c-1.6,7.4-2.7,13.6-4.2,19.7
	c-0.4,1.5-1.6,3.4-3.1,3.9c-0.9,0.4-3.1-1.1-4.2-2.2c-1.2-1.2-1.7-2.9-2.5-4.3c-1.9-3.5-4.7-3.6-8.3-1.8c-3.1,1.5-6.5,2.7-9.7,4.2
	c-0.7-3.3-1.9-6.5-1.9-9.8c0-4.3-1.8-6.4-6.6-6.4c-4.5-0.2-5.5-2.7-5-6.1c0.5-3.5,1.3-6.9,1.5-10.5c0.2-4.6,1.8-8.2,6.4-10.8
	c3.2-1.7,3.2-4.4,1.6-6.9c-1.1-1.6-2.5-3.2-3.8-4.6c-4.4-5-4.3-5.7,0.9-9.7c6.5-5,6.8-7.1,2.5-13.5c-1.2-1.7-1.5-4-2.2-5.9
	c2.3-0.5,4.5-1.1,6.8-1.6c3-0.7,7.1-0.6,8.9-2.3c7.1-6.5,7.2-6.7,13.3,0.5c0.4,0.5,0.8,0.9,1.2,1.4c3.1,3.7,6.4,4,9.3,0
	c0.4-0.6,0.9-1.2,1.4-1.8c3.9-4.8,7.7-4.6,11.1,0.4c0.7,1,1.2,2,1.7,3.2c1.4,3.2,3.3,4,6.8,2c3.1-1.7,4.8-0.9,4.9,2.6
	c0.2,7.5-2.3,14.3-7.1,20.4c-3.7,4.6-3,6.1,3,6.6c4.6,0.4,7.2,2.9,7.6,6.4C975.5,683.1,975.3,688.7,975.2,694.4z M975.8,572.1
	c-2.2,5.7-6.5,9.8-12.6,12.5c-5.6,2.5-10.9,5.6-16,8.8c-1.4,0.9-1.7,3.2-2.5,4.8c1.9,0.6,3.8,1.9,5.7,1.8c2.6-0.1,5.2-0.9,7.6-1.8
	c3.3-1.2,5.1-1.2,5,2.5c-0.1,3,1.7,4.3,5,4.1c1.1-0.1,2.3,0,3.8,0c-0.1,4.6-0.3,8.9-0.1,13.1c0.2,3.9-2.2,4.8-5.6,3.9
	c-4-1-7.8-2.4-11.7-3.7c-14.9-4.5-26-13.4-35.7-23.9c-1.2-1.3-2-3.7-1.5-5.1c0.3-1,3.1-1.5,4.9-1.9c1.6-0.3,3.3-0.1,5-0.1
	c5.3-0.2,6.5-1.9,3.7-5.8c-3.3-4.6-7.1-8.9-10.4-13.4c-1.9-2.5-3.3-5.5-5.5-9.2c11.4-0.2,14,8.3,21.7,12.3c0.7-2,1.3-3.8,1.9-5.4
	c0.7-1.9,1.5-3.9,2.2-5.8c1.4,1.5,2.6,3.3,4.2,4.4c1.7,1.2,4,2.9,5.9,2.6s3.8-2.1,5.3-3.7c2.6-2.6,4.8-3.6,7.3,0
	c2.4,3.3,5.2,5,9.5,2c0.5-0.3,3.4,0.9,3.6,1.7C976.9,568.5,976.5,570.5,975.8,572.1z M1012.2,514.4c3.5,2.4,5.7,6.4,8.5,9.8
	c-1.4,2-2.2,3-2.9,4.1c-0.8,1.3-1.6,2.7-2.4,4.1c-2.2,3.6-3.8,7.5-6.7,10.5c-3.1,3.3-6.9,2.3-9.2-1.5c-0.9-1.5-1-3.4-1.1-5.1
	c-0.2-3.4,1.5-7.7-0.4-10c-4.3-5.3,0.2-6.9,3.3-9.4C1004.6,514.4,1008.5,511.8,1012.2,514.4z M984.5,498.3c0.3-3.5,3.9-4.4,7.6-3.9
	c0.8,0.1,1.7,0,2.5,0c0-0.2,0.1-0.3,0.1-0.5c2.6,0.6,5.2,1.2,7.9,1.8c-1.2,2.4-2.4,4.9-3.8,7.3c-0.3,0.5-0.9,0.8-1.4,1.2
	c-2.9,2.6-6.5,2.2-9.1,0.4C986.3,503.3,984.3,500.4,984.5,498.3z M1015.9,698.9c-1,3.6-2.6,6-6,8c-1.5,0.9-2.1,3.1-2.6,4.8
	c-0.8,2.5-1.2,5.3-2,9.1c-8.8-6.9-4.4-15.9-7.5-23c-0.8,0.4-1.2,0.6-1.7,0.8c-1.9,0.9-3.8,1.7-5.7,2.6c-0.6-1.9-1.9-3.9-1.8-5.8
	c0.1-6.3,0.7-12.5,1.2-18.7c0.3-3.4,1.2-5.1,5.5-2.7c2.8,1.5,6,1.7,9.2-0.7c1.6-1.2,4.6-1.1,6.9-1.6c0.5,2.2,1.8,4.7,1.3,6.8
	c-0.5,2.3-2.7,4.3-4.1,6.5c-1.6,2.6-2.4,4.6,2.3,5.8C1014.9,691.8,1017.1,694.3,1015.9,698.9z M1017.3,646.4c-0.5,1.5-4.5,2.4-7.1,3
	c-2.7,0.6-5.7,0.3-8.4,0.7c-8.7,1.4-10.7,0.4-12.1-7.3c-0.3-1.4-0.4-3-0.5-3.8c1-7.4,1.7-14.2,3-20.9c0.3-1.6,2.1-4.1,3.5-4.2
	c1.7-0.1,4.1,1.3,5.5,2.7c3.2,3.4,6.4,6.2,12,5.9c4.4-0.2,4.3,3,2.7,4.8c-3.2,3.7-1.5,5.9,0.8,9.4
	C1018.4,639.3,1018.2,643.3,1017.3,646.4z M1018.9,578.9c-5.8,1.4-12.8-3.5-12.9-7.4c-0.1-3.6,6.3-9.9,9.9-10c3.8,0,7.5,2.5,6.8,5.5
	C1021.7,571.1,1025.8,577.2,1018.9,578.9z M1043,486.5c2.5,1.2,3.8,1.9,5.1,2.5c1.6,0.8,3,1.8,4.7,2.3c4.4,1.4,8.9,2.3,13.2,4
	c3.1,1.1,5.8,3.1,8.6,4.7c-2.3,2-4.4,4.1-6.8,6c-3.9,3.1-7.9,3.8-12.7,1c-2.1-1.2-5.1-1.1-7.4-2.1c-1.9-0.8-4.6-2.2-4.7-3.6
	C1042.5,496.9,1042.9,492.4,1043,486.5z M1037.7,570c0.6-8.4,3-16.9,1.1-25.5c-0.1-0.3-0.2-0.7,0-0.9c0.8-1.1,1.5-2.7,2.7-3.2
	c0.9-0.4,3.1,0.3,3.8,1.1c4.7,5.8,10.6,8.3,19.2,5.7c0.4,7,3.3,11.3,10.8,12.1c0.3,0,0.7,0.2,0.9,0.4c0.8,1,1.6,2,2.4,3.2
	c-1.2,0.6-2.3,1.3-3.6,1.7c-3.5,1.1-7,2.4-10.5,3.3c-3.1,0.7-6.8,1.9-9.5,1.1c-4.9-1.5-5.2,0.2-5.9,3.6c-0.3,1.5-2.3,3.6-4,4.1
	C1041.4,577.8,1037.4,574.1,1037.7,570z M1060.8,593.5c-2.2-5.6-2.2-5.6,4.6-9c1.6-0.8,3.1-1.7,4.8-2.3c2.9-1.1,5.6-1.1,5.9,2.3
	c0.6,7.2,1.2,14.5,0.9,21.6c-0.2,3.4-3.3,5.3-8,4.5c-4.5-0.8-9.1-2.9-13.9-0.6c-2.3,1.1-4.7,2.1-7,3.2c-5.5,2.3-9.3,1.1-12.4-4.3
	C1044,603.6,1052.4,598.6,1060.8,593.5z M1072.3,694.8c-0.1,10.1-0.3,20.2-0.7,30.3l-7.3,0.1c-0.2-0.1-0.3,0-0.4,0l-7.2,0.2
	c-0.7-3.2-1.4-5.9-2.2-9.6c-2,3.1-3.2,4.9-4.9,7.3c-1.2-2.9-2.2-5.3-3.5-8.1c-1.2,0.5-2.1,1-3,1.2c-1.5,0.4-3,0.6-4.5,0.9
	c-0.2-1.2-0.6-2.5-0.6-3.8c0-0.8,0.3-1.7,0.6-2.5c2.5-6.5,2.7-12.9,0.1-19.4c-2.4-6.1-0.7-9.8,4.4-11.8c3.9-1.5,7.6-3.5,11.2-5.4
	c3.6-1.8,6.9-4.2,10.6-5.7c4.9-2.1,7.8-0.3,7.7,4.5c0,1.4-0.6,2.9-0.7,4.4c-0.3,2.5-0.8,5.2-0.7,7.7
	C1071.3,688.3,1072.4,691.5,1072.3,694.8z M1075.6,631c-6.2,1.6-12.2,3.9-18.5,5.1c-4.8,0.9-6.8,2.6-5.2,7.1
	c-5.1,0-12.9-3.8-12.5-6.4c0.6-4.2,2.7-8.1,4.6-12.1c0.2-0.3,3.4-0.3,4.1,0.4c3.2,3.5,5.9,2.1,8.7-0.3c1.4-1.2,2.9-2.3,4.4-3.5
	c2.9-2.1,5.5-2.1,8.3,0.4c1.1,1,3.1,1.1,4.7,1.7c1.6,0.6,4.4,1,4.9,2.1C1080.1,628,1078.8,630.1,1075.6,631z M1080.1,525.7
	c-0.9,1.9-4.4,3.5-7,3.8c-6.9,0.9-16.9-6-18.8-12.5c8.1,2.1,16,3.1,23.2-1.7C1081,518.5,1082,522.3,1080.1,525.7z M1063.5,484
	c-6.5-1.6-13.1-10.5-13.4-18c10.5,3.1,21,5.9,31.6,8.9C1076.4,482.5,1069.9,485.7,1063.5,484z M1054.1,435
	c6.8,6.8,14.3,12.3,25.5,11.1c-1.2,4.5-6.2,7.6-11.7,8.1c-7.9,0.7-12.7-1.2-15.2-5.9C1049.9,443,1050.3,438.3,1054.1,435z
	 M1082.8,412c-2.2,1.7-4.7,3.3-6.7,5.2c-1.5,1.4-2.4,3.3-3.6,5c1.7,0.6,3.5,1.1,5.1,1.8c0.9,0.4,1.7,1.1,2.4,1.8
	c0.1,0.1-0.8,1.1-1.4,1.4c-10.8,5.2-25.6-1.1-28.4-12.5c2.3,0,4.6-0.1,6.8-0.2c3-0.2,5.2-0.9,2.7-4.1c-1.8-2.2-3.6-4.6-5-7
	c-1.5-2.7-2.5-5.6-4.2-9.6c5,1.2,8.2,2.6,11.3,2.6c6.9,0,13.9-0.5,20.8-1.2c3.5-0.4,4.9,0.3,5.3,3.4
	C1088.5,403.9,1087.4,408.5,1082.8,412z M1809.5,1007.9c-0.6,0-1.2,0-1.9,0c-0.9,0-1.5-0.2-1.5-1.3c0-1.1,0.5-1.3,1.5-1.3
	c4.9,0,9.8,0,14.6,0c0.7,0,1.3,0,2.2,0c0.1-1.4,0.1-2.7,0.2-4.2c2.3,0,4.7-0.1,6.9,0.1c0.3,0,0.8,0.9,0.8,1.5c0.1,4.6,0,9.2,0,13.7
	c0,3.2,0,6.5,0,9.7h-7.9c0-6,0-12.1,0-18.1c-3.1,0-6.1-0.1-9,0.1c-0.5,0-1.2,1.1-1.4,1.8c-1.7,5.2-3.4,10.4-5,15.6
	c-0.1,0.2-0.1,0.4-0.2,0.6h-3.2c0.2-1,0.5-2,0.8-2.9c1.4-4.5,2.8-8.9,4.2-13.4C1811.4,1008,1811.3,1007.9,1809.5,1007.9z
	 M1827.2,819.3c-3.4-1.7-6.7-3.3-10.4-5.1c1.7-2.8,3.3-5.5,5.2-8.7c2,4.8,3.8,9.1,5.6,13.4C1827.5,819.1,1827.4,819.2,1827.2,819.3z
	 M1827.6,820.4c-4.3,2.2-8.2,4.2-12.2,6.2c-0.3,0.1-0.9-0.3-1.3-0.5c-0.1,0,0-0.2-0.1-0.3c-2.2-3.1-1-5.7,0.9-8.4
	c1.9-2.6,1.8-2.6,4.6-1.1c1.9,1,3.9,1.9,5.8,2.8C1826,819.3,1826.6,819.8,1827.6,820.4z M1821.2,805.8c-1.4,2.4-2.9,4.7-4.3,7.1
	c-0.5,0.9-1,1-1.9,0.5c-2.9-1.5-3-1.5-2-4.5c1.3-3.9,2.5-7.8,3.8-11.8c0.2-0.6,0.5-1.1,0.9-2.1c1.4,3.4,2.6,6.4,3.8,9.3
	C1821.7,804.7,1821.5,805.4,1821.2,805.8z M1814.2,817.5c-0.6,1-1.2,2-1.8,3.2c-2.3-2.8-1.6-5.4-0.1-7.9c0.1,0,0.1,0,0.2,0
	C1816.2,814.1,1816.2,814.1,1814.2,817.5z M1810.8,823.1c-0.7,1.1-1.2,2.4-1.8,3.6c0.6-0.8,1.2-1.7,1.8-2.5c0.3-0.5,0.7-1,1.2-1.8
	c0.6,1.6,1.2,3,1.7,4.3c0.1,0.2-0.1,0.7-0.3,0.8c-1.9,1-3.8,2-5.9,2.7c0.5-1.2,1.1-2.4,1.6-3.5c-0.6,0.7-1.2,1.4-1.8,2
	c-0.1,0-0.2-0.1-0.3-0.1c1.1-3.3,2.1-6.6,3.2-10C1811.8,820.4,1811.9,821.3,1810.8,823.1z M1814.2,827.8c1.3,3.3,2.5,6.4,3.8,9.5
	c0.3,0.7,0.6,1.3,0.9,2c-0.3-1.1-0.5-2.3-0.9-3.4c-0.9-2.4-1.9-4.8-2.8-7.3c-0.1-0.4,0-1.2,0.2-1.4c3.9-2.1,7.8-4,11.7-6.1
	c0.2,0.1,0.3,0.2,0.5,0.3c-1.6,8.3-3.2,16.7-4.8,25c-0.2,0-0.3,0.1-0.5,0.1c-0.7-1.6-1.3-3.2-2-4.8c-0.4-0.9-0.9-1.8-1.4-2.6
	c0.9,2.5,1.7,4.9,2.7,7.5c-5.1-5-10.1-9.8-15.4-14.9C1808.9,830.5,1811.4,829.2,1814.2,827.8z M1827.7,876c0.7-0.1,1.4,0,2.5,0
	c-5.8,15.8-11.6,31.4-17.3,47c-0.2,0-0.3,0-0.5,0c-0.7-1.5-1.4-3.1-2-4.6c-3.4-8.3-6.7-16.5-10-24.8c-0.8-2-1.5-4-2.4-6
	c-0.4-1-0.2-1.6,0.7-2.4c1.4-1.2,2.8-2.6,3.8-4.2c1-1.6,2.3-2.2,4-2.4C1813.5,877.7,1820.6,876.8,1827.7,876z M1856.3,1018.8
	c-3.5-0.1-7-0.2-10.5-0.4c-0.2,0-0.4-0.1-0.6-0.2c0.4-2.7,0.4-2.7,3-2.7c3,0,6,0,9,0c0.6,0,1.2,0.1,1.8,0.1
	C1859.1,1018.5,1858.9,1018.8,1856.3,1018.8z M1857.8,1021.9c-0.1,0.8,0.1,2.1-1.4,2.1c-1.5,0-2.9,0-4.4,0c0,0,0,0,0,0
	c-1.3,0-2.6,0-3.9,0c-1.1,0-1.5-0.3-1.5-1.4c0-1,0.2-1.7,1.4-1.7c2.8,0.1,5.6,0,8.5,0.1C1857,1021,1857.8,1021.6,1857.8,1021.9z
	 M1858.9,1013.4c-3.8,0.1-7.7,0-11.5,0c-0.3,0-0.9-0.7-0.8-0.9c0.3-0.8-0.1-2.1,1.3-2.2c2,0,4,0,5.9,0c0,0,0,0,0,0
	c1.7,0,3.4-0.1,5.1,0c0.5,0,1.4,0.6,1.4,0.7C1860,1011.9,1860.3,1013.4,1858.9,1013.4z M1850.5,1005.3c1.2,0,2.4,0.1,3.6,0
	c2.3-0.2,3.4,1.2,4.8,2.9c-3.8,0-7.3,0-10.8,0C1847.9,1005.7,1848.3,1005.3,1850.5,1005.3z M1858.6,1000.3c0.1-0.1,0.1-0.3,0.2-0.4
	c1.2,0,2.5,0,4,0c-0.3,1.1-0.5,2-0.8,3.3C1860.7,1002.1,1859.6,1001.2,1858.6,1000.3z M1860.9,997.6c-1,0-1.9-0.1-2.9,0
	c-2.4,0.4-3.8-1-5.6-2.9c4.1,0,7.7,0,11.3,0C1863.5,997.6,1863.5,997.6,1860.9,997.6z M1853.1,1002.8c-1.5,0-2.5,0-3.9,0
	c0.3-0.8,0.6-1.6,0.9-2.5C1851.2,1001.2,1852,1001.9,1853.1,1002.8z M1849.6,988.4c-0.1,0.5-0.6,0.9-0.9,1.4c-0.2-0.5-0.6-1-0.7-1.5
	c-0.1-1.3-0.1-2.7,0-4.1c0-1.1-0.3-1.8-1.5-1.6c-1.4,0.2-1.9-0.4-1.8-1.8c0.1-1.2-0.1-2.5,0.1-3.7c0.5-2.7-0.7-4.6-2.7-6.3
	c-1.1-0.9-2.3-1.8-3.4-2.7c0.2-0.3,0.3-0.5,0.5-0.8c5.2-1.2,10.5-2.4,16.1-3.6c-1.3,5.5-2.4,10.6-3.5,15.7
	C1851,982.5,1850.3,985.5,1849.6,988.4z M1848.1,862.3c-0.8,3.1-1.4,6.2-2.1,9.2c-0.1,0.6-0.3,1.3-0.5,1.9c-0.2,0-0.3,0-0.5-0.1
	c0-5.1,0-10.3,0-15.4c0-1.5-0.1-3,0-4.6c0.1-1.1-0.3-1.8-1.5-1.6c-1.8,0.2-2.4-0.7-2.7-2.3c-0.9-4.7-1.9-9.3-2.8-13.9
	c-0.1-0.3-0.1-0.6-0.2-1.3c0.6,0.5,0.9,0.8,1.2,1.1c1.7,2,3.5,4,5,6.2c0.9,1.3,1.6,2.8,2.1,4.3c0.8,2.5,1.3,5.1,2,7.7
	C1849,856.4,1848.8,859.3,1848.1,862.3z M1785.5,1026.1h-3.8c0.7-0.7,1.8-0.8,3.9-0.2C1785.6,1025.9,1785.5,1026,1785.5,1026.1z
	 M1880.2,1026.1h-21.1c1.1-5,2.2-10,3.4-15.2C1868.5,1016,1874.4,1021.1,1880.2,1026.1z M1862.5,992.5c-3,0-6,0-9.2,0
	c0.3-1,0.4-1.6,0.6-2.4c-0.6-0.1-1.2-0.3-1.8-0.4c0-0.1,0-0.1,0-0.2c4.1,0,8.3,0,12.4,0C1865.2,991.8,1864.7,992.5,1862.5,992.5z
	 M1864.8,987.1c-4.1,0.2-8.1,0.1-12.3,0.1c0.1-2.9,0.2-3.1,2.6-3.1c3.2,0,6.5,0,9.7,0c0.5,0,1.3,0.7,1.3,0.8
	C1865.7,985.8,1865.2,987.1,1864.8,987.1z M1864.5,982.1c-3.1,0-6.1,0-9.2,0c-0.6,0-1.2-0.1-1.8-0.2c0.1-2.8,0.1-2.8,2.5-2.8
	c3.7,0,7.3,0,11,0C1867.3,981.8,1867.1,982.1,1864.5,982.1z M1867.1,976.8c-4.1,0.2-8.2,0.1-12.3,0.1c0-3,0.1-3.1,2.6-3.1
	c3.2,0,6.3,0,9.5,0c0.5,0,1,0.5,1.5,0.8C1868,975.4,1867.6,976.8,1867.1,976.8z M1866.5,971.6c-3.5,0-7,0-10.5,0
	c-0.2-2.8,0.1-3.2,2.7-3.2c3,0,6,0,9,0c0.6,0,1.2,0.1,1.9,0.1C1869.2,971.6,1869.2,971.6,1866.5,971.6z M1861.5,926.9
	c0-1.3-0.5-1.7-1.7-1.6c-0.8,0.1-1.6,0.1-2.4,0.1c-0.5,0-0.9-0.2-1.4-0.4c0-0.2,0.1-0.5,0.1-0.7c2.8,0,5.5,0,8.3,0
	c0.3,0,0.7,0.7,0.8,1c0.1,3.4,0.1,6.8,0.2,10.1c0,1.5-0.8,1.7-2,1.6c-1.1,0-2,0-2-1.6C1861.5,932.7,1861.4,929.8,1861.5,926.9z
	 M1867.9,966.4c-3.1,0-6.1,0-9.2,0c-0.5,0-1.1-0.1-1.6-0.1c0-2.9,0.1-2.9,2.7-3c3,0,6-0.1,9-0.1c0.7,0,1.3,0.1,2,0.1
	C1870.6,966.3,1870.5,966.4,1867.9,966.4z M1870.7,960.9c-4.1,0.2-8.2,0.1-12.5,0.1c0.2-2.9,0.3-3.1,2.8-3.1c3.2-0.1,6.4,0,9.7,0.1
	c0.4,0,1.2,0.6,1.2,0.7C1871.6,959.5,1871.1,960.9,1870.7,960.9z M1872.8,954.9c-0.1,0.3-0.7,0.7-1.1,0.8c-3.5,0.1-7,0.2-10.5,0.3
	c-0.8,0-1.9,0.1-1.9-1.1c0-1.1,0.1-2.3,1.6-2.6c4.2-0.7,8.3-1.4,12.9-2.1C1873.5,951.9,1873.2,953.4,1872.8,954.9z M1874,936.2
	c0,0.3-0.7,0.9-1.1,0.9c-1.9,0.1-3.7,0.1-5.6,0c-1.1,0-1.5-0.6-1.5-1.6c0-3.7,0-7.3,0-11.2c2.6,0,4.7,0,6.8,0c1.2,0,1.7,0.6,1.7,1.6
	C1874.2,929.3,1874.1,932.7,1874,936.2z M1874.9,936.6c0-3.8,0-7.4,0-11c0-0.4,0.4-0.8,0.6-1.2c0.3,0.4,0.7,0.7,0.8,1.1
	c0.9,3.6,1.8,7.3,2.7,11.2C1877.7,936.6,1876.5,936.6,1874.9,936.6z M1876.8,917.9c3.6,0,7,0,10.3,0c3.6,0,4.2,0.7,4.1,4.6
	c0,0.1-1.6,0.1-2.5,0.1c-3.1,0-6.1-0.1-9.2,0c-1.3,0-1.9-0.4-2-1.6C1877.3,920.1,1877.1,919.2,1876.8,917.9z M1880,932.1
	c-0.1-0.9-0.2-1.8-0.3-3c4.5,0,8.7,0,13,0c0.3,0,0.7,0.4,0.8,0.6c0.4,1.2,0.6,2.5,1,3.9c-1,0.1-1.7,0.1-2.5,0.1
	c-3.2,0.1-6.4,0.1-9.7,0.2C1880.9,934.1,1880.1,933.6,1880,932.1z M1895.2,936.6c-0.5,0.1-1,0.2-1.5,0.2c-3.7,0-7.3,0-11,0
	c-1.2,0-1.6-0.6-1.5-1.9c0.5-0.1,1-0.2,1.5-0.2c3.6,0,7.2,0.1,10.9,0.1C1894.8,934.8,1895.3,935.3,1895.2,936.6z M1895.8,930.5
	c-0.2,0-0.3,0.1-0.5,0.1c-0.6-2-1.1-3.9-1.7-5.9c1.9-0.6,2.1-0.5,2.1,1.2C1895.9,927.5,1895.8,929,1895.8,930.5z M1893,914.5
	c0.1,0,0.3,0,0.4,0c0.7,2.8,1.4,5.6,2.2,8.6c-2.2,0.4-2.6,0.1-2.6-1.7C1892.9,919,1893,916.7,1893,914.5z M1893,928.1
	c-0.7,0.1-1.3,0.1-1.9,0.1c-3.1,0-6.1,0-9.2,0c-2.9,0-3.3-0.5-3.3-3.8c4.3,0,8.5,0,12.6,0c0.4,0,0.9,0.6,1.1,1
	C1892.7,926.2,1892.8,927,1893,928.1z M1889.1,897.1c1.5,6.3,3.9,12.4,2.7,19.5C1889.4,910.1,1888.1,903.8,1889.1,897.1z
	 M1889.5,914.5c0.1,0.7,0.2,1.4,0.4,2.4c-2.2,0-4.3,0-6.3,0c-1.8,0-3.5-0.1-5.3,0c-1.4,0.1-2.1-0.4-2.3-1.8
	c-0.1-0.8-0.4-1.6-0.6-2.7c0.7-0.1,1.3-0.2,1.9-0.2c3.1,0,6.2,0.1,9.3-0.1C1888.5,912.1,1889.4,912.7,1889.5,914.5z M1888.6,911.1
	c-1.1,0-2,0.1-2.9,0.1c-2.9,0-5.9-0.1-8.8,0c-1.4,0-2-0.5-2.2-1.7c-0.1-0.8-0.4-1.6-0.6-2.7c0.7-0.1,1.2-0.2,1.7-0.2
	c3.3,0,6.6,0.1,9.9,0c1.4,0,2.1,0.4,2.3,1.8C1888,909.3,1888.3,910,1888.6,911.1z M1870.9,892.6c0-3.2-0.3-2.8,2.8-2.8
	c2.5,0,5,0.1,7.5,0c1.4-0.1,2.1,0.4,2.2,1.8c0,0.8,0.3,1.6,0.6,2.7c-2.7,0-5.2,0-7.8,0c-1.3,0-2.6,0-3.9,0c-1,0-1.5-0.3-1.4-1.4
	C1870.9,892.8,1870.9,892.7,1870.9,892.6z M1871.5,888.2c3.4,0,6.9,0,10.3,0c0,0.1,0,0.2,0,0.3c-3.4,0-6.8,0-10.3,0
	C1871.5,888.4,1871.5,888.3,1871.5,888.2z M1878.4,895.4c0.7,0,1.5,0,2.2,0c4.3,0,4.3,0,4.8,4.6c-4.1,0-8.3,0-12.4,0
	c-0.3,0-0.9-0.5-1-0.9c-0.4-1.1-0.5-2.3-0.9-3.7C1873.7,895.4,1876.1,895.4,1878.4,895.4z M1880.8,901c0.6,0,1.2,0,1.9,0
	c3.4,0,4.3,1,4.2,4.7c-1.6,0-3.2,0-4.8,0c-2.3,0-4.6,0-7,0c-1,0-1.5-0.3-1.6-1.3c-0.2-1-0.4-2.1-0.7-3.5
	C1875.6,901,1878.2,901,1880.8,901z M1864.1,864.1c4.7,0,9.4,0,14.1,0c1.8,0,3,0.6,3.4,2.5c1.4,5.9,2.7,11.7,4.5,17.5
	c1.6,5.2,1.7,10.4,1.6,15.7c0,0.2-0.1,0.4-0.1,0.6c-0.1,0-0.3,0-0.4,0c-1.5-6.2-3.1-12.4-4.6-18.7c-0.2-1-0.5-1.4-1.5-1.4
	c-1.6,0-3.2,0-4.8,0c-1.1,0-1.5-0.4-1.5-1.5c-0.1-4.1-0.1-4.3-4.3-4.1c-2.6,0.1-4.1-0.5-5-3c-0.9-2.5-2.3-4.8-3.5-7.5
	C1863.1,864.2,1863.6,864.1,1864.1,864.1z M1858.9,912.4c3.7-4.2,7-8.8,10.4-13.3c0.2,0,0.4,0.1,0.6,0.1c1.9,7.9,3.9,15.8,5.9,23.9
	c-1.6,0.1-3,0.3-4.4,0.3c-4.4,0-8.8,0-13.2,0c-1.5,0-2.1-0.5-2.2-2.1C1855.7,917.9,1856.6,915.1,1858.9,912.4z M1831.4,814.7
	c9.5-0.9,19.1-1.1,28.1,2.7c6.1,2.5,11.3,6.3,13.6,12.9c2.6,7.6-1.7,14.9-9.7,16.2c-0.5,0.1-1.1-0.2-1.7-0.3
	c-0.5-0.1-1.1-0.3-1.6-0.3c-2.2,0-4.3-0.1-6.5,0c-1.2,0-2-0.4-2.7-1.3c-4.7-5.5-9.4-10.9-14.4-16.7c-1.1,3.1-2.6,5.6-2.5,8.8
	c0.2,3.5,0,7,0.1,10.5c0,1.3-0.4,1.8-1.8,1.7c-2.7-0.1-5.4,0-8.4,0c0.1-0.9,0.1-1.6,0.2-2.4c0.8-4.9,1.6-9.8,2.5-14.6
	c1-5.3,2.1-10.6,3.3-15.9C1830.1,815.4,1830.9,814.7,1831.4,814.7z M1828.3,817.6c-0.2,0-0.4,0-0.6,0.1c-1.1-2.7-2.3-5.5-3.4-8.2
	c-0.1-0.2-0.1-0.5-0.2-0.6c-1.9-2.7-1.3-5,0.5-7.6c3.1-4.6,5.8-9.5,8.6-14.3c0.2-0.4,0.5-0.7,0.8-1c0.1,0,0.3,0.1,0.4,0.1
	C1832.3,796.5,1830.3,807.1,1828.3,817.6z M1822.1,804.3c-1.4-3.5-2.7-6.4-3.9-9.4c-0.6-1.5,0.2-3.5,1.4-4.1
	c4.7-2.4,9.4-4.8,14.1-7.2c0.2-0.1,0.4-0.1,1-0.3C1830.5,790.3,1826.5,797,1822.1,804.3z M1819.7,790c-0.1-0.1-0.3-0.2-0.4-0.4
	c1.6-5,3.1-10,4.8-15.4c3.8,2.6,7.3,5.1,11.1,7.8C1829.8,784.8,1824.7,787.4,1819.7,790z M1824.6,773c0.8-2.9,1.7-5.8,2.7-8.7
	c0.1-0.2,0.3-0.3,0.7-0.8c2.3,5.8,4.6,11.3,6.8,16.9c-0.1,0.1-0.3,0.2-0.4,0.3c-1.6-1.1-3.3-2.1-4.9-3.2c-1.4-1-2.9-2-4.2-3.1
	C1824.8,774,1824.5,773.4,1824.6,773z M1835.6,779.4c-0.2,0-0.4,0-0.5,0.1c-0.4-0.9-0.9-1.9-1.2-2.8c-1.7-4.2-3.4-8.5-5.1-12.7
	c-0.4-1-0.1-1.7,0.6-2.4c1.1-1.1,2.2-2.3,3.2-3.4c0,0,0,0,0,0c2-1.9,4-3.8,6-5.7c0.7-0.6,1.4-1.3,2.1-1.9c0.1,0.1,0.3,0.2,0.4,0.2
	C1839.2,760.4,1837.4,769.9,1835.6,779.4z M1840.8,749.5c-2.4,2.5-5,4.9-7.4,7.4c-0.4,0.4-0.6,0.9-0.8,1.3c-1.3,1-2.6,2-4.1,3.2
	c0.6-7.7,6.5-12.2,10.4-18.3c1,1.8,1.9,3.3,2.6,4.9C1841.6,748.3,1841.2,749.1,1840.8,749.5z M1841.9,746.5
	c-2.3-1.8-2.6-3.8-1.1-5.9c0.8-1.1,1.6-2.1,2.3-3.2c0.1,0.1,0.3,0.1,0.4,0.2C1843,740.6,1842.4,743.5,1841.9,746.5z M1847.7,716.7
	c-0.2,0-0.4,0-0.6,0c-0.4-2-0.8-4-1.1-6.1c-0.1-0.5,0.4-1.1,0.8-1.6c0.8-1.2,1.6-2.3,2.4-3.5c0.2,0,0.3,0.1,0.5,0.1
	C1849,709.3,1848.3,713,1847.7,716.7z M1845.6,706c2.8-9.1,5.8-18.3,8.7-27.4c0.1-0.3,0.3-0.6,0.7-0.8c-0.4,2.3-0.8,4.6-1.2,6.8
	c-1.1,5.5-2,11.1-3.3,16.6c-0.4,1.8-1.6,3.4-2.5,5.1c-0.5,0.9-1.3,1.7-1.9,2.5c-0.2,0-0.3-0.1-0.5-0.1
	C1845.6,707.7,1845.4,706.8,1845.6,706z M1841.3,719.6c1-2.9,1.5-6,3.9-8.2c2.8,6.9,0.8,13.7-0.8,20.9c-0.4-0.9-0.8-1.4-1-1.9
	c-0.8-2.2-1.4-4.4-2.2-6.5C1840.7,722.3,1840.9,721,1841.3,719.6z M1836.9,733.5c1.3-2.9,2-6.1,3-9.1c0.1-0.4,0.3-0.7,0.7-1.2
	c1.2,3.6,2.4,6.9,3.5,10.3c0.2,0.5,0.2,1.4-0.1,1.8c-1.5,2.2-3.1,4.4-5,6.9C1837.6,739,1835.4,736.9,1836.9,733.5z M1835.6,737.7
	c0.2,0,0.3,0,0.5,0.1c0.7,1.2,1.4,2.4,2,3.7c0.2,0.5,0.3,1.3,0,1.7c-2,2.8-4.1,5.5-6.2,8.2c-0.2-0.1-0.4-0.1-0.5-0.2
	C1832.8,746.7,1834.2,742.2,1835.6,737.7z M1637.2,733.3c4.3-5.8,9.3-10.9,15.4-14.9c0.7-0.4,1.5-0.7,2.3-0.7
	c16,0.8,32,1.7,47.9,2.5c15,0.8,30,1.6,45,2.4c4.2,0.2,8.5,0.5,13.3,0.8c-2.2,2-4.1,3.7-5.9,5.3c-6.6,5.9-13.2,11.7-19.7,17.6
	c-7,6.4-14,12.9-20.9,19.4c-3.5,3.2-6.9,6.6-10.3,9.9c-1.7,1.7-1.8,1.7-3.5,0.3c-3.6-3-7.1-5.9-10.6-9c-0.3-0.3-0.4-1.1-0.3-1.7
	c0.3-1.9,0.9-3.8,1.2-5.7c0.1-0.7-0.2-1.5-0.5-2.1c-1.5-2.7-3.7-2.8-5.1-0.1c-2.3,4.5-5.7,7.8-10.2,10c-1,0.5-2.2,1.1-1.9,2.5
	c0.3,1.5,1.2,2.4,2.7,2.8c2.4,0.7,4.7,0.3,7-0.7c1-0.4,1.5-0.3,2.2,0.5c3,3.8,6.1,7.6,9.2,11.3c0.6,0.7,0.6,1.2-0.1,1.8
	c-6.9,6.8-13.7,13.6-20.5,20.5c-6.4,6.5-12.6,13.1-18.8,19.7c-4.5,4.8-8.9,9.6-13.4,14.4c-0.4,0.4-0.8,0.8-1.5,1.4
	c-0.1-1-0.3-1.8-0.3-2.5c-0.5-14.2-0.9-28.5-1.4-42.7c-0.7-20-1.4-40.1-2-60.1C1636.3,735.2,1636.6,734,1637.2,733.3z M1728.9,895.6
	c-0.1-0.4,0-1.2,0.2-1.2c2.4-0.8,4.8-1.7,7.5,0.3c-2.5,1.1-4.2,3.2-7,3.3C1729.4,897.1,1729.1,896.4,1728.9,895.6z M1729.7,897.9
	C1729.7,897.9,1729.6,897.9,1729.7,897.9c-0.4,0.5-0.8,1.1-1.3,1.4c-2.1,1.3-4.3,2.6-6.5,3.7c-0.6,0.3-1.6,0.6-2.2,0.3
	c-2.8-1.1-5.5-2.3-8.7-3.7c1.5-0.5,2.6-0.9,3.7-1.3c3.9-1.1,7.8-2.2,11.7-3.4c1-0.3,1.6-0.1,2,0.9
	C1728.8,896.7,1729.2,897.3,1729.7,897.9z M1735.1,893.3c0-0.2,0-0.5,0-0.7c2.8-0.8,5.6-1.6,8.4-2.5c0.1,0.2,0.1,0.3,0.2,0.5
	c-2,1.1-3.9,2.3-6,3.2C1737,894.1,1735.9,893.5,1735.1,893.3z M1746.1,889.9c0.1,0.1,0.3,0.2,0.4,0.3c-1,1.9-2,3.8-3.1,5.7
	c-0.1,0.2-0.6,0.4-0.8,0.4c-1.4-0.5-2.7-1.1-4.5-1.8C1741.1,892.7,1743.6,891.3,1746.1,889.9z M1666.3,913c-1.2,0.9-2.4,1.9-3.6,2.8
	c-1.4,1-2.7,2-4.1,2.9c-0.4,0.3-1.1,0.6-1.5,0.4c-1.4-0.6-2.8-1.4-4.1-2.2c0-0.2,0.1-0.3,0.1-0.5c4.4-1.3,8.7-2.5,13.1-3.8
	C1666.2,912.8,1666.3,912.9,1666.3,913z M1585.9,909c-0.2,0.3-0.5,0.6-1.1,0.7c0.5-2,0.9-4,1.4-6c2.6-10.1,5.3-20.3,8-30.4
	c2.4-9.1,4.9-18.2,7.3-27.3c1.6-6.3,3.2-12.6,4.8-18.8c2.5-9.8,5.1-19.6,7.7-29.5c3.3-12.7,6.6-25.3,9.9-38
	c1.5-5.9,3.1-11.9,4.7-17.8c0.2-0.6,0.8-1.2,1.4-1.7c1-0.7,2.1-1.2,3.5-2c0.1,0.6,0.2,1.1,0.2,1.6c0.3,8.4,0.5,16.8,0.8,25.2
	c0.5,15.2,1.1,30.5,1.6,45.7c0.4,10.9,0.7,21.9,1,32.9c0,0.8-0.3,1.8-0.8,2.4c-7.9,9.2-16,18.3-23.7,27.6
	c-5.9,7.1-11.5,14.5-17.1,21.9C1592.1,899.9,1589,904.5,1585.9,909z M1592.3,934.6c0-0.1-0.1-0.3-0.1-0.4c5.2-1.5,10.3-3.3,15.5-4.6
	c5.2-1.3,10.2-3.7,15.7-3.7c-2.8,2-5.2,4.3-8.9,4.9C1607.1,931.8,1599.7,933.3,1592.3,934.6z M1619.9,929.8
	c3.5-3.7,7.4-4.4,11.6-1.9C1627.7,928.5,1624,929.2,1619.9,929.8z M1626.3,925.4c2.8-2.9,6.8-3.8,10.2-3.9c3.5-0.1,7,2,10.5,3.4
	C1640.1,926.3,1633.4,928.5,1626.3,925.4z M1649.8,924.7c-0.3,0.2-0.8,0.1-1.2,0c-3.2-1.1-6.4-2.2-9.6-3.4c-0.2-0.1-0.3-0.3-0.7-0.6
	c3-0.9,5.8-1.7,8.6-2.5c0.4-0.1,0.9-0.1,1.3-0.4c3.4-1.9,5.7,0.4,8.7,2.1C1654.4,921.6,1652.2,923.2,1649.8,924.7z M1661.5,922.7
	c-2.9,0.5-5.8,1-8.7,1.5c-0.1-0.2-0.2-0.4-0.3-0.6c1.7-1.1,3.3-2.7,5.2-3.3c1.1-0.3,2.6,1.1,4,1.8
	C1661.6,922.4,1661.5,922.5,1661.5,922.7z M1662.2,922c-1.2-0.7-2.5-1.4-4.1-2.3c6-3.9,10.7-9.1,18.5-9.8c-1.2,1.2-2.2,2.3-3.2,3.3
	c-2.8,2.8-5.7,5.5-8.4,8.3C1664.1,922.4,1663.3,922.6,1662.2,922z M1665.9,922c-0.1-0.2-0.2-0.4-0.3-0.6c1.4-1.4,2.9-2.8,4.3-4.2
	c2.2-2.1,4.4-4.2,6.5-6.4c1.1-1.1,2-1.4,3.6-0.7c4.9,2.2,9.9,4.3,14.9,6.4c0,0.2,0,0.3,0,0.5C1685.2,918.7,1675.6,920.4,1665.9,922z
	 M1695.8,916.3c-5.5-2.3-11-4.7-17-7.2c0.8-0.3,1.2-0.6,1.6-0.7c2.6-0.7,5.2-1.5,7.8-2.2c0.4-0.1,1.2-0.1,1.3,0.1
	c2.2,3.1,4.4,6.3,6.6,9.5C1696,916.1,1695.9,916.2,1695.8,916.3z M1689.8,905.7c5.3-1.5,10.3-3,15.3-4.4c0.1,0.1,0.2,0.2,0.3,0.3
	c-2.6,4.9-5.3,9.8-8.2,15.1C1694.8,913,1692.4,909.5,1689.8,905.7z M1698.8,916.1c-0.1-0.1-0.2-0.2-0.3-0.3c0.8-1.5,1.5-3,2.3-4.4
	c1.7-3.1,3.4-6.1,5.1-9.2c0.8-1.5,2.8-2.7,4.4-2.1c3.1,1.1,6.1,2.5,9.7,4.1C1712.6,908.3,1705.7,912.2,1698.8,916.1z M1701.4,916
	c-0.1-0.2-0.1-0.3-0.2-0.5c1.1-0.7,2.1-1.4,3.2-2c5.1-2.9,10.1-5.7,15.2-8.6c0.5-0.3,1.2-0.4,1.7-0.2c3.9,1.6,7.7,3.3,11.5,5
	c0.2,0.1,0.3,0.3,0.8,0.7C1722.7,912.3,1712,914.2,1701.4,916z M1734.5,909.9c-4.3-1.8-8.6-3.7-12.8-5.5c0-0.2-0.1-0.3-0.1-0.5
	c2.7-1.5,5.4-3.1,8.4-4.8c1.7,3.6,3.3,7,5,10.4C1734.8,909.6,1734.6,909.8,1734.5,909.9z M1733.4,905.1c-0.8-1.7-1.5-3.4-2.4-5
	c-0.4-0.9-0.5-1.4,0.5-1.9c1.8-1,3.5-2,5.3-3c0.4-0.2,1.1-0.1,1.6-0.1c0.3,0,0.6,0.3,0.9,0.4c1,0.4,2.5,0.6,3,1.4
	c0.4,0.6-0.4,2-0.7,3c0,0,0,0,0,0c-0.9,1.5-1.9,3-2.8,4.5c-1,1.7-1.9,3.5-3,5.5C1734.9,908.2,1734.1,906.7,1733.4,905.1z
	 M1736.7,910c1.8-3.6,3.4-6.9,5-10.1c0.3-0.3,0.7-0.6,0.9-1c0.4-1.5,1.3-1.5,2.6-1c5.4,2.2,10.8,4.4,16.1,6.6
	c0.4,0.2,0.8,0.5,1.2,1.2C1754,907,1745.6,908.5,1736.7,910z M1762.4,904.4c-6.2-2.5-12.4-5-18.8-7.6c1.4-2.7,2.7-5.1,3.9-7.3
	c5.2,4.9,10.2,9.7,15.2,14.4C1762.7,904,1762.5,904.2,1762.4,904.4z M1768.9,716.8c-1,0.8-2.1,1.5-2.8,2.4c-1.2,1.5-2.7,1.6-4.4,1.5
	c-9.2-0.6-18.5-1.1-27.7-1.6c-6.6-0.3-13.3-0.5-19.9-0.9c-11.4-0.6-22.9-1.3-34.3-1.9c-6.7-0.4-13.5-0.7-20.2-1
	c-0.8,0-1.5-0.2-2.3-0.2c0.7-1.5,1.3-2.9,2.1-4.1c0.2-0.4,1-0.5,1.5-0.6c6.2-1.5,12.4-2.9,18.7-4.4c11.2-2.7,22.4-5.4,33.7-8.1
	c9.9-2.4,19.7-4.7,29.6-7.1c12.3-2.9,24.7-5.8,37-8.8c10-2.4,19.9-4.8,29.9-7.2c6.4-1.5,12.9-3.1,19.3-4.6c0.5-0.1,1-0.2,1.5-0.3
	c0.1,0.1,0.1,0.2,0.2,0.3c-1.7,1.1-3.5,2.2-5.2,3.4c-9.4,6.7-19,13.2-28.2,20.3C1787.6,701.2,1778.3,709.1,1768.9,716.8z
	 M1774.6,889.7c0.5-2.1,1.3-3.8,3.7-4.5c7.1-2.1,13.1-6.1,18.3-11.3c3.3-3.2,6.1-6.8,8.1-11c1-2.1,2.7-2.9,5.1-2.7
	C1808.8,869.9,1784.5,890.4,1774.6,889.7z M1776.5,912.2c-0.4-0.9,0.1-1.3,0.9-1.3c1.6,0,3.2-0.1,4.8,0.1c0.6,0.1,1.2,0.9,1.5,1.5
	c2.9,7.7,5.8,15.4,8.7,23.1c2.6,7,5.2,14.1,7.8,21.1c0.8,2.2,1.7,4.4,2.6,6.6c0.2,0.5,0.4,1,0.6,1.8c-2.4,0-4.5,0-6.6,0
	c-0.3,0-0.7-0.5-0.8-0.9c-1.8-4.8-3.7-9.6-5.4-14.4c-1.8-4.9-3.6-9.8-5.4-14.8C1782.2,927.4,1779.4,919.8,1776.5,912.2z
	 M1776.1,984.5c0.2,0.1,0.4,0.2,0.6,0.3c-0.1,1.9-0.2,3.8-0.3,5.7c-0.1,2.4-0.1,2.4,2.2,2.4c2,0,4.1,0,6.1,0c2.1,0,2.5,0.6,1.6,2.5
	c-1,2.2-2,4.4-3.4,6.4c-5.5,8.1-11.1,16.2-16.6,24.3h-22.7C1754.5,1012.2,1765.3,998.3,1776.1,984.5z"/>
<g>
	<path class="st1" d="M1676.3,1051.8c0.1,0,0.3,0,0.4,0C1667.5,1051.8,1662,1051.8,1676.3,1051.8z"/>
	<path class="st1" d="M1698.8,1051.8c0.1,0,0.1,0,0.2,0C1699.1,1051.8,1699,1051.8,1698.8,1051.8z"/>
	<path class="st1" d="M1676.7,1051.8c8.7,0,20.5,0,22.1,0C1691.5,1051.8,1684.1,1051.8,1676.7,1051.8z"/>
</g>
<linearGradient id="SVGID_2_" gradientUnits="userSpaceOnUse" x1="-6755.2246" y1="-2077.4797" x2="-6755.2246" y2="-843.1221" gradientTransform="matrix(-1 0 0 -1 -5901.8247 -2920.6018)">
	<stop  offset="0" style="stop-color:#A104FF"/>
	<stop  offset="0.1884" style="stop-color:#8103CD"/>
	<stop  offset="0.7535" style="stop-color:#25013B"/>
	<stop  offset="1" style="stop-color:#000000"/>
</linearGradient>
<polygon class="st2" points="639.4,-2077.5 1067.4,-2077.5 1067.4,-843.1 639.4,-843.1 "/>
</svg>
