<?xml version="1.0" encoding="utf-8"?>
<!-- Generator: Adobe Illustrator 23.0.2, SVG Export Plug-In . SVG Version: 6.00 Build 0)  -->
<svg version="1.1" id="Layer_1" xmlns="http://www.w3.org/2000/svg" xmlns:xlink="http://www.w3.org/1999/xlink" x="0px" y="0px"
	 viewBox="0 0 3504.2 1740.5" style="enable-background:new 0 0 3504.2 1740.5;" xml:space="preserve">
<style type="text/css">
	.st0{fill:url(#SVGID_1_);}
	.st1{fill:#3C0082;}
	.st2{fill:url(#SVGID_2_);}
</style>
<linearGradient id="SVGID_1_" gradientUnits="userSpaceOnUse" x1="1752.1" y1="314.4848" x2="1752.1" y2="1740.4696">
	<stop  offset="0" style="stop-color:#9B02E2"/>
	<stop  offset="1" style="stop-color:#000000"/>
</linearGradient>
<path class="st0" d="M3504.1,529.4v-88.9l-22.1,72l-27.6-57l-25.9,53.2l-36.7-75.8l-31.4,64.5l-31.2-64.5l-8.4,17.3l-28.4-58.7
	l-25,51.2l-24.8-51.2l-18.9,38.8l-10.4-7.2l-46.2-95.4l-26.4,54.1c-2-0.4-4-0.8-5.9-1.1l-19.3-39.8l-9.3,19.1l-22-45.5l-18.9,38.9
	l-12.4-25.6l-39.6,81.2l-8.4-17.3l-44.7,91.7l-18-37.1l-45.1,92.5l-0.7,0.6l-16.9-34.9l-42.2,86.7l-11.9,10.5l-28.8-59.5l-29,59.6
	l-15.2-31.4l-0.6,1.3l-28.9-59.6l-29,59.6l-13.4-27.6l-17.6,36.1l-19.3-39.8l-25.7,52.8l-1.9-4l-20.2,41.4l-11,12l-16.8-34.6
	l-44.2,90.7l-9.3-19.2l-14.8,30.3l-9.2-19l-42.3,86.9l-12.1-23l-13.9,28.5l-17.4-36l-27.3,56.1l-35.4-73l-29.1,59.6l-20.7-42.7
	l-23.4,48l-11.2-2.8l-41-84.7l-32.2,66.1l-13.7-3.5l-16.7-34.5l-13.1,27l-24-6.1l-34.7-71.5l-10.7,22l-26.2-53.9l-23.5,48.4
	l-26.3-54l-17.1,35.2l-23.5-48.4l-22.8,46.8l-43.6-89.9l-37,75.9l-40.5-83.5l-14.9,30.6l-40.4-83.3l-28.3,58.2l-50.9-105.2l-13,26.7
	l-23.9-49.2l-9.9,20.2l-38.1-78.5l-27.7,56.9l-27.6-56.9l-16.3,33.5l-37.2-76.7l-18.6,38.2l-32.2-64.5l-33.9,69.5
	c-7.1,1.1-14.1,2.7-21,5.1l-20.7-42.6l-33.1,68.1l-2.4,1.2l-27.2-56.1l-29.5,60.5l-16.6-34.2l-28.1,57.7l-10.6-22l-26.7,54.8
	l-13.8-28.6l-15.7,32.3l-15.6-32.3l-29,59.5l-9.7-20l-24.8,51l-24.7,12.2l-27.9-57.6l-21.2,43.5l-17.5-36.1l-32.7,67.2l-18.9-39
	l-33.7,69.2l-29-59.8l-36,72.9l-5.3-2.8l-36.7-75.7l-17.6,36.1l-23-47.4l-17.4,35.7l-4.2-2.2l-19-39.2l-11.3,23.1
	c-2.3-1.1-4.6-2.2-6.9-3.4l-11.4-23.2l-7.3,15c-81.2-35-170.4-47.4-258.3-35.5L311.3,524l-23.2-47.8l-26.5,54.5l-2.9,0.4l-16.6-34.3
	l-14.3,29.4l-13.3-27.5l-15.1,31l-23.5-9.5l-24.1-49.8l-5.2,10.8l-30-61.6l-25.4,52.1l-20.7-42.7L58,454.9l-20.7-42.6l-9.8,20
	L0.1,391.6v47.5v80.3v1.4v20v-0.2v1199.8h3504V567.9V529.4z"/>
<g>
	<path class="st1" d="M1676.3,1051.8c0.1,0,0.3,0,0.4,0C1667.5,1051.8,1662,1051.8,1676.3,1051.8z"/>
	<path class="st1" d="M1698.8,1051.8c0.1,0,0.1,0,0.2,0C1699.1,1051.8,1699,1051.8,1698.8,1051.8z"/>
	<path class="st1" d="M1676.7,1051.8c8.7,0,20.5,0,22.1,0C1691.5,1051.8,1684.1,1051.8,1676.7,1051.8z"/>
</g>
<linearGradient id="SVGID_2_" gradientUnits="userSpaceOnUse" x1="-6755.2246" y1="-2077.4797" x2="-6755.2246" y2="-843.1221" gradientTransform="matrix(-1 0 0 -1 -5901.8247 -2920.6018)">
	<stop  offset="0" style="stop-color:#A104FF"/>
	<stop  offset="0.1884" style="stop-color:#8103CD"/>
	<stop  offset="0.7535" style="stop-color:#25013B"/>
	<stop  offset="1" style="stop-color:#000000"/>
</linearGradient>
<polygon class="st2" points="639.4,-2077.5 1067.4,-2077.5 1067.4,-843.1 639.4,-843.1 "/>
</svg>
