<?xml version="1.0" encoding="utf-8"?>
<!-- Generator: Adobe Illustrator 23.0.2, SVG Export Plug-In . SVG Version: 6.00 Build 0)  -->
<svg version="1.1" id="Layer_1" xmlns="http://www.w3.org/2000/svg" xmlns:xlink="http://www.w3.org/1999/xlink" x="0px" y="0px"
	 viewBox="0 0 3504.2 1740.5" style="enable-background:new 0 0 3504.2 1740.5;" xml:space="preserve">
<style type="text/css">
	.st0{fill:#3C0082;}
	.st1{fill:url(#SVGID_1_);}
</style>
<path d="M3502.4,1042l-77.9,81.3c-2.7-16.9-5.5-33.6-8.6-50.4c-2.3-0.1-4.5-0.1-6.8-0.2c-2.6,22.8-5.3,45.7-8,69.5l-10.8,8.7
	c-19.8-31-32.3-64.5-36.3-102.8c-2.2,0.4-4.4,0.7-6.6,0.9c-0.5,31.3-1,62.6-1.6,94.4l-12.9-2.8c-33.7-53.4-42.9-113.7-32.9-180.5
	c-2.1-0.6-4.3-1.2-6.4-1.8c-14.6,23.8-29.2,47.6-43.6,71.1c-11.9-31.2-23.9-62.8-35.9-94.4c-2.2,0.9-4.5,1.8-6.7,2.7
	c11.7,50.5,19.4,101.3,14.7,158.7c-4.7-18.7-8.2-32.3-11.7-46c-5.4,19-5.1,37.5-8.5,55.1c-3.2,16.6-10.1,32.3-16.7,52.5l-0.3,0.2
	c-9.3-30.5-16.5-54.1-23.7-77.8c-1.5,0.6-3.1,1.1-4.6,1.6c-3.9,22.5-7.7,44.9-11.6,67.4c-1.5-0.4-3-0.7-4.4-1.2
	c-5.9-46.2,1.2-90.5,17.2-133.5c-2.2-1.1-4.4-2.2-6.6-3.3c-16.5,32.6-33.1,65.2-51.9,102.3c-0.8-45.5-4.6-85.3-14.7-123.8
	c-1.5,0.2-3,0.4-4.6,0.6c-0.8,39.2-0.4,78.7-2.7,117.8c-2.3,39.6-11.3,77.3-30.5,110.5c-2.1-0.4-4.1-0.6-6.2-0.9
	c0.5-39.2,0.9-78.5,1.5-121.1c-24.9,31-33.6,69.6-47.9,107.2c-9.4-37.8-9.7-75.6-25.9-114.2c-8.7,88.6-12.4,105.3-26.4,125.5
	c-8.4-27.1-16.9-54.6-25.4-82.1c-2.3,0.7-4.5,1.4-6.8,2.1c0.6,29.6,2.3,59.4,3.8,89c-3.5-10.5-8.1-21.1-14.3-31.3
	c-3.4,12.5-6.9,25-10.9,39.5c-14.5-44.5-39.8-81.5-73.4-114.9c21.9,35.7,29.8,72.9,24.6,113.2c-5.5,0.1-11,0.8-16.4,2.2
	c-23.2-25.2-36.7-53.4-45.9-84.1c-12.6,27.3-13.6,55.8-17.1,86c-27.8-34.6-55.7-65.6-92.6-90.2c11,27.8,16.2,55.4,12.2,85.9
	c-24.2-18.5-30.3-43.5-40.1-66.8c-1.4,0.1-2.8,0.1-4.2,0.2c-3.9,16.9-7.9,33.6-12.4,52.8c-10.3-24.1-19.8-46.2-38.5-67.1v67.7
	c-1.6,0.1-3.2,0.4-4.7,0.5c-27.8-29.9-18.8-64.8-15.4-99.2c-14.7,19.3-18.3,41.8-25.2,65.6c-15-29.2-34.1-52.1-64.3-68.1
	c19.9,43.5,25.2,87.2,12.2,135.1c-16.2-28.8-17.7-56.6-12.9-85.2c-2-0.1-4-0.2-6-0.4c-8.5,24-17,47.9-26.1,73.8
	c-10-32.6-23.2-61.7-50.5-84.3c5.3,17.7,13.7,34.6,17.6,52.1c4.1,18.5,2.3,37.5-3.4,57.5c-16-18-18.4-37.8-19.1-58.1
	c-1.6-0.1-3.1-0.2-4.7-0.4c-5.6,16.2-11.2,32.3-17.3,49.7c-16.2-30.6-29.8-61-56.4-85c3.7,28.8,9,56.1,10.3,83.5
	c0.2,4.5,0.3,8.9,0.3,13.5l-57.9-21.1c-9.7-3.5-19.7-5.2-29.8-4.9l-156.6,4l-133.1-23.8l-212.8,64.5c-8-17.1-16.2-34.2-24.6-51.1
	c-2.6-5.2-8.2-8.7-12.3-13c-1.1,0.5-2.1,0.9-3.2,1.4c6,23.2,6.7,46.4-3,71.2c-2.5-56.8-4.2-66.3-13.8-73.1
	c-0.7,12.4-0.9,24-2.2,35.6c-1.3,12.1-6.3,22.7-15.1,33.5c-1.9-24.1-0.6-47.3-12.2-69.7c-4.9,28.7-9.4,54.9-13.9,81.2
	c-1-0.1-2-0.1-3-0.2c0.1-30.9-1.5-61.4-12.4-90.7c-1.8,40.1-16.8,75.7-39.3,109.8c-7.7-28.8-3.1-57,7.3-85.7
	c-20.4,23.7-30.9,52-43,81.3c-4.6-14.4-8.6-27.1-12.7-39.7c-2,0.4-1.6,0.3-3.6,0.7c0,18-2.5,35.5-14.2,52.7
	c-6.5-34.1-4.1-65.7,12.7-96.6c-3.6,1.5-5.9,3.4-7.3,5.9c-7.9,13.6-16.5,26.9-23.2,41.1c-8.8,18.6-14.7,38.2-12.6,58.7
	c0.2,2.3-57.9,6.9-57.7,9.1l-242.6,67.5c-209.9,58.4-424.7,90.9-640.7,97c-199.1,5.6-411.2,15.6-534.3,71.9v155.2h2908.4
	c0,0.1,0-0.1-0.1,0c1.2-0.1,2.3,0.1,3.5,0h588.8V1042z"/>
<g>
	<path class="st0" d="M1676.3,1051.8c0.1,0,0.3,0,0.4,0C1667.5,1051.8,1662,1051.8,1676.3,1051.8z"/>
	<path class="st0" d="M1698.8,1051.8c0.1,0,0.1,0,0.2,0C1699.1,1051.8,1699,1051.8,1698.8,1051.8z"/>
	<path class="st0" d="M1676.7,1051.8c8.7,0,20.5,0,22.1,0C1691.5,1051.8,1684.1,1051.8,1676.7,1051.8z"/>
</g>
<linearGradient id="SVGID_1_" gradientUnits="userSpaceOnUse" x1="-6755.2246" y1="-2077.4797" x2="-6755.2246" y2="-843.1221" gradientTransform="matrix(-1 0 0 -1 -5901.8247 -2920.6018)">
	<stop  offset="0" style="stop-color:#A104FF"/>
	<stop  offset="0.1884" style="stop-color:#8103CD"/>
	<stop  offset="0.7535" style="stop-color:#25013B"/>
	<stop  offset="1" style="stop-color:#000000"/>
</linearGradient>
<polygon class="st1" points="639.4,-2077.5 1067.4,-2077.5 1067.4,-843.1 639.4,-843.1 "/>
</svg>
