<?xml version="1.0" encoding="utf-8"?>
<!-- Generator: Adobe Illustrator 23.0.2, SVG Export Plug-In . SVG Version: 6.00 Build 0)  -->
<svg version="1.1" id="Layer_1" xmlns="http://www.w3.org/2000/svg" xmlns:xlink="http://www.w3.org/1999/xlink" x="0px" y="0px"
	 viewBox="0 0 3504.2 1740.5" style="enable-background:new 0 0 3504.2 1740.5;" xml:space="preserve">
<style type="text/css">
	.st0{fill:url(#SVGID_1_);}
	.st1{fill:url(#SVGID_2_);}
	.st2{fill:#3C0082;}
	.st3{fill:url(#SVGID_3_);}
</style>
<g>
	<linearGradient id="SVGID_1_" gradientUnits="userSpaceOnUse" x1="2206.9011" y1="206.2314" x2="2206.9011" y2="1740.4696">
		<stop  offset="0" style="stop-color:#3B0263"/>
		<stop  offset="0.196" style="stop-color:#39025F"/>
		<stop  offset="0.399" style="stop-color:#310252"/>
		<stop  offset="0.6053" style="stop-color:#25013E"/>
		<stop  offset="0.8125" style="stop-color:#140121"/>
		<stop  offset="1" style="stop-color:#000000"/>
	</linearGradient>
	<path class="st0" d="M3430.3,812.9c-7.7-1.1-15.7-2.3-24.6-3.7c16.4-10.8,28.4-18.7,45-29.7c-20.5-6.9-34.9-11.8-49.6-16.8
		c11.9-6.6,22.2-12.4,37.8-21.1c-12.2-3.8-17.8-5.5-22.7-7c4.3-6.5,8.5-12.8,14.2-21.4c-15.3-1.6-26.2-2.7-44.1-4.7
		c16.5-12.6,28-21.3,43.6-33.1c-27.3-4.2-32.6-14.9-16.5-32.5c-11.3-2.8-20.4-5.1-31.7-7.9c12.3-8.3,22.1-15,31.9-21.6
		c-0.5-2.3-1-4.7-1.5-7c-16.1,0.9-32.2,1.9-42.5,2.5c5.6-10.8,12-23,20.3-38.7c-11.1,0-16.5,0-17,0c-10-21-18.5-38.9-29-61
		c-12.2,18.8-21,32.3-34.1,52.5c-0.9,2-9.4,11.7-7.5,18c3.4,11,3.3,20.2-0.7,28.6c-10.4-1-21-2.1-31.5-3.3
		c-10.8-1.1-22.4-0.2-32-4.3c-7.1-2.9-11.6-12.5-17.8-19.7c26,6.4,49,3.3,63.9-21c-15.3-20.8-48.7-6.3-61-37
		c24.2,13.1,33.7-4.4,50.9-19.2c-14.8-1.7-24.4-2.8-32.5-3.9c9.2-8.6,17.8-16.6,26.3-24.6c-1.4-2.2-2.7-4.5-4.1-6.7
		c-16.9-1.9-33.9-4-50.8-5.9c-0.4-1.8-0.8-3.7-1.2-5.5c16.6-12.3,33.1-24.6,50.1-37.2c-14.9-8.8-26.5-15.7-37.5-22.3
		c7.9-8.8,14.1-15.9,22.6-25.4c-16.5-3.6-28.2-7-40.1-8.4c-10.5-1.3-21.3-0.4-32-0.4c0-2.6-0.1-5.3-0.1-7.9
		c31.8,13.7,49.6-11.2,73.2-24.4c-22.5-21.2-44.7,0.4-69-2.6c11.3-6.9,20.2-12.3,24.2-14.7c2.2-17.1,3.8-29.4,5.7-43.4
		c-10,3.3-17.2,5.6-27.1,8.8c1.4-17.8,2.7-32.8,3.4-42.3c-9.3-11.4-17.3-21.2-25.1-30.8c-3.3,5.5-6.7,11.1-10,16.6
		c-4.1-3.8-8.2-7.4-12.3-11.2c3,6.4,6,12.7,9.4,20.1c-9.4-1.9-16.9-3.6-24.2-5.1c-1,12-1.9,23.1-3,35.5c-6.2-0.8-10.9-1.4-16.8-2.2
		c-1.5,17.2-14.8,36.1,13.7,49.5c-13.8,14.5-26.1,27.5-40.9,43.1c12.2,2.4,22.9,4.7,33.7,6.5c4.3,0.7,8.9,0.1,13.1,1.1
		c0.8,0.2,1.2,7.4,0.7,7.5c-4.3,1.3-8.9,1.8-13.5,2.4c-19.2,2.6-38.4,5.2-57.6,7.7c-0.4,3.1-0.7,6.3-1.1,9.4c20,8.2,40,16.5,60,24.7
		c-9.9,2.8-21,2.3-31.9,3c-11.5,0.8-23,2.8-38.8,4.9c24.5,22.8,45.6,39.2,77.4,32.2c-0.4,2.1-0.7,4.3-1.1,6.4
		c-28.4,6.1-56.9,12.1-84.1,17.9c11.8,38.4,41.2,34.8,67.9,39.3c-25.3,13.1-58.5-1.8-81.3,25.9c17.3,12.4,33.7,24.1,51.5,36.9
		c-14.4,0.9-28.8,1.8-45.2,2.9c5.1,10.5,8.6,17.6,13.1,26.6c-12.9-1.5-24.1-2.7-39.8-4.6c4.9,10.5,6.7,20.8,12.8,25.7
		c6.9,5.5,17.6,6,26.6,8.6c0.1,1,0.3,1.9,0.4,2.9c-19.5,2.1-39,4.4-65.5,7.3c18,13.8,31.8,24.5,46.2,35.6
		c-18.2,3.6-37.7,7.4-58.8,11.6c22.4,46.5,62.3,43.5,104.3,34.9c0,2.3,0,4.8-0.1,7.1c-34.4,8.7-68.8,17.4-103.1,26.1
		c0.3,2.4,0.5,4.8,0.8,7.2c14.7,6.8,28.9,15.2,44.2,19.9c15,4.7,31.1,5.6,45.4,7.9c-23.8,29.6-58.6,10.9-90.4,19.1
		c13.3,20.3,25.2,38.6,37.4,57.1c-7.5,2.4-18.7,5.9-29.8,9.4c0,0.2-0.1,0.5-0.1,0.7c-18.1-2.2-33.2-4.1-51.5-6.3
		c15.1-10.9,26.1-18.7,37-26.6c-0.7-1.6-1.3-3.4-2-5c-18.2-1.1-36.5-2.1-57.7-3.5c19.6-17.5,47.7-8.8,59.6-35.9
		c-19-2.8-34.7-5.2-55.9-8.3c16.4-10.8,28.4-18.7,45-29.7c-20.5-6.9-34.9-11.8-49.6-16.8c11.9-6.6,22.2-12.4,37.8-21.1
		c-12.2-3.8-17.8-5.5-22.7-7c4.3-6.5,8.5-12.8,14.2-21.4c-15.3-1.6-26.2-2.7-44.1-4.7c16.5-12.6,28-21.3,43.6-33.1
		c-27.3-4.2-32.6-14.9-16.5-32.5c-11.3-2.8-20.4-5.1-31.7-7.9c12.3-8.3,22.1-15,31.9-21.6c-0.5-2.3-1-4.7-1.5-7
		c-16.1,0.9-32.2,1.9-42.5,2.5c5.6-10.8,12-23,20.3-38.7c-11.1,0-16.5,0-17,0c-10-21-18.5-38.9-29-61c-12.2,18.8-21,32.3-34.1,52.5
		c-0.9,2-9.4,11.7-7.5,18c6.6,21.3,0.3,36.1-22.8,49.5c17,2.9,27.4,4.7,37.9,6.5c0,0.9,0,1.8,0,2.7c-16.7,3.1-33.4,6.3-50.2,9.4
		c-0.4,2.3-0.9,4.8-1.3,7.1c13.7,6,27.5,12.1,44.3,19.4c-18.1,1.1-33.2,1.9-48.4,2.8c-0.6,2.9-1.2,5.8-1.8,8.7
		c16.6,7.4,33.1,14.8,47.9,21.4c-16.7,3.9-37,8.6-62.3,14.5c11.2,10.4,16.8,18.3,24.3,21.9c7.9,3.9,17.6,3.7,31.3,6
		c-23.4,5-41.4,8.8-65.2,13.9c17.7,14.4,28.1,22.9,39.1,31.8c-9.2,0.4-17.3,0.8-27.1,1.2c1.2,7.1,2.2,13,3.3,19.7
		c-8-0.6-15.1-1.1-30.3-2.1c10.7,12.8,17.1,20.4,22.9,27.3c-10,1.7-21.4,3.7-37.5,6.3c13,10.5,21.8,17.5,31.2,25.1
		c-13,3-25.6,6-41.2,9.7c18.2,33,46.9,29.5,75,31.2c-24.1,5.7-48.3,11.3-72.4,17c-0.3,2.4-0.6,4.9-1,7.3
		c20.9,7.2,41.8,14.4,68.2,23.7c-15.3,4.1-25.3,7.2-35.4,9.2c-8.9,1.8-18,2.4-27,3.6c4.8,9.9,9.1,20,14.7,29.4
		c1.5,2.4,7.2,2.3,11,3.4c-1.9,2.1-3.8,4.2-5.7,6.3c-6.5,2.4-12.9,4.9-25.6,9.7c47,18.3,88.7,17.9,132.2,11.1
		c0.3,2.2,0.5,4.5,0.8,6.8l-279.4,152.2l-219-42.9c-15.1-2.9-30.7-1.3-45.1,4.8l-181.3,76.9l-204.2-7.5
		c-18.8-0.7-37.5,4.1-54.4,13.8l-926,511.9h682h1902V717.5L3430.3,812.9z M3253.2,707c5-7.8,12.3-12,19.9-15.3
		c12.2,5.5,24.2,10.8,35.2,15.7c-5.4,1.2-11.3,2.6-17.5,4.1C3278.4,709.9,3265.9,708.4,3253.2,707z M3310.4,674.3
		c-3.4,0.2-6.7,0.4-9.9,0.6c0.8-1.2,1.5-2.5,2.1-4.1C3305.2,671.9,3307.8,673,3310.4,674.3z M3271.6,637.5
		c5.9-2.5,13.4-3.7,19.5-6.5c10.7,1.8,18.6,3.1,26.5,4.6c0,0.9,0,1.8,0,2.7c-16.7,3.1-33.4,6.3-50.2,9.4c-0.4,2.3-0.9,4.8-1.3,7.1
		c5,2.2,10,4.4,15.1,6.6c-18-0.9-36-1.9-53.9-2.8c-0.1-2.2-0.2-4.6-0.3-6.8C3242,647.1,3257.4,643.7,3271.6,637.5z M2864.2,1012.6
		c-3.2,1-6.4,2.2-9.5,3.5c-0.4-3-0.7-6-1.1-9C2857.3,1009.1,2860.8,1010.9,2864.2,1012.6z M3088.2,940.7l-71,78.6l-62.9-9
		c9.3-7.1,18.9-15.9,30.6-24.8c-9.9-5.5-18.6-10.4-28.5-15.9c8.5-5.5,16.5-10.7,28-18.2c-12.2-4.5-21.7-8-27-10
		c0.9-8.5,1.8-17.1,3.1-29.3c2.7-2.9,8.6-9.3,17.5-19.1c12.9,3.9,25.8,8.2,39,9.9c16,1.9,34.5-5.7,48.2,0
		c26,10.9,47.9,9.2,71.4-10.8c0,7.6,0,13.8,0,19.8C3118.6,915.9,3101.8,925.5,3088.2,940.7z M3174.6,912.9
		c-1.7-12.6-3.3-24.2-5-36.6c10.1,4.3,20,7.8,29.8,10.6c18.3,28.3,45.6,25.2,72.4,26.8c-18.8,4.4-37.6,8.8-56.4,13.2l-34.6-12.1
		C3178.7,914.2,3176.7,913.6,3174.6,912.9z"/>
	<linearGradient id="SVGID_2_" gradientUnits="userSpaceOnUse" x1="3157.6021" y1="196.9846" x2="3157.6021" y2="206.1297">
		<stop  offset="0" style="stop-color:#3B0263"/>
		<stop  offset="0.196" style="stop-color:#39025F"/>
		<stop  offset="0.399" style="stop-color:#310252"/>
		<stop  offset="0.6053" style="stop-color:#25013E"/>
		<stop  offset="0.8125" style="stop-color:#140121"/>
		<stop  offset="1" style="stop-color:#000000"/>
	</linearGradient>
	<path class="st1" d="M3153,197c2.5,3,4.9,6.1,7.4,9.1c0.6-1,1.2-2,1.8-3C3159.1,201,3156.1,199,3153,197z"/>
</g>
<g>
	<path class="st2" d="M1676.3,1051.8c0.1,0,0.3,0,0.4,0C1667.5,1051.8,1662,1051.8,1676.3,1051.8z"/>
	<path class="st2" d="M1698.8,1051.8c0.1,0,0.1,0,0.2,0C1699.1,1051.8,1699,1051.8,1698.8,1051.8z"/>
	<path class="st2" d="M1676.7,1051.8c8.7,0,20.5,0,22.1,0C1691.5,1051.8,1684.1,1051.8,1676.7,1051.8z"/>
</g>
<linearGradient id="SVGID_3_" gradientUnits="userSpaceOnUse" x1="-6755.2246" y1="-2077.4797" x2="-6755.2246" y2="-843.1221" gradientTransform="matrix(-1 0 0 -1 -5901.8247 -2920.6018)">
	<stop  offset="0" style="stop-color:#A104FF"/>
	<stop  offset="0.1884" style="stop-color:#8103CD"/>
	<stop  offset="0.7535" style="stop-color:#25013B"/>
	<stop  offset="1" style="stop-color:#000000"/>
</linearGradient>
<polygon class="st3" points="639.4,-2077.5 1067.4,-2077.5 1067.4,-843.1 639.4,-843.1 "/>
</svg>
