<?xml version="1.0" encoding="utf-8"?>
<!-- Generator: Adobe Illustrator 23.0.2, SVG Export Plug-In . SVG Version: 6.00 Build 0)  -->
<svg version="1.1" id="Layer_1" xmlns="http://www.w3.org/2000/svg" xmlns:xlink="http://www.w3.org/1999/xlink" x="0px" y="0px"
	 viewBox="0 0 3504.2 1740.5" style="enable-background:new 0 0 3504.2 1740.5;" xml:space="preserve">
<style type="text/css">
	.st0{fill:url(#SVGID_1_);}
	.st1{fill:#3C0082;}
	.st2{fill:url(#SVGID_2_);}
</style>
<linearGradient id="SVGID_1_" gradientUnits="userSpaceOnUse" x1="1338.1975" y1="846.7872" x2="1338.1975" y2="1740.4397">
	<stop  offset="0" style="stop-color:#270244"/>
	<stop  offset="0.7895" style="stop-color:#09000F"/>
	<stop  offset="1" style="stop-color:#000000"/>
</linearGradient>
<path class="st0" d="M1.1,951C4.8,951-2.7,951,1.1,951v260.6v528.9h1720h955.3l-177.4-195.1c-30.5-103.5-121.9-177.4-229.5-185.4
	l0,0c-114.2,0-226.9-26.5-329.2-77.5l-43.5-21.7l-140.8-74.6c-1-5.6-2.1-11.1-2.7-16.6c-1.2-8.6-1.2-17.4,1.8-25.9
	c-5.7,4.5-9.8,10.1-13.2,16.6c-0.8-3.8-1.2-6.8-2-10c-0.7-3.1-1.5-6-2.4-9.1c-0.3,0.1-0.7,0.1-1,0.2c-0.7,8.6,2.7,17.5-1.9,26.3
	c-0.4-2.1-0.8-3.7-1.2-5.8c-2.2,3.9-4.1,7.2-6.1,10.8c-1-3.2-1.6-5.6-2.4-7.9c-0.2,0-0.5,0.1-0.8,0.1c-0.9,2.9-0.7,6.4-3.7,8.7l0,0
	c-1.1-10,1.2-19.2,5.3-28c-7.8,7.6-12.5,16.8-15.7,26.8c-1.9-9.1-3.6-17.9-7.7-26.2c2.6,9.3,3.5,18.3-0.1,27.5
	c-1.5,0.2-3,0.4-4.5,0.6c-0.9-3.4-1.8-6.6-2.5-9.8c-0.2,0-0.4,0-0.7,0.1c-1.1,3.7-2.2,7.4-3.2,11.1c-0.7,0.2-1.4,0.4-2.1,0.6
	c-3.7-12-4.3-23.8,0.7-35.8c-5.8,7.4-8.8,15.8-11,25.3c-2.7-10.8-5.7-20.8-10.1-30.5c2,17.4,2,34.5-2,51.4c-0.3,0.2-0.5,0.3-0.9,0.5
	l-69.4,48l-99.4,13.6c0,0-16.5,8.1-38.3,18.9c-0.9-7.8-0.7-15.6,2.1-23.3c-5.7,4.5-9.8,10.1-13.2,16.6c-0.8-3.8-1.2-6.8-2-10
	c-0.7-3.1-1.5-6-2.4-9.1c-0.3,0.1-0.7,0.1-1,0.2c-0.7,8.6,2.7,17.5-1.9,26.3c-0.4-2.1-0.8-3.7-1.2-5.8c-2.2,3.9-4.1,7.2-6.1,10.8
	c-1-3.2-1.6-5.6-2.4-7.9c-0.2,0-0.5,0.1-0.8,0.1c-0.9,2.9-0.7,6.4-3.7,8.8c-1.1-10,1.2-19.2,5.3-28.1c-7.8,7.6-12.5,16.8-15.7,26.8
	c-1.9-9.1-3.6-17.9-7.7-26.2c3.2,11.3,3.8,22.3-3.2,33.6c-1.4-5.6-2.7-10.3-4-15.2c-0.2,0-0.4,0-0.7,0.1c-1.3,4.5-2.6,9.1-4,13.6
	l-0.9-0.4c-4.2-12.5-5-24.8,0.1-37.3c-5.8,7.4-8.8,15.8-11,25.3c-2.7-10.8-5.7-20.8-10.1-30.5c1.3,11.9,1.8,23.7,0.7,35.4h0
	c-89.1-23.4-170.8-68.9-237.6-132.3L989.8,999.4c-3.4-3.3-7-6.1-10.9-8.6c-1.2-6.5-2.4-13.1-3.3-19.6c-1.2-8.6-1.2-17.4,1.8-25.9
	c-5.7,4.5-9.8,10.1-13.2,16.6c-0.8-3.8-1.2-6.8-2-10c-0.7-3.1-1.5-6-2.4-9.1c-0.3,0.1-0.7,0.1-1,0.2c-0.7,8.6,2.7,17.5-1.9,26.3
	c-0.4-2.1-0.8-3.7-1.2-5.8c-2.2,3.9-4.1,7.2-6.1,10.8c-1-3.2-1.6-5.6-2.4-7.9c-0.2,0-0.5,0.1-0.8,0.1c-0.9,2.9-0.7,6.4-3.7,8.8
	c-1.1-10,1.2-19.2,5.3-28.1c-7.8,7.6-12.5,16.8-15.7,26.8c-1.9-9.1-3.6-17.9-7.7-26.2c2.7,9.7,3.6,19.2-0.7,28.7
	c-1.2,0.1-2.4,0.2-3.7,0.4c-1-3.8-1.9-7.3-2.9-10.7c-0.2,0-0.4,0-0.7,0.1c-1.2,4-2.3,7.9-3.5,11.9c-0.5,0.1-1.1,0.2-1.6,0.4
	c-4-12.2-4.5-24.2,0.4-36.3c-5.8,7.4-8.8,15.8-11,25.3c-2.7-10.8-5.7-20.8-10.1-30.5c2,16.8,2,33.5-1.6,49.9l-59.3,26.7
	c0.4-17.7,4.2-34.8,9.9-51.9c-0.5-0.1-1-0.3-1.5-0.4c-5.6,11.8-11.1,23.6-16.9,35.8c-1.1-11.4-3.2-22.2-9.1-32
	c1.8,8.2,2.4,16.3,1.1,24.6c-1.3,8.1-5,19.4-8.3,23.8c-1-6.7-1.9-13.1-2.9-19.4c-0.2,0-0.4-0.1-0.7-0.1c-2.4,5.8-4.8,11.6-7.2,17.4
	c-7.1-14-4.5-27.6,1.4-41c-6.4,9.9-10.3,20.7-14,31.7c-2.3-12.9-6.1-25.2-14.9-35.6c4,11.7,4.6,23.3,1.9,35
	c-0.4,0.1-0.9,0.1-1.3,0.2c-0.8-3.8-1.5-7.5-2.2-11.3c-0.2-0.1-0.4-0.1-0.7-0.2c-1.3,2.9-2.6,5.9-4.3,9.6c-2-4.9-3.7-9.4-5.8-14.5
	c-1,2.7-1.6,4.5-2.5,7.2c-4-11.8,1.7-22.2,2.3-33.1c-0.8-0.2-0.6-0.1-1.3-0.3c-2.9,7.4-5.7,14.8-8.7,22.6c-2.9-8.5-7-15.9-13.3-22.3
	c2.3,11.1,1.2,21.9-1.5,32.5c0,0.1,0,0.1,0,0.2l-4.6-1.7c0.7-16.9,4.3-33.6,9.9-50c-0.5-0.1-1-0.3-1.5-0.4
	c-5.6,11.8-11.1,23.6-16.9,35.8c-1.1-11.4-3.2-22.2-9.1-32c1.8,8.2,2.4,16.3,1.1,24.6c-0.7,4.4-2.1,9.8-3.8,14.4l-6.1-2.3
	c-0.3-2.6-0.8-5.2-1.1-7.8c-0.2,0-0.4-0.1-0.7-0.1c-0.9,2.1-1.8,4.2-2.6,6.2l-8.8-3.3c-0.8-8.9,1.6-17.8,5.5-26.6
	c-4.9,7.7-8.5,16-11.5,24.3l-4.5-1.7c-2.4-9.6-6.3-18.6-13-26.6c2.6,7.7,3.7,15.4,3.5,23.2c-6.6-2.4-13.2-4.8-19.9-7.2
	c0.3-7.9,3.2-15.4,3.7-22.9c-0.8-0.2-0.6-0.1-1.3-0.3c-2.5,6.7-5.1,13.4-7.9,20.5c3.8-15.9,10.4-31,18.7-45.8
	c-0.4-0.2-0.9-0.5-1.4-0.7c-7.7,10.6-15.4,21.3-23.4,32.3c1.1-11.4,1.1-22.3-3-33c0.1,8.3-0.8,16.5-3.6,24.3c-0.3,0.9-0.8,2-1.2,3.1
	c-0.1-0.1-0.2-0.2-0.3-0.3c0,0.2,0.1,0.5,0.1,0.7c-2,4.5-4.6,9.5-7.1,13.3c-1.3-0.4-2.5-0.8-3.8-1.3c0.2-4.5,0.4-8.8,0.7-13.3
	c-0.2-0.1-0.4-0.2-0.7-0.2c-2.4,3.7-4.8,7.5-7.2,11.2c-1.4-0.4-2.9-0.9-4.4-1.4c-1.6-12.5,3.2-23.5,10.3-34
	c-8.1,8.6-14,18.5-19.8,28.7c0.2-13.2-1.3-25.8-7.9-37.6c1.6,12.1,0.2,23.7-4.7,34.7c-0.4,0-0.9,0-1.4-0.1c0-3.8-0.1-7.6-0.1-11.6
	c-0.3-0.1-0.3-0.1-0.7-0.2c-1.9,2.6-3.6,5.3-6,8.7c-1-5.3-1.9-9.8-3-15.3c-1.5,2.5-2.5,4.2-3.8,6.5c-1.6-12.2,5.8-21.6,8.6-32.2
	c-0.8-0.3-0.6-0.2-1.3-0.6c-4.2,6.7-8.3,13.6-12.8,20.8c-1.2-8.8-4-16.8-8.9-24.2c0.1,11.3-3,21.8-7.6,31.8
	c-1.1,2.4-2.3,4.7-3.4,7.2c-4.5-1.1-9-2.1-13.5-3.2c-2-18.3-1.9-36.4,3-54.3c-8.8,8.3-13.4,19-18.7,30.1c-2-6.4-3.7-12-5.5-17.6
	c-0.5,0-1.1,0.1-1.6,0.1c0,7.4-1.1,14.4-6.3,20.7c-2.7-14-2.2-26.8,5.4-39c-9.8,7.9-13.7,18.6-17.2,30.4c-2.7-9.6-4.6-18.6-9.5-26.6
	c1.1,10.3,0.3,20.1-4.8,30.2c-4.2-17.1-2.3-32.6,4-48.1c-9.8,5.8-15.9,14-20.7,24.3c-2.1-8.7-3.4-16.5-7.9-23.4
	c0.1,6.2,0.9,12.2,0.9,18.3c0,6.3-1.2,12.4-7.6,17.8v-24.8c-6.3,7.2-9,15.1-12.5,23.5c-1.4-6.7-2.7-12.7-4-18.6
	c-0.7-0.1-0.7-0.1-1.4-0.1c-3.1,8.3-5.1,17.3-13,23.8c-1.2-10.8,0.4-20.7,4.1-30.6c-12,8.8-21,19.9-30,32.2c-1-11.1-1.5-21-5.5-30.7
	c-3.6,12.8-8.9,24.6-18.8,34.2c-0.3-0.4-0.7-0.6-0.7-0.8c-0.1-0.3-0.3-0.7-0.3-1.1c-2.1-14-0.5-27.4,6.8-39.9
	c0.5-1.1,0.8-2.2,1.1-3.4c-0.4-0.2-0.9-0.4-1.4-0.6c-3.8,5.5-7.9,10.8-11.3,16.5c-3.6,5.9-6.4,12.2-9.7,18.2
	c-0.5-0.1-0.4-0.1-0.9-0.2c0.7-13.5,1.3-26.9,2.1-40.4c-0.4-0.1-0.8-0.2-1.2-0.3c-4.4,14-8.8,27.9-13.3,42.1
	c-5.5-19.8-11.1-32.3-15.4-34.2c1.5,6,3.6,11.9,4.4,18c0.8,6,0.5,12.3-0.1,18.4c-0.3,2.8-0.8,5.6-1.4,8.3c-2.1-0.1-4.2-0.1-6.3-0.2
	c-1.1-3.7-2.1-7.3-3.2-10.9c-0.3,0-0.7,0.1-0.9,0.1c-0.9,3.5-1.9,7.1-2.7,10.5c-2.5-0.1-5-0.1-7.7-0.2c-4.4-11.8-3.2-23.9,0.2-36.3
	c-5.4,11.6-8.2,23.7-10.5,36.1c-0.2,0-0.2,0-0.4,0c-4.6-13.8-10.9-26.6-22-37c5.7,11.8,8.6,23.9,7.7,36.7c-1.3,0.2-1.1,0.1-2.4,0.3
	c-1.1-3.3-2.2-6.6-3.3-9.9c-0.2-0.1-0.5-0.2-0.8-0.2c-0.9,3.1-1.8,6.2-2.9,10.1c-0.5,0.1-0.5,0.1-1,0.1c-2.7-4.8-5.2-9.1-8-14.2
	c-0.7,3.2-1.1,5.3-1.8,8.1c-6.4-12.5-1.5-25-2.5-37.2c-0.5-0.1-1.1-0.1-1.6-0.2c-2,8.6-4,17.2-6.1,26.3
	c-4.8-8.9-10.3-16.9-18.6-22.9c2.6,7.6,4.4,15.2,1.5,22.7c-2.5,6.4-5.5,12.6-8.5,18.8c-0.9,0-1.8,0.1-2.5,0.1
	c-1.6-4.9-3.2-10-4.8-14.9c-0.4,0.1-0.8,0.2-1.2,0.3c-0.4,3.5-0.5,7.1-1.5,10.4c-0.4,1.7-1.1,3.3-1.9,4.8c-1.3,0.1-2.7,0.2-4.1,0.2
	c-0.3-3.1-0.7-6.1-0.5-9.2c0.1-4.3,0.7-8.7,1.9-12.8c1.2-4,3.4-7.8,5-11.7c-0.4-0.2-0.9-0.3-1.3-0.5c-8.5,8.3-14.5,9.9-17.9,21.9
	c-2.7-9.8-3-9.8-7.8-17.7c0.9,10.3,0.4,20.1-4.9,30.2c-4-16.9-2.4-32.5,4.1-47.9c-10,5.6-15.9,14.1-21,24.1c-2-8.5-3.3-16.4-8-23.3
	c0.9,12.2,4.3,24.6-5.2,35c-0.4,0-1-0.1-1.4-0.1c0-7.6,0-15.2,0-22.7c-0.3-0.1-0.7-0.2-1.1-0.3c-2.1,3.5-4.3,6.9-6.1,10.6
	c-1.9,3.6-3.3,7.4-5.3,11.8c-1.4-6.6-2.7-12.4-4.1-18.3c-0.4,0-0.9,0-1.3,0.1c-3.2,8.2-5,17.2-13,23.8c-1.1-10.9,0.3-20.8,4.1-30.6
	c-12.2,8.8-21.2,20-30.3,32.4c-0.7-11.2-1.4-21.2-5.3-30.9c-3.7,12.8-8.9,24.7-19.4,34.1c-0.8-5.2-1.5-10.4-1.2-15.6
	c0.3-5.2,1.3-10.4,2.9-15.5c1.4-4.8,3.8-9.4,5.8-14c-0.4-0.2-0.9-0.3-1.2-0.5c-9.9,12.1-17.9,25.3-22.7,40.9
	c-1.3-5.3-2.5-9.5-3.6-13.8c-6.7,12.3-7.5,25.6-9.1,38.5c-1.4,2.4-29.6,4.7-31,7.1c-0.5,0.1,0.5,0.2,0,0.4"/>
<g>
	<path class="st1" d="M1676.3,1051.8c0.1,0,0.3,0,0.4,0C1667.5,1051.8,1662,1051.8,1676.3,1051.8z"/>
	<path class="st1" d="M1698.8,1051.8c0.1,0,0.1,0,0.2,0C1699.1,1051.8,1699,1051.8,1698.8,1051.8z"/>
	<path class="st1" d="M1676.7,1051.8c8.7,0,20.5,0,22.1,0C1691.5,1051.8,1684.1,1051.8,1676.7,1051.8z"/>
</g>
<linearGradient id="SVGID_2_" gradientUnits="userSpaceOnUse" x1="-6755.2246" y1="-2077.4797" x2="-6755.2246" y2="-843.1221" gradientTransform="matrix(-1 0 0 -1 -5901.8247 -2920.6018)">
	<stop  offset="0" style="stop-color:#A104FF"/>
	<stop  offset="0.1884" style="stop-color:#8103CD"/>
	<stop  offset="0.7535" style="stop-color:#25013B"/>
	<stop  offset="1" style="stop-color:#000000"/>
</linearGradient>
<polygon class="st2" points="639.4,-2077.5 1067.4,-2077.5 1067.4,-843.1 639.4,-843.1 "/>
</svg>
