<?xml version="1.0" encoding="utf-8"?>
<!-- Generator: Adobe Illustrator 23.0.2, SVG Export Plug-In . SVG Version: 6.00 Build 0)  -->
<svg version="1.1" id="Layer_1" xmlns="http://www.w3.org/2000/svg" xmlns:xlink="http://www.w3.org/1999/xlink" x="0px" y="0px"
	 viewBox="0 0 356 356" style="enable-background:new 0 0 356 356;" xml:space="preserve">
<style type="text/css">
	.st0{fill:#FFFFFF;}
	.st1{font-family:'Helvetica-Light';}
	.st2{font-size:64px;}
</style>
<g>
	<g>
		<rect width="356" height="356"/>
	</g>
	<g>
		<text transform="matrix(1 0 0 1 32.4719 288.7029)" class="st0 st1 st2">MongoDB</text>
		<g>
			<path class="st0" d="M178.8,199.6c1.6,4.3,2.7,12.5,2.6,19.2c0,0.3,0.4,0.6,0.7,0.9c1.4,0.5,2.8,1,4.2,1.5
				c-1.2-7.1-0.4-19.6,2.4-23.1c46.6-36.2,40.3-97.7,4.8-135.6c-6.8-6.1-8.6-10.3-12.1-17.9c-1,8.4-5.8,8.8-13.6,17.7
				C126.5,114.6,139.7,170,178.8,199.6z"/>
		</g>
	</g>
</g>
</svg>
