<?xml version="1.0" encoding="utf-8"?>
<!-- Generator: Adobe Illustrator 23.0.2, SVG Export Plug-In . SVG Version: 6.00 Build 0)  -->
<svg version="1.1" id="Layer_1" xmlns="http://www.w3.org/2000/svg" xmlns:xlink="http://www.w3.org/1999/xlink" x="0px" y="0px"
	 viewBox="0 0 356 356" style="enable-background:new 0 0 356 356;" xml:space="preserve">
<style type="text/css">
	.st0{fill:#470274;}
	.st1{fill:#FFFFFF;}
</style>
<g>
	<g>
		<rect x="0.2" y="0.8" class="st0" width="356" height="356"/>
	</g>
</g>
<g>
	<path class="st1" d="M168.8,298.7l-30-17.7c-4.5-2.5-2.3-3.4-0.8-3.9c6-2.1,7.2-2.5,13.5-6.2c0.7-0.4,1.5-0.2,2.2,0.2l23,13.7
		c0.8,0.5,2,0.5,2.8,0l89.7-51.7c0.8-0.5,1.4-1.4,1.4-2.4V127.1c0-1-0.5-2-1.4-2.5l-89.6-51.7c-0.8-0.5-1.9-0.5-2.8,0l-89.6,51.7
		c-0.9,0.5-1.4,1.5-1.4,2.5v103.5c0,1,0.5,1.9,1.4,2.4l24.6,14.2c13.3,6.7,21.5-1.2,21.5-9.1V135.9c0-1.4,1.2-2.6,2.6-2.6h11.4
		c1.4,0,2.6,1.1,2.6,2.6v102.2c0,17.8-9.7,28-26.5,28c-5.2,0-9.3,0-20.7-5.6L79.2,247c-5.8-3.4-9.4-9.6-9.4-16.4V127.1
		c0-6.7,3.6-13,9.4-16.3L168.9,59c5.7-3.2,13.2-3.2,18.8,0l89.7,51.8c5.8,3.4,9.4,9.6,9.4,16.3v103.5c0,6.7-3.6,13-9.4,16.4
		l-89.7,51.8C181.3,302.2,175,301.8,168.8,298.7z M244.4,164.8h-11.6c-1.2,0-2.3-0.9-2.5-2c-2.8-12.4-9.6-16.4-28-16.4
		c-20.6,0-23,7.2-23,12.6c0,6.5,2.8,8.4,30.7,12.1c27.6,3.6,40.7,8.8,40.7,28.2c0,19.5-16.3,30.7-44.7,30.7
		c-39.2,0-47.5-18-47.5-33.1c0-1.4,1.1-2.6,2.6-2.6h11.6c1.3,0,2.4,0.9,2.6,2.2c1.7,11.8,7,17.8,30.7,17.8
		c18.9,0,26.9-4.3,26.9-14.3c0-5.8-2.3-10.1-31.6-12.9c-24.5-2.4-39.7-7.8-39.7-27.5c0-18.1,15.3-28.9,40.8-28.9
		c28.7,0,42.9,10,44.7,31.4C247.1,163.2,246,164.8,244.4,164.8z"/>
</g>
</svg>
