<?xml version="1.0" encoding="utf-8"?>
<!-- Generator: Adobe Illustrator 23.0.2, SVG Export Plug-In . SVG Version: 6.00 Build 0)  -->
<svg version="1.1" id="Layer_1" xmlns="http://www.w3.org/2000/svg" xmlns:xlink="http://www.w3.org/1999/xlink" x="0px" y="0px"
	 viewBox="0 0 356 356" style="enable-background:new 0 0 356 356;" xml:space="preserve">
<style type="text/css">
	.st0{fill:#470274;}
	.st1{fill:#FFFFFF;}
</style>
<g>
	<g>
		<rect class="st0" width="356" height="356"/>
	</g>
	<g>
		<path class="st1" d="M75,76.7v202.6h206V76.7H75z M264.6,263.2H91.4V92.8h173.2V263.2z M148.5,126.5c-10.7,0-23.7,0.3-23.7,0.3
			V210h17.4v-26.7c0,0,3,0,6.3-0.2C189.9,183.1,192.6,124.4,148.5,126.5z M148.1,168.5c-2.8,0-4,0.1-5.9-0.1v-28.7
			c0,0,3.7-0.1,7.3,0C168.8,140.7,167.6,169,148.1,168.5z M214.5,171.1c-7.5-2.6-9.9-4.2-9.9-7.1c0-3.2,2.6-5.1,7.3-5.1
			c5.3,0,13.2,3.4,16,4.9v-14c-3.8-1.9-9.5-4.2-16.6-4.2c-15.2,0-24.9,8.7-24.9,20.4c-0.1,7.2,4.8,12.4,17.4,16.7
			c7.1,2.4,9,5.7,9,8.9s-2.4,5.2-8.1,5.2c-5.6,0-13.9-3.2-17.4-5.4v13.8c4.6,2.5,11.4,4.9,17.4,5.1c17.7,0.6,26.6-8.6,26.6-20.2
			C231.1,181.1,226.2,175.2,214.5,171.1z"/>
	</g>
</g>
</svg>
