<?xml version="1.0" encoding="utf-8"?>
<!-- Generator: Adobe Illustrator 23.0.2, SVG Export Plug-In . SVG Version: 6.00 Build 0)  -->
<svg version="1.1" id="Layer_1" xmlns="http://www.w3.org/2000/svg" xmlns:xlink="http://www.w3.org/1999/xlink" x="0px" y="0px"
	 viewBox="0 0 3610.3 594.7" style="enable-background:new 0 0 3610.3 594.7;" xml:space="preserve">
<style type="text/css">
	.st0{fill:#470274;}
</style>
<g>
	
		<image style="overflow:visible;opacity:0.46;enable-background:new    ;" width="3777" height="636" xlink:href="50C2E1F877278258.png"  transform="matrix(1 0 0 1 -84.3949 -31.93)">
	</image>
	<g>
		<g>
			<path class="st0" d="M1853.9,251.6c-6.4-0.3-11.7,1.6-15.9,5.7c-4.2,4.1-7.1,10.2-8.6,18.2l44.7,2.3l0.1-2.6
				c0.2-7.2-1.4-12.8-4.9-16.9C1865.9,254.2,1860.7,252,1853.9,251.6z"/>
			<path class="st0" d="M1665.9,241.8c-7.9-0.4-14.1,2.3-18.7,8.2s-7.3,15.3-7.9,28.1c-0.6,11.4,1.1,20.3,5.1,26.6
				c4,6.3,10,9.6,18,10.1c7.8,0.4,14-2.3,18.7-8c4.7-5.8,7.4-15.2,8.1-28.4c0.6-11.2-1.1-20-5.2-26.4
				C1679.9,245.6,1673.9,242.2,1665.9,241.8z"/>
			<path class="st0" d="M1456,192.4l-30.6-1.6l-2.7,50.9l29.8,1.6c8.8,0.5,15.7-1.3,20.5-5.2c4.9-3.9,7.5-9.7,7.9-17.4
				c0.4-7.9-1.6-14.5-6-19.6C1470.6,195.8,1464.2,193,1456,192.4z"/>
			<path class="st0" d="M-17.2,19.8l-17.9,340.7l3656.2,191.6l17.9-340.7L-17.2,19.8z M1496.5,258.9c-11.4,8.6-26.6,12.4-45.9,11.4
				l-29.3-1.5l-3,57.1l-33.4-1.7l8.5-162.1l63.2,3.3c12.2,0.6,22.8,3.4,31.8,8.4c9,4.9,15.8,11.6,20.3,20.1s6.5,17.9,6,28.4
				C1513.9,238,1507.8,250.3,1496.5,258.9z M1602.3,244.9c-4.3-0.8-8.2-1.3-11.5-1.5c-12.2-0.6-20.4,3.1-24.6,11.1l-4.1,78.8
				l-32.2-1.7l6.3-120.4l30.4,1.6l0.1,14.4c7-10.7,16.3-15.8,27.7-15.2c3.6,0.2,6.9,0.8,9.9,2L1602.3,244.9z M1661,340.8
				c-17.4-0.9-30.9-7.2-40.7-18.9c-9.8-11.7-14.2-27.1-13.1-46.2l0.1-1.4c0.6-11.9,3.5-22.5,8.6-31.6s12.1-16,21-20.7
				s19.1-6.7,30.5-6.1c16.2,0.9,29.3,6.5,39,17c9.8,10.5,14.8,24.3,15.1,41.4l-0.2,8.2c-1,18.5-6.9,33-17.8,43.7
				C1692.5,336.8,1678.3,341.7,1661,340.8z M1776.6,258.1h-0.2l-4.9,92.8c-0.7,13.3-4.8,23.4-12.2,30.4c-7.4,7-17.8,10.2-31.1,9.5
				c-5.6-0.3-10.8-1.2-15.8-2.7l1.3-25.5c3.8,0.9,7.2,1.4,10.1,1.5c9.7,0.5,14.9-4.4,15.4-14.7l4.9-93.1l2.2-35.4l32,0.5l-0.4,11
				L1776.6,258.1z M1775.5,204.6c-3.5,2.9-7.9,4.3-13.3,4s-9.7-2.1-12.8-5.4c-3.1-3.3-4.6-7.4-4.3-12.3c0.3-4.8,2.1-8.7,5.5-11.7
				c3.4-2.9,7.9-4.3,13.4-4c5.6,0.3,9.9,2.1,12.9,5.4c3.1,3.3,4.5,7.3,4.2,12.2C1780.9,197.7,1779,201.6,1775.5,204.6z
				 M1904.7,301.4l-76.7-4c0.6,7.9,3.4,14.4,8.4,19.4s11.5,7.7,19.5,8.2c12.4,0.6,22.3-3.3,29.8-11.9l14.9,18.5
				c-5.2,6.6-12,11.6-20.4,14.9c-8.4,3.4-17.7,4.8-27.7,4.3c-17.7-0.9-31.8-7.1-42.3-18.5s-15.3-26.1-14.4-44.2l0.2-3.1
				c0.6-12.1,3.5-22.8,8.7-32.1c5.2-9.3,12.2-16.3,21-21s18.8-6.8,29.7-6.2c16.5,0.9,29.2,6.7,38.1,17.6
				c8.9,10.9,12.9,25.9,11.9,44.9L1904.7,301.4z M1954.8,322c3.5,5.6,9.1,8.6,16.8,9c5.9,0.3,10.8-1.1,14.7-4.1
				c3.9-3.1,6-7.3,6.5-12.7l30.2,1.6c-0.5,8.2-3.1,15.5-7.9,22.1c-4.7,6.6-11,11.5-18.8,14.9c-7.8,3.3-16.3,4.8-25.5,4.3
				c-17.2-0.9-30.5-7.1-39.9-18.6s-13.5-26.8-12.5-46.1l0.1-2.1c1-18.5,6.7-33.1,17.1-43.6s24.3-15.4,41.5-14.5
				c15.1,0.8,26.9,5.7,35.6,14.8c8.6,9,12.7,20.7,12.1,35l-30.2-1.6c0.2-6.3-1.5-11.5-5-15.6s-8.3-6.3-14.4-6.6
				c-7.5-0.4-13.3,2-17.4,7.3s-6.5,14-7.1,26.3l-0.2,3.3C1949.9,307.4,1951.3,316.4,1954.8,322z M2099.5,360.8
				c-6.4,1.6-13,2.2-19.6,1.9c-22.6-1.2-33.5-13.2-32.7-36l3.4-64.9l-17.6-0.9l1.2-23.6l17.6,0.9l1.6-29.6l32.2,1.7l-1.6,29.6
				l20.6,1.1l-1.2,23.6l-20.6-1.1l-3.1,60.1c-0.2,4.5,0.5,7.7,2.1,9.7s4.8,3.2,9.6,3.4c3.6,0.2,6.7,0.1,9.5-0.3L2099.5,360.8z
				 M2199,358.7c-9.8,6.3-22.1,9.1-37,8.3c-10.1-0.5-19-2.8-26.6-6.8s-13.5-9.3-17.6-15.8s-6-13.4-5.6-20.7l30.5,1.6
				c0,5.7,1.9,10.2,5.7,13.5c3.8,3.2,9,5,15.6,5.4c6.2,0.3,10.9-0.6,14.2-2.8c3.3-2.2,5-5.2,5.2-8.9c0.2-3.9-1.6-7.1-5.4-9.6
				c-3.8-2.5-9.9-4.8-18.4-7c-28.3-7.5-42-20.4-41-38.8c0.6-10.7,5.5-19.4,14.7-26.1c9.2-6.7,21-9.7,35.3-8.9
				c15.3,0.8,27.3,5,36.1,12.7s12.9,17.3,12.3,28.8l-32.2-1.7c0.2-4.6-1-8.5-3.9-11.6c-2.8-3.2-7.4-4.9-13.7-5.2
				c-5.4-0.3-9.7,0.7-12.8,3s-4.7,5.3-4.9,9.1c-0.2,3.6,1.3,6.5,4.6,8.9s8.9,4.6,16.8,6.6c7.9,2,14.6,4.2,20,6.5
				c16.7,7.1,24.6,18.4,23.8,33.7C2213.9,343.8,2208.8,352.4,2199,358.7z"/>
			<line class="st0" x1="1776.5" y1="258.1" x2="1776.6" y2="258.1"/>
		</g>
	</g>
</g>
</svg>
