<?xml version="1.0" encoding="utf-8"?>
<!-- Generator: Adobe Illustrator 23.0.2, SVG Export Plug-In . SVG Version: 6.00 Build 0)  -->
<svg version="1.1" id="Layer_1" xmlns="http://www.w3.org/2000/svg" xmlns:xlink="http://www.w3.org/1999/xlink" x="0px" y="0px"
	 viewBox="0 0 356 356" style="enable-background:new 0 0 356 356;" xml:space="preserve">
<style type="text/css">
	.st0{fill:#FFFFFF;}
</style>
<g>
	<g>
		<g>
			<rect width="356" height="356"/>
		</g>
	</g>
	<g>
		<path class="st0" d="M198.8,284c0,0-23.4-53.1-17.4-101.9c5.9-48.7,44.4-70.9,66.2-73.3s33.7,11.1,33.7,11.1l4.8-7.1
			c0,0-31.3-31.7-70.9-28.1s-67,29.7-84,61.4c-17,31.7-27,53.9-33.7,87.2c-6.7,33.3-4,50.7-4,50.7L198.8,284z M72.4,230.9l20.6,1.6
			l-3.6,20.6L70,250.7L72.4,230.9z M104.9,187.3l5.6-15.5l-18.2-7.1l-5.9,16.6L104.9,187.3z M130.7,134.2l10.7-12.7l-13.9-9.1
			l-11.1,12.3L130.7,134.2z M158.8,85.1l9.5,11.5l13.1-7.5l-9.5-10.7L158.8,85.1z M205.2,72l2.4,11.5l16.3-0.4l-1.6-10.3L205.2,72z
			 M259.9,91.4l11.1,5.9l2.4-3.6l-13.1-9.5L259.9,91.4z M257.9,114.8v5.9l10.7,1.2v-4.8L257.9,114.8z M223.8,119.9l5.2,9.5l7.5-5.9
			l-1.6-6.3L223.8,119.9z M207.5,132.2l7.9,11.9l-4.8,8.3l-11.5-12.7L207.5,132.2z M191.7,165.1l-5.2,10.3l13.5,11.5l3.2-13.1
			L191.7,165.1z M185.3,215.1l16.6,7.1l-0.8-13.1l-15.1-7.9L185.3,215.1z M194.9,264.6l21,1.2l-7.5-15.5h-17.4L194.9,264.6z"/>
	</g>
</g>
</svg>
