<?xml version="1.0" encoding="utf-8"?>
<!-- Generator: Adobe Illustrator 23.0.2, SVG Export Plug-In . SVG Version: 6.00 Build 0)  -->
<svg version="1.1" id="Layer_1" xmlns="http://www.w3.org/2000/svg" xmlns:xlink="http://www.w3.org/1999/xlink" x="0px" y="0px"
	 viewBox="0 0 356 356" style="enable-background:new 0 0 356 356;" xml:space="preserve">
<style type="text/css">
	.st0{fill:#FFFFFF;}
</style>
<g>
	<g>
		<rect width="356" height="356"/>
	</g>
</g>
<g>
	<path class="st0" d="M105.9,219.2c-17.6,66.2,17.4,94.6,72.3,42.3c51.9,50.8,90.7,28.3,72.3-41.5c76.5-21.8,61.9-67.9,0-83.1
		c18.5-74-24-90.5-72.6-42.3c-48.1-48.2-91.1-32.7-72.1,41.5C39,155.2,33.2,197.4,105.9,219.2z M191.8,228.5
		c-4.4,5.9-9,11.2-13.7,16.4c-4.6-5.1-9.3-10.5-13.7-16.4C174.2,228.8,183.4,228.8,191.8,228.5z M141.5,215.3
		c-7.6-1-14.7-2.2-21.5-3.7c2.2-6.6,4.6-13.4,7.6-20.3C131.5,199.2,136.2,207.2,141.5,215.3z M120,144.4c6.8-1.5,13.9-2.7,21.5-3.7
		c-5.2,8.1-9.9,16.2-13.9,24.2C124.4,157.8,122,151,120,144.4z M200.4,139c8.4,12.5,15.9,25.5,22.5,38.8
		c-6.1,12.6-13.7,25.5-22.5,38.8c-15.1,0.8-29.9,0.8-44.5,0c-8.5-12.5-16.1-25.4-22.5-38.8c6.2-12.8,13.7-25.8,22.5-38.8
		C170.1,138.1,184.9,138.1,200.4,139z M229,164.7c-4.4-8.5-9-16.6-13.9-24.2c7.6,1,14.7,2.2,21.5,3.7
		C234.4,151,231.9,157.9,229,164.7z M229,191.1c2.9,6.8,5.4,13.7,7.6,20.3c-6.8,1.5-13.9,2.7-21.5,3.7
		C220.1,207.1,224.8,199.2,229,191.1z M186,253.1c7.1-7.6,13.9-16.1,20.8-25.7c11.5-1,22.5-2.7,32.7-5.1
		C254.1,284.4,227.5,293.6,186,253.1z M247.3,208.7c-3.2-10-7.1-20.3-12-30.8c4.9-10.5,9-20.8,12-30.8c27.4,7.8,44.1,19.8,43.7,30.8
		C290.5,194.2,263.8,203.7,247.3,208.7z M239.7,133.4c-10.3-2.2-21.3-3.9-32.7-5.1c-6.6-9.5-13.7-18.1-20.8-25.7
		C225.3,64.8,255.2,67.9,239.7,133.4z M191.8,127.3c-8.7-0.4-17.9-0.3-27.4,0c4.4-5.9,9-11.2,13.7-16.4
		C182.8,116.1,187.4,121.7,191.8,127.3z M170.3,102.6c-7.1,7.6-13.9,16.1-20.8,25.7c-11.5,1-22.5,2.7-32.7,5.1
		C102.8,75.2,126.2,59.9,170.3,102.6z M109,208.7c-27.4-7.8-43.5-19.8-43.7-30.8C65,165.6,84.6,154,109,147.1
		c3.2,10,7.1,20.3,12,30.8C116.1,188.4,111.9,198.9,109,208.7z M116.8,222.4c10.3,2.2,21.3,3.9,32.7,5.1
		c6.6,9.5,13.7,18.1,20.8,25.7C127.2,293.9,102.4,283.4,116.8,222.4z M166.8,197.6c-15.1-8.7-15.1-30.6,0-39.3
		c15.1-8.7,34.1,2.2,34.1,19.7S181.9,206.3,166.8,197.6z"/>
</g>
</svg>
