<?xml version="1.0" encoding="utf-8"?>
<!-- Generator: Adobe Illustrator 23.0.2, SVG Export Plug-In . SVG Version: 6.00 Build 0)  -->
<svg version="1.1" id="Layer_1" xmlns="http://www.w3.org/2000/svg" xmlns:xlink="http://www.w3.org/1999/xlink" x="0px" y="0px"
	 viewBox="0 0 356 356" style="enable-background:new 0 0 356 356;" xml:space="preserve">
<style type="text/css">
	.st0{fill:#FFFFFF;}
</style>
<g>
	<g>
		<rect x="0" y="0" width="356" height="356"/>
	</g>
	<g>
		<path class="st0" d="M130.4,243.2l83.4-53.7l42.6,74.6L130.4,243.2z M86.6,248.8l4.2-0.1c4.3-0.1,8.7-0.3,13.1-0.4
			c2.1,0,4.2-0.1,6.2-0.2c2.6-0.1,5.3-0.2,7.9-0.2c2.7,0,5.1,0.1,7.2,0.4c14,1.6,28.3,3.6,42.1,5.6c5.4,0.8,10.7,1.5,16.1,2.2
			l38.8,5.3L86.6,248.8z M218.9,187.4c-0.7-1.2-0.3-1.8,0.3-2.7c0.1-0.1,0.2-0.3,0.3-0.4l49.9-75L262.1,258L218.9,187.4z M99.1,189
			c6.8,17.6,13.4,34.5,20.1,51.7L76.9,242L99.1,189z M142.6,163.8l65.4,21.2l-83.1,53.5L142.6,163.8z M102.4,180.7l33.7-17.5
			l-15.6,64.4L102.4,180.7z M87.6,171.5l7.3,7.5c1,1,1.1,1.7,0.6,3.1l-18.8,43.5l0,0.1L87.6,171.5z M190.6,121l70.5-11.8l-46.6,69.9
			L190.6,121z M144.2,157.7l40.2-36.7l23.6,57.4L144.2,157.7z M100.2,173.1c-0.6,0-1.3-0.2-1.7-0.5c-2.3-2.2-6.6-6.7-7.8-7.9
			l14.5-21.6c1.5-2.2,3.2-4.2,5.1-5.9c0.3-0.3,30.6-29.1,35.6-32.2c7.5-4.7,15.4-9,23.1-13.2c2.8-1.6,5.7-3.1,8.5-4.7
			c0.7-0.4,1.3-0.6,1.6-0.6c0.1,0,0.2,0,0.2,0l13.3,4.9l-11.5,22.8c-0.3,0.5-0.8,1-1.4,1.5l-0.4,0.4c-10.9,10.1-32.8,30.2-32.8,30.2
			c-0.1,0.1-6.3,6.8-10,8.8c-11.6,6.3-35.7,18-35.9,18.1C100.7,173.1,100.5,173.1,100.2,173.1L100.2,173.1z M189.1,114.4l10.8-21.6
			c0.4-0.9,0.8-0.9,1.1-0.9c0.3,0,0.8,0.1,1.2,0.2c0,0,40,10.5,49.8,13.1l-62.9,9.5L189.1,114.4z M213.9,88.3L260,78.1l8.9,25.5
			L213.9,88.3z M197.4,84.6c-2.4,0-4.6-0.8-7-1.8l38.9-5.2l-28.9,6.7C199.3,84.5,198.3,84.6,197.4,84.6
			C197.4,84.6,197.4,84.6,197.4,84.6z"/>
		<path d="M259.7,78.6l8.5,24.1l-52.2-14.4L259.7,78.6 M218.5,79.5l-18.4,4.2c-0.9,0.2-1.8,0.4-2.8,0.4c-1.7,0-3.4-0.4-5.1-1.1
			L218.5,79.5 M179.2,86.8l12.8,4.7l-11.3,22.3c-0.2,0.5-0.8,0.9-1.3,1.4c-0.1,0.1-0.3,0.2-0.4,0.4c-10.9,10.1-32.8,30.2-32.8,30.2
			l0,0l0,0c-0.1,0.1-6.2,6.7-9.8,8.7c-11.6,6.3-35.6,18-35.9,18.1c0,0-0.1,0-0.3,0c-0.6,0-1.1-0.2-1.3-0.4c-2.2-2-6-6.1-7.5-7.6
			l14.3-21.3c1.5-2.2,3.2-4.1,5-5.9c0.3-0.3,30.5-29,35.5-32.2c7.5-4.7,15.4-9,23-13.2c2.8-1.5,5.7-3.1,8.5-4.7
			C178.5,87,179,86.8,179.2,86.8C179.2,86.8,179.2,86.8,179.2,86.8C179.2,86.8,179.2,86.8,179.2,86.8 M201,92.4
			c0.3,0,0.7,0.1,1.1,0.2c0.4,0.1,34.9,9.2,47.5,12.5l-59.7,9.1L200.3,93C200.6,92.4,200.8,92.4,201,92.4 M260,109.9l-45.4,68.2
			l-23.3-56.7L260,109.9 M268.9,111.1l-7.2,145.2l-42.3-69.2c-0.5-0.9-0.3-1.3,0.3-2.1c0.1-0.1,0.2-0.3,0.3-0.4L268.9,111.1
			 M184.1,121.9l22.9,55.7l-61.9-20.1L184.1,121.9 M135.4,164.1l-14.9,61.8l-17.4-45L135.4,164.1 M142.9,164.4l63.9,20.7l-81.1,52.3
			L142.9,164.4 M87.9,172.5l6.6,6.8c0.8,0.8,0.9,1.3,0.4,2.5l-16.9,39.2L87.9,172.5 M213.6,190.2l41.8,73.3L131.8,243L213.6,190.2
			 M99.1,190.3c6.6,16.9,12.9,33.3,19.4,49.9l-40.7,1.2L99.1,190.3 M118,248.3c2.7,0,5,0.1,7.2,0.4c14,1.6,28.3,3.6,42,5.6
			c5.4,0.8,10.7,1.5,16.1,2.2l16.1,2.2L94.6,249c3.1-0.1,6.1-0.2,9.2-0.2c2.1,0,4.2-0.1,6.2-0.2C112.6,248.5,115.3,248.3,118,248.3
			 M234.2,76.4l-45.7,6.1c3.2,1.4,5.9,2.6,8.9,2.6c1,0,2-0.1,3-0.4l33.9-7.8L234.2,76.4L234.2,76.4z M260.3,77.5L212.9,88l-0.1,0.5
			l56.9,15.7L260.3,77.5L260.3,77.5z M179.2,85.8c-0.6,0-1.3,0.3-1.9,0.6c-10.6,5.9-21.4,11.5-31.6,18c-5.1,3.2-35.7,32.3-35.7,32.3
			c-1.9,1.8-3.7,3.9-5.1,6l-14.7,21.9c0,0,5.3,5.7,8.1,8.2c0.4,0.4,1.3,0.7,2,0.7c0.3,0,0.5,0,0.7-0.1c0,0,24.1-11.7,35.9-18.1
			c3.8-2.1,10.1-8.9,10.1-8.9s21.9-20.1,32.8-30.2c0.7-0.6,1.5-1.2,1.9-2L193.4,91l-13.8-5.1C179.5,85.9,179.3,85.8,179.2,85.8
			L179.2,85.8z M201,91.4c-0.6,0-1.1,0.3-1.6,1.2l-10.8,21.7l-0.2,1.1l64.9-9.8l0-0.5c-7-1.8-51-13.4-51-13.4
			C201.8,91.5,201.4,91.4,201,91.4L201,91.4z M270,107.6l-50.9,76.5c-0.7,1.1-1.7,2-0.6,3.6l44,71.9L270,107.6L270,107.6z
			 M262.1,108.6l-72.2,12.1l24.5,59.6L262.1,108.6L262.1,108.6z M184.5,120.2l-41.3,37.8l65.6,21.3L184.5,120.2L184.5,120.2z
			 M136.9,162.2l-35.1,18.2l18.9,48.8L136.9,162.2L136.9,162.2z M142.2,163.1l-18.1,76.4l85-54.8L142.2,163.1L142.2,163.1z
			 M87.3,170.5L75.9,227l0.4,0.2l0.9-1.4l18.8-43.5c0.6-1.5,0.6-2.4-0.7-3.6L87.3,170.5L87.3,170.5z M99.1,187.7
			c0,0-15.3,36.6-22.9,54.9c14.7-0.4,29-0.9,43.7-1.3C113,223.4,106.2,205.9,99.1,187.7L99.1,187.7z M214,188.8l-84.9,54.7
			l128.3,21.3L214,188.8L214,188.8z M118,247.3c-4.7,0-9.4,0.4-14.2,0.4c-5.9,0.1-11.7,0.3-17.6,0.5c-0.6,0-1.2,0.1-1.8,0.8
			L230,262.5l0.1-0.7c0,0-31.1-4.2-46.7-6.4c-19.4-2.6-38.7-5.6-58.2-7.8C122.8,247.4,120.4,247.3,118,247.3L118,247.3z"/>
	</g>
</g>
</svg>
