<?xml version="1.0" encoding="utf-8"?>
<!-- Generator: Adobe Illustrator 23.0.2, SVG Export Plug-In . SVG Version: 6.00 Build 0)  -->
<svg version="1.1" id="Layer_1" xmlns="http://www.w3.org/2000/svg" xmlns:xlink="http://www.w3.org/1999/xlink" x="0px" y="0px"
	 viewBox="0 0 356 356" style="enable-background:new 0 0 356 356;" xml:space="preserve">
<style type="text/css">
	.st0{fill:#470274;}
	.st1{fill:#FFFFFF;}
</style>
<g>
	<rect class="st0" width="356" height="356"/>
</g>
<path class="st1" d="M70.3,178.1c0-17.4,14.1-31.6,31.5-31.6c-12.3-12.3-12.3-32.3,0-44.6s32.3-12.3,44.6,0
	c0-17.4,14.1-31.5,31.5-31.5s31.5,14.1,31.5,31.5c12.3-12.3,32.3-12.3,44.6,0c12.3,12.3,12.3,32.3,0,44.6
	c17.4,0,31.5,14.1,31.5,31.5c0,0.1,0,107.7,0,107.7H70.3V178.1z M189.5,185.3l-11.6,56.3l-11.7-56.3h-16.5l19.9,96h16.5l19.9-96
	L189.5,185.3z M245.7,213.4h16.5c0-15.5-12.6-28.1-28.1-28.1S206,197.9,206,213.4v39.8c0,15.5,12.6,28.1,28.1,28.1
	s28.1-12.6,28.1-28.1V225h-28.1v16.5h11.7v11.7c-0.2,14.7-22.2,16.2-23.3,0v-39.8C222.9,198.3,244.6,197.4,245.7,213.4z
	 M113.3,221.6c-2.1-2.1-3.4-5-3.4-8.2c0.6-15.2,22.4-15.7,23.3,0h16.5c0-15.5-12.6-28.1-28.1-28.1s-28.1,12.6-28.1,28.1
	c0,17.4,14.1,28.1,28.1,28.1c15.7,0.8,15,22.7,0,23.3c-6.4,0-11.7-5.2-11.7-11.7H93.4c0,15.5,12.6,28.1,28.1,28.1
	s28.1-12.6,28.1-28.1c0-7.8-3.1-14.8-8.2-19.9c-5.1-5.1-12.1-8.2-19.9-8.2C118.3,225,115.4,223.7,113.3,221.6z M242.1,165.9h-34.9
	l24.7-24.7c5.7,0,11.4-2.8,14.7-8.4c6.6-11.3-1.5-25.6-14.6-25.7c-10-0.1-17.2,8.1-17.2,17.1l-24.7,24.7v-35
	c5.1-5.2,6.8-13.5,2.7-20.6c-6.5-11.4-23-11.4-29.6,0c-4.1,7.1-2.4,15.4,2.7,20.6v35l-24.7-24.7c-0.1-7.3-4.7-14.3-12.7-16.5
	c-12.7-3.4-24.3,8.2-20.9,20.9c2.1,8,9.2,12.6,16.5,12.7l24.7,24.7h-34.9c-9.3-9.8-28.7-4.7-29.1,12.1h186.5
	C270.4,160.6,251.4,156.5,242.1,165.9z"/>
</svg>
