<?xml version="1.0" encoding="utf-8"?>
<!-- Generator: Adobe Illustrator 23.0.2, SVG Export Plug-In . SVG Version: 6.00 Build 0)  -->
<svg version="1.1" id="Layer_1" xmlns="http://www.w3.org/2000/svg" xmlns:xlink="http://www.w3.org/1999/xlink" x="0px" y="0px"
	 viewBox="0 0 136 281" style="enable-background:new 0 0 136 281;" xml:space="preserve">
<g>
	<g>
		<path d="M52.4,136.6h11.7v-11.7H54C53.1,128.6,52.6,132.6,52.4,136.6z"/>
	</g>
	<g>
		<path d="M64.1,117.1v-14.3c-3.3,3.9-5.9,8.8-7.9,14.3H64.1z"/>
	</g>
	<g>
		<path d="M64.1,178.2v-14.3h-7.9C58.2,169.4,60.8,174.3,64.1,178.2z"/>
	</g>
	<g>
		<path d="M46,124.9H32.3c-1.6,3.6-2.7,7.6-3.1,11.7h15.3C44.7,132.6,45.2,128.7,46,124.9z"/>
	</g>
	<g>
		<path d="M53.6,104.3c-6.7,2.7-12.4,7.1-16.7,12.8h11C49.4,112.5,51.3,108.2,53.6,104.3z"/>
	</g>
	<g>
		<path d="M36.9,163.9c4.3,5.7,10,10.1,16.7,12.8c-2.3-3.9-4.2-8.1-5.7-12.8H36.9z"/>
	</g>
	<g>
		<path d="M99.1,117.1c-4.3-5.7-10-10.1-16.7-12.8c2.3,3.9,4.2,8.1,5.7,12.8H99.1z"/>
	</g>
	<g>
		<path d="M44.6,144.4H29.2c0.4,4.1,1.5,8,3.1,11.7H46C45.2,152.3,44.7,148.4,44.6,144.4z"/>
	</g>
	<g>
		<path d="M54,156.1h10.1v-11.7H52.4C52.6,148.4,53.1,152.4,54,156.1z"/>
	</g>
	<g>
		<path d="M91.4,136.6h15.3c-0.4-4.1-1.5-8-3.1-11.7H90.1C90.8,128.7,91.3,132.6,91.4,136.6z"/>
	</g>
	<g>
		<path d="M71.9,102.8v14.3h7.9C77.8,111.6,75.2,106.7,71.9,102.8z"/>
	</g>
	<g>
		<path d="M82.4,176.7c6.7-2.7,12.4-7.1,16.7-12.8h-11C86.6,168.5,84.7,172.8,82.4,176.7z"/>
	</g>
	<g>
		<path d="M0,0v281h136V0H0z M68,187.3c-25.8,0-46.8-20.9-46.8-46.8s21-46.8,46.8-46.8s46.8,20.9,46.8,46.8S93.8,187.3,68,187.3z"/>
	</g>
	<g>
		<path d="M90,156.1h13.6c1.6-3.6,2.7-7.6,3.1-11.7H91.4C91.3,148.4,90.8,152.3,90,156.1z"/>
	</g>
	<g>
		<path d="M71.9,144.4v11.7H82c0.8-3.7,1.3-7.6,1.5-11.7H71.9z"/>
	</g>
	<g>
		<path d="M82,124.9H71.9v11.7h11.7C83.4,132.6,82.9,128.6,82,124.9z"/>
	</g>
	<g>
		<path d="M71.9,178.2c3.3-3.9,5.9-8.8,7.9-14.3h-7.9V178.2z"/>
	</g>
</g>
</svg>
