<svg xmlns="http://www.w3.org/2000/svg" width="48" height="49" fill="none" viewBox="0 0 48 49">
    <path fill="#000"
        d="M21.4.3q1.4 0 2.2 1A9 9 0 0 0 26.4 3q4.4 2 6.4 6.2 1.7 3.3 2 7l.8 4 2.7 1.7s4.4 2.3 4.5 14c.2 11.5-4.4 12.8-4.5 12.8a20 20 0 0 1-8.5-6l-.7-.8-1.4 3.2q-1.2 2.6-4 2l-2.2-.5q-2.4-.7-3 1.7 0 .4-.2.6-.3 0-.6-.4a3 3 0 0 1-.4-3.2q1-1.5 3-1.4l3.3.5q1 .1 1.4-.8l1.8-4q0-.5-.2-.9l-3-4s-2.3-3.6-3.2-5.4q-.1-.4-.4-.8c-.9-1.6-1.6-1.9-3.2-1.6l-6 1.1a6.5 6.5 0 0 1-7.5-4.7q-.2-1.2.1-2.4.1-.5.6-.6t.8.4l1.1 2 .8-1.9q0-.6.6-.7t.8.6l.7 1.2q.3.4.4 0 .4-.7.6-1.6.5-1 1.3-.2l1.2 1.5.7-1.8q.6-1.3 1.3-.2c.6.7.7.7 1.4.2l2.2-1.5q2.8-1.7 5.9-2 1.2 0 2.3-.7t1.2-1.8q.1-.6-.4-.9-.5-.2-.8.1l-1.3.8a6 6 0 0 1-5.5.6q-1.5-.7-3-1-1.3-.4-1.8.8l-.5 1q-.5.5-1-.2l-.7-1.5q-.1-.5-.4 0l-.7 1.1q-.2.6-.8.6-.5-.2-.6-.8l-.5-1.2q-.1-.6-.5 0l-.8 1q-.8.9-1.2-.2l-.7-2q-.4.2-.6.6l-.7 1q-.7.4-1-.3-.2-.5-.3-1 0-.9-.6-1.8-.6-1.5.2-3c1-3 3.8-4.9 7-4.9h6.4q2 0 3.1-1.3.8-.8 1.8-1m.2 2.6a1.5 1.5 0 1 0 0 3 1.5 1.5 0 0 0 0-3" />
</svg>