<?xml version="1.0" encoding="UTF-8" standalone="no"?>
<!DOCTYPE svg PUBLIC "-//W3C//DTD SVG 1.1//EN" "http://www.w3.org/Graphics/SVG/1.1/DTD/svg11.dtd">
<svg width="100%" height="100%" viewBox="0 0 100 100" version="1.1" xmlns="http://www.w3.org/2000/svg" xmlns:xlink="http://www.w3.org/1999/xlink" xml:space="preserve" xmlns:serif="http://www.serif.com/" style="fill-rule:evenodd;clip-rule:evenodd;stroke-linecap:round;stroke-linejoin:round;stroke-miterlimit:1.5;">
    <g>
        <path d="M33.933,16.873C33.797,33.785 35.898,36.722 34.84,47.331C34.828,47.456 23.761,47.946 24.162,48.273C33.946,56.276 39.749,58.426 44.191,68.406C58.821,52.769 64.091,50.775 66.724,48.63C60.69,47.751 60.726,48.07 54.634,47.533C55.52,41.027 56.39,25.925 56.821,17.233C55.257,17.359 40.984,15.978 32.337,15.676" style="fill:none;stroke:#000000;stroke-width:4px;"/>
        <path d="M28.667,54.324C25.421,56.724 17.318,59.807 10.155,62.957C13.895,71.817 12.998,72.051 12.529,81.646C16.083,81.969 31.644,83.383 55.643,93.108C57.245,91.214 58.851,89.315 83.717,79.946C84.154,71.948 82.19,71.88 84.074,64.041C72.211,60.659 62.192,49.945 61.976,53.09" style="fill:none;stroke:#000000;stroke-width:4px;"/>
        <path d="M10.778,63.704C21.973,68.857 42.071,73.15 53.877,76.746C56.503,77.546 52.73,77.538 57.459,75.324C64.234,72.152 75.538,67.407 82.431,64.489" style="fill:none;stroke:#000000;stroke-width:4px;"/>
        <path d="M55.207,76.707C58.784,85.462 55.677,90.86 55.424,93.094" style="fill:none;stroke:#000000;stroke-width:4px;"/>
    </g>
</svg>
