<?xml version="1.0" encoding="UTF-8" standalone="no"?>
<!DOCTYPE svg PUBLIC "-//W3C//DTD SVG 1.1//EN" "http://www.w3.org/Graphics/SVG/1.1/DTD/svg11.dtd">
<svg width="100%" height="100%" viewBox="0 0 1920 360" version="1.1" xmlns="http://www.w3.org/2000/svg" xmlns:xlink="http://www.w3.org/1999/xlink" xml:space="preserve" xmlns:serif="http://www.serif.com/" style="fill-rule:evenodd;clip-rule:evenodd;stroke-linejoin:round;stroke-miterlimit:2;">
    <g transform="matrix(2.00022,0,0,2.00022,790.818,55.7298)">
        <g>
            <clipPath id="_clip1">
                <rect x="0" y="0" width="177" height="118"/>
            </clipPath>
            <g clip-path="url(#_clip1)">
                <path d="M80.6,2.9C83.4,-2.9 86.3,0.9 92.8,6.4C97.4,10.2 109,18.4 126.4,23.1C138.599,26.496 151.378,27.28 163.9,25.4C172.3,24 176.6,22.1 176.2,28.4C175.8,34.1 174.5,42.8 171.4,54.4C164.7,79.3 142.8,127.4 101.4,116.3C96.4,114.833 92.067,112.9 88.4,110.5L3.4,110.5C3.365,110.501 3.329,110.502 3.294,110.502C1.484,110.502 -0.006,109.012 -0.006,107.202C-0.006,107.134 -0.004,107.067 0,107L0,18.7C0,16.9 1.5,15.4 3.3,15.4L75.6,15.4C76.933,11.133 78.6,6.967 80.6,2.9M73.8,22.7C60.011,30.023 44.294,32.922 28.8,31C22.3,29.9 18.9,28.5 19.2,33.4C19.4,37.733 20.633,44.333 22.9,53.2C28,72.4 44.9,109.3 76.7,100.8L77.9,100.4C74.244,94.565 71.638,88.134 70.2,81.4L53.2,86.2C53.2,86.2 55.2,74.8 68.4,69.9C67.4,53.767 69.2,38.033 73.8,22.7M85.5,70.3C85.5,70.3 88.5,85.8 107.9,91.5C127.1,97.1 137.6,84.9 137.6,84.9L85.5,70.3ZM143.9,52.7C132.9,49.5 126.3,59.7 126.3,59.7L155.8,68C155.8,68 154.8,55.8 143.8,52.7M57.7,47.5C57.7,47.5 57,56.2 48.5,58.5C40,60.7 35,53.5 35,53.5L57.7,47.5ZM98.4,39.1C87.4,35.9 80.9,46.1 80.9,46.1L110.3,54.4C110.3,54.4 109.4,42.2 98.3,39.1" style="fill-rule:nonzero;"/>
            </g>
        </g>
    </g>
</svg>
