<?xml version="1.0" encoding="UTF-8" standalone="no"?>
<!DOCTYPE svg PUBLIC "-//W3C//DTD SVG 1.1//EN" "http://www.w3.org/Graphics/SVG/1.1/DTD/svg11.dtd">
<svg width="100%" height="100%" viewBox="0 0 1920 360" version="1.1" xmlns="http://www.w3.org/2000/svg" xmlns:xlink="http://www.w3.org/1999/xlink" xml:space="preserve" xmlns:serif="http://www.serif.com/" style="fill-rule:evenodd;clip-rule:evenodd;stroke-linecap:round;stroke-linejoin:round;stroke-miterlimit:1.5;">
    <g transform="matrix(2.00022,0,0,2.00022,967.837,173.743)">
        <g>
            <g transform="matrix(0.499946,0,0,0.499946,-483.866,-86.8619)">
                <path d="M749.764,47.867C742.983,121.311 752.364,121.155 745.312,195.086C734.475,308.689 734.373,308.478 733.884,318.371C804.138,321.197 810.924,310.26 873.414,315.889C1056.34,332.365 1164.82,308.323 1166.47,307.232C1193.9,289.026 1185.5,73.227 1184.71,52.838C1149.63,49.745 920.671,29.553 744.524,48.997" style="fill:none;stroke:rgb(255,0,246);stroke-width:4px;"/>
            </g>
            <g transform="matrix(0.499946,0,0,0.499946,-483.866,-86.8619)">
                <path d="M698.887,165.395C737.438,152.38 739.149,185.164 743.404,199.348" style="fill:none;stroke:rgb(255,0,246);stroke-width:4px;"/>
            </g>
            <g transform="matrix(0.499946,0,0,0.499946,-483.866,-86.8619)">
                <path d="M755.933,156.473C714.063,119.836 677.063,166.572 672.956,170.008" style="fill:none;stroke:rgb(255,0,246);stroke-width:4px;"/>
            </g>
            <g transform="matrix(0.499946,0,0,0.499946,-483.866,-86.8619)">
                <path d="M667.545,166.648C692.326,184.998 693.712,182.696 738.744,225.726" style="fill:none;stroke:rgb(255,0,246);stroke-width:4px;"/>
            </g>
            <g transform="matrix(0.499946,0,0,0.499946,-483.866,-86.8619)">
                <path d="M663.872,170.796C624.126,239.012 624.158,238.907 622.127,245.44" style="fill:none;stroke:rgb(255,0,246);stroke-width:4px;"/>
            </g>
            <g transform="matrix(0.499946,0,0,0.499946,-483.866,-86.8619)">
                <path d="M625.449,237.6C672.475,251.524 679.846,252.535 701.541,303.57C661.178,305.778 658.273,302.975 622.905,253.879" style="fill:none;stroke:rgb(255,0,246);stroke-width:4px;"/>
            </g>
            <g transform="matrix(0.499946,0,0,0.499946,-483.866,-86.8619)">
                <path d="M709.319,305.486C715.389,296.234 714.784,296.202 744.828,235.654" style="fill:none;stroke:rgb(255,0,246);stroke-width:4px;"/>
            </g>
            <g transform="matrix(0.499946,0,0,0.499946,-483.866,-86.8619)">
                <path d="M694.303,171.746C685.762,174.144 682.792,184.173 680.131,183.553C677.365,182.909 666.129,171.732 671.921,171.708" style="fill:none;stroke:rgb(255,0,246);stroke-width:4px;"/>
            </g>
            <g transform="matrix(0.499946,0,0,0.499946,-483.866,-86.8619)">
                <path d="M737.054,225.175C739.067,231.234 738.843,230.293 744.23,234.041" style="fill:none;stroke:rgb(255,0,246);stroke-width:4px;"/>
            </g>
            <g transform="matrix(0.499946,0,0,0.499946,-483.866,-86.8619)">
                <path d="M457.082,189.078C449.961,187.297 387.829,171.764 379.315,237.771C376.562,259.122 423.676,299.317 455.445,233.142C480.299,233.129 534.492,231.6 541.365,231.406C537.099,249.251 540.26,248.99 537.708,266.415C551.324,262.454 554.297,264.43 556.329,249.958C557.555,241.229 560.187,244.655 569.668,241.114C567.748,248.707 565.828,256.299 563.908,263.892L594.695,275.133C596.975,236.712 593.479,236.764 601.706,214.903C582.521,213.16 450.07,217.123 449.527,217.165C449.417,215.835 459.713,212.045 443.338,200.335C432.261,192.414 432.28,197.804 420.871,204.549" style="fill:none;stroke:rgb(255,0,246);stroke-width:4px;"/>
            </g>
            <g transform="matrix(0.499946,0,0,0.499946,-483.866,-86.8619)">
                <path d="M412.271,223.182C389.699,242.328 416.77,256.598 428.113,242.811C446.257,220.758 399.059,208.454 401.251,237.106" style="fill:none;stroke:rgb(255,0,246);stroke-width:4px;"/>
            </g>
            <g transform="matrix(0.499946,0,0,0.499946,-483.866,-86.8619)">
                <path d="M1193.78,169.657C1241.57,145.352 1266.86,278.485 1184.19,257.818" style="fill:none;stroke:rgb(255,0,246);stroke-width:4px;"/>
            </g>
            <g transform="matrix(0.499946,0,0,0.499946,-483.866,-86.8619)">
                <path d="M1185.75,134.765C1191.64,126.377 1190.29,126.778 1193.21,117.186C1195.48,109.731 1198.09,113.216 1218.04,112.844C1192.8,169.349 1237.47,141.301 1245.32,137.319C1247.04,136.449 1259.19,130.286 1268.68,142.928C1280.98,159.305 1246.22,152.416 1247.16,187.304C1267.53,188.612 1267.3,187.56 1286.85,194.769L1278.5,211.322C1277.06,211.903 1264.01,196.665 1246.56,227.596C1242.66,234.511 1278.54,259.798 1276.62,261.985C1261.9,278.735 1255.64,258.299 1236.51,268.465C1235.41,283.619 1241.47,289.64 1226.21,291.884C1216.14,293.364 1208.26,269.9 1199.74,280.19C1194.41,286.622 1202.67,301.998 1168.83,299.174" style="fill:none;stroke:rgb(255,0,246);stroke-width:4px;"/>
            </g>
            <g transform="matrix(0.499946,0,0,0.499946,-483.866,-86.8619)">
                <path d="M1269.95,171.233C1272.51,189.643 1277.28,188.106 1295.42,186.558C1302.06,205.956 1299.57,206.14 1297.7,214.734C1296.16,221.832 1315.76,240.685 1325.45,216.471L1343.45,215.961C1359.03,237.383 1377.03,230.65 1370.02,205.164C1387.52,190.63 1389.44,196.537 1411.42,202.888C1426.16,207.147 1422.73,199.322 1426.84,184.461C1401.53,181.913 1398.41,180.356 1396.19,179.244C1394.21,178.254 1395.08,177.334 1395.44,151.572C1397.79,147.592 1406.83,153.742 1409.18,149.762C1420.66,130.31 1412.31,120.524 1391.53,129.307C1390.26,129.842 1390.32,129.742 1376.09,133.427L1360.38,119.125C1370.43,58.058 1334.46,93.007 1333.55,95.706C1332.91,97.606 1334.83,97.283 1335.66,120.682C1329.83,124.079 1324,127.476 1318.16,130.872C1308.5,121.103 1305.23,106.161 1289.57,121.676C1283.99,127.195 1289.45,127.025 1302.75,140.993L1293.38,158.471C1277.94,161.721 1271.61,157.83 1272.54,173.606" style="fill:none;stroke:rgb(255,0,246);stroke-width:4px;"/>
            </g>
            <g transform="matrix(0.499946,0,0,0.499946,-483.866,-86.8619)">
                <path d="M1331.44,157.811C1297.16,184.509 1349.59,193.011 1356.34,180.089C1357.37,178.115 1367.9,134.405 1330.12,170.749" style="fill:none;stroke:rgb(255,0,246);stroke-width:4px;"/>
            </g>
            <g transform="matrix(0.499946,0,0,0.499946,-483.866,-86.8619)">
                <path d="M337.861,76.547C270.943,76.547 305.415,149.345 306.604,150.485C311.04,154.741 359.335,169.323 362.086,132.936" style="fill:none;stroke:rgb(255,0,246);stroke-width:4px;"/>
            </g>
            <g transform="matrix(0.499946,0,0,0.499946,-483.866,-86.8619)">
                <path d="M342.688,78.434C358.896,82.273 355.514,86.427 362.967,100.813C372.547,100.677 439.43,99.729 482.689,103.882C481.703,114.495 480.253,113.384 474.872,122.57C473.307,133.672 473.153,133.07 471.88,143.792C469.628,162.766 456.997,118.648 446.114,134.727C442.48,140.096 461.151,153.875 435.685,155.423C429.865,155.776 432.402,152.512 430.799,131.86C425.07,132.047 368.501,133.897 359.205,134.786" style="fill:none;stroke:rgb(255,0,246);stroke-width:4px;"/>
            </g>
            <g transform="matrix(0.499946,0,0,0.499946,-483.866,-86.8619)">
                <path d="M326.289,111.371C298.092,130.01 335.935,139.571 339.29,134.16C354.955,108.893 326.567,95.404 318.647,116.95" style="fill:none;stroke:rgb(255,0,246);stroke-width:4px;"/>
            </g>
            <g transform="matrix(0.499946,0,0,0.499946,-483.866,-86.8619)">
                <path d="M509.262,148.097C550.89,150.497 550.027,147.047 591.779,146.512" style="fill:none;stroke:rgb(255,0,246);stroke-width:4px;"/>
            </g>
            <g transform="matrix(0.499946,0,0,0.499946,-483.866,-86.8619)">
                <path d="M508.709,150.551C495.533,132.983 456.943,166.278 477.238,180.408C493.037,191.407 505.712,168.169 506.981,165.843C543.228,169.636 542.726,164.401 579.7,166.921C579.87,168.214 584.252,201.651 590.216,179.368C592.971,169.075 596.955,164.783 602.62,173.892C605.856,179.095 598.35,187.88 602.62,192.274C615.219,205.236 620.02,196.537 621.775,178.278C623.506,160.277 631.266,152.618 613.196,151.281C598.906,150.223 599.495,151.88 592.073,155.931" style="fill:none;stroke:rgb(255,0,246);stroke-width:4px;"/>
            </g>
            <g transform="matrix(0.499946,0,0,0.499946,-483.866,-86.8619)">
                <path d="M489.333,164.267C486.619,167.012 483.906,169.757 481.192,172.502C486.439,170.602 490.891,168.471 484.881,167.532" style="fill:none;stroke:rgb(255,0,246);stroke-width:4px;"/>
            </g>
            <g transform="matrix(0.499946,0,0,0.499946,-483.866,-86.8619)">
                <path d="M793.398,72.471C754.428,76.161 772.395,94.103 767.985,139.112C760.406,216.468 766.616,216.297 762.126,293.991C856.578,295.507 855.859,297.801 950.25,301.102C1019.58,303.526 1019.1,290.069 1091.9,297.373C1124.26,300.618 1163.24,297.57 1160.96,291.034C1125.55,189.2 1202.82,69.3 1121.31,66.759C897.668,59.789 816.192,69.557 789.86,72.714" style="fill:none;stroke:rgb(255,0,246);stroke-width:4px;"/>
            </g>
            <g transform="matrix(0.499946,0,0,0.499946,-483.866,-86.8619)">
                <path d="M848.534,71.277C863.722,114.202 851.806,115.159 849.743,196.077C848.478,245.695 859.688,245.176 852.45,294.456C862.691,296.631 872.933,298.807 883.175,300.982C887.481,237.342 882.379,237.474 890.072,173.789C896.251,122.641 900.867,123.54 899.572,71.802C884.972,69.854 883.649,63.957 841.68,73.179" style="fill:none;stroke:rgb(255,0,246);stroke-width:4px;"/>
            </g>
            <g transform="matrix(0.499946,0,0,0.499946,-483.866,-86.8619)">
                <path d="M981.964,73.134C996.496,110.162 988.366,113.075 1001.77,202.393C1010.31,259.29 1011.2,258.444 1014.53,296.508C1042.4,289.27 1045.75,291.692 1046.09,284.873C1046.94,268.06 1041.42,190.477 1034.31,79.583C1009.76,72.847 1010.25,72.027 984.315,72.515" style="fill:none;stroke:rgb(255,0,246);stroke-width:4px;"/>
            </g>
            <g transform="matrix(0.499946,0,0,0.499946,-483.866,-86.8619)">
                <path d="M86.64,271.334C278.226,245.385 261.626,189.491 276.253,196.688C291.021,203.954 279.103,212.599 279.098,213.308C279.094,213.96 295.398,213.311 296.815,213.255C171.158,327.982 41.387,260.124 64.478,323.824C68.921,336.081 104.535,352.57 145.985,331.489C167.586,320.503 147.704,337.575 147.267,337.857C142.909,340.669 138.522,340.698 143.464,343.665C149.32,347.18 59.24,364.136 47.099,340.577C16.919,282.012 63.858,282.585 98.631,274.952" style="fill:none;stroke:rgb(255,0,246);stroke-width:4px;"/>
            </g>
            <g transform="matrix(0.499946,0,0,0.499946,-483.866,-86.8619)">
                <path d="M122.754,107.229C145.607,105.447 145.358,105.775 153.793,104.395C155.674,107.714 177.408,146.075 169.179,149.527C145.206,159.58 146.252,168.784 145.992,166.5" style="fill:none;stroke:rgb(255,0,246);stroke-width:4px;"/>
            </g>
            <g transform="matrix(0.499946,0,0,0.499946,-483.866,-86.8619)">
                <path d="M128.82,122.493C136.561,121.724 136.868,125.701 155.316,119.427" style="fill:none;stroke:rgb(255,0,246);stroke-width:4px;"/>
            </g>
            <g transform="matrix(0.499946,0,0,0.499946,-483.866,-86.8619)">
                <path d="M135.269,139.783C157.052,131.509 157.454,129.886 156.104,128.558" style="fill:none;stroke:rgb(255,0,246);stroke-width:4px;"/>
            </g>
            <g transform="matrix(0.499946,0,0,0.499946,-483.866,-86.8619)">
                <path d="M117.249,113.007C140.036,131.242 127.692,145.475 135.121,157.943" style="fill:none;stroke:rgb(255,0,246);stroke-width:4px;"/>
            </g>
            <g transform="matrix(0.499946,0,0,0.499946,-483.866,-86.8619)">
                <path d="M155.964,108.983C182.283,110.012 177.3,118.637 184.119,131.757C173.137,135.552 171.318,132.456 166.297,142.37" style="fill:none;stroke:rgb(255,0,246);stroke-width:4px;"/>
            </g>
            <g transform="matrix(0.499946,0,0,0.499946,-483.866,-86.8619)">
                <path d="M177.257,113.84C209.006,108.613 205.373,86.907 236.53,96.604L228.486,111.784C224.592,112.247 197.9,115.422 181.952,127.18" style="fill:none;stroke:rgb(255,0,246);stroke-width:4px;"/>
            </g>
            <g transform="matrix(0.499946,0,0,0.499946,-483.866,-86.8619)">
                <path d="M193.272,111.813C192.835,114.594 192.398,117.375 191.96,120.156" style="fill:none;stroke:rgb(255,0,246);stroke-width:4px;"/>
            </g>
            <g transform="matrix(0.499946,0,0,0.499946,-483.866,-86.8619)">
                <path d="M207.747,110.295C206.944,113.231 206.14,116.167 205.337,119.102" style="fill:none;stroke:rgb(255,0,246);stroke-width:4px;"/>
            </g>
            <g transform="matrix(0.499946,0,0,0.499946,-483.866,-86.8619)">
                <path d="M116.77,114.011C113.915,114.741 114.58,113.77 80.516,120.467" style="fill:none;stroke:rgb(255,0,246);stroke-width:4px;"/>
            </g>
            <g transform="matrix(0.499946,0,0,0.499946,-483.866,-86.8619)">
                <path d="M132.203,171.476C99.307,194.126 65.489,178.194 83.147,213.612C84.408,216.142 91.186,218.146 91.954,218.373C93.67,218.88 93.578,218.043 113.875,213.921C116.777,232.345 127.317,243.254 108.279,241.294C101.67,240.614 102.761,243.424 26.033,252.843C49.292,193.424 0.076,161.615 30.781,130.38C38.034,123.003 69.981,153.774 60.918,179.967C54.142,199.551 35.662,211.94 25.888,196.27" style="fill:none;stroke:rgb(255,0,246);stroke-width:4px;"/>
            </g>
            <g transform="matrix(0.499946,0,0,0.499946,-483.866,-86.8619)">
                <path d="M89.161,118.536C85.09,119.648 39.951,131.978 38.387,132.857" style="fill:none;stroke:rgb(255,0,246);stroke-width:4px;"/>
            </g>
            <g transform="matrix(0.499946,0,0,0.499946,-483.866,-86.8619)">
                <path d="M109.878,173.614C111.822,187.038 120.549,203.812 86.765,212.492" style="fill:none;stroke:rgb(255,0,246);stroke-width:4px;"/>
            </g>
            <g transform="matrix(0.499946,0,0,0.499946,-483.866,-86.8619)">
                <path d="M124.272,178.744C116.612,201.421 117.857,204.222 95.322,211.467" style="fill:none;stroke:rgb(255,0,246);stroke-width:4px;"/>
            </g>
            <g transform="matrix(0.499946,0,0,0.499946,-483.866,-86.8619)">
                <path d="M86.544,147.936C85.897,149.202 76.269,168.042 88.195,165.632C97.763,163.699 106.309,167.468 107.476,165.094" style="fill:none;stroke:rgb(255,0,246);stroke-width:4px;"/>
            </g>
            <g transform="matrix(0.499946,0,0,0.499946,-483.866,-86.8619)">
                <path d="M95.565,147.089C95.772,148.345 98.937,167.636 103.444,160.922" style="fill:none;stroke:rgb(255,0,246);stroke-width:4px;"/>
            </g>
            <g transform="matrix(0.499946,0,0,0.499946,-483.866,-86.8619)">
                <path d="M111.78,145.836C112.395,147.067 112.021,146.967 117.912,161.91" style="fill:none;stroke:rgb(255,0,246);stroke-width:4px;"/>
            </g>
            <g transform="matrix(0.499946,0,0,0.499946,-483.866,-86.8619)">
                <path d="M121.892,113.208C66.379,127.643 67.657,132.25 10.395,133.785" style="fill:none;stroke:rgb(255,0,246);stroke-width:4px;"/>
            </g>
            <g transform="matrix(0.499946,0,0,0.499946,-483.866,-86.8619)">
                <path d="M272.804,218.977C267.977,221.695 268.717,221.28 263.672,224.114" style="fill:none;stroke:rgb(255,0,246);stroke-width:4px;"/>
            </g>
            <g transform="matrix(0.499946,0,0,0.499946,-483.866,-86.8619)">
                <path d="M249.381,161.903C248.915,157.736 250.432,164.266 281.051,203.655C310.487,241.52 322.647,270.254 315.227,247.249" style="fill:none;stroke:rgb(255,0,246);stroke-width:4px;"/>
            </g>
            <g transform="matrix(0.499946,0,0,0.499946,-483.866,-86.8619)">
                <path d="M230.492,216.295C295.055,197.418 293.089,192.721 295.71,191.221" style="fill:none;stroke:rgb(255,0,246);stroke-width:4px;"/>
            </g>
            <g transform="matrix(0.499946,0,0,0.499946,-483.866,-86.8619)">
                <path d="M291.679,156.581C272.37,188.677 275.495,189.182 263.422,224.38C246.578,273.482 245.549,274.293 247.045,275.028" style="fill:none;stroke:rgb(255,0,246);stroke-width:4px;"/>
            </g>
            <g transform="matrix(0.499946,0,0,0.499946,-483.866,-86.8619)">
                <path d="M271.197,201.834C256.183,194.327 257.336,226.422 278.324,219.751C280.278,219.13 307.839,210.37 297.922,203.242C285.087,194.017 281.574,197.256 273.895,203.869" style="fill:none;stroke:rgb(255,0,246);stroke-width:4px;"/>
            </g>
            <g transform="matrix(0.499946,0,0,0.499946,-483.866,-86.8619)">
                <path d="M680.11,196.307C679.325,211.818 678.955,211.396 681.098,227.07" style="fill:none;stroke:rgb(255,0,246);stroke-width:4px;"/>
            </g>
            <g transform="matrix(0.499946,0,0,0.499946,-483.866,-86.8619)">
                <path d="M693.104,235.266C694.989,235.066 705.663,233.939 716.667,232.73" style="fill:none;stroke:rgb(255,0,246);stroke-width:4px;"/>
            </g>
            <g transform="matrix(0.499946,0,0,0.499946,-483.866,-86.8619)">
                <path d="M665.245,235.715C687.193,238.279 684.281,247.483 688.586,255.047" style="fill:none;stroke:rgb(255,0,246);stroke-width:4px;"/>
            </g>
            <g transform="matrix(0.499946,0,0,0.499946,-483.866,-86.8619)">
                <path d="M1449.07,70.895C1457.51,125.021 1464.27,123.215 1466.73,177.712C1467.15,187.1 1470.03,251.036 1478.99,294.543C1568.11,283.873 1566.05,273.5 1589.69,272.809C1682.74,270.09 1685.43,273.142 1688.74,266.456C1693.67,256.491 1648.4,92.253 1643.21,50.366C1628.42,49.787 1418.51,41.571 1458.21,56.428" style="fill:none;stroke:rgb(255,0,246);stroke-width:4px;"/>
            </g>
            <g transform="matrix(0.499946,0,0,0.499946,-483.866,-86.8619)">
                <path d="M1475.53,82.754C1448.1,120.682 1499.28,108.853 1503.33,107.172C1524.1,98.562 1501.53,65.152 1469.58,91.783" style="fill:none;stroke:rgb(255,0,246);stroke-width:4px;"/>
            </g>
            <g transform="matrix(0.499946,0,0,0.499946,-483.866,-86.8619)">
                <path d="M1494.57,138.045C1479.87,134.779 1459.51,166.847 1500.32,172.464C1534.03,177.105 1513.43,143.721 1500.43,150.11" style="fill:none;stroke:rgb(255,0,246);stroke-width:4px;"/>
            </g>
            <g transform="matrix(0.499946,0,0,0.499946,-483.866,-86.8619)">
                <path d="M1504.37,214.975C1481.37,213.927 1484.24,237.38 1505.74,241.442C1523.98,244.889 1544.1,212.929 1508.88,214.791" style="fill:none;stroke:rgb(255,0,246);stroke-width:4px;"/>
            </g>
            <g transform="matrix(0.499946,0,0,0.499946,-483.866,-86.8619)">
                <path d="M1493.15,93.927C1497.74,103.777 1500.09,106.533 1507.98,99.19C1525.41,82.962 1525.25,83.514 1537.51,62.321C1518.06,82.262 1518.78,82.181 1500.23,103.198L1489.88,90.743C1499.44,103.819 1498.75,103.483 1511.73,113.82C1513.39,110.558 1529.43,79.114 1534.41,74.072" style="fill:none;stroke:rgb(255,0,246);stroke-width:4px;"/>
            </g>
            <g transform="matrix(0.499946,0,0,0.499946,-483.866,-86.8619)">
                <path d="M1501.42,155.623C1502.14,157.1 1502.26,156.38 1511.45,173.525C1531.21,154.762 1531.12,155.324 1544.5,131.537C1525.45,153.455 1524.33,152.09 1511.96,179.102C1508.29,172.602 1504.61,166.103 1500.94,159.603C1517,171.877 1519.96,166.144 1530.91,149.462" style="fill:none;stroke:rgb(255,0,246);stroke-width:4px;"/>
            </g>
            <g transform="matrix(0.499946,0,0,0.499946,-483.866,-86.8619)">
                <path d="M1506.42,226.23C1512.75,233.371 1512,232.834 1518.16,240.305C1531.56,221.082 1532.9,222.63 1541.44,199.962C1531.72,227.652 1531.78,226.739 1520.44,254.011C1515.6,247.295 1510.76,240.58 1505.92,233.865L1522.71,249.559C1539.36,218.465 1539.08,218.746 1541.45,214.894" style="fill:none;stroke:rgb(255,0,246);stroke-width:4px;"/>
            </g>
            <g transform="matrix(0.499946,0,0,0.499946,-483.866,-86.8619)">
                <path d="M1542.51,101.047C1574.35,97.852 1574.56,101.696 1604.53,90.883C1611.57,88.341 1611.27,89.506 1618.77,89.888" style="fill:none;stroke:rgb(255,0,246);stroke-width:4px;"/>
            </g>
            <g transform="matrix(0.499946,0,0,0.499946,-483.866,-86.8619)">
                <path d="M1555.52,90.847C1574.02,91.715 1573.32,90.975 1592.13,91.827" style="fill:none;stroke:rgb(255,0,246);stroke-width:4px;"/>
            </g>
            <g transform="matrix(0.499946,0,0,0.499946,-483.866,-86.8619)">
                <path d="M1560.15,156.81C1595.82,150.513 1594.98,150.723 1631.31,145.924" style="fill:none;stroke:rgb(255,0,246);stroke-width:4px;"/>
            </g>
            <g transform="matrix(0.499946,0,0,0.499946,-483.866,-86.8619)">
                <path d="M1563.59,183.976C1573.17,182.768 1588.08,181.033 1590.21,180.785" style="fill:none;stroke:rgb(255,0,246);stroke-width:4px;"/>
            </g>
            <g transform="matrix(0.499946,0,0,0.499946,-483.866,-86.8619)">
                <path d="M1567.28,222.124C1573.98,221.569 1584.03,225.423 1626.93,215.255C1633.63,213.668 1645.3,209.739 1639.16,211.563" style="fill:none;stroke:rgb(255,0,246);stroke-width:4px;"/>
            </g>
            <g transform="matrix(0.499946,0,0,0.499946,-483.866,-86.8619)">
                <path d="M1565.43,243.255C1586.85,240.158 1586.64,240.478 1590.65,239.201" style="fill:none;stroke:rgb(255,0,246);stroke-width:4px;"/>
            </g>
            <g transform="matrix(0.499946,0,0,0.499946,-483.866,-86.8619)">
                <path d="M1562.52,176.171C1577.35,174.718 1576.49,174.955 1590.33,172.449" style="fill:none;stroke:rgb(255,0,246);stroke-width:4px;"/>
            </g>
            <g transform="matrix(0.499946,0,0,0.499946,-483.866,-86.8619)">
                <path d="M1336.67,273.753C1342.5,277.628 1363.02,291.267 1412.38,317.613C1367.45,333.037 1412.44,348.166 1420.99,340.674C1438.63,325.232 1411.37,323.392 1409.72,323.28" style="fill:none;stroke:rgb(255,0,246);stroke-width:4px;"/>
            </g>
            <g transform="matrix(0.499946,0,0,0.499946,-483.866,-86.8619)">
                <path d="M1398.1,340.519C1353.84,318.626 1286.89,307.111 1335.5,287.889C1394.45,264.576 1396.73,275.462 1465.58,257.251" style="fill:none;stroke:rgb(255,0,246);stroke-width:4px;"/>
            </g>
            <g transform="matrix(0.499946,0,0,0.499946,-483.866,-86.8619)">
                <path d="M1415.07,324.261C1484.93,309.453 1621.72,290.254 1641.78,286.334C1703.11,274.349 1805.24,251.642 1812.15,251.274" style="fill:none;stroke:rgb(255,0,246);stroke-width:4px;"/>
            </g>
            <g transform="matrix(0.499946,0,0,0.499946,-483.866,-86.8619)">
                <path d="M1812.58,251.274C1835.64,264.719 1819.06,280.258 1817.25,281.956C1804.73,293.693 1775.95,266.328 1798.19,256.307" style="fill:none;stroke:rgb(255,0,246);stroke-width:4px;"/>
            </g>
            <g transform="matrix(0.499946,0,0,0.499946,-483.866,-86.8619)">
                <path d="M1432.85,343.843C1433.96,343.394 1616.27,326.894 1683.81,315.873C1694.54,314.123 1692.01,308.24 1814.01,276.944" style="fill:none;stroke:rgb(255,0,246);stroke-width:4px;"/>
            </g>
            <g transform="matrix(0.499946,0,0,0.499946,-483.866,-86.8619)">
                <path d="M1818.72,260.074C1760,197.972 1750.07,198.439 1669.65,227.18" style="fill:none;stroke:rgb(255,0,246);stroke-width:4px;"/>
            </g>
            <g transform="matrix(0.499946,0,0,0.499946,-483.866,-86.8619)">
                <path d="M1385.96,278.705C1404.87,282.656 1452.34,306.013 1457.94,308.768" style="fill:none;stroke:rgb(255,0,246);stroke-width:4px;"/>
            </g>
            <g transform="matrix(0.499946,0,0,0.499946,-483.866,-86.8619)">
                <path d="M1451.65,270.104C1465.07,279.95 1463.1,281.856 1477.81,289.768" style="fill:none;stroke:rgb(255,0,246);stroke-width:4px;"/>
            </g>
            <g transform="matrix(0.499946,0,0,0.499946,-483.866,-86.8619)">
                <path d="M1495.82,295.451C1505.52,299.054 1504.84,298.916 1514.69,300.993" style="fill:none;stroke:rgb(255,0,246);stroke-width:4px;"/>
            </g>
            <g transform="matrix(0.499946,0,0,0.499946,-483.866,-86.8619)">
                <path d="M1550.3,286.105C1558.26,290.907 1557.4,290.912 1565.57,294.736" style="fill:none;stroke:rgb(255,0,246);stroke-width:4px;"/>
            </g>
            <g transform="matrix(0.499946,0,0,0.499946,-483.866,-86.8619)">
                <path d="M1577.74,283.511C1579.76,284.088 1585.84,285.819 1602.55,292.303" style="fill:none;stroke:rgb(255,0,246);stroke-width:4px;"/>
            </g>
            <g transform="matrix(0.499946,0,0,0.499946,-483.866,-86.8619)">
                <path d="M1617.19,278.108C1618.58,278.79 1618.33,278.048 1635.22,285.066" style="fill:none;stroke:rgb(255,0,246);stroke-width:4px;"/>
            </g>
            <g transform="matrix(0.499946,0,0,0.499946,-483.866,-86.8619)">
                <path d="M1688.45,264.452C1691.03,265.741 1699.16,271.936 1700.06,272.625" style="fill:none;stroke:rgb(255,0,246);stroke-width:4px;"/>
            </g>
            <g transform="matrix(0.499946,0,0,0.499946,-483.866,-86.8619)">
                <path d="M1697.51,223.171C1708.43,232.189 1742.12,255.33 1753.71,260.339" style="fill:none;stroke:rgb(255,0,246);stroke-width:4px;"/>
            </g>
            <g transform="matrix(0.499946,0,0,0.499946,-483.866,-86.8619)">
                <path d="M1460.95,341.175C1448.13,336.012 1441.64,329.521 1440.26,328.137" style="fill:none;stroke:rgb(255,0,246);stroke-width:4px;"/>
            </g>
            <g transform="matrix(0.499946,0,0,0.499946,-483.866,-86.8619)">
                <path d="M1502.76,335.294C1501.26,333.727 1495.76,327.968 1481.41,318.622" style="fill:none;stroke:rgb(255,0,246);stroke-width:4px;"/>
            </g>
            <g transform="matrix(0.499946,0,0,0.499946,-483.866,-86.8619)">
                <path d="M1559.96,336.76C1540.24,325.362 1540.66,326.328 1520.42,317.384C1515.62,315.267 1512.56,317.07 1514.76,312.601" style="fill:none;stroke:rgb(255,0,246);stroke-width:4px;"/>
            </g>
            <g transform="matrix(0.499946,0,0,0.499946,-483.866,-86.8619)">
                <path d="M1593.77,328.329C1591.18,326.881 1560.91,310 1561.68,309.594" style="fill:none;stroke:rgb(255,0,246);stroke-width:4px;"/>
            </g>
            <g transform="matrix(0.499946,0,0,0.499946,-483.866,-86.8619)">
                <path d="M1632.36,322.617C1621.4,316.224 1620.8,317.734 1613.6,307.25" style="fill:none;stroke:rgb(255,0,246);stroke-width:4px;"/>
            </g>
            <g transform="matrix(0.499946,0,0,0.499946,-483.866,-86.8619)">
                <path d="M1677.1,316.544C1643.06,301.379 1641.85,302.754 1639.39,297.875" style="fill:none;stroke:rgb(255,0,246);stroke-width:4px;"/>
            </g>
            <g transform="matrix(0.499946,0,0,0.499946,-483.866,-86.8619)">
                <path d="M1704.11,306.491C1701.8,305.13 1693.44,300.184 1677.56,286.186" style="fill:none;stroke:rgb(255,0,246);stroke-width:4px;"/>
            </g>
            <g transform="matrix(0.499946,0,0,0.499946,-483.866,-86.8619)">
                <path d="M1740.78,294.257C1739.49,292.6 1740.04,292.233 1723.17,278.079" style="fill:none;stroke:rgb(255,0,246);stroke-width:4px;"/>
            </g>
            <g transform="matrix(0.499946,0,0,0.499946,-483.866,-86.8619)">
                <path d="M1805,271.822C1791.91,276.52 1808.48,280.351 1812.29,282.895C1803.53,253.492 1794.84,262.506 1793.51,264.157C1791.67,266.422 1787.61,273.502 1823.19,285.225C1821.52,282.698 1819.86,280.171 1818.19,277.644" style="fill:none;stroke:rgb(255,0,246);stroke-width:4px;"/>
            </g>
            <g transform="matrix(0.499946,0,0,0.499946,-483.866,-86.8619)">
                <path d="M1325.45,163.016C1344.17,153.552 1374.41,170.399 1361.21,179.127" style="fill:none;stroke:rgb(255,0,246);stroke-width:4px;"/>
            </g>
            <g transform="matrix(0.499946,0,0,0.499946,-483.866,-86.8619)">
                <path d="M662.456,270.606C658.805,263.303 644.762,262.001 644.496,261.92C651.398,282.24 654.767,279.503 674.071,289.691C663.891,278.202 665.674,277.093 652.064,269.67" style="fill:none;stroke:rgb(255,0,246);stroke-width:4px;"/>
            </g>
            <g transform="matrix(0.499946,0,0,0.499946,-483.866,-86.8619)">
                <path d="M524.632,39.786C536.784,46.051 577.116,77.528 596.99,91.309C604.456,83.969 636.579,66.647 594.789,43.803C573.415,32.119 540.772,1.45 528.862,36.801" style="fill:none;stroke:rgb(255,0,246);stroke-width:4px;"/>
            </g>
            <g transform="matrix(0.499946,0,0,0.499946,-483.866,-86.8619)">
                <path d="M610.73,65.493C626.408,75.629 617.192,81.463 627.844,96.433" style="fill:none;stroke:rgb(255,0,246);stroke-width:4px;"/>
            </g>
            <g transform="matrix(0.499946,0,0,0.499946,-483.866,-86.8619)">
                <path d="M593.049,91.878C607.607,95.388 609.067,92.977 617.953,104.953C621.039,109.113 632.468,117.855 633.902,115.109" style="fill:none;stroke:rgb(255,0,246);stroke-width:4px;"/>
            </g>
            <g transform="matrix(0.499946,0,0,0.499946,-483.866,-86.8619)">
                <path d="M626.473,101.113C627.681,102.013 626.836,102.189 640.851,113.266L651.627,109.383C652.988,111.279 668.788,133.305 650.205,138.524C631.327,143.827 636.52,131.582 636.085,121.498C632.94,118.772 629.795,116.045 626.65,113.318" style="fill:none;stroke:rgb(255,0,246);stroke-width:4px;"/>
            </g>
            <g transform="matrix(0.499946,0,0,0.499946,-483.866,-86.8619)">
                <path d="M570.695,38.216C563.185,49.338 563.118,49.202 563.613,50.2" style="fill:none;stroke:rgb(255,0,246);stroke-width:4px;"/>
            </g>
            <g transform="matrix(0.499946,0,0,0.499946,-483.866,-86.8619)">
                <path d="M592.172,47.908C589.61,53.453 587.533,52.638 589.615,59.125" style="fill:none;stroke:rgb(255,0,246);stroke-width:4px;"/>
            </g>
            <g transform="matrix(0.499946,0,0,0.499946,-483.866,-86.8619)">
                <path d="M603.39,54.828C598.87,72.29 598.703,71.846 597.729,89.756" style="fill:none;stroke:rgb(255,0,246);stroke-width:4px;"/>
            </g>
            <g transform="matrix(0.499946,0,0,0.499946,-483.866,-86.8619)">
                <path d="M169.539,31.192C159.786,39.179 160.073,38.459 149.029,45.693L153.585,59.868C159.112,61.368 164.639,62.867 170.167,64.367C187.903,57.186 186.55,53.132 186.033,51.586C181.959,39.384 182.578,38.36 170.018,34.98" style="fill:none;stroke:rgb(255,0,246);stroke-width:4px;"/>
            </g>
            <g transform="matrix(0.499946,0,0,0.499946,-483.866,-86.8619)">
                <path d="M180.941,36.513C197.913,40.117 198.51,40.409 205.312,56.479L188.163,53.642" style="fill:none;stroke:rgb(255,0,246);stroke-width:4px;"/>
            </g>
            <g transform="matrix(0.499946,0,0,0.499946,-483.866,-86.8619)">
                <path d="M169.443,66.665C197.032,77.273 199.605,63.45 204.99,60.57" style="fill:none;stroke:rgb(255,0,246);stroke-width:4px;"/>
            </g>
            <g transform="matrix(0.499946,0,0,0.499946,-483.866,-86.8619)">
                <path d="M204.09,52.743C223.088,59.093 245.011,57.266 231.891,75.111C230.497,77.007 229.892,76.072 203.199,68.662" style="fill:none;stroke:rgb(255,0,246);stroke-width:4px;"/>
            </g>
            <g transform="matrix(0.499946,0,0,0.499946,-483.866,-86.8619)">
                <path d="M211.276,58.86C213.629,64.714 207.757,69.878 214.246,68.242" style="fill:none;stroke:rgb(255,0,246);stroke-width:4px;"/>
            </g>
            <g transform="matrix(0.499946,0,0,0.499946,-483.866,-86.8619)">
                <path d="M221.101,60.791C222.412,68.069 223.274,67.213 221.867,74.175" style="fill:none;stroke:rgb(255,0,246);stroke-width:4px;"/>
            </g>
            <g transform="matrix(0.499946,0,0,0.499946,-483.866,-86.8619)">
                <path d="M393.696,31.487C400.418,33.986 414.757,38.67 416.597,39.271L421.272,52.513C388.164,78.617 376.161,40.755 388.176,38.039" style="fill:none;stroke:rgb(255,0,246);stroke-width:4px;"/>
            </g>
            <g transform="matrix(0.499946,0,0,0.499946,-483.866,-86.8619)">
                <path d="M386.864,35.43C407.057,27.575 407.36,35.088 429.374,34.946C412.906,30.443 411.374,22.674 393.681,35.541" style="fill:none;stroke:rgb(255,0,246);stroke-width:4px;"/>
            </g>
            <g transform="matrix(0.499946,0,0,0.499946,-483.866,-86.8619)">
                <path d="M424.223,35.526C425.089,40.736 425.955,45.946 426.821,51.156C418.416,52.471 418.314,52.087 417.811,53.06" style="fill:none;stroke:rgb(255,0,246);stroke-width:4px;"/>
            </g>
            <g transform="matrix(0.499946,0,0,0.499946,-483.866,-86.8619)">
                <path d="M433.79,53.06C421.988,61.786 422.581,63.749 403.012,64.557" style="fill:none;stroke:rgb(255,0,246);stroke-width:4px;"/>
            </g>
            <g transform="matrix(0.499946,0,0,0.499946,-483.866,-86.8619)">
                <path d="M427.938,37.744C436.748,37.247 463.318,33.25 455.421,47.009C452.077,52.835 451.186,50.018 444.698,49.669C428.046,48.774 426.8,52.309 426.751,50.871" style="fill:none;stroke:rgb(255,0,246);stroke-width:4px;"/>
            </g>
            <g transform="matrix(0.499946,0,0,0.499946,-483.866,-86.8619)">
                <path d="M434.063,43.478C435.03,47.253 434.686,46.797 435.035,52.713" style="fill:none;stroke:rgb(255,0,246);stroke-width:4px;"/>
            </g>
            <g transform="matrix(0.499946,0,0,0.499946,-483.866,-86.8619)">
                <path d="M442.074,46.021C442.316,46.96 444.766,46.979 440.158,62.965" style="fill:none;stroke:rgb(255,0,246);stroke-width:4px;"/>
            </g>
            <g transform="matrix(0.499946,0,0,0.499946,-483.866,-86.8619)">
                <path d="M276.333,34.406C286.543,47.539 283.964,48.278 286.069,64.815" style="fill:none;stroke:rgb(255,0,246);stroke-width:4px;"/>
            </g>
            <g transform="matrix(0.499946,0,0,0.499946,-483.866,-86.8619)">
                <path d="M280.453,42.528C287.494,42.387 294.534,42.246 301.575,42.105C299.783,49.461 297.99,56.816 296.198,64.171C287.456,65.323 278.713,66.474 269.971,67.626C271.43,67.85 372.025,77.532 287.993,63.673" style="fill:none;stroke:rgb(255,0,246);stroke-width:4px;"/>
            </g>
            <g transform="matrix(0.499946,0,0,0.499946,-483.866,-86.8619)">
                <path d="M278.949,69.672C282.845,87.963 286.385,93.006 303.426,84.412C310.239,80.977 311.437,80.5 308.379,73.283" style="fill:none;stroke:rgb(255,0,246);stroke-width:4px;"/>
            </g>
            <g transform="matrix(0.499946,0,0,0.499946,-483.866,-86.8619)">
                <path d="M335,292.812C299.476,300.267 302.737,307.649 304.229,310.044C309.866,319.09 374.293,304.663 319.935,292.333" style="fill:none;stroke:rgb(255,0,246);stroke-width:4px;"/>
            </g>
            <g transform="matrix(0.499946,0,0,0.499946,-483.866,-86.8619)">
                <path d="M303.588,292.186C280.385,304.418 280.761,304.227 280.377,304.411L274.197,319.603C289.496,321.063 288.934,321.434 303.094,326.125C326.876,334.004 326.698,319.497 351.451,323.544C357.063,310.527 360.873,308.115 349.217,300.344C329.98,287.52 328.363,294.314 297.434,296.674" style="fill:none;stroke:rgb(255,0,246);stroke-width:4px;"/>
            </g>
            <g transform="matrix(0.499946,0,0,0.499946,-483.866,-86.8619)">
                <path d="M277.217,320.008C282.134,331.221 282.5,330.38 284.433,342.59" style="fill:none;stroke:rgb(255,0,246);stroke-width:4px;"/>
            </g>
            <g transform="matrix(0.499946,0,0,0.499946,-483.866,-86.8619)">
                <path d="M302.991,332.103C304.801,339.403 304.164,338.873 305.329,346.763C329.907,342.228 340.729,352.242 342.65,327.82" style="fill:none;stroke:rgb(255,0,246);stroke-width:4px;"/>
            </g>
            <g transform="matrix(0.499946,0,0,0.499946,-483.866,-86.8619)">
                <path d="M353.956,316.478C365.55,339.235 326.416,353.142 324.991,352.783" style="fill:none;stroke:rgb(255,0,246);stroke-width:4px;"/>
            </g>
            <g transform="matrix(0.499946,0,0,0.499946,-483.866,-86.8619)">
                <path d="M293.321,349.334C281.785,348.946 259.995,348.56 271.152,348.56" style="fill:none;stroke:rgb(255,0,246);stroke-width:4px;"/>
            </g>
            <g transform="matrix(0.499946,0,0,0.499946,-483.866,-86.8619)">
                <path d="M309.012,314.09C318.41,309.018 318.234,311.267 328.779,310.928" style="fill:none;stroke:rgb(255,0,246);stroke-width:4px;"/>
            </g>
            <g transform="matrix(0.499946,0,0,0.499946,-483.866,-86.8619)">
                <path d="M316.346,309.609C318.008,304.537 319.467,306.737 331.499,305.341" style="fill:none;stroke:rgb(255,0,246);stroke-width:4px;"/>
            </g>
            <g transform="matrix(0.499946,0,0,0.499946,-483.866,-86.8619)">
                <path d="M411.886,225.014C438.793,220.213 427.048,244.01 422.956,246.21C407.279,254.641 409.132,232.789 409.269,231.168" style="fill:none;stroke:rgb(255,0,246);stroke-width:4px;"/>
            </g>
            <g transform="matrix(0.499946,0,0,0.499946,-483.866,-86.8619)">
                <path d="M329.421,111.166C374.956,121.555 336.991,136.749 335.125,136.903" style="fill:none;stroke:rgb(255,0,246);stroke-width:4px;"/>
            </g>
            <g transform="matrix(0.499946,0,0,0.499946,-483.866,-86.8619)">
                <path d="M481.895,165.529C481.34,165.849 462.009,177.017 483.922,173.275C487.392,172.682 486.978,171.576 484.416,169.125" style="fill:none;stroke:rgb(255,0,246);stroke-width:4px;"/>
            </g>
            <g transform="matrix(0.499946,0,0,0.499946,-483.866,-86.8619)">
                <path d="M347.308,90.522C359.616,93.403 360.151,92.269 368.019,102.601C411.678,103.471 410.682,108.54 453.682,108.94" style="fill:none;stroke:rgb(255,0,246);stroke-width:4px;"/>
            </g>
            <g transform="matrix(0.499946,0,0,0.499946,-483.866,-86.8619)">
                <path d="M465.415,312.129C479.672,295.313 477.356,273.343 477.665,269.902C482.466,283.656 481.224,284.29 485.396,287.616" style="fill:none;stroke:rgb(255,0,246);stroke-width:4px;"/>
            </g>
            <g transform="matrix(0.499946,0,0,0.499946,-483.866,-86.8619)">
                <path d="M475.041,296.32C467.214,298.885 441.424,304.422 438.485,305.053C440.78,305.608 455.768,309.233 467.169,312.056C464.339,325.158 466.771,324.828 465.862,338.074C469.713,331.683 473.563,325.291 477.414,318.9C487.696,321.564 497.978,324.228 508.26,326.892C505.659,324.454 502.243,322.998 499.643,320.561C498.763,319.737 498.878,319.748 489.32,309.586L503.015,299.996C490.598,295.528 491.238,295.443 478.38,292.731" style="fill:none;stroke:rgb(255,0,246);stroke-width:4px;"/>
            </g>
            <g transform="matrix(0.499946,0,0,0.499946,-483.866,-86.8619)">
                <path d="M373.34,218.801C356.39,218.543 356.917,217.879 340.468,217.378" style="fill:none;stroke:rgb(255,0,246);stroke-width:4px;"/>
            </g>
            <g transform="matrix(0.499946,0,0,0.499946,-483.866,-86.8619)">
                <path d="M365.881,235.501C360.048,236.247 354.379,238.028 348.546,238.774C347.523,238.905 347.593,238.846 335.685,239.747" style="fill:none;stroke:rgb(255,0,246);stroke-width:4px;"/>
            </g>
            <g transform="matrix(0.499946,0,0,0.499946,-483.866,-86.8619)">
                <path d="M307.693,135.901C293.04,134.808 293.802,135.61 279.93,134.574" style="fill:none;stroke:rgb(255,0,246);stroke-width:4px;"/>
            </g>
            <g transform="matrix(0.499946,0,0,0.499946,-483.866,-86.8619)">
                <path d="M301.974,121.285C287.413,122.543 248.158,125.021 243.477,125.317" style="fill:none;stroke:rgb(255,0,246);stroke-width:4px;"/>
            </g>
            <g transform="matrix(0.499946,0,0,0.499946,-483.866,-86.8619)">
                <path d="M470.737,170.57L457.028,170.57" style="fill:none;stroke:rgb(255,0,246);stroke-width:4px;"/>
            </g>
            <g transform="matrix(0.499946,0,0,0.499946,-483.866,-86.8619)">
                <path d="M539.552,55.448C519.75,52.543 520.397,52.07 500.608,50.524" style="fill:none;stroke:rgb(255,0,246);stroke-width:4px;"/>
            </g>
            <g transform="matrix(0.499946,0,0,0.499946,-483.866,-86.8619)">
                <path d="M141.134,60.776C111.216,56.597 111.41,56.01 82.268,65.559" style="fill:none;stroke:rgb(255,0,246);stroke-width:4px;"/>
            </g>
            <g transform="matrix(0.499946,0,0,0.499946,-483.866,-86.8619)">
                <path d="M134.324,44.503C109.719,43.917 110.177,43.773 85.732,44.252" style="fill:none;stroke:rgb(255,0,246);stroke-width:4px;"/>
            </g>
            <g transform="matrix(0.499946,0,0,0.499946,-483.866,-86.8619)">
                <path d="M256.301,324.025C242.001,321.374 242.552,321.661 228.007,317.288" style="fill:none;stroke:rgb(255,0,246);stroke-width:4px;"/>
            </g>
            <g transform="matrix(0.499946,0,0,0.499946,-483.866,-86.8619)">
                <path d="M1702.7,92.306C1704.33,90.106 1703.03,89.829 1708.9,58.712C1710.09,62.732 1712.06,66.493 1713.24,70.512C1713.67,71.968 1713.62,71.865 1718.38,88.776" style="fill:none;stroke:rgb(255,0,246);stroke-width:4px;"/>
            </g>
            <g transform="matrix(0.499946,0,0,0.499946,-483.866,-86.8619)">
                <path d="M1704.3,89.38C1701.33,89.156 1701.39,89.767 1667.1,87.991C1674.76,91.913 1682.43,95.835 1690.09,99.756C1682.5,120.565 1682.56,119.882 1677.99,141.104C1685.02,132.575 1692.05,124.046 1699.08,115.517C1720.17,137.247 1720.12,136.939 1746.93,151.19C1745.13,149.012 1745.53,148.813 1724.92,123.526C1727.92,122.495 1743.12,117.283 1761.14,107.229C1749.5,102.808 1737.87,98.386 1726.23,93.964L1733.79,94.856" style="fill:none;stroke:rgb(255,0,246);stroke-width:4px;"/>
            </g>
            <g transform="matrix(0.499946,0,0,0.499946,-483.866,-86.8619)">
                <path d="M1827.77,37.833C1825.07,53.925 1821.91,53.943 1805.34,52.251C1821.01,63.471 1817.99,65.311 1820.91,83.672C1822.14,82.256 1836.18,65.972 1836.18,65.972C1837.74,66.235 1837.34,66.876 1851.79,78.172L1844.15,62.505C1853.91,61.639 1863.67,60.772 1873.42,59.905L1845.11,55.356C1840.65,48.115 1836.19,40.874 1831.73,33.634C1826.06,49.464 1826.54,49.101 1824.08,65.412" style="fill:none;stroke:rgb(255,0,246);stroke-width:4px;"/>
            </g>
            <g transform="matrix(0.499946,0,0,0.499946,-483.866,-86.8619)">
                <path d="M1806.72,187.138C1821.05,169.458 1822.08,170.338 1828.04,148.743C1831.17,161.266 1829.51,161.084 1836.57,171.948" style="fill:none;stroke:rgb(255,0,246);stroke-width:4px;"/>
            </g>
            <g transform="matrix(0.499946,0,0,0.499946,-483.866,-86.8619)">
                <path d="M1814.12,184.544L1787.87,184.544C1810.24,198.738 1806.11,202.344 1807.36,229.582C1811.32,222.645 1815.29,215.708 1819.25,208.77C1833.08,218.45 1832.84,217.859 1847.95,224.345C1842.26,214.663 1843.1,214.998 1838.2,203.678C1843.53,202.96 1848.96,203.245 1854.29,202.527C1870.2,200.384 1867.54,193.892 1870.59,191.907C1862.06,190.642 1832.22,196.555 1851.75,172.159C1847.94,175.479 1844.13,178.799 1840.32,182.119" style="fill:none;stroke:rgb(255,0,246);stroke-width:4px;"/>
            </g>
            <g transform="matrix(0.499946,0,0,0.499946,-483.866,-86.8619)">
                <path d="M1192.41,196.933C1208.02,206.482 1210.18,220.559 1182.34,227.402" style="fill:none;stroke:rgb(255,0,246);stroke-width:4px;"/>
            </g>
            <g transform="matrix(0.499946,0,0,0.499946,-483.866,-86.8619)">
                <path d="M1248.29,54.902C1424.28,62.354 1423.78,61.692 1438.92,63.649C1432.06,41.211 1435,35.808 1411.88,31.185C1389.25,26.658 1390.44,33.268 1374.9,49.514C1374.8,47.389 1359.39,-6.02 1320.95,42.631C1316.12,40.787 1316.63,40.818 1289.66,27.693L1289.66,36.676C1260.11,-5.614 1252.44,50.345 1252.4,50.474L1241.26,49.028C1317.57,57.931 1331.47,49.943 1325.61,53.31C1316.36,58.63 1412.64,70.153 1429.34,64.358" style="fill:none;stroke:rgb(255,0,246);stroke-width:4px;"/>
            </g>
            <g transform="matrix(0.499946,0,0,0.499946,-483.866,-86.8619)">
                <path d="M1831.88,317.03C1835.2,324.199 1835.97,323.453 1849.4,339.709" style="fill:none;stroke:rgb(255,0,246);stroke-width:4px;"/>
            </g>
            <g transform="matrix(0.499946,0,0,0.499946,-483.866,-86.8619)">
                <path d="M1826.52,316.242C1831.75,318.711 1836.98,321.181 1842.21,323.65C1846.48,318.636 1869.6,291.493 1897.19,262.351C1893.91,268.433 1864.27,323.472 1857.26,338.917C1855.29,336.088 1853.33,333.259 1851.37,330.429" style="fill:none;stroke:rgb(255,0,246);stroke-width:4px;"/>
            </g>
            <g transform="matrix(0.499946,0,0,0.499946,-483.866,-86.8619)">
                <path d="M1263.9,304.789C1272.31,310.689 1270.86,311.272 1287.84,334.896L1282.22,327.636" style="fill:none;stroke:rgb(255,0,246);stroke-width:4px;"/>
            </g>
            <g transform="matrix(0.499946,0,0,0.499946,-483.866,-86.8619)">
                <path d="M1271.07,315.298C1271.83,312.923 1272,314.544 1279.33,322.36C1301.26,295.55 1302.5,297.74 1332.94,280.937C1319.78,312.77 1320.77,312.663 1302.82,342.107C1301.02,340.821 1284.93,329.324 1280.24,326.162" style="fill:none;stroke:rgb(255,0,246);stroke-width:4px;"/>
            </g>
        </g>
    </g>
</svg>
