<?xml version="1.0" encoding="UTF-8" standalone="no"?>
<!DOCTYPE svg PUBLIC "-//W3C//DTD SVG 1.1//EN" "http://www.w3.org/Graphics/SVG/1.1/DTD/svg11.dtd">
<svg width="100%" height="100%" viewBox="0 0 100 100" version="1.1" xmlns="http://www.w3.org/2000/svg" xmlns:xlink="http://www.w3.org/1999/xlink" xml:space="preserve" xmlns:serif="http://www.serif.com/" style="fill-rule:evenodd;clip-rule:evenodd;stroke-linecap:round;stroke-linejoin:round;stroke-miterlimit:1.5;">
    <g>
        <path d="M25.319,54.006C21.534,48.563 22.166,48.215 17.861,43.073C17.519,42.665 14.915,37.743 9.663,37.394C-1.862,36.628 6.625,49.892 8.351,53.732C13.085,64.261 18.49,69.948 19.634,71.151C29.833,81.882 36.649,71.013 32.131,64.566C25.173,54.639 24.473,50.528 26.144,47.211C27.31,44.897 32.924,43.312 36.42,47.607C43.591,56.416 43.447,56.444 49.732,65.949C53.175,71.157 61.575,68.38 61.814,65.538C62.689,55.15 56.586,55.521 51.34,43.294C48.766,37.294 44.127,33.879 53.309,29.27C58.887,26.471 61.485,31.944 67.516,40.35C69.781,43.507 72.701,48.075 72.971,48.836C73.264,49.661 75.614,52.105 74.902,56.483C74.586,58.426 66.375,65.086 57.969,52.76C57.225,51.669 52.976,45.438 48.535,39.221C42.667,31.006 33.919,37.992 36.901,45.166C40.166,53.022 40.246,53.032 44.257,57.039C44.596,57.378 49.761,66.452 50.23,67.276C54.378,74.565 42.305,80.732 35.644,69.56C34.594,67.798 34.202,68.107 33.33,66.238" style="fill:none;stroke:rgb(218,43,177);stroke-width:4px;"/>
        <path d="M72.475,47.575C73.945,46.842 74.086,45.787 84.765,40.834C90.23,38.299 95.764,41.56 95.89,45.669C95.97,48.302 97.756,51.205 88.998,57.246C88.088,57.874 63.941,77.777 57.389,73.631C55.277,72.295 53.273,70.25 52.173,68.05" style="fill:none;stroke:rgb(218,43,177);stroke-width:4px;"/>
    </g>
</svg>
